<svg width="1260" height="844" viewBox="0 0 1260 844" fill="none" xmlns="http://www.w3.org/2000/svg">
<g filter="url(#filter0_d)">
<rect x="60" y="45" width="1140" height="724" rx="5" fill="#1D2128"/>
</g>
<path d="M60 50C60 47.2386 62.2386 45 65 45H1195C1197.76 45 1200 47.2386 1200 50V140H60V50Z" fill="#16181C"/>
<path d="M503.919 101.288C506.319 101.288 508.383 100.688 509.367 99.968V96.8H506.895C506.583 98.768 505.959 99.656 504.063 99.656C501.999 99.656 500.559 98.552 500.559 92.744C500.559 87.272 501.807 85.736 504.063 85.736C505.719 85.736 506.271 86.672 506.655 88.496H509.247V85.232C508.095 84.488 506.463 84.032 504.111 84.032C499.503 84.032 496.359 86.792 496.359 92.888C496.359 98.288 499.023 101.288 503.919 101.288ZM523.29 94.712C523.29 90.512 520.794 88.472 517.314 88.472C513.498 88.472 511.098 91.04 511.098 94.928C511.098 98.96 513.354 101.312 517.122 101.312C520.458 101.312 523.29 99.272 523.29 94.712ZM519.378 94.616C519.378 98.312 518.658 99.824 517.242 99.824C515.514 99.824 515.01 98.336 515.01 94.976C515.01 91.184 515.682 90.008 517.194 90.008C518.634 90.008 519.378 91.136 519.378 94.616ZM537.357 92.12C537.357 89.648 535.845 88.496 533.877 88.496C532.005 88.496 530.733 89.456 529.701 90.632C529.629 89.672 529.173 88.736 529.005 88.472H528.645L524.781 89.432V90.488C525.981 90.536 526.221 90.776 526.221 92.528V98.24C526.221 99.608 525.957 99.896 524.757 99.92V101H531.261V99.92C530.013 99.896 529.797 99.584 529.797 98.288V91.928C530.421 91.448 531.141 91.016 532.197 91.016C533.205 91.016 533.781 91.52 533.781 92.96V98.288C533.781 99.584 533.565 99.896 532.341 99.92V101H538.773V99.92C537.621 99.896 537.357 99.608 537.357 98.24V92.12ZM547.389 88.784H544.485C544.485 87.56 544.581 86.12 544.701 85.256L542.205 85.568C541.605 86.48 541.245 87.656 541.101 88.736L539.493 89.384V90.608H540.933V97.856C540.933 100.496 542.157 101.312 544.341 101.312C545.661 101.312 546.693 101.024 547.605 100.448L547.245 99.2C546.693 99.416 546.309 99.488 545.877 99.488C544.677 99.488 544.509 98.84 544.509 97.064V90.608H547.005L547.389 88.784ZM555.492 99.224C553.188 99.224 552.276 98.12 552.18 95.408H559.476V94.376C559.476 90.704 557.94 88.472 554.172 88.472C550.692 88.472 548.34 90.8 548.34 94.856C548.34 98.936 550.524 101.288 554.244 101.288C556.38 101.288 557.964 100.64 559.26 99.368L558.684 98.384C557.652 98.936 556.5 99.224 555.492 99.224ZM554.196 89.96C555.444 89.96 555.924 90.872 555.924 93.776H552.204C552.372 90.848 552.972 89.96 554.196 89.96ZM573.427 92.12C573.427 89.648 571.915 88.496 569.947 88.496C568.075 88.496 566.803 89.456 565.771 90.632C565.699 89.672 565.243 88.736 565.075 88.472H564.715L560.851 89.432V90.488C562.051 90.536 562.291 90.776 562.291 92.528V98.24C562.291 99.608 562.027 99.896 560.827 99.92V101H567.331V99.92C566.083 99.896 565.867 99.584 565.867 98.288V91.928C566.491 91.448 567.211 91.016 568.267 91.016C569.275 91.016 569.851 91.52 569.851 92.96V98.288C569.851 99.584 569.635 99.896 568.411 99.92V101H574.843V99.92C573.691 99.896 573.427 99.608 573.427 98.24V92.12ZM583.459 88.784H580.555C580.555 87.56 580.651 86.12 580.771 85.256L578.275 85.568C577.675 86.48 577.315 87.656 577.171 88.736L575.563 89.384V90.608H577.003V97.856C577.003 100.496 578.227 101.312 580.411 101.312C581.731 101.312 582.763 101.024 583.675 100.448L583.315 99.2C582.763 99.416 582.379 99.488 581.947 99.488C580.747 99.488 580.579 98.84 580.579 97.064V90.608H583.075L583.459 88.784ZM595.291 94.592H597.571C602.179 94.592 603.499 92.048 603.499 89.408C603.499 85.928 601.315 84.32 597.523 84.32H589.891V85.472C591.139 85.496 591.523 85.832 591.523 87.2V98.192C591.523 99.56 591.139 99.896 589.891 99.896V101H597.331V99.896C595.699 99.896 595.291 99.536 595.291 98.168V94.592ZM599.491 89.456C599.491 92.048 598.795 92.816 596.899 92.816H595.291V86.024H596.707C598.795 86.024 599.491 86.936 599.491 89.456ZM616.993 94.712C616.993 90.512 614.497 88.472 611.017 88.472C607.201 88.472 604.801 91.04 604.801 94.928C604.801 98.96 607.057 101.312 610.825 101.312C614.161 101.312 616.993 99.272 616.993 94.712ZM613.081 94.616C613.081 98.312 612.361 99.824 610.945 99.824C609.217 99.824 608.713 98.336 608.713 94.976C608.713 91.184 609.385 90.008 610.897 90.008C612.337 90.008 613.081 91.136 613.081 94.616ZM623.068 101.312C626.428 101.312 628.348 99.824 628.348 97.232C628.348 95.048 627.004 93.776 624.628 93.248L622.876 92.84C621.892 92.624 621.46 92.24 621.46 91.448C621.46 90.512 622.084 90.032 623.188 90.032C624.412 90.032 625.228 90.512 625.42 91.88H627.628V89.336C626.98 89.048 625.636 88.472 623.476 88.472C620.836 88.472 618.652 89.816 618.652 92.528C618.652 94.616 619.828 95.84 621.82 96.272L623.668 96.656C624.796 96.896 625.348 97.328 625.348 98.312C625.348 99.368 624.532 99.824 623.356 99.824C622.036 99.824 621.148 99.368 620.98 97.688H618.604V100.28C619.276 100.64 620.524 101.312 623.068 101.312ZM637.295 88.784H634.391C634.391 87.56 634.487 86.12 634.607 85.256L632.111 85.568C631.511 86.48 631.151 87.656 631.007 88.736L629.399 89.384V90.608H630.839V97.856C630.839 100.496 632.063 101.312 634.247 101.312C635.567 101.312 636.599 101.024 637.511 100.448L637.151 99.2C636.599 99.416 636.215 99.488 635.783 99.488C634.583 99.488 634.415 98.84 634.415 97.064V90.608H636.911L637.295 88.784ZM644.769 101V99.92C643.521 99.896 643.305 99.608 643.305 98.24V88.592H642.777L638.289 89.432V90.488C639.489 90.536 639.729 90.776 639.729 92.528V98.24C639.729 99.608 639.465 99.896 638.265 99.92V101H644.769ZM643.497 85.4C643.497 84.248 642.585 83.312 641.409 83.312C640.209 83.312 639.249 84.248 639.249 85.4C639.249 86.576 640.209 87.512 641.361 87.512C642.561 87.512 643.497 86.576 643.497 85.4ZM658.435 92.12C658.435 89.648 656.923 88.496 654.955 88.496C653.083 88.496 651.811 89.456 650.779 90.632C650.707 89.672 650.251 88.736 650.083 88.472H649.723L645.859 89.432V90.488C647.059 90.536 647.299 90.776 647.299 92.528V98.24C647.299 99.608 647.035 99.896 645.835 99.92V101H652.339V99.92C651.091 99.896 650.875 99.584 650.875 98.288V91.928C651.499 91.448 652.219 91.016 653.275 91.016C654.283 91.016 654.859 91.52 654.859 92.96V98.288C654.859 99.584 654.643 99.896 653.419 99.92V101H659.851V99.92C658.699 99.896 658.435 99.608 658.435 98.24V92.12ZM666.262 105.752C669.814 105.752 672.406 104.48 672.406 101.432C672.406 98.84 670.798 98.024 667.726 97.88L665.422 97.784C664.942 97.76 664.75 97.544 664.75 97.232C664.75 96.848 665.086 96.584 665.59 96.344H665.878C670.27 96.296 671.23 94.352 671.23 92.72C671.23 91.712 670.75 91.016 670.126 90.584C670.702 90.824 671.158 90.92 671.71 90.92C672.43 90.92 673.054 90.656 673.678 90.224L672.454 87.944C671.782 88.52 670.846 89.096 670.006 89.096C669.43 89.096 669.214 89.024 668.638 88.88C667.918 88.688 667.126 88.472 666.142 88.472C663.022 88.472 660.982 89.936 660.982 92.504C660.982 94.352 662.158 95.624 664.126 96.032C662.494 96.464 661.462 97.376 661.462 98.576C661.462 99.632 661.99 100.52 663.262 100.664C663.766 100.736 665.086 100.808 665.902 100.832C668.422 100.88 669.19 101.24 669.19 102.44C669.19 103.616 668.446 104.288 666.382 104.288C664.606 104.288 663.91 103.808 663.91 102.656C663.91 102.2 664.006 101.864 664.198 101.504L661.822 101.528C661.15 101.792 660.574 102.392 660.574 103.208C660.574 104.888 662.854 105.752 666.262 105.752ZM666.118 94.928C665.11 94.928 664.534 94.208 664.534 92.456C664.534 90.632 665.086 89.96 666.118 89.96C667.246 89.96 667.75 90.608 667.75 92.528C667.75 94.232 667.222 94.928 666.118 94.928ZM689.073 98.576C689.145 98.792 689.193 99.008 689.193 99.176C689.193 99.656 688.809 99.848 687.729 99.896V101H694.545V99.896C693.561 99.776 693.321 99.392 692.937 98.288L688.161 84.32H685.137L680.601 98.288C680.193 99.56 679.857 99.776 678.825 99.896V101H684.129V99.896C683.073 99.848 682.593 99.776 682.593 99.176C682.593 99.032 682.617 98.84 682.689 98.576L683.289 96.512H688.425L689.073 98.576ZM684.969 90.728C685.401 89.264 685.593 88.448 685.713 87.968H685.833C685.929 88.448 686.121 89.336 686.553 90.68L687.849 94.736H683.793L684.969 90.728ZM705.561 89.456C704.721 88.904 703.521 88.496 701.625 88.496C698.289 88.496 695.457 90.776 695.457 95.096C695.457 99.296 698.097 101.288 701.313 101.288C703.137 101.288 704.769 100.64 705.873 99.344L705.225 98.432C704.217 99.032 703.521 99.296 702.393 99.296C700.593 99.296 699.153 98.144 699.153 94.544C699.153 90.872 700.497 89.984 701.625 89.984C702.609 89.984 702.801 90.608 702.897 92.096H705.561V89.456ZM714.779 88.784H711.875C711.875 87.56 711.971 86.12 712.091 85.256L709.595 85.568C708.995 86.48 708.635 87.656 708.491 88.736L706.883 89.384V90.608H708.323V97.856C708.323 100.496 709.547 101.312 711.731 101.312C713.051 101.312 714.083 101.024 714.995 100.448L714.635 99.2C714.083 99.416 713.699 99.488 713.267 99.488C712.067 99.488 711.899 98.84 711.899 97.064V90.608H714.395L714.779 88.784ZM722.253 101V99.92C721.005 99.896 720.789 99.608 720.789 98.24V88.592H720.261L715.773 89.432V90.488C716.973 90.536 717.213 90.776 717.213 92.528V98.24C717.213 99.608 716.949 99.896 715.749 99.92V101H722.253ZM720.981 85.4C720.981 84.248 720.069 83.312 718.893 83.312C717.693 83.312 716.733 84.248 716.733 85.4C716.733 86.576 717.693 87.512 718.845 87.512C720.045 87.512 720.981 86.576 720.981 85.4ZM730.009 101.12L733.537 91.376C733.969 90.224 734.257 90.008 735.217 89.888V88.784H730.201V89.888C731.185 89.912 731.617 90.152 731.617 90.728C731.617 90.872 731.569 91.064 731.497 91.304L729.961 96.032C729.721 96.824 729.505 97.688 729.481 97.88H729.337C729.289 97.52 729.145 96.824 728.881 96.032L727.249 91.304C727.153 91.064 727.105 90.872 727.105 90.704C727.105 90.2 727.465 89.912 728.473 89.888V88.784H721.969V89.888C722.809 90.008 723.049 90.224 723.505 91.376L727.249 101.12H730.009ZM742.339 101V99.92C741.091 99.896 740.875 99.608 740.875 98.24V88.592H740.347L735.859 89.432V90.488C737.059 90.536 737.299 90.776 737.299 92.528V98.24C737.299 99.608 737.035 99.896 735.835 99.92V101H742.339ZM741.067 85.4C741.067 84.248 740.155 83.312 738.979 83.312C737.779 83.312 736.819 84.248 736.819 85.4C736.819 86.576 737.779 87.512 738.931 87.512C740.131 87.512 741.067 86.576 741.067 85.4ZM751.037 88.784H748.133C748.133 87.56 748.229 86.12 748.349 85.256L745.853 85.568C745.253 86.48 744.893 87.656 744.749 88.736L743.141 89.384V90.608H744.581V97.856C744.581 100.496 745.805 101.312 747.989 101.312C749.309 101.312 750.341 101.024 751.253 100.448L750.893 99.2C750.341 99.416 749.957 99.488 749.525 99.488C748.325 99.488 748.157 98.84 748.157 97.064V90.608H750.653L751.037 88.784ZM754.095 105.968C756.951 105.56 758.439 103.76 759.471 100.928L762.951 91.376C763.383 90.224 763.671 90.008 764.631 89.888V88.784H759.615V89.888C760.719 89.936 761.079 90.056 761.079 90.584C761.079 90.728 761.055 90.896 760.983 91.112L759.351 96.344C759.087 97.208 758.895 98.048 758.847 98.288H758.727C758.679 98.024 758.559 97.184 758.247 96.224L756.591 91.112C756.495 90.872 756.447 90.68 756.447 90.536C756.447 90.128 756.783 89.936 757.887 89.888V88.784H751.383V89.888C752.271 90.008 752.511 90.296 752.919 91.424L754.767 96.512C755.583 98.696 755.871 99.68 756.183 100.928L757.575 100.808C756.735 102.728 755.007 103.28 752.895 103.664L754.095 105.968Z" fill="#FAFAFA"/>
<rect x="60" y="140" width="1140" height="35" fill="#111216"/>
<path d="M490.611 151.994V159.338C490.611 160.472 490.791 161.624 491.511 162.542C492.375 163.676 493.887 164.27 495.435 164.27C496.983 164.27 498.495 163.676 499.359 162.542C500.079 161.624 500.259 160.472 500.259 159.338V151.994H497.919V159.536C497.919 160.454 497.613 161.012 497.343 161.318C497.001 161.732 496.371 162.146 495.435 162.146C494.499 162.146 493.869 161.732 493.527 161.318C493.257 161.012 492.951 160.454 492.951 159.536V151.994H490.611ZM510.132 153.128C508.908 151.868 507.486 151.724 506.73 151.724C504.066 151.724 502.878 153.488 502.878 155.252C502.878 156.476 503.436 157.142 503.832 157.484C504.444 158.024 505.2 158.312 505.83 158.528C506.514 158.762 507.234 158.996 507.684 159.41C508.008 159.716 508.152 160.058 508.152 160.49C508.152 161.498 507.36 162.146 506.298 162.146C505.452 162.146 504.354 161.714 503.778 160.544L502.248 162.002C502.878 162.92 504.174 164.27 506.388 164.27C508.872 164.27 510.564 162.668 510.564 160.328C510.564 159.104 510.078 158.294 509.538 157.808C508.926 157.25 508.044 156.926 507.108 156.602C506.352 156.332 505.956 156.188 505.668 155.918C505.38 155.666 505.29 155.396 505.29 155.108C505.29 154.496 505.686 153.704 506.946 153.704C507.378 153.704 508.206 153.794 508.908 154.73L510.132 153.128ZM519.279 151.994H512.619V164H519.279V161.984H514.959V158.708H519.099V156.692H514.959V154.01H519.279V151.994ZM521.549 151.994V164H523.889V159.176H524.177L527.381 164H530.297L526.553 158.942C527.129 158.834 527.561 158.636 527.867 158.42C528.803 157.79 529.271 156.764 529.271 155.594C529.271 154.694 529.001 153.668 528.083 152.894C527.525 152.426 526.679 151.994 525.023 151.994H521.549ZM523.889 153.902H524.591C525.023 153.902 526.859 153.92 526.859 155.702C526.859 157.466 525.005 157.52 524.555 157.52H523.889V153.902ZM539.013 153.128C537.789 151.868 536.367 151.724 535.611 151.724C532.947 151.724 531.759 153.488 531.759 155.252C531.759 156.476 532.317 157.142 532.713 157.484C533.325 158.024 534.081 158.312 534.711 158.528C535.395 158.762 536.115 158.996 536.565 159.41C536.889 159.716 537.033 160.058 537.033 160.49C537.033 161.498 536.241 162.146 535.179 162.146C534.333 162.146 533.235 161.714 532.659 160.544L531.129 162.002C531.759 162.92 533.055 164.27 535.269 164.27C537.753 164.27 539.445 162.668 539.445 160.328C539.445 159.104 538.959 158.294 538.419 157.808C537.807 157.25 536.925 156.926 535.989 156.602C535.233 156.332 534.837 156.188 534.549 155.918C534.261 155.666 534.171 155.396 534.171 155.108C534.171 154.496 534.567 153.704 535.827 153.704C536.259 153.704 537.087 153.794 537.789 154.73L539.013 153.128ZM545.701 151.994V164H548.041V159.554H549.553C550.939 159.554 551.929 159.158 552.595 158.492C553.513 157.574 553.585 156.278 553.585 155.81C553.585 154.946 553.333 153.776 552.361 152.912C551.479 152.138 550.543 151.994 549.193 151.994H545.701ZM548.041 154.01H548.851C549.409 154.01 550.021 154.046 550.507 154.388C550.849 154.64 551.173 155.09 551.173 155.756C551.173 156.278 550.957 156.818 550.525 157.16C550.021 157.538 549.445 157.538 548.995 157.538H548.041V154.01ZM561.148 151.724C557.368 151.724 554.74 154.352 554.74 158.006C554.74 161.66 557.368 164.27 561.148 164.27C564.928 164.27 567.556 161.66 567.556 158.006C567.556 154.352 564.928 151.724 561.148 151.724ZM561.148 162.146C558.808 162.146 557.152 160.436 557.152 158.006C557.152 155.576 558.808 153.848 561.148 153.848C563.488 153.848 565.144 155.576 565.144 158.006C565.144 160.436 563.488 162.146 561.148 162.146ZM576.841 153.128C575.617 151.868 574.195 151.724 573.439 151.724C570.775 151.724 569.587 153.488 569.587 155.252C569.587 156.476 570.145 157.142 570.541 157.484C571.153 158.024 571.909 158.312 572.539 158.528C573.223 158.762 573.943 158.996 574.393 159.41C574.717 159.716 574.861 160.058 574.861 160.49C574.861 161.498 574.069 162.146 573.007 162.146C572.161 162.146 571.063 161.714 570.487 160.544L568.957 162.002C569.587 162.92 570.883 164.27 573.097 164.27C575.581 164.27 577.273 162.668 577.273 160.328C577.273 159.104 576.787 158.294 576.247 157.808C575.635 157.25 574.753 156.926 573.817 156.602C573.061 156.332 572.665 156.188 572.377 155.918C572.089 155.666 571.999 155.396 571.999 155.108C571.999 154.496 572.395 153.704 573.655 153.704C574.087 153.704 574.915 153.794 575.617 154.73L576.841 153.128ZM585.632 154.01V151.994H577.892V154.01H580.592V164H582.932V154.01H585.632ZM587.115 151.994V164H589.455V151.994H587.115ZM594.535 164V155.972L601.843 164H603.463V151.994H601.123V160.004L593.815 151.994H592.195V164H594.535ZM612.289 159.59H615.385C615.187 160.454 614.719 161.066 614.251 161.426C613.585 161.93 612.685 162.146 611.893 162.146C610.615 162.146 609.769 161.642 609.229 161.12C608.725 160.634 608.041 159.68 608.041 158.078C608.041 156.728 608.563 155.576 609.247 154.91C609.985 154.19 611.065 153.848 612.019 153.848C612.577 153.848 613.207 153.974 613.711 154.226C614.089 154.424 614.701 154.838 615.115 155.648L617.149 154.55C616.519 153.47 615.673 152.75 614.899 152.354C613.981 151.868 613.027 151.724 612.127 151.724C609.805 151.724 608.293 152.642 607.393 153.56C606.673 154.28 605.629 155.702 605.629 158.024C605.629 160.724 606.997 162.236 607.411 162.65C608.725 163.964 610.273 164.27 611.767 164.27C613.261 164.27 614.791 163.928 616.033 162.686C617.689 161.048 617.797 158.528 617.797 157.718V157.574H612.289V159.59ZM632.864 160.832C632.162 161.66 631.172 162.146 630.056 162.146C628.04 162.146 625.988 160.706 625.988 158.042C625.988 155.828 627.554 153.848 629.966 153.848C630.398 153.848 631.766 153.938 632.864 155.198V152.462C631.766 151.868 630.758 151.724 629.912 151.724C628.202 151.724 626.708 152.174 625.502 153.308C624.476 154.262 623.576 155.828 623.576 158.006C623.576 159.77 624.116 161.264 625.502 162.596C626.51 163.55 627.788 164.27 629.894 164.27C631.19 164.27 632.144 163.946 632.864 163.568V160.832ZM640.847 151.724C637.067 151.724 634.439 154.352 634.439 158.006C634.439 161.66 637.067 164.27 640.847 164.27C644.627 164.27 647.255 161.66 647.255 158.006C647.255 154.352 644.627 151.724 640.847 151.724ZM640.847 162.146C638.507 162.146 636.851 160.436 636.851 158.006C636.851 155.576 638.507 153.848 640.847 153.848C643.187 153.848 644.843 155.576 644.843 158.006C644.843 160.436 643.187 162.146 640.847 162.146ZM651.752 164V155.972L659.06 164H660.68V151.994H658.34V160.004L651.032 151.994H649.412V164H651.752ZM669.902 154.01V151.994H662.162V154.01H664.862V164H667.202V154.01H669.902ZM678.045 151.994H671.385V164H678.045V161.984H673.725V158.708H677.865V156.692H673.725V154.01H678.045V151.994ZM682.654 164V155.972L689.962 164H691.582V151.994H689.242V160.004L681.934 151.994H680.314V164H682.654ZM700.804 154.01V151.994H693.064V154.01H695.764V164H698.104V154.01H700.804ZM706.488 151.994V164H708.828V151.994H706.488ZM713.908 164V155.972L721.216 164H722.836V151.994H720.496V160.004L713.188 151.994H711.568V164H713.908Z" fill="#73737D"/>
<path d="M731.723 151.994V159.734C731.723 160.472 731.741 161.264 731.453 161.678C731.327 161.876 731.039 162.092 730.535 162.092C729.977 162.092 729.599 161.786 729.365 161.444L727.943 163.154C728.807 163.982 729.833 164.27 730.697 164.27C731.417 164.27 732.137 164.072 732.659 163.73C733.991 162.83 734.063 161.156 734.063 160.094V151.994H731.723ZM736.793 151.994V159.338C736.793 160.472 736.973 161.624 737.693 162.542C738.557 163.676 740.069 164.27 741.617 164.27C743.165 164.27 744.677 163.676 745.541 162.542C746.261 161.624 746.441 160.472 746.441 159.338V151.994H744.101V159.536C744.101 160.454 743.795 161.012 743.525 161.318C743.183 161.732 742.553 162.146 741.617 162.146C740.681 162.146 740.051 161.732 739.709 161.318C739.439 161.012 739.133 160.454 739.133 159.536V151.994H736.793ZM751.525 164V155.972L758.833 164H760.453V151.994H758.113V160.004L750.805 151.994H749.185V164H751.525ZM769.855 151.994H763.195V164H769.855V161.984H765.535V158.708H769.675V156.692H765.535V154.01H769.855V151.994Z" fill="#FAFAFA"/>
<path d="M144.892 670.404H144.038L141.462 671.706V673.176L143.478 672.154V679H144.892V670.404Z" fill="#858E97"/>
<path d="M179.818 672.77C179.818 673.512 179.076 674.24 178.194 675.22L175.646 678.048V679H181.372V677.726H177.634L179.482 675.668C180.364 674.674 181.232 673.806 181.232 672.756C181.232 671.23 180.224 670.264 178.502 670.264C176.906 670.264 175.8 671.384 175.632 672.98H177.13C177.186 672.168 177.648 671.552 178.502 671.552C179.314 671.552 179.818 672.056 179.818 672.77Z" fill="#858E97"/>
<path d="M211.85 675.22H212.396C213.306 675.22 213.95 675.738 213.95 676.564C213.95 677.362 213.334 677.894 212.466 677.894C211.472 677.894 210.912 677.292 210.814 676.424H209.4C209.498 678.034 210.716 679.14 212.48 679.14C214.258 679.14 215.322 678.006 215.322 676.55C215.322 675.752 214.916 674.968 214.034 674.604C214.72 674.31 215.154 673.568 215.154 672.672C215.154 671.272 214.16 670.264 212.466 670.264C210.856 670.264 209.778 671.37 209.596 672.868H211.024C211.08 672.112 211.57 671.524 212.48 671.524C213.306 671.524 213.796 672.07 213.796 672.756C213.796 673.568 213.18 674.002 212.354 674.002H211.85V675.22Z" fill="#858E97"/>
<path d="M246.41 670.404H244.94L241.706 676.2V677.208H245.584V679H246.928V677.208H248.342V676.004H246.928V673.988H245.584V676.004H243.288L246.41 670.404Z" fill="#858E97"/>
<path d="M279.566 674.576C280.504 674.576 281.078 675.262 281.078 676.228C281.078 677.194 280.504 677.88 279.594 677.88C278.628 677.88 278.11 677.292 277.998 676.424H276.584C276.724 678.076 277.886 679.14 279.594 679.14C281.26 679.14 282.436 677.936 282.436 676.228C282.436 674.506 281.33 673.33 279.72 673.33C279.062 673.33 278.516 673.568 278.25 673.778V671.692H281.904V670.404H277.06V675.248H278.166C278.46 674.884 278.936 674.576 279.566 674.576Z" fill="#858E97"/>
<path d="M310.496 676.256C310.496 675.22 311.14 674.548 312.12 674.548C313.072 674.548 313.716 675.234 313.716 676.256C313.716 677.25 313.072 677.922 312.12 677.922C311.14 677.922 310.496 677.25 310.496 676.256ZM314.976 672.448C314.626 671.062 313.772 670.264 312.204 670.264C310.23 670.264 308.998 672.21 308.998 674.884C308.998 675.948 309.152 676.732 309.516 677.488C310.09 678.636 311.056 679.14 312.106 679.14C313.982 679.14 315.046 677.796 315.046 676.228C315.046 674.702 313.996 673.372 312.26 673.372C311.35 673.372 310.594 673.834 310.286 674.478V674.324C310.286 672.882 311.042 671.454 312.204 671.454C312.904 671.454 313.324 671.832 313.52 672.448H314.976Z" fill="#858E97"/>
<path d="M348.257 671.51V670.404H342.601V671.692H346.773L343.833 679H345.289L348.257 671.51Z" fill="#858E97"/>
<path d="M381.499 677.964C380.603 677.964 379.931 677.432 379.931 676.55C379.931 675.654 380.603 675.136 381.499 675.136C382.395 675.136 383.067 675.654 383.067 676.55C383.067 677.432 382.395 677.964 381.499 677.964ZM381.499 673.918C380.799 673.918 380.183 673.47 380.183 672.686C380.183 671.874 380.799 671.426 381.499 671.426C382.199 671.426 382.815 671.874 382.815 672.686C382.815 673.47 382.199 673.918 381.499 673.918ZM381.499 679.14C383.151 679.14 384.467 678.216 384.467 676.662C384.467 675.514 383.725 674.758 382.885 674.548C383.613 674.268 384.201 673.582 384.201 672.616C384.201 671.104 382.941 670.264 381.499 670.264C380.057 670.264 378.797 671.104 378.797 672.616C378.797 673.582 379.385 674.268 380.113 674.548C379.273 674.758 378.531 675.514 378.531 676.662C378.531 678.216 379.847 679.14 381.499 679.14Z" fill="#858E97"/>
<path d="M413.506 673.148C413.506 674.184 412.862 674.856 411.882 674.856C410.93 674.856 410.286 674.17 410.286 673.148C410.286 672.154 410.93 671.482 411.882 671.482C412.862 671.482 413.506 672.154 413.506 673.148ZM409.026 676.956C409.376 678.342 410.23 679.14 411.798 679.14C413.772 679.14 415.004 677.194 415.004 674.52C415.004 673.456 414.85 672.672 414.486 671.916C413.912 670.768 412.946 670.264 411.896 670.264C410.02 670.264 408.956 671.608 408.956 673.176C408.956 674.702 410.006 676.032 411.742 676.032C412.652 676.032 413.408 675.57 413.716 674.926V675.08C413.716 676.522 412.96 677.95 411.798 677.95C411.098 677.95 410.678 677.572 410.482 676.956H409.026Z" fill="#858E97"/>
<path d="M444.112 670.404H443.258L440.682 671.706V673.176L442.698 672.154V679H444.112V670.404ZM448.803 679.14C450.749 679.14 452.051 677.32 452.051 674.702C452.051 672.084 450.749 670.264 448.803 670.264C446.857 670.264 445.555 672.084 445.555 674.702C445.555 677.32 446.857 679.14 448.803 679.14ZM448.803 671.58C450.063 671.58 450.623 672.896 450.623 674.702C450.623 676.508 450.063 677.824 448.803 677.824C447.529 677.824 446.969 676.508 446.969 674.702C446.969 672.896 447.529 671.58 448.803 671.58Z" fill="#858E97"/>
<path d="M478.089 670.404H477.235L474.659 671.706V673.176L476.675 672.154V679H478.089V670.404ZM482.696 670.404H481.842L479.266 671.706V673.176L481.282 672.154V679H482.696V670.404Z" fill="#858E97"/>
<path d="M511.07 670.404H510.216L507.64 671.706V673.176L509.656 672.154V679H511.07V670.404ZM516.656 672.77C516.656 673.512 515.914 674.24 515.032 675.22L512.484 678.048V679H518.21V677.726H514.472L516.32 675.668C517.202 674.674 518.07 673.806 518.07 672.756C518.07 671.23 517.062 670.264 515.34 670.264C513.744 670.264 512.638 671.384 512.47 672.98H513.968C514.024 672.168 514.486 671.552 515.34 671.552C516.152 671.552 516.656 672.056 516.656 672.77Z" fill="#858E97"/>
<path d="M544.104 670.404H543.25L540.674 671.706V673.176L542.69 672.154V679H544.104V670.404ZM547.688 675.22H548.234C549.144 675.22 549.788 675.738 549.788 676.564C549.788 677.362 549.172 677.894 548.304 677.894C547.31 677.894 546.75 677.292 546.652 676.424H545.238C545.336 678.034 546.554 679.14 548.318 679.14C550.096 679.14 551.16 678.006 551.16 676.55C551.16 675.752 550.754 674.968 549.872 674.604C550.558 674.31 550.992 673.568 550.992 672.672C550.992 671.272 549.998 670.264 548.304 670.264C546.694 670.264 545.616 671.37 545.434 672.868H546.862C546.918 672.112 547.408 671.524 548.318 671.524C549.144 671.524 549.634 672.07 549.634 672.756C549.634 673.568 549.018 674.002 548.192 674.002H547.688V675.22Z" fill="#858E97"/>
<path d="M577.776 670.404H576.922L574.346 671.706V673.176L576.362 672.154V679H577.776V670.404ZM583.714 670.404H582.244L579.01 676.2V677.208H582.888V679H584.232V677.208H585.646V676.004H584.232V673.988H582.888V676.004H580.592L583.714 670.404Z" fill="#858E97"/>
<path d="M611.056 670.404H610.202L607.626 671.706V673.176L609.642 672.154V679H611.056V670.404ZM615.37 674.576C616.308 674.576 616.882 675.262 616.882 676.228C616.882 677.194 616.308 677.88 615.398 677.88C614.432 677.88 613.914 677.292 613.802 676.424H612.388C612.528 678.076 613.69 679.14 615.398 679.14C617.064 679.14 618.24 677.936 618.24 676.228C618.24 674.506 617.134 673.33 615.524 673.33C614.866 673.33 614.32 673.568 614.054 673.778V671.692H617.708V670.404H612.864V675.248H613.97C614.264 674.884 614.74 674.576 615.37 674.576Z" fill="#858E97"/>
<path d="M643.858 670.404H643.004L640.428 671.706V673.176L642.444 672.154V679H643.858V670.404ZM646.8 676.256C646.8 675.22 647.444 674.548 648.424 674.548C649.376 674.548 650.02 675.234 650.02 676.256C650.02 677.25 649.376 677.922 648.424 677.922C647.444 677.922 646.8 677.25 646.8 676.256ZM651.28 672.448C650.93 671.062 650.076 670.264 648.508 670.264C646.534 670.264 645.302 672.21 645.302 674.884C645.302 675.948 645.456 676.732 645.82 677.488C646.394 678.636 647.36 679.14 648.41 679.14C650.286 679.14 651.35 677.796 651.35 676.228C651.35 674.702 650.3 673.372 648.564 673.372C647.654 673.372 646.898 673.834 646.59 674.478V674.324C646.59 672.882 647.346 671.454 648.508 671.454C649.208 671.454 649.628 671.832 649.824 672.448H651.28Z" fill="#858E97"/>
<path d="M678.741 670.404H677.887L675.311 671.706V673.176L677.327 672.154V679H678.741V670.404ZM685.56 671.51V670.404H679.904V671.692H684.076L681.136 679H682.592L685.56 671.51Z" fill="#858E97"/>
<path d="M711.947 670.404H711.093L708.517 671.706V673.176L710.533 672.154V679H711.947V670.404ZM716.302 677.964C715.406 677.964 714.734 677.432 714.734 676.55C714.734 675.654 715.406 675.136 716.302 675.136C717.198 675.136 717.87 675.654 717.87 676.55C717.87 677.432 717.198 677.964 716.302 677.964ZM716.302 673.918C715.602 673.918 714.986 673.47 714.986 672.686C714.986 671.874 715.602 671.426 716.302 671.426C717.002 671.426 717.618 671.874 717.618 672.686C717.618 673.47 717.002 673.918 716.302 673.918ZM716.302 679.14C717.954 679.14 719.27 678.216 719.27 676.662C719.27 675.514 718.528 674.758 717.688 674.548C718.416 674.268 719.004 673.582 719.004 672.616C719.004 671.104 717.744 670.264 716.302 670.264C714.86 670.264 713.6 671.104 713.6 672.616C713.6 673.582 714.188 674.268 714.916 674.548C714.076 674.758 713.334 675.514 713.334 676.662C713.334 678.216 714.65 679.14 716.302 679.14Z" fill="#858E97"/>
<path d="M744.858 670.404H744.004L741.428 671.706V673.176L743.444 672.154V679H744.858V670.404ZM750.81 673.148C750.81 674.184 750.166 674.856 749.186 674.856C748.234 674.856 747.59 674.17 747.59 673.148C747.59 672.154 748.234 671.482 749.186 671.482C750.166 671.482 750.81 672.154 750.81 673.148ZM746.33 676.956C746.68 678.342 747.534 679.14 749.102 679.14C751.076 679.14 752.308 677.194 752.308 674.52C752.308 673.456 752.154 672.672 751.79 671.916C751.216 670.768 750.25 670.264 749.2 670.264C747.324 670.264 746.26 671.608 746.26 673.176C746.26 674.702 747.31 676.032 749.046 676.032C749.956 676.032 750.712 675.57 751.02 674.926V675.08C751.02 676.522 750.264 677.95 749.102 677.95C748.402 677.95 747.982 677.572 747.786 676.956H746.33Z" fill="#858E97"/>
<path d="M778.038 672.77C778.038 673.512 777.296 674.24 776.414 675.22L773.866 678.048V679H779.592V677.726H775.854L777.702 675.668C778.584 674.674 779.452 673.806 779.452 672.756C779.452 671.23 778.444 670.264 776.722 670.264C775.126 670.264 774.02 671.384 773.852 672.98H775.35C775.406 672.168 775.868 671.552 776.722 671.552C777.534 671.552 778.038 672.056 778.038 672.77ZM783.788 679.14C785.734 679.14 787.036 677.32 787.036 674.702C787.036 672.084 785.734 670.264 783.788 670.264C781.842 670.264 780.54 672.084 780.54 674.702C780.54 677.32 781.842 679.14 783.788 679.14ZM783.788 671.58C785.048 671.58 785.608 672.896 785.608 674.702C785.608 676.508 785.048 677.824 783.788 677.824C782.514 677.824 781.954 676.508 781.954 674.702C781.954 672.896 782.514 671.58 783.788 671.58Z" fill="#858E97"/>
<path d="M813.014 672.77C813.014 673.512 812.272 674.24 811.39 675.22L808.842 678.048V679H814.568V677.726H810.83L812.678 675.668C813.56 674.674 814.428 673.806 814.428 672.756C814.428 671.23 813.42 670.264 811.698 670.264C810.102 670.264 808.996 671.384 808.828 672.98H810.326C810.382 672.168 810.844 671.552 811.698 671.552C812.51 671.552 813.014 672.056 813.014 672.77ZM818.68 670.404H817.826L815.25 671.706V673.176L817.266 672.154V679H818.68V670.404Z" fill="#858E97"/>
<path d="M845.03 672.77C845.03 673.512 844.288 674.24 843.406 675.22L840.858 678.048V679H846.584V677.726H842.846L844.694 675.668C845.576 674.674 846.444 673.806 846.444 672.756C846.444 671.23 845.436 670.264 843.714 670.264C842.118 670.264 841.012 671.384 840.844 672.98H842.342C842.398 672.168 842.86 671.552 843.714 671.552C844.526 671.552 845.03 672.056 845.03 672.77ZM851.606 672.77C851.606 673.512 850.864 674.24 849.982 675.22L847.434 678.048V679H853.16V677.726H849.422L851.27 675.668C852.152 674.674 853.02 673.806 853.02 672.756C853.02 671.23 852.012 670.264 850.29 670.264C848.694 670.264 847.588 671.384 847.42 672.98H848.918C848.974 672.168 849.436 671.552 850.29 671.552C851.102 671.552 851.606 672.056 851.606 672.77Z" fill="#858E97"/>
<path d="M878.996 672.77C878.996 673.512 878.254 674.24 877.372 675.22L874.824 678.048V679H880.55V677.726H876.812L878.66 675.668C879.542 674.674 880.41 673.806 880.41 672.756C880.41 671.23 879.402 670.264 877.68 670.264C876.084 670.264 874.978 671.384 874.81 672.98H876.308C876.364 672.168 876.826 671.552 877.68 671.552C878.492 671.552 878.996 672.056 878.996 672.77ZM883.707 675.22H884.253C885.163 675.22 885.807 675.738 885.807 676.564C885.807 677.362 885.191 677.894 884.323 677.894C883.329 677.894 882.769 677.292 882.671 676.424H881.257C881.355 678.034 882.573 679.14 884.337 679.14C886.115 679.14 887.179 678.006 887.179 676.55C887.179 675.752 886.773 674.968 885.891 674.604C886.577 674.31 887.011 673.568 887.011 672.672C887.011 671.272 886.017 670.264 884.323 670.264C882.713 670.264 881.635 671.37 881.453 672.868H882.881C882.937 672.112 883.427 671.524 884.337 671.524C885.163 671.524 885.653 672.07 885.653 672.756C885.653 673.568 885.037 674.002 884.211 674.002H883.707V675.22Z" fill="#858E97"/>
<path d="M911.77 672.77C911.77 673.512 911.028 674.24 910.146 675.22L907.598 678.048V679H913.324V677.726H909.586L911.434 675.668C912.316 674.674 913.184 673.806 913.184 672.756C913.184 671.23 912.176 670.264 910.454 670.264C908.858 670.264 907.752 671.384 907.584 672.98H909.082C909.138 672.168 909.6 671.552 910.454 671.552C911.266 671.552 911.77 672.056 911.77 672.77ZM918.63 670.404H917.16L913.926 676.2V677.208H917.804V679H919.148V677.208H920.562V676.004H919.148V673.988H917.804V676.004H915.508L918.63 670.404Z" fill="#858E97"/>
<path d="M945.948 672.77C945.948 673.512 945.206 674.24 944.324 675.22L941.776 678.048V679H947.502V677.726H943.764L945.612 675.668C946.494 674.674 947.362 673.806 947.362 672.756C947.362 671.23 946.354 670.264 944.632 670.264C943.036 670.264 941.93 671.384 941.762 672.98H943.26C943.316 672.168 943.778 671.552 944.632 671.552C945.444 671.552 945.948 672.056 945.948 672.77ZM951.388 674.576C952.326 674.576 952.9 675.262 952.9 676.228C952.9 677.194 952.326 677.88 951.416 677.88C950.45 677.88 949.932 677.292 949.82 676.424H948.406C948.546 678.076 949.708 679.14 951.416 679.14C953.082 679.14 954.258 677.936 954.258 676.228C954.258 674.506 953.152 673.33 951.542 673.33C950.884 673.33 950.338 673.568 950.072 673.778V671.692H953.726V670.404H948.882V675.248H949.988C950.282 674.884 950.758 674.576 951.388 674.576Z" fill="#858E97"/>
<path d="M978.784 672.77C978.784 673.512 978.042 674.24 977.16 675.22L974.612 678.048V679H980.338V677.726H976.6L978.448 675.668C979.33 674.674 980.198 673.806 980.198 672.756C980.198 671.23 979.19 670.264 977.468 670.264C975.872 670.264 974.766 671.384 974.598 672.98H976.096C976.152 672.168 976.614 671.552 977.468 671.552C978.28 671.552 978.784 672.056 978.784 672.77ZM982.784 676.256C982.784 675.22 983.428 674.548 984.408 674.548C985.36 674.548 986.004 675.234 986.004 676.256C986.004 677.25 985.36 677.922 984.408 677.922C983.428 677.922 982.784 677.25 982.784 676.256ZM987.264 672.448C986.914 671.062 986.06 670.264 984.492 670.264C982.518 670.264 981.286 672.21 981.286 674.884C981.286 675.948 981.44 676.732 981.804 677.488C982.378 678.636 983.344 679.14 984.394 679.14C986.27 679.14 987.334 677.796 987.334 676.228C987.334 674.702 986.284 673.372 984.548 673.372C983.638 673.372 982.882 673.834 982.574 674.478V674.324C982.574 672.882 983.33 671.454 984.492 671.454C985.192 671.454 985.612 671.832 985.808 672.448H987.264Z" fill="#858E97"/>
<path d="M1013.67 672.77C1013.67 673.512 1012.92 674.24 1012.04 675.22L1009.49 678.048V679H1015.22V677.726H1011.48L1013.33 675.668C1014.21 674.674 1015.08 673.806 1015.08 672.756C1015.08 671.23 1014.07 670.264 1012.35 670.264C1010.75 670.264 1009.65 671.384 1009.48 672.98H1010.98C1011.03 672.168 1011.5 671.552 1012.35 671.552C1013.16 671.552 1013.67 672.056 1013.67 672.77ZM1021.54 671.51V670.404H1015.89V671.692H1020.06L1017.12 679H1018.58L1021.54 671.51Z" fill="#858E97"/>
<path d="M1045.87 672.77C1045.87 673.512 1045.13 674.24 1044.25 675.22L1041.7 678.048V679H1047.43V677.726H1043.69L1045.54 675.668C1046.42 674.674 1047.29 673.806 1047.29 672.756C1047.29 671.23 1046.28 670.264 1044.56 670.264C1042.96 670.264 1041.85 671.384 1041.69 672.98H1043.18C1043.24 672.168 1043.7 671.552 1044.56 671.552C1045.37 671.552 1045.87 672.056 1045.87 672.77ZM1051.29 677.964C1050.39 677.964 1049.72 677.432 1049.72 676.55C1049.72 675.654 1050.39 675.136 1051.29 675.136C1052.18 675.136 1052.85 675.654 1052.85 676.55C1052.85 677.432 1052.18 677.964 1051.29 677.964ZM1051.29 673.918C1050.59 673.918 1049.97 673.47 1049.97 672.686C1049.97 671.874 1050.59 671.426 1051.29 671.426C1051.99 671.426 1052.6 671.874 1052.6 672.686C1052.6 673.47 1051.99 673.918 1051.29 673.918ZM1051.29 679.14C1052.94 679.14 1054.25 678.216 1054.25 676.662C1054.25 675.514 1053.51 674.758 1052.67 674.548C1053.4 674.268 1053.99 673.582 1053.99 672.616C1053.99 671.104 1052.73 670.264 1051.29 670.264C1049.84 670.264 1048.58 671.104 1048.58 672.616C1048.58 673.582 1049.17 674.268 1049.9 674.548C1049.06 674.758 1048.32 675.514 1048.32 676.662C1048.32 678.216 1049.63 679.14 1051.29 679.14Z" fill="#858E97"/>
<path d="M1079.78 672.77C1079.78 673.512 1079.04 674.24 1078.16 675.22L1075.61 678.048V679H1081.34V677.726H1077.6L1079.45 675.668C1080.33 674.674 1081.2 673.806 1081.2 672.756C1081.2 671.23 1080.19 670.264 1078.47 670.264C1076.87 670.264 1075.77 671.384 1075.6 672.98H1077.1C1077.15 672.168 1077.61 671.552 1078.47 671.552C1079.28 671.552 1079.78 672.056 1079.78 672.77ZM1086.79 673.148C1086.79 674.184 1086.15 674.856 1085.17 674.856C1084.22 674.856 1083.57 674.17 1083.57 673.148C1083.57 672.154 1084.22 671.482 1085.17 671.482C1086.15 671.482 1086.79 672.154 1086.79 673.148ZM1082.31 676.956C1082.66 678.342 1083.52 679.14 1085.09 679.14C1087.06 679.14 1088.29 677.194 1088.29 674.52C1088.29 673.456 1088.14 672.672 1087.77 671.916C1087.2 670.768 1086.23 670.264 1085.18 670.264C1083.31 670.264 1082.24 671.608 1082.24 673.176C1082.24 674.702 1083.29 676.032 1085.03 676.032C1085.94 676.032 1086.7 675.57 1087 674.926V675.08C1087 676.522 1086.25 677.95 1085.09 677.95C1084.39 677.95 1083.97 677.572 1083.77 676.956H1082.31Z" fill="#858E97"/>
<path d="M1110.07 675.22H1110.62C1111.53 675.22 1112.17 675.738 1112.17 676.564C1112.17 677.362 1111.55 677.894 1110.69 677.894C1109.69 677.894 1109.13 677.292 1109.03 676.424H1107.62C1107.72 678.034 1108.94 679.14 1110.7 679.14C1112.48 679.14 1113.54 678.006 1113.54 676.55C1113.54 675.752 1113.14 674.968 1112.25 674.604C1112.94 674.31 1113.37 673.568 1113.37 672.672C1113.37 671.272 1112.38 670.264 1110.69 670.264C1109.08 670.264 1108 671.37 1107.82 672.868H1109.24C1109.3 672.112 1109.79 671.524 1110.7 671.524C1111.53 671.524 1112.02 672.07 1112.02 672.756C1112.02 673.568 1111.4 674.002 1110.57 674.002H1110.07V675.22ZM1117.75 679.14C1119.7 679.14 1121 677.32 1121 674.702C1121 672.084 1119.7 670.264 1117.75 670.264C1115.81 670.264 1114.51 672.084 1114.51 674.702C1114.51 677.32 1115.81 679.14 1117.75 679.14ZM1117.75 671.58C1119.01 671.58 1119.57 672.896 1119.57 674.702C1119.57 676.508 1119.01 677.824 1117.75 677.824C1116.48 677.824 1115.92 676.508 1115.92 674.702C1115.92 672.896 1116.48 671.58 1117.75 671.58Z" fill="#858E97"/>
<path d="M134.715 228.22H135.261C136.171 228.22 136.815 228.738 136.815 229.564C136.815 230.362 136.199 230.894 135.331 230.894C134.337 230.894 133.777 230.292 133.679 229.424H132.265C132.363 231.034 133.581 232.14 135.345 232.14C137.123 232.14 138.187 231.006 138.187 229.55C138.187 228.752 137.781 227.968 136.899 227.604C137.585 227.31 138.019 226.568 138.019 225.672C138.019 224.272 137.025 223.264 135.331 223.264C133.721 223.264 132.643 224.37 132.461 225.868H133.889C133.945 225.112 134.435 224.524 135.345 224.524C136.171 224.524 136.661 225.07 136.661 225.756C136.661 226.568 136.045 227.002 135.219 227.002H134.715V228.22ZM143.591 226.148C143.591 227.184 142.947 227.856 141.967 227.856C141.015 227.856 140.371 227.17 140.371 226.148C140.371 225.154 141.015 224.482 141.967 224.482C142.947 224.482 143.591 225.154 143.591 226.148ZM139.111 229.956C139.461 231.342 140.315 232.14 141.883 232.14C143.857 232.14 145.089 230.194 145.089 227.52C145.089 226.456 144.935 225.672 144.571 224.916C143.997 223.768 143.031 223.264 141.981 223.264C140.105 223.264 139.041 224.608 139.041 226.176C139.041 227.702 140.091 229.032 141.827 229.032C142.737 229.032 143.493 228.57 143.801 227.926V228.08C143.801 229.522 143.045 230.95 141.883 230.95C141.183 230.95 140.763 230.572 140.567 229.956H139.111ZM147.117 232H148.223L153.389 223.404H152.283L147.117 232ZM147.089 225.21C147.089 224.72 147.481 224.314 147.971 224.314C148.461 224.314 148.867 224.72 148.867 225.21C148.867 225.7 148.461 226.092 147.971 226.092C147.481 226.092 147.089 225.7 147.089 225.21ZM154.467 230.194C154.467 229.116 153.613 228.262 152.535 228.262C151.457 228.262 150.589 229.116 150.589 230.194C150.589 231.272 151.457 232.14 152.535 232.14C153.613 232.14 154.467 231.272 154.467 230.194ZM149.917 225.21C149.917 224.132 149.049 223.264 147.971 223.264C146.893 223.264 146.039 224.132 146.039 225.21C146.039 226.288 146.893 227.142 147.971 227.142C149.049 227.142 149.917 226.288 149.917 225.21ZM153.417 230.194C153.417 230.684 153.025 231.09 152.535 231.09C152.045 231.09 151.639 230.684 151.639 230.194C151.639 229.704 152.045 229.312 152.535 229.312C153.025 229.312 153.417 229.704 153.417 230.194Z" fill="#FAFAFA"/>
<path d="M170.903 225.77C170.903 226.512 170.161 227.24 169.279 228.22L166.731 231.048V232H172.457V230.726H168.719L170.567 228.668C171.449 227.674 172.317 226.806 172.317 225.756C172.317 224.23 171.309 223.264 169.587 223.264C167.991 223.264 166.885 224.384 166.717 225.98H168.215C168.271 225.168 168.733 224.552 169.587 224.552C170.399 224.552 170.903 225.056 170.903 225.77ZM176.653 232.14C178.599 232.14 179.901 230.32 179.901 227.702C179.901 225.084 178.599 223.264 176.653 223.264C174.707 223.264 173.405 225.084 173.405 227.702C173.405 230.32 174.707 232.14 176.653 232.14ZM176.653 224.58C177.913 224.58 178.473 225.896 178.473 227.702C178.473 229.508 177.913 230.824 176.653 230.824C175.379 230.824 174.819 229.508 174.819 227.702C174.819 225.896 175.379 224.58 176.653 224.58ZM181.932 232H183.038L188.204 223.404H187.098L181.932 232ZM181.904 225.21C181.904 224.72 182.296 224.314 182.786 224.314C183.276 224.314 183.682 224.72 183.682 225.21C183.682 225.7 183.276 226.092 182.786 226.092C182.296 226.092 181.904 225.7 181.904 225.21ZM189.282 230.194C189.282 229.116 188.428 228.262 187.35 228.262C186.272 228.262 185.404 229.116 185.404 230.194C185.404 231.272 186.272 232.14 187.35 232.14C188.428 232.14 189.282 231.272 189.282 230.194ZM184.732 225.21C184.732 224.132 183.864 223.264 182.786 223.264C181.708 223.264 180.854 224.132 180.854 225.21C180.854 226.288 181.708 227.142 182.786 227.142C183.864 227.142 184.732 226.288 184.732 225.21ZM188.232 230.194C188.232 230.684 187.84 231.09 187.35 231.09C186.86 231.09 186.454 230.684 186.454 230.194C186.454 229.704 186.86 229.312 187.35 229.312C187.84 229.312 188.232 229.704 188.232 230.194Z" fill="#FAFAFA"/>
<path d="M207.864 230.964C206.968 230.964 206.296 230.432 206.296 229.55C206.296 228.654 206.968 228.136 207.864 228.136C208.76 228.136 209.432 228.654 209.432 229.55C209.432 230.432 208.76 230.964 207.864 230.964ZM207.864 226.918C207.164 226.918 206.548 226.47 206.548 225.686C206.548 224.874 207.164 224.426 207.864 224.426C208.564 224.426 209.18 224.874 209.18 225.686C209.18 226.47 208.564 226.918 207.864 226.918ZM207.864 232.14C209.516 232.14 210.832 231.216 210.832 229.662C210.832 228.514 210.09 227.758 209.25 227.548C209.978 227.268 210.566 226.582 210.566 225.616C210.566 224.104 209.306 223.264 207.864 223.264C206.422 223.264 205.162 224.104 205.162 225.616C205.162 226.582 205.75 227.268 206.478 227.548C205.638 227.758 204.896 228.514 204.896 229.662C204.896 231.216 206.212 232.14 207.864 232.14ZM212.809 232H213.915L219.081 223.404H217.975L212.809 232ZM212.781 225.21C212.781 224.72 213.173 224.314 213.663 224.314C214.153 224.314 214.559 224.72 214.559 225.21C214.559 225.7 214.153 226.092 213.663 226.092C213.173 226.092 212.781 225.7 212.781 225.21ZM220.159 230.194C220.159 229.116 219.305 228.262 218.227 228.262C217.149 228.262 216.281 229.116 216.281 230.194C216.281 231.272 217.149 232.14 218.227 232.14C219.305 232.14 220.159 231.272 220.159 230.194ZM215.609 225.21C215.609 224.132 214.741 223.264 213.663 223.264C212.585 223.264 211.731 224.132 211.731 225.21C211.731 226.288 212.585 227.142 213.663 227.142C214.741 227.142 215.609 226.288 215.609 225.21ZM219.109 230.194C219.109 230.684 218.717 231.09 218.227 231.09C217.737 231.09 217.331 230.684 217.331 230.194C217.331 229.704 217.737 229.312 218.227 229.312C218.717 229.312 219.109 229.704 219.109 230.194Z" fill="#FAFAFA"/>
<path d="M240.5 227.576C241.438 227.576 242.012 228.262 242.012 229.228C242.012 230.194 241.438 230.88 240.528 230.88C239.562 230.88 239.044 230.292 238.932 229.424H237.518C237.658 231.076 238.82 232.14 240.528 232.14C242.194 232.14 243.37 230.936 243.37 229.228C243.37 227.506 242.264 226.33 240.654 226.33C239.996 226.33 239.45 226.568 239.184 226.778V224.692H242.838V223.404H237.994V228.248H239.1C239.394 227.884 239.87 227.576 240.5 227.576ZM245.131 232H246.237L251.403 223.404H250.297L245.131 232ZM245.103 225.21C245.103 224.72 245.495 224.314 245.985 224.314C246.475 224.314 246.881 224.72 246.881 225.21C246.881 225.7 246.475 226.092 245.985 226.092C245.495 226.092 245.103 225.7 245.103 225.21ZM252.481 230.194C252.481 229.116 251.627 228.262 250.549 228.262C249.471 228.262 248.603 229.116 248.603 230.194C248.603 231.272 249.471 232.14 250.549 232.14C251.627 232.14 252.481 231.272 252.481 230.194ZM247.931 225.21C247.931 224.132 247.063 223.264 245.985 223.264C244.907 223.264 244.053 224.132 244.053 225.21C244.053 226.288 244.907 227.142 245.985 227.142C247.063 227.142 247.931 226.288 247.931 225.21ZM251.431 230.194C251.431 230.684 251.039 231.09 250.549 231.09C250.059 231.09 249.653 230.684 249.653 230.194C249.653 229.704 250.059 229.312 250.549 229.312C251.039 229.312 251.431 229.704 251.431 230.194Z" fill="#FAFAFA"/>
<path d="M275.683 225.77C275.683 226.512 274.941 227.24 274.059 228.22L271.511 231.048V232H277.237V230.726H273.499L275.347 228.668C276.229 227.674 277.097 226.806 277.097 225.756C277.097 224.23 276.089 223.264 274.367 223.264C272.771 223.264 271.665 224.384 271.497 225.98H272.995C273.051 225.168 273.513 224.552 274.367 224.552C275.179 224.552 275.683 225.056 275.683 225.77ZM279.151 232H280.257L285.423 223.404H284.317L279.151 232ZM279.123 225.21C279.123 224.72 279.515 224.314 280.005 224.314C280.495 224.314 280.901 224.72 280.901 225.21C280.901 225.7 280.495 226.092 280.005 226.092C279.515 226.092 279.123 225.7 279.123 225.21ZM286.501 230.194C286.501 229.116 285.647 228.262 284.569 228.262C283.491 228.262 282.623 229.116 282.623 230.194C282.623 231.272 283.491 232.14 284.569 232.14C285.647 232.14 286.501 231.272 286.501 230.194ZM281.951 225.21C281.951 224.132 281.083 223.264 280.005 223.264C278.927 223.264 278.073 224.132 278.073 225.21C278.073 226.288 278.927 227.142 280.005 227.142C281.083 227.142 281.951 226.288 281.951 225.21ZM285.451 230.194C285.451 230.684 285.059 231.09 284.569 231.09C284.079 231.09 283.673 230.684 283.673 230.194C283.673 229.704 284.079 229.312 284.569 229.312C285.059 229.312 285.451 229.704 285.451 230.194Z" fill="#FAFAFA"/>
<path d="M308.683 225.77C308.683 226.512 307.941 227.24 307.059 228.22L304.511 231.048V232H310.237V230.726H306.499L308.347 228.668C309.229 227.674 310.097 226.806 310.097 225.756C310.097 224.23 309.089 223.264 307.367 223.264C305.771 223.264 304.665 224.384 304.497 225.98H305.995C306.051 225.168 306.513 224.552 307.367 224.552C308.179 224.552 308.683 225.056 308.683 225.77ZM312.151 232H313.257L318.423 223.404H317.317L312.151 232ZM312.123 225.21C312.123 224.72 312.515 224.314 313.005 224.314C313.495 224.314 313.901 224.72 313.901 225.21C313.901 225.7 313.495 226.092 313.005 226.092C312.515 226.092 312.123 225.7 312.123 225.21ZM319.501 230.194C319.501 229.116 318.647 228.262 317.569 228.262C316.491 228.262 315.623 229.116 315.623 230.194C315.623 231.272 316.491 232.14 317.569 232.14C318.647 232.14 319.501 231.272 319.501 230.194ZM314.951 225.21C314.951 224.132 314.083 223.264 313.005 223.264C311.927 223.264 311.073 224.132 311.073 225.21C311.073 226.288 311.927 227.142 313.005 227.142C314.083 227.142 314.951 226.288 314.951 225.21ZM318.451 230.194C318.451 230.684 318.059 231.09 317.569 231.09C317.079 231.09 316.673 230.684 316.673 230.194C316.673 229.704 317.079 229.312 317.569 229.312C318.059 229.312 318.451 229.704 318.451 230.194Z" fill="#FAFAFA"/>
<path d="M341.758 223.404H340.904L338.328 224.706V226.176L340.344 225.154V232H341.758V223.404ZM344.167 232H345.273L350.439 223.404H349.333L344.167 232ZM344.139 225.21C344.139 224.72 344.531 224.314 345.021 224.314C345.511 224.314 345.917 224.72 345.917 225.21C345.917 225.7 345.511 226.092 345.021 226.092C344.531 226.092 344.139 225.7 344.139 225.21ZM351.517 230.194C351.517 229.116 350.663 228.262 349.585 228.262C348.507 228.262 347.639 229.116 347.639 230.194C347.639 231.272 348.507 232.14 349.585 232.14C350.663 232.14 351.517 231.272 351.517 230.194ZM346.967 225.21C346.967 224.132 346.099 223.264 345.021 223.264C343.943 223.264 343.089 224.132 343.089 225.21C343.089 226.288 343.943 227.142 345.021 227.142C346.099 227.142 346.967 226.288 346.967 225.21ZM350.467 230.194C350.467 230.684 350.075 231.09 349.585 231.09C349.095 231.09 348.689 230.684 348.689 230.194C348.689 229.704 349.095 229.312 349.585 229.312C350.075 229.312 350.467 229.704 350.467 230.194Z" fill="#FAFAFA"/>
<path d="M377.758 223.404H376.904L374.328 224.706V226.176L376.344 225.154V232H377.758V223.404ZM380.167 232H381.273L386.439 223.404H385.333L380.167 232ZM380.139 225.21C380.139 224.72 380.531 224.314 381.021 224.314C381.511 224.314 381.917 224.72 381.917 225.21C381.917 225.7 381.511 226.092 381.021 226.092C380.531 226.092 380.139 225.7 380.139 225.21ZM387.517 230.194C387.517 229.116 386.663 228.262 385.585 228.262C384.507 228.262 383.639 229.116 383.639 230.194C383.639 231.272 384.507 232.14 385.585 232.14C386.663 232.14 387.517 231.272 387.517 230.194ZM382.967 225.21C382.967 224.132 382.099 223.264 381.021 223.264C379.943 223.264 379.089 224.132 379.089 225.21C379.089 226.288 379.943 227.142 381.021 227.142C382.099 227.142 382.967 226.288 382.967 225.21ZM386.467 230.194C386.467 230.684 386.075 231.09 385.585 231.09C385.095 231.09 384.689 230.684 384.689 230.194C384.689 229.704 385.095 229.312 385.585 229.312C386.075 229.312 386.467 229.704 386.467 230.194Z" fill="#FAFAFA"/>
<path d="M408.758 223.404H407.904L405.328 224.706V226.176L407.344 225.154V232H408.758V223.404ZM411.167 232H412.273L417.439 223.404H416.333L411.167 232ZM411.139 225.21C411.139 224.72 411.531 224.314 412.021 224.314C412.511 224.314 412.917 224.72 412.917 225.21C412.917 225.7 412.511 226.092 412.021 226.092C411.531 226.092 411.139 225.7 411.139 225.21ZM418.517 230.194C418.517 229.116 417.663 228.262 416.585 228.262C415.507 228.262 414.639 229.116 414.639 230.194C414.639 231.272 415.507 232.14 416.585 232.14C417.663 232.14 418.517 231.272 418.517 230.194ZM413.967 225.21C413.967 224.132 413.099 223.264 412.021 223.264C410.943 223.264 410.089 224.132 410.089 225.21C410.089 226.288 410.943 227.142 412.021 227.142C413.099 227.142 413.967 226.288 413.967 225.21ZM417.467 230.194C417.467 230.684 417.075 231.09 416.585 231.09C416.095 231.09 415.689 230.684 415.689 230.194C415.689 229.704 416.095 229.312 416.585 229.312C417.075 229.312 417.467 229.704 417.467 230.194Z" fill="#FAFAFA"/>
<path d="M442.758 223.404H441.904L439.328 224.706V226.176L441.344 225.154V232H442.758V223.404ZM445.167 232H446.273L451.439 223.404H450.333L445.167 232ZM445.139 225.21C445.139 224.72 445.531 224.314 446.021 224.314C446.511 224.314 446.917 224.72 446.917 225.21C446.917 225.7 446.511 226.092 446.021 226.092C445.531 226.092 445.139 225.7 445.139 225.21ZM452.517 230.194C452.517 229.116 451.663 228.262 450.585 228.262C449.507 228.262 448.639 229.116 448.639 230.194C448.639 231.272 449.507 232.14 450.585 232.14C451.663 232.14 452.517 231.272 452.517 230.194ZM447.967 225.21C447.967 224.132 447.099 223.264 446.021 223.264C444.943 223.264 444.089 224.132 444.089 225.21C444.089 226.288 444.943 227.142 446.021 227.142C447.099 227.142 447.967 226.288 447.967 225.21ZM451.467 230.194C451.467 230.684 451.075 231.09 450.585 231.09C450.095 231.09 449.689 230.684 449.689 230.194C449.689 229.704 450.095 229.312 450.585 229.312C451.075 229.312 451.467 229.704 451.467 230.194Z" fill="#FAFAFA"/>
<path d="M475.758 223.404H474.904L472.328 224.706V226.176L474.344 225.154V232H475.758V223.404ZM478.167 232H479.273L484.439 223.404H483.333L478.167 232ZM478.139 225.21C478.139 224.72 478.531 224.314 479.021 224.314C479.511 224.314 479.917 224.72 479.917 225.21C479.917 225.7 479.511 226.092 479.021 226.092C478.531 226.092 478.139 225.7 478.139 225.21ZM485.517 230.194C485.517 229.116 484.663 228.262 483.585 228.262C482.507 228.262 481.639 229.116 481.639 230.194C481.639 231.272 482.507 232.14 483.585 232.14C484.663 232.14 485.517 231.272 485.517 230.194ZM480.967 225.21C480.967 224.132 480.099 223.264 479.021 223.264C477.943 223.264 477.089 224.132 477.089 225.21C477.089 226.288 477.943 227.142 479.021 227.142C480.099 227.142 480.967 226.288 480.967 225.21ZM484.467 230.194C484.467 230.684 484.075 231.09 483.585 231.09C483.095 231.09 482.689 230.684 482.689 230.194C482.689 229.704 483.095 229.312 483.585 229.312C484.075 229.312 484.467 229.704 484.467 230.194Z" fill="#FAFAFA"/>
<path d="M513 232.14C514.946 232.14 516.248 230.32 516.248 227.702C516.248 225.084 514.946 223.264 513 223.264C511.054 223.264 509.752 225.084 509.752 227.702C509.752 230.32 511.054 232.14 513 232.14ZM513 224.58C514.26 224.58 514.82 225.896 514.82 227.702C514.82 229.508 514.26 230.824 513 230.824C511.726 230.824 511.166 229.508 511.166 227.702C511.166 225.896 511.726 224.58 513 224.58Z" fill="#FAFAFA"/>
<path d="M546 232.14C547.946 232.14 549.248 230.32 549.248 227.702C549.248 225.084 547.946 223.264 546 223.264C544.054 223.264 542.752 225.084 542.752 227.702C542.752 230.32 544.054 232.14 546 232.14ZM546 224.58C547.26 224.58 547.82 225.896 547.82 227.702C547.82 229.508 547.26 230.824 546 230.824C544.726 230.824 544.166 229.508 544.166 227.702C544.166 225.896 544.726 224.58 546 224.58Z" fill="#FAFAFA"/>
<path d="M580 232.14C581.946 232.14 583.248 230.32 583.248 227.702C583.248 225.084 581.946 223.264 580 223.264C578.054 223.264 576.752 225.084 576.752 227.702C576.752 230.32 578.054 232.14 580 232.14ZM580 224.58C581.26 224.58 581.82 225.896 581.82 227.702C581.82 229.508 581.26 230.824 580 230.824C578.726 230.824 578.166 229.508 578.166 227.702C578.166 225.896 578.726 224.58 580 224.58Z" fill="#FAFAFA"/>
<path d="M613 232.14C614.946 232.14 616.248 230.32 616.248 227.702C616.248 225.084 614.946 223.264 613 223.264C611.054 223.264 609.752 225.084 609.752 227.702C609.752 230.32 611.054 232.14 613 232.14ZM613 224.58C614.26 224.58 614.82 225.896 614.82 227.702C614.82 229.508 614.26 230.824 613 230.824C611.726 230.824 611.166 229.508 611.166 227.702C611.166 225.896 611.726 224.58 613 224.58Z" fill="#FAFAFA"/>
<path d="M646 232.14C647.946 232.14 649.248 230.32 649.248 227.702C649.248 225.084 647.946 223.264 646 223.264C644.054 223.264 642.752 225.084 642.752 227.702C642.752 230.32 644.054 232.14 646 232.14ZM646 224.58C647.26 224.58 647.82 225.896 647.82 227.702C647.82 229.508 647.26 230.824 646 230.824C644.726 230.824 644.166 229.508 644.166 227.702C644.166 225.896 644.726 224.58 646 224.58Z" fill="#FAFAFA"/>
<path d="M680 232.14C681.946 232.14 683.248 230.32 683.248 227.702C683.248 225.084 681.946 223.264 680 223.264C678.054 223.264 676.752 225.084 676.752 227.702C676.752 230.32 678.054 232.14 680 232.14ZM680 224.58C681.26 224.58 681.82 225.896 681.82 227.702C681.82 229.508 681.26 230.824 680 230.824C678.726 230.824 678.166 229.508 678.166 227.702C678.166 225.896 678.726 224.58 680 224.58Z" fill="#FAFAFA"/>
<path d="M714 232.14C715.946 232.14 717.248 230.32 717.248 227.702C717.248 225.084 715.946 223.264 714 223.264C712.054 223.264 710.752 225.084 710.752 227.702C710.752 230.32 712.054 232.14 714 232.14ZM714 224.58C715.26 224.58 715.82 225.896 715.82 227.702C715.82 229.508 715.26 230.824 714 230.824C712.726 230.824 712.166 229.508 712.166 227.702C712.166 225.896 712.726 224.58 714 224.58Z" fill="#FAFAFA"/>
<path d="M747 232.14C748.946 232.14 750.248 230.32 750.248 227.702C750.248 225.084 748.946 223.264 747 223.264C745.054 223.264 743.752 225.084 743.752 227.702C743.752 230.32 745.054 232.14 747 232.14ZM747 224.58C748.26 224.58 748.82 225.896 748.82 227.702C748.82 229.508 748.26 230.824 747 230.824C745.726 230.824 745.166 229.508 745.166 227.702C745.166 225.896 745.726 224.58 747 224.58Z" fill="#FAFAFA"/>
<path d="M780 232.14C781.946 232.14 783.248 230.32 783.248 227.702C783.248 225.084 781.946 223.264 780 223.264C778.054 223.264 776.752 225.084 776.752 227.702C776.752 230.32 778.054 232.14 780 232.14ZM780 224.58C781.26 224.58 781.82 225.896 781.82 227.702C781.82 229.508 781.26 230.824 780 230.824C778.726 230.824 778.166 229.508 778.166 227.702C778.166 225.896 778.726 224.58 780 224.58Z" fill="#FAFAFA"/>
<path d="M814 232.14C815.946 232.14 817.248 230.32 817.248 227.702C817.248 225.084 815.946 223.264 814 223.264C812.054 223.264 810.752 225.084 810.752 227.702C810.752 230.32 812.054 232.14 814 232.14ZM814 224.58C815.26 224.58 815.82 225.896 815.82 227.702C815.82 229.508 815.26 230.824 814 230.824C812.726 230.824 812.166 229.508 812.166 227.702C812.166 225.896 812.726 224.58 814 224.58Z" fill="#FAFAFA"/>
<path d="M847 232.14C848.946 232.14 850.248 230.32 850.248 227.702C850.248 225.084 848.946 223.264 847 223.264C845.054 223.264 843.752 225.084 843.752 227.702C843.752 230.32 845.054 232.14 847 232.14ZM847 224.58C848.26 224.58 848.82 225.896 848.82 227.702C848.82 229.508 848.26 230.824 847 230.824C845.726 230.824 845.166 229.508 845.166 227.702C845.166 225.896 845.726 224.58 847 224.58Z" fill="#FAFAFA"/>
<path d="M877.758 223.404H876.904L874.328 224.706V226.176L876.344 225.154V232H877.758V223.404ZM880.167 232H881.273L886.439 223.404H885.333L880.167 232ZM880.139 225.21C880.139 224.72 880.531 224.314 881.021 224.314C881.511 224.314 881.917 224.72 881.917 225.21C881.917 225.7 881.511 226.092 881.021 226.092C880.531 226.092 880.139 225.7 880.139 225.21ZM887.517 230.194C887.517 229.116 886.663 228.262 885.585 228.262C884.507 228.262 883.639 229.116 883.639 230.194C883.639 231.272 884.507 232.14 885.585 232.14C886.663 232.14 887.517 231.272 887.517 230.194ZM882.967 225.21C882.967 224.132 882.099 223.264 881.021 223.264C879.943 223.264 879.089 224.132 879.089 225.21C879.089 226.288 879.943 227.142 881.021 227.142C882.099 227.142 882.967 226.288 882.967 225.21ZM886.467 230.194C886.467 230.684 886.075 231.09 885.585 231.09C885.095 231.09 884.689 230.684 884.689 230.194C884.689 229.704 885.095 229.312 885.585 229.312C886.075 229.312 886.467 229.704 886.467 230.194Z" fill="#FAFAFA"/>
<path d="M910.683 225.77C910.683 226.512 909.941 227.24 909.059 228.22L906.511 231.048V232H912.237V230.726H908.499L910.347 228.668C911.229 227.674 912.097 226.806 912.097 225.756C912.097 224.23 911.089 223.264 909.367 223.264C907.771 223.264 906.665 224.384 906.497 225.98H907.995C908.051 225.168 908.513 224.552 909.367 224.552C910.179 224.552 910.683 225.056 910.683 225.77ZM914.151 232H915.257L920.423 223.404H919.317L914.151 232ZM914.123 225.21C914.123 224.72 914.515 224.314 915.005 224.314C915.495 224.314 915.901 224.72 915.901 225.21C915.901 225.7 915.495 226.092 915.005 226.092C914.515 226.092 914.123 225.7 914.123 225.21ZM921.501 230.194C921.501 229.116 920.647 228.262 919.569 228.262C918.491 228.262 917.623 229.116 917.623 230.194C917.623 231.272 918.491 232.14 919.569 232.14C920.647 232.14 921.501 231.272 921.501 230.194ZM916.951 225.21C916.951 224.132 916.083 223.264 915.005 223.264C913.927 223.264 913.073 224.132 913.073 225.21C913.073 226.288 913.927 227.142 915.005 227.142C916.083 227.142 916.951 226.288 916.951 225.21ZM920.451 230.194C920.451 230.684 920.059 231.09 919.569 231.09C919.079 231.09 918.673 230.684 918.673 230.194C918.673 229.704 919.079 229.312 919.569 229.312C920.059 229.312 920.451 229.704 920.451 230.194Z" fill="#FAFAFA"/>
<path d="M944.683 225.77C944.683 226.512 943.941 227.24 943.059 228.22L940.511 231.048V232H946.237V230.726H942.499L944.347 228.668C945.229 227.674 946.097 226.806 946.097 225.756C946.097 224.23 945.089 223.264 943.367 223.264C941.771 223.264 940.665 224.384 940.497 225.98H941.995C942.051 225.168 942.513 224.552 943.367 224.552C944.179 224.552 944.683 225.056 944.683 225.77ZM948.151 232H949.257L954.423 223.404H953.317L948.151 232ZM948.123 225.21C948.123 224.72 948.515 224.314 949.005 224.314C949.495 224.314 949.901 224.72 949.901 225.21C949.901 225.7 949.495 226.092 949.005 226.092C948.515 226.092 948.123 225.7 948.123 225.21ZM955.501 230.194C955.501 229.116 954.647 228.262 953.569 228.262C952.491 228.262 951.623 229.116 951.623 230.194C951.623 231.272 952.491 232.14 953.569 232.14C954.647 232.14 955.501 231.272 955.501 230.194ZM950.951 225.21C950.951 224.132 950.083 223.264 949.005 223.264C947.927 223.264 947.073 224.132 947.073 225.21C947.073 226.288 947.927 227.142 949.005 227.142C950.083 227.142 950.951 226.288 950.951 225.21ZM954.451 230.194C954.451 230.684 954.059 231.09 953.569 231.09C953.079 231.09 952.673 230.684 952.673 230.194C952.673 229.704 953.079 229.312 953.569 229.312C954.059 229.312 954.451 229.704 954.451 230.194Z" fill="#FAFAFA"/>
<path d="M977.683 225.77C977.683 226.512 976.941 227.24 976.059 228.22L973.511 231.048V232H979.237V230.726H975.499L977.347 228.668C978.229 227.674 979.097 226.806 979.097 225.756C979.097 224.23 978.089 223.264 976.367 223.264C974.771 223.264 973.665 224.384 973.497 225.98H974.995C975.051 225.168 975.513 224.552 976.367 224.552C977.179 224.552 977.683 225.056 977.683 225.77ZM981.151 232H982.257L987.423 223.404H986.317L981.151 232ZM981.123 225.21C981.123 224.72 981.515 224.314 982.005 224.314C982.495 224.314 982.901 224.72 982.901 225.21C982.901 225.7 982.495 226.092 982.005 226.092C981.515 226.092 981.123 225.7 981.123 225.21ZM988.501 230.194C988.501 229.116 987.647 228.262 986.569 228.262C985.491 228.262 984.623 229.116 984.623 230.194C984.623 231.272 985.491 232.14 986.569 232.14C987.647 232.14 988.501 231.272 988.501 230.194ZM983.951 225.21C983.951 224.132 983.083 223.264 982.005 223.264C980.927 223.264 980.073 224.132 980.073 225.21C980.073 226.288 980.927 227.142 982.005 227.142C983.083 227.142 983.951 226.288 983.951 225.21ZM987.451 230.194C987.451 230.684 987.059 231.09 986.569 231.09C986.079 231.09 985.673 230.684 985.673 230.194C985.673 229.704 986.079 229.312 986.569 229.312C987.059 229.312 987.451 229.704 987.451 230.194Z" fill="#FAFAFA"/>
<path d="M1011.68 225.77C1011.68 226.512 1010.94 227.24 1010.06 228.22L1007.51 231.048V232H1013.24V230.726H1009.5L1011.35 228.668C1012.23 227.674 1013.1 226.806 1013.1 225.756C1013.1 224.23 1012.09 223.264 1010.37 223.264C1008.77 223.264 1007.67 224.384 1007.5 225.98H1009C1009.05 225.168 1009.51 224.552 1010.37 224.552C1011.18 224.552 1011.68 225.056 1011.68 225.77ZM1015.15 232H1016.26L1021.42 223.404H1020.32L1015.15 232ZM1015.12 225.21C1015.12 224.72 1015.52 224.314 1016.01 224.314C1016.5 224.314 1016.9 224.72 1016.9 225.21C1016.9 225.7 1016.5 226.092 1016.01 226.092C1015.52 226.092 1015.12 225.7 1015.12 225.21ZM1022.5 230.194C1022.5 229.116 1021.65 228.262 1020.57 228.262C1019.49 228.262 1018.62 229.116 1018.62 230.194C1018.62 231.272 1019.49 232.14 1020.57 232.14C1021.65 232.14 1022.5 231.272 1022.5 230.194ZM1017.95 225.21C1017.95 224.132 1017.08 223.264 1016.01 223.264C1014.93 223.264 1014.07 224.132 1014.07 225.21C1014.07 226.288 1014.93 227.142 1016.01 227.142C1017.08 227.142 1017.95 226.288 1017.95 225.21ZM1021.45 230.194C1021.45 230.684 1021.06 231.09 1020.57 231.09C1020.08 231.09 1019.67 230.684 1019.67 230.194C1019.67 229.704 1020.08 229.312 1020.57 229.312C1021.06 229.312 1021.45 229.704 1021.45 230.194Z" fill="#FAFAFA"/>
<path d="M1042.72 228.22H1043.26C1044.17 228.22 1044.82 228.738 1044.82 229.564C1044.82 230.362 1044.2 230.894 1043.33 230.894C1042.34 230.894 1041.78 230.292 1041.68 229.424H1040.27C1040.36 231.034 1041.58 232.14 1043.35 232.14C1045.12 232.14 1046.19 231.006 1046.19 229.55C1046.19 228.752 1045.78 227.968 1044.9 227.604C1045.59 227.31 1046.02 226.568 1046.02 225.672C1046.02 224.272 1045.03 223.264 1043.33 223.264C1041.72 223.264 1040.64 224.37 1040.46 225.868H1041.89C1041.95 225.112 1042.44 224.524 1043.35 224.524C1044.17 224.524 1044.66 225.07 1044.66 225.756C1044.66 226.568 1044.05 227.002 1043.22 227.002H1042.72V228.22ZM1048.12 232H1049.22L1054.39 223.404H1053.28L1048.12 232ZM1048.09 225.21C1048.09 224.72 1048.48 224.314 1048.97 224.314C1049.46 224.314 1049.87 224.72 1049.87 225.21C1049.87 225.7 1049.46 226.092 1048.97 226.092C1048.48 226.092 1048.09 225.7 1048.09 225.21ZM1055.47 230.194C1055.47 229.116 1054.61 228.262 1053.54 228.262C1052.46 228.262 1051.59 229.116 1051.59 230.194C1051.59 231.272 1052.46 232.14 1053.54 232.14C1054.61 232.14 1055.47 231.272 1055.47 230.194ZM1050.92 225.21C1050.92 224.132 1050.05 223.264 1048.97 223.264C1047.89 223.264 1047.04 224.132 1047.04 225.21C1047.04 226.288 1047.89 227.142 1048.97 227.142C1050.05 227.142 1050.92 226.288 1050.92 225.21ZM1054.42 230.194C1054.42 230.684 1054.03 231.09 1053.54 231.09C1053.05 231.09 1052.64 230.684 1052.64 230.194C1052.64 229.704 1053.05 229.312 1053.54 229.312C1054.03 229.312 1054.42 229.704 1054.42 230.194Z" fill="#FAFAFA"/>
<path d="M1079.06 223.404H1077.59L1074.35 229.2V230.208H1078.23V232H1079.57V230.208H1080.99V229.004H1079.57V226.988H1078.23V229.004H1075.93L1079.06 223.404ZM1082.2 232H1083.31L1088.47 223.404H1087.37L1082.2 232ZM1082.17 225.21C1082.17 224.72 1082.56 224.314 1083.05 224.314C1083.54 224.314 1083.95 224.72 1083.95 225.21C1083.95 225.7 1083.54 226.092 1083.05 226.092C1082.56 226.092 1082.17 225.7 1082.17 225.21ZM1089.55 230.194C1089.55 229.116 1088.7 228.262 1087.62 228.262C1086.54 228.262 1085.67 229.116 1085.67 230.194C1085.67 231.272 1086.54 232.14 1087.62 232.14C1088.7 232.14 1089.55 231.272 1089.55 230.194ZM1085 225.21C1085 224.132 1084.13 223.264 1083.05 223.264C1081.98 223.264 1081.12 224.132 1081.12 225.21C1081.12 226.288 1081.98 227.142 1083.05 227.142C1084.13 227.142 1085 226.288 1085 225.21ZM1088.5 230.194C1088.5 230.684 1088.11 231.09 1087.62 231.09C1087.13 231.09 1086.72 230.684 1086.72 230.194C1086.72 229.704 1087.13 229.312 1087.62 229.312C1088.11 229.312 1088.5 229.704 1088.5 230.194Z" fill="#FAFAFA"/>
<path d="M1109.5 227.576C1110.44 227.576 1111.01 228.262 1111.01 229.228C1111.01 230.194 1110.44 230.88 1109.53 230.88C1108.56 230.88 1108.04 230.292 1107.93 229.424H1106.52C1106.66 231.076 1107.82 232.14 1109.53 232.14C1111.19 232.14 1112.37 230.936 1112.37 229.228C1112.37 227.506 1111.26 226.33 1109.65 226.33C1109 226.33 1108.45 226.568 1108.18 226.778V224.692H1111.84V223.404H1106.99V228.248H1108.1C1108.39 227.884 1108.87 227.576 1109.5 227.576ZM1114.13 232H1115.24L1120.4 223.404H1119.3L1114.13 232ZM1114.1 225.21C1114.1 224.72 1114.49 224.314 1114.98 224.314C1115.47 224.314 1115.88 224.72 1115.88 225.21C1115.88 225.7 1115.47 226.092 1114.98 226.092C1114.49 226.092 1114.1 225.7 1114.1 225.21ZM1121.48 230.194C1121.48 229.116 1120.63 228.262 1119.55 228.262C1118.47 228.262 1117.6 229.116 1117.6 230.194C1117.6 231.272 1118.47 232.14 1119.55 232.14C1120.63 232.14 1121.48 231.272 1121.48 230.194ZM1116.93 225.21C1116.93 224.132 1116.06 223.264 1114.98 223.264C1113.91 223.264 1113.05 224.132 1113.05 225.21C1113.05 226.288 1113.91 227.142 1114.98 227.142C1116.06 227.142 1116.93 226.288 1116.93 225.21ZM1120.43 230.194C1120.43 230.684 1120.04 231.09 1119.55 231.09C1119.06 231.09 1118.65 230.684 1118.65 230.194C1118.65 229.704 1119.06 229.312 1119.55 229.312C1120.04 229.312 1120.43 229.704 1120.43 230.194Z" fill="#FAFAFA"/>
<path d="M95.78 632.14C97.726 632.14 99.028 630.32 99.028 627.702C99.028 625.084 97.726 623.264 95.78 623.264C93.834 623.264 92.532 625.084 92.532 627.702C92.532 630.32 93.834 632.14 95.78 632.14ZM95.78 624.58C97.04 624.58 97.6 625.896 97.6 627.702C97.6 629.508 97.04 630.824 95.78 630.824C94.506 630.824 93.946 629.508 93.946 627.702C93.946 625.896 94.506 624.58 95.78 624.58ZM101.059 632H102.165L107.331 623.404H106.225L101.059 632ZM101.031 625.21C101.031 624.72 101.423 624.314 101.913 624.314C102.403 624.314 102.809 624.72 102.809 625.21C102.809 625.7 102.403 626.092 101.913 626.092C101.423 626.092 101.031 625.7 101.031 625.21ZM108.409 630.194C108.409 629.116 107.555 628.262 106.477 628.262C105.399 628.262 104.531 629.116 104.531 630.194C104.531 631.272 105.399 632.14 106.477 632.14C107.555 632.14 108.409 631.272 108.409 630.194ZM103.859 625.21C103.859 624.132 102.991 623.264 101.913 623.264C100.835 623.264 99.9805 624.132 99.9805 625.21C99.9805 626.288 100.835 627.142 101.913 627.142C102.991 627.142 103.859 626.288 103.859 625.21ZM107.359 630.194C107.359 630.684 106.967 631.09 106.477 631.09C105.987 631.09 105.581 630.684 105.581 630.194C105.581 629.704 105.987 629.312 106.477 629.312C106.967 629.312 107.359 629.704 107.359 630.194Z" fill="#858E97"/>
<path d="M95.402 581.576C96.34 581.576 96.914 582.262 96.914 583.228C96.914 584.194 96.34 584.88 95.43 584.88C94.464 584.88 93.946 584.292 93.834 583.424H92.42C92.56 585.076 93.722 586.14 95.43 586.14C97.096 586.14 98.272 584.936 98.272 583.228C98.272 581.506 97.166 580.33 95.556 580.33C94.898 580.33 94.352 580.568 94.086 580.778V578.692H97.74V577.404H92.896V582.248H94.002C94.296 581.884 94.772 581.576 95.402 581.576ZM100.033 586H101.139L106.305 577.404H105.199L100.033 586ZM100.005 579.21C100.005 578.72 100.397 578.314 100.887 578.314C101.377 578.314 101.783 578.72 101.783 579.21C101.783 579.7 101.377 580.092 100.887 580.092C100.397 580.092 100.005 579.7 100.005 579.21ZM107.383 584.194C107.383 583.116 106.529 582.262 105.451 582.262C104.373 582.262 103.505 583.116 103.505 584.194C103.505 585.272 104.373 586.14 105.451 586.14C106.529 586.14 107.383 585.272 107.383 584.194ZM102.833 579.21C102.833 578.132 101.965 577.264 100.887 577.264C99.8092 577.264 98.9552 578.132 98.9552 579.21C98.9552 580.288 99.8092 581.142 100.887 581.142C101.965 581.142 102.833 580.288 102.833 579.21ZM106.333 584.194C106.333 584.684 105.941 585.09 105.451 585.09C104.961 585.09 104.555 584.684 104.555 584.194C104.555 583.704 104.961 583.312 105.451 583.312C105.941 583.312 106.333 583.704 106.333 584.194Z" fill="#858E97"/>
<path d="M95.696 531.404H94.842L92.266 532.706V534.176L94.282 533.154V540H95.696V531.404ZM100.387 540.14C102.333 540.14 103.635 538.32 103.635 535.702C103.635 533.084 102.333 531.264 100.387 531.264C98.4414 531.264 97.1394 533.084 97.1394 535.702C97.1394 538.32 98.4414 540.14 100.387 540.14ZM100.387 532.58C101.647 532.58 102.207 533.896 102.207 535.702C102.207 537.508 101.647 538.824 100.387 538.824C99.1134 538.824 98.5534 537.508 98.5534 535.702C98.5534 533.896 99.1134 532.58 100.387 532.58ZM105.666 540H106.772L111.938 531.404H110.832L105.666 540ZM105.638 533.21C105.638 532.72 106.03 532.314 106.52 532.314C107.01 532.314 107.416 532.72 107.416 533.21C107.416 533.7 107.01 534.092 106.52 534.092C106.03 534.092 105.638 533.7 105.638 533.21ZM113.016 538.194C113.016 537.116 112.162 536.262 111.084 536.262C110.006 536.262 109.138 537.116 109.138 538.194C109.138 539.272 110.006 540.14 111.084 540.14C112.162 540.14 113.016 539.272 113.016 538.194ZM108.466 533.21C108.466 532.132 107.598 531.264 106.52 531.264C105.442 531.264 104.588 532.132 104.588 533.21C104.588 534.288 105.442 535.142 106.52 535.142C107.598 535.142 108.466 534.288 108.466 533.21ZM111.966 538.194C111.966 538.684 111.574 539.09 111.084 539.09C110.594 539.09 110.188 538.684 110.188 538.194C110.188 537.704 110.594 537.312 111.084 537.312C111.574 537.312 111.966 537.704 111.966 538.194Z" fill="#858E97"/>
<path d="M95.696 485.404H94.842L92.266 486.706V488.176L94.282 487.154V494H95.696V485.404ZM100.009 489.576C100.947 489.576 101.521 490.262 101.521 491.228C101.521 492.194 100.947 492.88 100.037 492.88C99.0714 492.88 98.5534 492.292 98.4414 491.424H97.0274C97.1674 493.076 98.3294 494.14 100.037 494.14C101.703 494.14 102.879 492.936 102.879 491.228C102.879 489.506 101.773 488.33 100.163 488.33C99.5054 488.33 98.9594 488.568 98.6934 488.778V486.692H102.347V485.404H97.5034V490.248H98.6094C98.9034 489.884 99.3794 489.576 100.009 489.576ZM104.641 494H105.747L110.913 485.404H109.807L104.641 494ZM104.613 487.21C104.613 486.72 105.005 486.314 105.495 486.314C105.985 486.314 106.391 486.72 106.391 487.21C106.391 487.7 105.985 488.092 105.495 488.092C105.005 488.092 104.613 487.7 104.613 487.21ZM111.991 492.194C111.991 491.116 111.137 490.262 110.059 490.262C108.981 490.262 108.113 491.116 108.113 492.194C108.113 493.272 108.981 494.14 110.059 494.14C111.137 494.14 111.991 493.272 111.991 492.194ZM107.441 487.21C107.441 486.132 106.573 485.264 105.495 485.264C104.417 485.264 103.563 486.132 103.563 487.21C103.563 488.288 104.417 489.142 105.495 489.142C106.573 489.142 107.441 488.288 107.441 487.21ZM110.941 492.194C110.941 492.684 110.549 493.09 110.059 493.09C109.569 493.09 109.163 492.684 109.163 492.194C109.163 491.704 109.569 491.312 110.059 491.312C110.549 491.312 110.941 491.704 110.941 492.194Z" fill="#858E97"/>
<path d="M96.606 441.77C96.606 442.512 95.864 443.24 94.982 444.22L92.434 447.048V448H98.16V446.726H94.422L96.27 444.668C97.152 443.674 98.02 442.806 98.02 441.756C98.02 440.23 97.012 439.264 95.29 439.264C93.694 439.264 92.588 440.384 92.42 441.98H93.918C93.974 441.168 94.436 440.552 95.29 440.552C96.102 440.552 96.606 441.056 96.606 441.77ZM102.356 448.14C104.302 448.14 105.604 446.32 105.604 443.702C105.604 441.084 104.302 439.264 102.356 439.264C100.41 439.264 99.1082 441.084 99.1082 443.702C99.1082 446.32 100.41 448.14 102.356 448.14ZM102.356 440.58C103.616 440.58 104.176 441.896 104.176 443.702C104.176 445.508 103.616 446.824 102.356 446.824C101.082 446.824 100.522 445.508 100.522 443.702C100.522 441.896 101.082 440.58 102.356 440.58ZM107.635 448H108.741L113.907 439.404H112.801L107.635 448ZM107.607 441.21C107.607 440.72 107.999 440.314 108.489 440.314C108.979 440.314 109.385 440.72 109.385 441.21C109.385 441.7 108.979 442.092 108.489 442.092C107.999 442.092 107.607 441.7 107.607 441.21ZM114.985 446.194C114.985 445.116 114.131 444.262 113.053 444.262C111.975 444.262 111.107 445.116 111.107 446.194C111.107 447.272 111.975 448.14 113.053 448.14C114.131 448.14 114.985 447.272 114.985 446.194ZM110.435 441.21C110.435 440.132 109.567 439.264 108.489 439.264C107.411 439.264 106.557 440.132 106.557 441.21C106.557 442.288 107.411 443.142 108.489 443.142C109.567 443.142 110.435 442.288 110.435 441.21ZM113.935 446.194C113.935 446.684 113.543 447.09 113.053 447.09C112.563 447.09 112.157 446.684 112.157 446.194C112.157 445.704 112.563 445.312 113.053 445.312C113.543 445.312 113.935 445.704 113.935 446.194Z" fill="#858E97"/>
<path d="M96.606 394.77C96.606 395.512 95.864 396.24 94.982 397.22L92.434 400.048V401H98.16V399.726H94.422L96.27 397.668C97.152 396.674 98.02 395.806 98.02 394.756C98.02 393.23 97.012 392.264 95.29 392.264C93.694 392.264 92.588 393.384 92.42 394.98H93.918C93.974 394.168 94.436 393.552 95.29 393.552C96.102 393.552 96.606 394.056 96.606 394.77ZM102.047 396.576C102.985 396.576 103.559 397.262 103.559 398.228C103.559 399.194 102.985 399.88 102.075 399.88C101.109 399.88 100.591 399.292 100.479 398.424H99.0645C99.2045 400.076 100.367 401.14 102.075 401.14C103.741 401.14 104.917 399.936 104.917 398.228C104.917 396.506 103.811 395.33 102.201 395.33C101.543 395.33 100.997 395.568 100.731 395.778V393.692H104.385V392.404H99.5405V397.248H100.647C100.941 396.884 101.417 396.576 102.047 396.576ZM106.678 401H107.784L112.95 392.404H111.844L106.678 401ZM106.65 394.21C106.65 393.72 107.042 393.314 107.532 393.314C108.022 393.314 108.428 393.72 108.428 394.21C108.428 394.7 108.022 395.092 107.532 395.092C107.042 395.092 106.65 394.7 106.65 394.21ZM114.028 399.194C114.028 398.116 113.174 397.262 112.096 397.262C111.018 397.262 110.15 398.116 110.15 399.194C110.15 400.272 111.018 401.14 112.096 401.14C113.174 401.14 114.028 400.272 114.028 399.194ZM109.478 394.21C109.478 393.132 108.61 392.264 107.532 392.264C106.454 392.264 105.6 393.132 105.6 394.21C105.6 395.288 106.454 396.142 107.532 396.142C108.61 396.142 109.478 395.288 109.478 394.21ZM112.978 399.194C112.978 399.684 112.586 400.09 112.096 400.09C111.606 400.09 111.2 399.684 111.2 399.194C111.2 398.704 111.606 398.312 112.096 398.312C112.586 398.312 112.978 398.704 112.978 399.194Z" fill="#858E97"/>
<path d="M94.604 351.22H95.15C96.06 351.22 96.704 351.738 96.704 352.564C96.704 353.362 96.088 353.894 95.22 353.894C94.226 353.894 93.666 353.292 93.568 352.424H92.154C92.252 354.034 93.47 355.14 95.234 355.14C97.012 355.14 98.076 354.006 98.076 352.55C98.076 351.752 97.67 350.968 96.788 350.604C97.474 350.31 97.908 349.568 97.908 348.672C97.908 347.272 96.914 346.264 95.22 346.264C93.61 346.264 92.532 347.37 92.35 348.868H93.778C93.834 348.112 94.324 347.524 95.234 347.524C96.06 347.524 96.55 348.07 96.55 348.756C96.55 349.568 95.934 350.002 95.108 350.002H94.604V351.22ZM101.91 350.576C102.848 350.576 103.422 351.262 103.422 352.228C103.422 353.194 102.848 353.88 101.938 353.88C100.972 353.88 100.454 353.292 100.342 352.424H98.9278C99.0678 354.076 100.23 355.14 101.938 355.14C103.604 355.14 104.78 353.936 104.78 352.228C104.78 350.506 103.674 349.33 102.064 349.33C101.406 349.33 100.86 349.568 100.594 349.778V347.692H104.248V346.404H99.4038V351.248H100.51C100.804 350.884 101.28 350.576 101.91 350.576ZM106.541 355H107.647L112.813 346.404H111.707L106.541 355ZM106.513 348.21C106.513 347.72 106.905 347.314 107.395 347.314C107.885 347.314 108.291 347.72 108.291 348.21C108.291 348.7 107.885 349.092 107.395 349.092C106.905 349.092 106.513 348.7 106.513 348.21ZM113.891 353.194C113.891 352.116 113.037 351.262 111.959 351.262C110.881 351.262 110.013 352.116 110.013 353.194C110.013 354.272 110.881 355.14 111.959 355.14C113.037 355.14 113.891 354.272 113.891 353.194ZM109.341 348.21C109.341 347.132 108.473 346.264 107.395 346.264C106.317 346.264 105.463 347.132 105.463 348.21C105.463 349.288 106.317 350.142 107.395 350.142C108.473 350.142 109.341 349.288 109.341 348.21ZM112.841 353.194C112.841 353.684 112.449 354.09 111.959 354.09C111.469 354.09 111.063 353.684 111.063 353.194C111.063 352.704 111.469 352.312 111.959 352.312C112.449 352.312 112.841 352.704 112.841 353.194Z" fill="#858E97"/>
<path d="M97.026 300.404H95.556L92.322 306.2V307.208H96.2V309H97.544V307.208H98.958V306.004H97.544V303.988H96.2V306.004H93.904L97.026 300.404ZM103.081 309.14C105.027 309.14 106.329 307.32 106.329 304.702C106.329 302.084 105.027 300.264 103.081 300.264C101.135 300.264 99.8328 302.084 99.8328 304.702C99.8328 307.32 101.135 309.14 103.081 309.14ZM103.081 301.58C104.341 301.58 104.901 302.896 104.901 304.702C104.901 306.508 104.341 307.824 103.081 307.824C101.807 307.824 101.247 306.508 101.247 304.702C101.247 302.896 101.807 301.58 103.081 301.58ZM108.359 309H109.465L114.631 300.404H113.525L108.359 309ZM108.331 302.21C108.331 301.72 108.723 301.314 109.213 301.314C109.703 301.314 110.109 301.72 110.109 302.21C110.109 302.7 109.703 303.092 109.213 303.092C108.723 303.092 108.331 302.7 108.331 302.21ZM115.709 307.194C115.709 306.116 114.855 305.262 113.777 305.262C112.699 305.262 111.831 306.116 111.831 307.194C111.831 308.272 112.699 309.14 113.777 309.14C114.855 309.14 115.709 308.272 115.709 307.194ZM111.159 302.21C111.159 301.132 110.291 300.264 109.213 300.264C108.135 300.264 107.281 301.132 107.281 302.21C107.281 303.288 108.135 304.142 109.213 304.142C110.291 304.142 111.159 303.288 111.159 302.21ZM114.659 307.194C114.659 307.684 114.267 308.09 113.777 308.09C113.287 308.09 112.881 307.684 112.881 307.194C112.881 306.704 113.287 306.312 113.777 306.312C114.267 306.312 114.659 306.704 114.659 307.194Z" fill="#858E97"/>
<path d="M97.026 254.404H95.556L92.322 260.2V261.208H96.2V263H97.544V261.208H98.958V260.004H97.544V257.988H96.2V260.004H93.904L97.026 254.404ZM102.771 258.576C103.709 258.576 104.283 259.262 104.283 260.228C104.283 261.194 103.709 261.88 102.799 261.88C101.833 261.88 101.315 261.292 101.203 260.424H99.7891C99.9291 262.076 101.091 263.14 102.799 263.14C104.465 263.14 105.641 261.936 105.641 260.228C105.641 258.506 104.535 257.33 102.925 257.33C102.267 257.33 101.721 257.568 101.455 257.778V255.692H105.109V254.404H100.265V259.248H101.371C101.665 258.884 102.141 258.576 102.771 258.576ZM107.402 263H108.508L113.674 254.404H112.568L107.402 263ZM107.374 256.21C107.374 255.72 107.766 255.314 108.256 255.314C108.746 255.314 109.152 255.72 109.152 256.21C109.152 256.7 108.746 257.092 108.256 257.092C107.766 257.092 107.374 256.7 107.374 256.21ZM114.752 261.194C114.752 260.116 113.898 259.262 112.82 259.262C111.742 259.262 110.874 260.116 110.874 261.194C110.874 262.272 111.742 263.14 112.82 263.14C113.898 263.14 114.752 262.272 114.752 261.194ZM110.202 256.21C110.202 255.132 109.334 254.264 108.256 254.264C107.178 254.264 106.324 255.132 106.324 256.21C106.324 257.288 107.178 258.142 108.256 258.142C109.334 258.142 110.202 257.288 110.202 256.21ZM113.702 261.194C113.702 261.684 113.31 262.09 112.82 262.09C112.33 262.09 111.924 261.684 111.924 261.194C111.924 260.704 112.33 260.312 112.82 260.312C113.31 260.312 113.702 260.704 113.702 261.194Z" fill="#858E97"/>
<line opacity="0.8" x1="128" y1="537.75" x2="1113.77" y2="537.75" stroke="#08080B" stroke-width="0.5"/>
<line opacity="0.8" x1="128" y1="584.75" x2="1113.77" y2="584.75" stroke="#08080B" stroke-width="0.5"/>
<line opacity="0.8" x1="128" y1="490.75" x2="1113.77" y2="490.75" stroke="#08080B" stroke-width="0.5"/>
<line opacity="0.8" x1="128" y1="443.75" x2="1113.77" y2="443.75" stroke="#08080B" stroke-width="0.5"/>
<line opacity="0.8" x1="128" y1="396.75" x2="1113.77" y2="396.75" stroke="#08080B" stroke-width="0.5"/>
<line opacity="0.8" x1="128" y1="349.75" x2="1113.77" y2="349.75" stroke="#08080B" stroke-width="0.5"/>
<line opacity="0.8" x1="128" y1="255.75" x2="1113.77" y2="255.75" stroke="#08080B" stroke-width="0.5"/>
<line opacity="0.8" x1="128" y1="302.75" x2="1113.77" y2="302.75" stroke="#08080B" stroke-width="0.5"/>
<line x1="128" y1="631.5" x2="1113.77" y2="631.5" stroke="#73737D"/>
<line opacity="0.8" x1="345.75" y1="656" x2="345.75" y2="254" stroke="#08080B" stroke-width="0.5"/>
<line opacity="0.8" x1="378.75" y1="656" x2="378.75" y2="254" stroke="#08080B" stroke-width="0.5"/>
<line opacity="0.8" x1="411.75" y1="656" x2="411.75" y2="254" stroke="#08080B" stroke-width="0.5"/>
<line opacity="0.8" x1="244.75" y1="656" x2="244.75" y2="254" stroke="#08080B" stroke-width="0.5"/>
<line opacity="0.8" x1="278.75" y1="656" x2="278.75" y2="254" stroke="#08080B" stroke-width="0.5"/>
<line opacity="0.8" x1="311.75" y1="656" x2="311.75" y2="254" stroke="#08080B" stroke-width="0.5"/>
<line opacity="0.8" x1="211.75" y1="656" x2="211.75" y2="254" stroke="#08080B" stroke-width="0.5"/>
<line opacity="0.8" x1="177.75" y1="656" x2="177.75" y2="254" stroke="#08080B" stroke-width="0.5"/>
<line opacity="0.8" x1="545.75" y1="656" x2="545.75" y2="254" stroke="#08080B" stroke-width="0.5"/>
<line opacity="0.8" x1="445.75" y1="656" x2="445.75" y2="254" stroke="#08080B" stroke-width="0.5"/>
<line opacity="0.8" x1="478.75" y1="656" x2="478.75" y2="254" stroke="#08080B" stroke-width="0.5"/>
<line opacity="0.8" x1="512.75" y1="656" x2="512.75" y2="254" stroke="#08080B" stroke-width="0.5"/>
<line opacity="0.8" x1="579.75" y1="656" x2="579.75" y2="254" stroke="#08080B" stroke-width="0.5"/>
<line opacity="0.8" x1="612.75" y1="656" x2="612.75" y2="254" stroke="#08080B" stroke-width="0.5"/>
<line opacity="0.8" x1="679.75" y1="656" x2="679.75" y2="254" stroke="#08080B" stroke-width="0.5"/>
<line opacity="0.8" x1="713.75" y1="656" x2="713.75" y2="254" stroke="#08080B" stroke-width="0.5"/>
<line opacity="0.8" x1="779.75" y1="656" x2="779.75" y2="254" stroke="#08080B" stroke-width="0.5"/>
<line opacity="0.8" x1="813.75" y1="656" x2="813.75" y2="254" stroke="#08080B" stroke-width="0.5"/>
<line opacity="0.8" x1="646.75" y1="656" x2="646.75" y2="254" stroke="#08080B" stroke-width="0.5"/>
<line opacity="0.8" x1="746.75" y1="656" x2="746.75" y2="254" stroke="#08080B" stroke-width="0.5"/>
<line opacity="0.8" x1="846.75" y1="656" x2="846.75" y2="254" stroke="#08080B" stroke-width="0.5"/>
<line opacity="0.8" x1="880.75" y1="656" x2="880.75" y2="254" stroke="#08080B" stroke-width="0.5"/>
<line opacity="0.8" x1="913.75" y1="656" x2="913.75" y2="254" stroke="#08080B" stroke-width="0.5"/>
<line opacity="0.8" x1="947.75" y1="656" x2="947.75" y2="254" stroke="#08080B" stroke-width="0.5"/>
<line opacity="0.8" x1="980.75" y1="656" x2="980.75" y2="254" stroke="#08080B" stroke-width="0.5"/>
<line opacity="0.8" x1="1014.75" y1="656" x2="1014.75" y2="254" stroke="#08080B" stroke-width="0.5"/>
<line opacity="0.8" x1="1047.75" y1="656" x2="1047.75" y2="254" stroke="#08080B" stroke-width="0.5"/>
<line opacity="0.8" x1="1114.75" y1="656" x2="1114.75" y2="254" stroke="#08080B" stroke-width="0.5"/>
<line opacity="0.8" x1="1081.75" y1="656" x2="1081.75" y2="254" stroke="#08080B" stroke-width="0.5"/>
<line x1="144.292" y1="656" x2="144.292" y2="254" stroke="#73737D"/>
<path d="M144 313L144 632" stroke="#6166DC" stroke-width="9" stroke-miterlimit="10" stroke-linecap="round" stroke-linejoin="round"/>
<path d="M178 444L178 632" stroke="#6166DC" stroke-width="9" stroke-miterlimit="10" stroke-linecap="round" stroke-linejoin="round"/>
<path d="M212 552L212 632" stroke="#6166DC" stroke-width="9" stroke-miterlimit="10" stroke-linecap="round" stroke-linejoin="round"/>
<path d="M245 586L245 632" stroke="#6166DC" stroke-width="9" stroke-miterlimit="10" stroke-linecap="round" stroke-linejoin="round"/>
<path d="M279 618L279 632" stroke="#6166DC" stroke-width="9" stroke-miterlimit="10" stroke-linecap="round" stroke-linejoin="round"/>
<path d="M312 618L312 632" stroke="#6166DC" stroke-width="9" stroke-miterlimit="10" stroke-linecap="round" stroke-linejoin="round"/>
<path d="M346 628L346 632" stroke="#6166DC" stroke-width="9" stroke-miterlimit="10" stroke-linecap="round" stroke-linejoin="round"/>
<path d="M379 628L379 632" stroke="#6166DC" stroke-width="9" stroke-miterlimit="10" stroke-linecap="round" stroke-linejoin="round"/>
<path d="M412 628L412 632" stroke="#6166DC" stroke-width="9" stroke-miterlimit="10" stroke-linecap="round" stroke-linejoin="round"/>
<path d="M446 628L446 632" stroke="#6166DC" stroke-width="9" stroke-miterlimit="10" stroke-linecap="round" stroke-linejoin="round"/>
<path d="M479 628L479 632" stroke="#6166DC" stroke-width="9" stroke-miterlimit="10" stroke-linecap="round" stroke-linejoin="round"/>
<path d="M881 628L881 632" stroke="#6166DC" stroke-width="9" stroke-miterlimit="10" stroke-linecap="round" stroke-linejoin="round"/>
<path d="M914 618L914 632" stroke="#6166DC" stroke-width="9" stroke-miterlimit="10" stroke-linecap="round" stroke-linejoin="round"/>
<path d="M948 618L948 632" stroke="#6166DC" stroke-width="9" stroke-miterlimit="10" stroke-linecap="round" stroke-linejoin="round"/>
<path d="M981 618L981 632" stroke="#6166DC" stroke-width="9" stroke-miterlimit="10" stroke-linecap="round" stroke-linejoin="round"/>
<path d="M1015 618L1015 632" stroke="#6166DC" stroke-width="9" stroke-miterlimit="10" stroke-linecap="round" stroke-linejoin="round"/>
<path d="M1048 610L1048 632" stroke="#6166DC" stroke-width="9" stroke-miterlimit="10" stroke-linecap="round" stroke-linejoin="round"/>
<path d="M1082 601L1082 632" stroke="#6166DC" stroke-width="9" stroke-miterlimit="10" stroke-linecap="round" stroke-linejoin="round"/>
<path d="M1114 585L1114 632" stroke="#6166DC" stroke-width="9" stroke-miterlimit="10" stroke-linecap="round" stroke-linejoin="round"/>
<g filter="url(#filter1_d)">
<path fill-rule="evenodd" clip-rule="evenodd" d="M119.761 268C118.319 268 117.149 269.169 117.149 270.612V294.989C117.149 296.431 118.319 297.601 119.761 297.601H138.73L144.12 302.824L149.51 297.601H168.479C169.922 297.601 171.091 296.431 171.091 294.989V270.612C171.091 269.169 169.922 268 168.479 268H119.761Z" fill="black" fill-opacity="0.9"/>
</g>
<path d="M134.287 282.475H134.898C135.917 282.475 136.638 283.055 136.638 283.979C136.638 284.873 135.948 285.468 134.977 285.468C133.864 285.468 133.237 284.794 133.127 283.823H131.545C131.654 285.625 133.018 286.863 134.992 286.863C136.982 286.863 138.173 285.593 138.173 283.964C138.173 283.07 137.719 282.193 136.732 281.785C137.5 281.456 137.985 280.626 137.985 279.623C137.985 278.056 136.873 276.927 134.977 276.927C133.174 276.927 131.968 278.165 131.764 279.842H133.362C133.425 278.996 133.974 278.338 134.992 278.338C135.917 278.338 136.465 278.949 136.465 279.717C136.465 280.626 135.776 281.112 134.851 281.112H134.287V282.475ZM144.222 280.156C144.222 281.315 143.501 282.067 142.404 282.067C141.338 282.067 140.618 281.3 140.618 280.156C140.618 279.043 141.338 278.291 142.404 278.291C143.501 278.291 144.222 279.043 144.222 280.156ZM139.207 284.418C139.599 285.97 140.555 286.863 142.31 286.863C144.52 286.863 145.899 284.685 145.899 281.691C145.899 280.5 145.726 279.623 145.319 278.777C144.676 277.492 143.595 276.927 142.42 276.927C140.32 276.927 139.129 278.432 139.129 280.187C139.129 281.895 140.304 283.384 142.247 283.384C143.266 283.384 144.112 282.867 144.457 282.146V282.318C144.457 283.932 143.611 285.531 142.31 285.531C141.526 285.531 141.056 285.108 140.837 284.418H139.207ZM148.169 286.706H149.407L155.19 277.084H153.952L148.169 286.706ZM148.138 279.106C148.138 278.557 148.576 278.103 149.125 278.103C149.673 278.103 150.128 278.557 150.128 279.106C150.128 279.654 149.673 280.093 149.125 280.093C148.576 280.093 148.138 279.654 148.138 279.106ZM156.396 284.685C156.396 283.478 155.44 282.522 154.234 282.522C153.027 282.522 152.055 283.478 152.055 284.685C152.055 285.891 153.027 286.863 154.234 286.863C155.44 286.863 156.396 285.891 156.396 284.685ZM151.303 279.106C151.303 277.899 150.332 276.927 149.125 276.927C147.918 276.927 146.962 277.899 146.962 279.106C146.962 280.312 147.918 281.268 149.125 281.268C150.332 281.268 151.303 280.312 151.303 279.106ZM155.221 284.685C155.221 285.233 154.782 285.687 154.234 285.687C153.685 285.687 153.231 285.233 153.231 284.685C153.231 284.136 153.685 283.697 154.234 283.697C154.782 283.697 155.221 284.136 155.221 284.685Z" fill="white"/>
<g filter="url(#filter2_d)">
<path fill-rule="evenodd" clip-rule="evenodd" d="M1089.76 535C1088.32 535 1087.15 536.169 1087.15 537.612V561.989C1087.15 563.431 1088.32 564.601 1089.76 564.601H1108.73L1114.12 569.824L1119.51 564.601H1138.48C1139.92 564.601 1141.09 563.431 1141.09 561.989V537.612C1141.09 536.169 1139.92 535 1138.48 535H1089.76Z" fill="black" fill-opacity="0.9"/>
</g>
<path d="M1109.08 548.754C1110.13 548.754 1110.78 549.522 1110.78 550.603C1110.78 551.685 1110.13 552.452 1109.11 552.452C1108.03 552.452 1107.45 551.794 1107.33 550.823H1105.74C1105.9 552.672 1107.2 553.863 1109.11 553.863C1110.98 553.863 1112.3 552.515 1112.3 550.603C1112.3 548.676 1111.06 547.359 1109.26 547.359C1108.52 547.359 1107.91 547.626 1107.61 547.861V545.526H1111.7V544.084H1106.28V549.506H1107.52C1107.84 549.099 1108.38 548.754 1109.08 548.754ZM1114.27 553.706H1115.5L1121.29 544.084H1120.05L1114.27 553.706ZM1114.24 546.106C1114.24 545.557 1114.67 545.103 1115.22 545.103C1115.77 545.103 1116.23 545.557 1116.23 546.106C1116.23 546.654 1115.77 547.093 1115.22 547.093C1114.67 547.093 1114.24 546.654 1114.24 546.106ZM1122.49 551.685C1122.49 550.478 1121.54 549.522 1120.33 549.522C1119.12 549.522 1118.15 550.478 1118.15 551.685C1118.15 552.891 1119.12 553.863 1120.33 553.863C1121.54 553.863 1122.49 552.891 1122.49 551.685ZM1117.4 546.106C1117.4 544.899 1116.43 543.927 1115.22 543.927C1114.02 543.927 1113.06 544.899 1113.06 546.106C1113.06 547.312 1114.02 548.268 1115.22 548.268C1116.43 548.268 1117.4 547.312 1117.4 546.106ZM1121.32 551.685C1121.32 552.233 1120.88 552.687 1120.33 552.687C1119.78 552.687 1119.33 552.233 1119.33 551.685C1119.33 551.136 1119.78 550.697 1120.33 550.697C1120.88 550.697 1121.32 551.136 1121.32 551.685Z" fill="white"/>
<path d="M514.256 721.01V718.994H506.516V721.01H509.216V731H511.556V721.01H514.256ZM521.044 718.724C517.264 718.724 514.636 721.352 514.636 725.006C514.636 728.66 517.264 731.27 521.044 731.27C524.824 731.27 527.452 728.66 527.452 725.006C527.452 721.352 524.824 718.724 521.044 718.724ZM521.044 729.146C518.704 729.146 517.048 727.436 517.048 725.006C517.048 722.576 518.704 720.848 521.044 720.848C523.384 720.848 525.04 722.576 525.04 725.006C525.04 727.436 523.384 729.146 521.044 729.146ZM535.561 721.01V718.994H527.821V721.01H530.521V731H532.861V721.01H535.561ZM544.513 731H547.033L542.011 718.994H540.175L535.009 731H537.547L538.609 728.48H543.451L544.513 731ZM539.347 726.572L541.057 722.252L542.767 726.572H539.347ZM548.434 718.994V731H554.482V728.984H550.774V718.994H548.434ZM560.3 718.994V731H563.396C565.07 731 566.384 730.838 567.788 729.848C569.372 728.732 570.2 727.004 570.2 725.006C570.2 723.008 569.354 721.262 567.896 720.164C566.564 719.174 565.106 718.994 563.432 718.994H560.3ZM562.64 721.01H563.36C564.152 721.01 565.34 721.082 566.312 721.802C567.266 722.522 567.788 723.746 567.788 725.006C567.788 726.284 567.248 727.508 566.294 728.192C565.25 728.948 563.954 728.984 563.36 728.984H562.64V721.01ZM580.144 731H582.664L577.642 718.994H575.806L570.64 731H573.178L574.24 728.48H579.082L580.144 731ZM574.978 726.572L576.688 722.252L578.398 726.572H574.978ZM585.465 731H587.805V725.51L592.035 718.994H589.263L586.689 723.17L584.115 718.994H581.343L585.465 725.51V731ZM599.93 720.128C598.706 718.868 597.284 718.724 596.528 718.724C593.864 718.724 592.676 720.488 592.676 722.252C592.676 723.476 593.234 724.142 593.63 724.484C594.242 725.024 594.998 725.312 595.628 725.528C596.312 725.762 597.032 725.996 597.482 726.41C597.806 726.716 597.95 727.058 597.95 727.49C597.95 728.498 597.158 729.146 596.096 729.146C595.25 729.146 594.152 728.714 593.576 727.544L592.046 729.002C592.676 729.92 593.972 731.27 596.186 731.27C598.67 731.27 600.362 729.668 600.362 727.328C600.362 726.104 599.876 725.294 599.336 724.808C598.724 724.25 597.842 723.926 596.906 723.602C596.15 723.332 595.754 723.188 595.466 722.918C595.178 722.666 595.088 722.396 595.088 722.108C595.088 721.496 595.484 720.704 596.744 720.704C597.176 720.704 598.004 720.794 598.706 721.73L599.93 720.128ZM614.79 731H617.31L612.288 718.994H610.452L605.286 731H607.824L608.886 728.48H613.728L614.79 731ZM609.624 726.572L611.334 722.252L613.044 726.572H609.624ZM627.037 727.832C626.335 728.66 625.345 729.146 624.229 729.146C622.213 729.146 620.161 727.706 620.161 725.042C620.161 722.828 621.727 720.848 624.139 720.848C624.571 720.848 625.939 720.938 627.037 722.198V719.462C625.939 718.868 624.931 718.724 624.085 718.724C622.375 718.724 620.881 719.174 619.675 720.308C618.649 721.262 617.749 722.828 617.749 725.006C617.749 726.77 618.289 728.264 619.675 729.596C620.683 730.55 621.961 731.27 624.067 731.27C625.363 731.27 626.317 730.946 627.037 730.568V727.832ZM635.862 721.01V718.994H628.122V721.01H630.822V731H633.162V721.01H635.862ZM637.345 718.994V731H639.685V718.994H637.345ZM641.093 718.994L646.133 731H647.537L652.613 718.994H650.057L646.853 727.058L643.649 718.994H641.093ZM660.669 718.994H654.009V731H660.669V728.984H656.349V725.708H660.489V723.692H656.349V721.01H660.669V718.994ZM667.139 718.994V731H669.479V718.994H667.139ZM674.56 731V722.972L681.868 731H683.488V718.994H681.148V727.004L673.84 718.994H672.22V731H674.56ZM689.819 731H692.195L693.419 723.602L696.497 731H697.289L700.511 723.602L701.591 731H703.967L701.951 718.994H700.259L696.929 726.626L693.743 718.994H692.051L689.819 731ZM711.925 718.724C708.145 718.724 705.517 721.352 705.517 725.006C705.517 728.66 708.145 731.27 711.925 731.27C715.705 731.27 718.333 728.66 718.333 725.006C718.333 721.352 715.705 718.724 711.925 718.724ZM711.925 729.146C709.585 729.146 707.929 727.436 707.929 725.006C707.929 722.576 709.585 720.848 711.925 720.848C714.265 720.848 715.921 722.576 715.921 725.006C715.921 727.436 714.265 729.146 711.925 729.146ZM722.829 731V722.972L730.137 731H731.757V718.994H729.417V727.004L722.109 718.994H720.489V731H722.829ZM740.979 721.01V718.994H733.239V721.01H735.939V731H738.279V721.01H740.979ZM744.802 718.994H742.462V731H744.802V725.654H749.878V731H752.218V718.994H749.878V723.638H744.802V718.994Z" fill="#73737D"/>
<defs>
<filter id="filter0_d" x="0" y="0" width="1260" height="844" filterUnits="userSpaceOnUse" color-interpolation-filters="sRGB">
<feFlood flood-opacity="0" result="BackgroundImageFix"/>
<feColorMatrix in="SourceAlpha" type="matrix" values="0 0 0 0 0 0 0 0 0 0 0 0 0 0 0 0 0 0 127 0"/>
<feOffset dy="15"/>
<feGaussianBlur stdDeviation="30"/>
<feColorMatrix type="matrix" values="0 0 0 0 0 0 0 0 0 0 0 0 0 0 0 0 0 0 0.15 0"/>
<feBlend mode="normal" in2="BackgroundImageFix" result="effect1_dropShadow"/>
<feBlend mode="normal" in="SourceGraphic" in2="effect1_dropShadow" result="shape"/>
</filter>
<filter id="filter1_d" x="92.1494" y="247" width="103.942" height="84.8242" filterUnits="userSpaceOnUse" color-interpolation-filters="sRGB">
<feFlood flood-opacity="0" result="BackgroundImageFix"/>
<feColorMatrix in="SourceAlpha" type="matrix" values="0 0 0 0 0 0 0 0 0 0 0 0 0 0 0 0 0 0 127 0"/>
<feOffset dy="4"/>
<feGaussianBlur stdDeviation="12.5"/>
<feColorMatrix type="matrix" values="0 0 0 0 0 0 0 0 0 0 0 0 0 0 0 0 0 0 0.25 0"/>
<feBlend mode="normal" in2="BackgroundImageFix" result="effect1_dropShadow"/>
<feBlend mode="normal" in="SourceGraphic" in2="effect1_dropShadow" result="shape"/>
</filter>
<filter id="filter2_d" x="1062.15" y="514" width="103.942" height="84.8242" filterUnits="userSpaceOnUse" color-interpolation-filters="sRGB">
<feFlood flood-opacity="0" result="BackgroundImageFix"/>
<feColorMatrix in="SourceAlpha" type="matrix" values="0 0 0 0 0 0 0 0 0 0 0 0 0 0 0 0 0 0 127 0"/>
<feOffset dy="4"/>
<feGaussianBlur stdDeviation="12.5"/>
<feColorMatrix type="matrix" values="0 0 0 0 0 0 0 0 0 0 0 0 0 0 0 0 0 0 0.25 0"/>
<feBlend mode="normal" in2="BackgroundImageFix" result="effect1_dropShadow"/>
<feBlend mode="normal" in="SourceGraphic" in2="effect1_dropShadow" result="shape"/>
</filter>
</defs>
</svg>
