<svg width="1260" height="758" viewBox="0 0 1260 758" fill="none" xmlns="http://www.w3.org/2000/svg">
<g filter="url(#filter0_d)">
<rect x="60" y="45" width="1140" height="638" rx="5" fill="#1D2128"/>
</g>
<rect opacity="0.4" x="134.5" y="343.5" width="87" height="40" rx="4.5" stroke="#93C3EA"/>
<path d="M185 355H184V353H182V355H174V353H172V355H171C169.9 355 169 355.9 169 357V371C169 372.1 169.9 373 171 373H176V371H171V360H185V361H187V357C187 355.9 186.1 355 185 355ZM187.7 365.35L186.7 366.35L184.65 364.35L185.65 363.35C185.85 363.14 186.19 363.13 186.42 363.35L187.7 364.63C187.89 364.83 187.89 365.15 187.7 365.35ZM178 370.94L184.07 364.88L186.12 366.88L180.06 373H178V370.94Z" fill="#93C3EA"/>
<path d="M166.23 318.328H160.31V329H166.23V327.208H162.39V324.296H166.07V322.504H162.39V320.12H166.23V318.328ZM167.959 329H169.911V325.464C169.911 325.064 169.927 324.568 170.215 324.12C170.503 323.688 170.903 323.512 171.415 323.512C171.607 323.512 172.023 323.544 172.327 323.864C172.679 324.232 172.695 324.84 172.695 325.224V329H174.647V324.648C174.647 323.976 174.583 323.288 174.103 322.696C173.559 322.024 172.663 321.848 172.055 321.848C170.935 321.848 170.279 322.456 169.911 322.968V322.072H167.959V329ZM176.506 329H178.458V325.672C178.458 325.192 178.474 324.6 178.842 324.136C179.226 323.656 179.77 323.576 180.138 323.576C180.538 323.576 180.794 323.656 181.05 323.832L181.306 322.008C181.082 321.928 180.81 321.848 180.474 321.848C180.01 321.848 179.626 321.96 179.322 322.152C179.178 322.232 178.762 322.52 178.458 323.112V322.072H176.506V329ZM185.732 321.848C184.42 321.848 183.524 322.28 182.932 322.824C182.243 323.448 181.764 324.408 181.764 325.544C181.764 326.664 182.243 327.624 182.932 328.248C183.524 328.792 184.42 329.224 185.732 329.224C187.044 329.224 187.94 328.792 188.532 328.248C189.22 327.624 189.7 326.664 189.7 325.544C189.7 324.408 189.22 323.448 188.532 322.824C187.94 322.28 187.044 321.848 185.732 321.848ZM185.732 327.496C184.596 327.496 183.78 326.6 183.78 325.544C183.78 324.456 184.612 323.576 185.732 323.576C186.852 323.576 187.684 324.456 187.684 325.544C187.684 326.6 186.868 327.496 185.732 327.496ZM191.209 317.336V329H193.161V317.336H191.209ZM195.022 317.336V329H196.974V317.336H195.022Z" fill="#FAFAFA"/>
<rect opacity="0.4" x="282.5" y="343.5" width="87" height="40" rx="4.5" stroke="#6166DC"/>
<path d="M337.5 369L332.5 374L329 370.5L330.5 369L332.5 371L336 367.5L337.5 369ZM315 358V370C315 371.1 315.9 372 317 372H327V370H317V360.37L325 365.36L333 360.37V365H335V358C335 356.9 334.1 356 333 356H317C315.89 356 315 356.89 315 358ZM317 358H333L325 363L317 358Z" fill="#6166DC"/>
<path d="M316.263 319.336C315.175 318.216 313.911 318.088 313.239 318.088C310.871 318.088 309.815 319.656 309.815 321.224C309.815 322.312 310.311 322.904 310.663 323.208C311.207 323.688 311.879 323.944 312.439 324.136C313.047 324.344 313.687 324.552 314.087 324.92C314.375 325.192 314.503 325.496 314.503 325.88C314.503 326.776 313.799 327.352 312.855 327.352C312.103 327.352 311.127 326.968 310.615 325.928L309.255 327.224C309.815 328.04 310.967 329.24 312.935 329.24C315.143 329.24 316.647 327.816 316.647 325.736C316.647 324.648 316.215 323.928 315.735 323.496C315.191 323 314.407 322.712 313.575 322.424C312.903 322.184 312.551 322.056 312.295 321.816C312.039 321.592 311.959 321.352 311.959 321.096C311.959 320.552 312.311 319.848 313.431 319.848C313.815 319.848 314.551 319.928 315.175 320.76L316.263 319.336ZM323.194 326.776C322.874 327.336 322.314 327.688 321.578 327.688C320.826 327.688 320.394 327.32 320.186 327.032C319.962 326.728 319.85 326.28 319.85 325.864H325.034V325.704C325.034 324.952 324.938 323.864 324.202 322.984C323.722 322.408 322.906 321.848 321.498 321.848C320.666 321.848 319.706 322.024 318.89 322.824C318.394 323.32 317.834 324.168 317.834 325.544C317.834 326.632 318.154 327.528 318.922 328.248C319.61 328.904 320.458 329.224 321.578 329.224C323.994 329.224 324.778 327.576 324.986 327.064L323.194 326.776ZM319.914 324.616C320.074 323.688 320.826 323.224 321.546 323.224C322.266 323.224 323.034 323.672 323.194 324.616H319.914ZM326.545 329H328.497V325.464C328.497 325.064 328.513 324.568 328.801 324.12C329.089 323.688 329.489 323.512 330.001 323.512C330.193 323.512 330.609 323.544 330.913 323.864C331.265 324.232 331.281 324.84 331.281 325.224V329H333.233V324.648C333.233 323.976 333.169 323.288 332.689 322.696C332.145 322.024 331.249 321.848 330.641 321.848C329.521 321.848 328.865 322.456 328.497 322.968V322.072H326.545V329ZM340.404 322.968C339.748 321.944 338.708 321.848 338.18 321.848C336.132 321.848 334.74 323.48 334.74 325.528C334.74 327.56 336.148 329.224 338.276 329.224C338.772 329.224 339.7 329.112 340.404 328.104V329H342.356V317.336H340.404V322.968ZM338.676 323.576C339.796 323.576 340.596 324.424 340.596 325.528C340.596 326.632 339.796 327.496 338.676 327.496C337.556 327.496 336.756 326.632 336.756 325.528C336.756 324.424 337.556 323.576 338.676 323.576Z" fill="#FAFAFA"/>
<path d="M309.193 398.328H303.657V409H309.193V407.88H304.841V403.736H309.065V402.616H304.841V399.448H309.193V398.328ZM311.088 409H312.24V405.384C312.24 404.584 312.384 403.224 313.696 403.224C314.912 403.224 314.896 404.6 314.896 405.064V409H316.048V405.304C316.048 404.504 316.192 403.224 317.52 403.224C318.608 403.224 318.704 404.216 318.704 404.968V409H319.856V404.792C319.856 403.848 319.664 402.2 317.696 402.2C317.248 402.2 316.336 402.264 315.696 403.272C315.568 403.048 315.088 402.2 313.888 402.2C313.184 402.2 312.608 402.52 312.24 403.064V402.36H311.088V409ZM327.129 403.304C326.825 402.904 326.137 402.2 324.857 402.2C323.161 402.2 321.625 403.384 321.625 405.672C321.625 408.008 323.177 409.192 324.857 409.192C326.025 409.192 326.745 408.568 327.129 408.072V409H328.281V402.36H327.129V403.304ZM324.985 403.224C326.009 403.224 327.193 403.976 327.193 405.688C327.193 407 326.393 408.168 324.985 408.168C323.609 408.168 322.809 407.096 322.809 405.672C322.809 404.056 323.849 403.224 324.985 403.224ZM330.463 402.36V409H331.615V402.36H330.463ZM330.223 399.848C330.223 400.296 330.591 400.664 331.039 400.664C331.487 400.664 331.855 400.296 331.855 399.848C331.855 399.4 331.487 399.032 331.039 399.032C330.591 399.032 330.223 399.4 330.223 399.848ZM333.791 397.336V409H334.943V397.336H333.791ZM348.278 409H349.59L344.806 397.816L339.894 409H341.206L342.486 405.992H347.03L348.278 409ZM342.95 404.872L344.774 400.6L346.566 404.872H342.95Z" fill="#6166DC"/>
<rect opacity="0.4" x="578.5" y="501.5" width="87" height="40" rx="4.5" stroke="#6166DC"/>
<path d="M633.5 527L628.5 532L625 528.5L626.5 527L628.5 529L632 525.5L633.5 527ZM611 516V528C611 529.1 611.9 530 613 530H623V528H613V518.37L621 523.36L629 518.37V523H631V516C631 514.9 630.1 514 629 514H613C611.89 514 611 514.89 611 516ZM613 516H629L621 521L613 516Z" fill="#6166DC"/>
<path d="M612.263 477.336C611.175 476.216 609.911 476.088 609.239 476.088C606.871 476.088 605.815 477.656 605.815 479.224C605.815 480.312 606.311 480.904 606.663 481.208C607.207 481.688 607.879 481.944 608.439 482.136C609.047 482.344 609.687 482.552 610.087 482.92C610.375 483.192 610.503 483.496 610.503 483.88C610.503 484.776 609.799 485.352 608.855 485.352C608.103 485.352 607.127 484.968 606.615 483.928L605.255 485.224C605.815 486.04 606.967 487.24 608.935 487.24C611.143 487.24 612.647 485.816 612.647 483.736C612.647 482.648 612.215 481.928 611.735 481.496C611.191 481 610.407 480.712 609.575 480.424C608.903 480.184 608.551 480.056 608.295 479.816C608.039 479.592 607.959 479.352 607.959 479.096C607.959 478.552 608.311 477.848 609.431 477.848C609.815 477.848 610.551 477.928 611.175 478.76L612.263 477.336ZM619.194 484.776C618.874 485.336 618.314 485.688 617.578 485.688C616.826 485.688 616.394 485.32 616.186 485.032C615.962 484.728 615.85 484.28 615.85 483.864H621.034V483.704C621.034 482.952 620.938 481.864 620.202 480.984C619.722 480.408 618.906 479.848 617.498 479.848C616.666 479.848 615.706 480.024 614.89 480.824C614.394 481.32 613.834 482.168 613.834 483.544C613.834 484.632 614.154 485.528 614.922 486.248C615.61 486.904 616.458 487.224 617.578 487.224C619.994 487.224 620.778 485.576 620.986 485.064L619.194 484.776ZM615.914 482.616C616.074 481.688 616.826 481.224 617.546 481.224C618.266 481.224 619.034 481.672 619.194 482.616H615.914ZM622.545 487H624.497V483.464C624.497 483.064 624.513 482.568 624.801 482.12C625.089 481.688 625.489 481.512 626.001 481.512C626.193 481.512 626.609 481.544 626.913 481.864C627.265 482.232 627.281 482.84 627.281 483.224V487H629.233V482.648C629.233 481.976 629.169 481.288 628.689 480.696C628.145 480.024 627.249 479.848 626.641 479.848C625.521 479.848 624.865 480.456 624.497 480.968V480.072H622.545V487ZM636.404 480.968C635.748 479.944 634.708 479.848 634.18 479.848C632.132 479.848 630.74 481.48 630.74 483.528C630.74 485.56 632.148 487.224 634.276 487.224C634.772 487.224 635.7 487.112 636.404 486.104V487H638.356V475.336H636.404V480.968ZM634.676 481.576C635.796 481.576 636.596 482.424 636.596 483.528C636.596 484.632 635.796 485.496 634.676 485.496C633.556 485.496 632.756 484.632 632.756 483.528C632.756 482.424 633.556 481.576 634.676 481.576Z" fill="#FAFAFA"/>
<path d="M605.115 556.328H599.579V567H605.115V565.88H600.763V561.736H604.987V560.616H600.763V557.448H605.115V556.328ZM607.01 567H608.162V563.384C608.162 562.584 608.306 561.224 609.618 561.224C610.834 561.224 610.818 562.6 610.818 563.064V567H611.97V563.304C611.97 562.504 612.114 561.224 613.442 561.224C614.53 561.224 614.626 562.216 614.626 562.968V567H615.778V562.792C615.778 561.848 615.586 560.2 613.618 560.2C613.17 560.2 612.258 560.264 611.618 561.272C611.49 561.048 611.01 560.2 609.81 560.2C609.106 560.2 608.53 560.52 608.162 561.064V560.36H607.01V567ZM623.051 561.304C622.747 560.904 622.059 560.2 620.779 560.2C619.083 560.2 617.547 561.384 617.547 563.672C617.547 566.008 619.099 567.192 620.779 567.192C621.947 567.192 622.667 566.568 623.051 566.072V567H624.203V560.36H623.051V561.304ZM620.907 561.224C621.931 561.224 623.115 561.976 623.115 563.688C623.115 565 622.315 566.168 620.907 566.168C619.531 566.168 618.731 565.096 618.731 563.672C618.731 562.056 619.771 561.224 620.907 561.224ZM626.385 560.36V567H627.537V560.36H626.385ZM626.145 557.848C626.145 558.296 626.513 558.664 626.961 558.664C627.409 558.664 627.777 558.296 627.777 557.848C627.777 557.4 627.409 557.032 626.961 557.032C626.513 557.032 626.145 557.4 626.145 557.848ZM629.713 555.336V567H630.865V555.336H629.713ZM637.064 567H639.224C641.128 567 642.152 566.6 643.128 565.768C643.896 565.112 645 563.912 645 561.672C645 559.752 644.152 558.392 643.176 557.576C641.832 556.44 640.312 556.328 639.24 556.328H637.064V567ZM638.248 557.448H639.288C641.992 557.448 643.784 559.112 643.784 561.672C643.784 563.192 643.144 564.248 642.344 564.92C641.304 565.784 640.136 565.88 639.288 565.88H638.248V557.448Z" fill="#6166DC"/>
<path d="M420.179 143.12V141.328H413.299V143.12H415.699V152H417.779V143.12H420.179ZM420.537 152H422.489V148.672C422.489 148.192 422.505 147.6 422.873 147.136C423.257 146.656 423.801 146.576 424.169 146.576C424.569 146.576 424.825 146.656 425.081 146.832L425.337 145.008C425.113 144.928 424.841 144.848 424.505 144.848C424.041 144.848 423.657 144.96 423.353 145.152C423.209 145.232 422.793 145.52 422.489 146.112V145.072H420.537V152ZM426.303 145.072V152H428.255V145.072H426.303ZM426.111 142.144C426.111 142.784 426.639 143.312 427.279 143.312C427.919 143.312 428.447 142.784 428.447 142.144C428.447 141.504 427.919 140.976 427.279 140.976C426.639 140.976 426.111 141.504 426.111 142.144ZM435.396 145.968C435.124 145.552 434.516 144.848 433.22 144.848C432.292 144.848 431.444 145.184 430.836 145.776C430.164 146.432 429.764 147.44 429.764 148.528C429.764 149.872 430.356 150.768 430.868 151.28C431.539 151.936 432.34 152.224 433.268 152.224C433.796 152.224 434.724 152.096 435.396 151.072V152.048C435.396 152.608 435.348 153.152 434.9 153.584C434.644 153.824 434.276 154.016 433.716 154.016C433.444 154.016 432.916 154 432.532 153.648C432.308 153.456 432.132 153.136 432.052 152.816H429.94C430.1 153.6 430.516 154.416 431.06 154.88C431.508 155.28 432.308 155.68 433.652 155.68C435.076 155.68 435.908 155.184 436.388 154.704C437.252 153.84 437.348 152.736 437.348 151.68V145.072H435.396V145.968ZM433.7 146.576C434.228 146.576 434.676 146.736 435.06 147.136C435.332 147.424 435.62 147.872 435.62 148.528C435.62 149.088 435.396 149.648 434.996 150.016C434.66 150.32 434.18 150.496 433.7 150.496C433.236 150.496 432.708 150.336 432.292 149.888C432.004 149.584 431.78 149.136 431.78 148.528C431.78 147.808 432.084 147.344 432.404 147.056C432.644 146.832 433.076 146.576 433.7 146.576ZM444.489 145.968C444.217 145.552 443.609 144.848 442.313 144.848C441.385 144.848 440.537 145.184 439.929 145.776C439.257 146.432 438.857 147.44 438.857 148.528C438.857 149.872 439.449 150.768 439.961 151.28C440.633 151.936 441.433 152.224 442.361 152.224C442.889 152.224 443.817 152.096 444.489 151.072V152.048C444.489 152.608 444.441 153.152 443.993 153.584C443.737 153.824 443.369 154.016 442.809 154.016C442.537 154.016 442.009 154 441.625 153.648C441.401 153.456 441.225 153.136 441.145 152.816H439.033C439.193 153.6 439.609 154.416 440.153 154.88C440.601 155.28 441.401 155.68 442.745 155.68C444.169 155.68 445.001 155.184 445.481 154.704C446.345 153.84 446.441 152.736 446.441 151.68V145.072H444.489V145.968ZM442.793 146.576C443.321 146.576 443.769 146.736 444.153 147.136C444.425 147.424 444.713 147.872 444.713 148.528C444.713 149.088 444.489 149.648 444.089 150.016C443.753 150.32 443.273 150.496 442.793 150.496C442.329 150.496 441.801 150.336 441.385 149.888C441.097 149.584 440.873 149.136 440.873 148.528C440.873 147.808 441.177 147.344 441.497 147.056C441.737 146.832 442.169 146.576 442.793 146.576ZM453.311 149.776C452.991 150.336 452.431 150.688 451.695 150.688C450.943 150.688 450.511 150.32 450.303 150.032C450.079 149.728 449.967 149.28 449.967 148.864H455.151V148.704C455.151 147.952 455.055 146.864 454.319 145.984C453.839 145.408 453.023 144.848 451.615 144.848C450.783 144.848 449.823 145.024 449.007 145.824C448.511 146.32 447.951 147.168 447.951 148.544C447.951 149.632 448.271 150.528 449.039 151.248C449.727 151.904 450.575 152.224 451.695 152.224C454.111 152.224 454.895 150.576 455.103 150.064L453.311 149.776ZM450.031 147.616C450.191 146.688 450.943 146.224 451.663 146.224C452.383 146.224 453.151 146.672 453.311 147.616H450.031ZM456.662 152H458.614V148.672C458.614 148.192 458.63 147.6 458.998 147.136C459.382 146.656 459.926 146.576 460.294 146.576C460.694 146.576 460.95 146.656 461.206 146.832L461.462 145.008C461.238 144.928 460.966 144.848 460.63 144.848C460.166 144.848 459.782 144.96 459.478 145.152C459.334 145.232 458.918 145.52 458.614 146.112V145.072H456.662V152ZM466.992 145.584C466.112 144.912 465.296 144.848 464.784 144.848C464.224 144.848 463.52 144.912 462.976 145.344C462.576 145.68 462.256 146.24 462.256 146.912C462.256 147.472 462.464 147.904 462.784 148.24C463.2 148.672 463.776 148.896 464.272 149.072L464.72 149.232C464.976 149.328 465.328 149.504 465.328 149.936C465.328 150.416 464.912 150.688 464.368 150.688C463.792 150.688 463.216 150.336 462.832 149.888L461.808 151.072C462.24 151.536 463.056 152.224 464.496 152.224C465.344 152.224 466.016 152 466.576 151.488C467.136 150.976 467.344 150.352 467.344 149.728C467.344 149.28 467.2 148.864 466.992 148.576C466.592 148.032 465.776 147.76 465.232 147.584L464.768 147.44C464.224 147.264 464.144 146.992 464.144 146.816C464.144 146.48 464.432 146.256 464.896 146.256C465.104 146.256 465.568 146.288 466.032 146.72L466.992 145.584Z" fill="white"/>
<rect opacity="0.4" x="370.5" y="162.5" width="140" height="73" rx="4.5" stroke="#FAFAFA"/>
<rect x="393" y="213" width="107" height="5" rx="2.5" fill="#73737D"/>
<rect x="393" y="203" width="107" height="5" rx="2.5" fill="#73737D"/>
<rect x="393" y="193" width="107" height="5" rx="2.5" fill="#73737D"/>
<rect x="393" y="183" width="107" height="5" rx="2.5" fill="#73737D"/>
<circle cx="383.5" cy="185.5" r="2.5" fill="#73737D"/>
<circle cx="383.5" cy="195.5" r="2.5" fill="#73737D"/>
<circle cx="383.5" cy="205.5" r="2.5" fill="#73737D"/>
<circle cx="383.5" cy="215.5" r="2.5" fill="#73737D"/>
<path d="M286.989 214H288.969L289.989 207.835L292.554 214H293.214L295.899 207.835L296.799 214H298.779L297.099 203.995H295.689L292.914 210.355L290.259 203.995H288.849L286.989 214ZM307.361 214H309.461L305.276 203.995H303.746L299.441 214H301.556L302.441 211.9H306.476L307.361 214ZM303.056 210.31L304.481 206.71L305.906 210.31H303.056ZM315.517 205.675V203.995H309.067V205.675H311.317V214H313.267V205.675H315.517ZM323.573 211.36C322.988 212.05 322.163 212.455 321.233 212.455C319.553 212.455 317.843 211.255 317.843 209.035C317.843 207.19 319.148 205.54 321.158 205.54C321.518 205.54 322.658 205.615 323.573 206.665V204.385C322.658 203.89 321.818 203.77 321.113 203.77C319.688 203.77 318.443 204.145 317.438 205.09C316.583 205.885 315.833 207.19 315.833 209.005C315.833 210.475 316.283 211.72 317.438 212.83C318.278 213.625 319.343 214.225 321.098 214.225C322.178 214.225 322.973 213.955 323.573 213.64V211.36ZM327.316 203.995H325.366V214H327.316V209.545H331.546V214H333.496V203.995H331.546V207.865H327.316V203.995Z" fill="#93C3EA"/>
<line x1="251" y1="209.5" x2="281" y2="209.5" stroke="#93C3EA"/>
<line x1="340" y1="209.5" x2="370" y2="209.5" stroke="#93C3EA"/>
<line x1="666" y1="364.5" x2="726" y2="364.5" stroke="#4EBE96"/>
<rect x="678" y="356" width="33" height="16" rx="5" fill="#4EBE96"/>
<path d="M687.503 368H689.063V364.34L691.883 359.996H690.035L688.319 362.78L686.603 359.996H684.755L687.503 364.34V368ZM697.209 359.996H692.769V368H697.209V366.656H694.329V364.472H697.089V363.128H694.329V361.34H697.209V359.996ZM703.475 360.752C702.659 359.912 701.711 359.816 701.207 359.816C699.431 359.816 698.639 360.992 698.639 362.168C698.639 362.984 699.011 363.428 699.275 363.656C699.683 364.016 700.187 364.208 700.607 364.352C701.063 364.508 701.543 364.664 701.843 364.94C702.059 365.144 702.155 365.372 702.155 365.66C702.155 366.332 701.627 366.764 700.919 366.764C700.355 366.764 699.623 366.476 699.239 365.696L698.219 366.668C698.639 367.28 699.503 368.18 700.979 368.18C702.635 368.18 703.763 367.112 703.763 365.552C703.763 364.736 703.439 364.196 703.079 363.872C702.671 363.5 702.083 363.284 701.459 363.068C700.955 362.888 700.691 362.792 700.499 362.612C700.307 362.444 700.247 362.264 700.247 362.072C700.247 361.664 700.511 361.136 701.351 361.136C701.639 361.136 702.191 361.196 702.659 361.82L703.475 360.752Z" fill="white"/>
<line x1="622.5" y1="390" x2="622.5" y2="417" stroke="#FF5C5C"/>
<line x1="622.5" y1="433" x2="622.5" y2="460" stroke="#FF5C5C"/>
<rect x="606" y="417" width="33" height="16" rx="5" fill="#FF5C5C"/>
<path d="M615.503 429V423.648L620.375 429H621.455V420.996H619.895V426.336L615.023 420.996H613.943V429H615.503ZM627.171 420.816C624.651 420.816 622.899 422.568 622.899 425.004C622.899 427.44 624.651 429.18 627.171 429.18C629.691 429.18 631.443 427.44 631.443 425.004C631.443 422.568 629.691 420.816 627.171 420.816ZM627.171 427.764C625.611 427.764 624.507 426.624 624.507 425.004C624.507 423.384 625.611 422.232 627.171 422.232C628.731 422.232 629.835 423.384 629.835 425.004C629.835 426.624 628.731 427.764 627.171 427.764Z" fill="white"/>
<line x1="769.5" y1="390" x2="769.5" y2="417" stroke="#FF5C5C"/>
<line x1="769.5" y1="433" x2="769.5" y2="460" stroke="#FF5C5C"/>
<rect x="753" y="417" width="33" height="16" rx="5" fill="#FF5C5C"/>
<path d="M762.503 429V423.648L767.375 429H768.455V420.996H766.895V426.336L762.023 420.996H760.943V429H762.503ZM774.171 420.816C771.651 420.816 769.899 422.568 769.899 425.004C769.899 427.44 771.651 429.18 774.171 429.18C776.691 429.18 778.443 427.44 778.443 425.004C778.443 422.568 776.691 420.816 774.171 420.816ZM774.171 427.764C772.611 427.764 771.507 426.624 771.507 425.004C771.507 423.384 772.611 422.232 774.171 422.232C775.731 422.232 776.835 423.384 776.835 425.004C776.835 426.624 775.731 427.764 774.171 427.764Z" fill="white"/>
<line x1="814" y1="364.5" x2="874" y2="364.5" stroke="#4EBE96"/>
<rect x="828" y="356" width="33" height="16" rx="5" fill="#4EBE96"/>
<path d="M837.503 368H839.063V364.34L841.883 359.996H840.035L838.319 362.78L836.603 359.996H834.755L837.503 364.34V368ZM847.209 359.996H842.769V368H847.209V366.656H844.329V364.472H847.089V363.128H844.329V361.34H847.209V359.996ZM853.475 360.752C852.659 359.912 851.711 359.816 851.207 359.816C849.431 359.816 848.639 360.992 848.639 362.168C848.639 362.984 849.011 363.428 849.275 363.656C849.683 364.016 850.187 364.208 850.607 364.352C851.063 364.508 851.543 364.664 851.843 364.94C852.059 365.144 852.155 365.372 852.155 365.66C852.155 366.332 851.627 366.764 850.919 366.764C850.355 366.764 849.623 366.476 849.239 365.696L848.219 366.668C848.639 367.28 849.503 368.18 850.979 368.18C852.635 368.18 853.763 367.112 853.763 365.552C853.763 364.736 853.439 364.196 853.079 363.872C852.671 363.5 852.083 363.284 851.459 363.068C850.955 362.888 850.691 362.792 850.499 362.612C850.307 362.444 850.247 362.264 850.247 362.072C850.247 361.664 850.511 361.136 851.351 361.136C851.639 361.136 852.191 361.196 852.659 361.82L853.475 360.752Z" fill="white"/>
<line x1="962" y1="364.5" x2="1022" y2="364.5" stroke="#4EBE96"/>
<rect x="976" y="356" width="33" height="16" rx="5" fill="#4EBE96"/>
<path d="M985.503 368H987.063V364.34L989.883 359.996H988.035L986.319 362.78L984.603 359.996H982.755L985.503 364.34V368ZM995.209 359.996H990.769V368H995.209V366.656H992.329V364.472H995.089V363.128H992.329V361.34H995.209V359.996ZM1001.47 360.752C1000.66 359.912 999.711 359.816 999.207 359.816C997.431 359.816 996.639 360.992 996.639 362.168C996.639 362.984 997.011 363.428 997.275 363.656C997.683 364.016 998.187 364.208 998.607 364.352C999.063 364.508 999.543 364.664 999.843 364.94C1000.06 365.144 1000.15 365.372 1000.15 365.66C1000.15 366.332 999.627 366.764 998.919 366.764C998.355 366.764 997.623 366.476 997.239 365.696L996.219 366.668C996.639 367.28 997.503 368.18 998.979 368.18C1000.63 368.18 1001.76 367.112 1001.76 365.552C1001.76 364.736 1001.44 364.196 1001.08 363.872C1000.67 363.5 1000.08 363.284 999.459 363.068C998.955 362.888 998.691 362.792 998.499 362.612C998.307 362.444 998.247 362.264 998.247 362.072C998.247 361.664 998.511 361.136 999.351 361.136C999.639 361.136 1000.19 361.196 1000.66 361.82L1001.47 360.752Z" fill="white"/>
<rect opacity="0.4" x="874.5" y="343.5" width="87" height="40" rx="4.5" stroke="#6166DC"/>
<path d="M929.5 369L924.5 374L921 370.5L922.5 369L924.5 371L928 367.5L929.5 369ZM907 358V370C907 371.1 907.9 372 909 372H919V370H909V360.37L917 365.36L925 360.37V365H927V358C927 356.9 926.1 356 925 356H909C907.89 356 907 356.89 907 358ZM909 358H925L917 363L909 358Z" fill="#6166DC"/>
<path d="M908.263 319.336C907.175 318.216 905.911 318.088 905.239 318.088C902.871 318.088 901.815 319.656 901.815 321.224C901.815 322.312 902.311 322.904 902.663 323.208C903.207 323.688 903.879 323.944 904.439 324.136C905.047 324.344 905.687 324.552 906.087 324.92C906.375 325.192 906.503 325.496 906.503 325.88C906.503 326.776 905.799 327.352 904.855 327.352C904.103 327.352 903.127 326.968 902.615 325.928L901.255 327.224C901.815 328.04 902.967 329.24 904.935 329.24C907.143 329.24 908.647 327.816 908.647 325.736C908.647 324.648 908.215 323.928 907.735 323.496C907.191 323 906.407 322.712 905.575 322.424C904.903 322.184 904.551 322.056 904.295 321.816C904.039 321.592 903.959 321.352 903.959 321.096C903.959 320.552 904.311 319.848 905.431 319.848C905.815 319.848 906.551 319.928 907.175 320.76L908.263 319.336ZM915.194 326.776C914.874 327.336 914.314 327.688 913.578 327.688C912.826 327.688 912.394 327.32 912.186 327.032C911.962 326.728 911.85 326.28 911.85 325.864H917.034V325.704C917.034 324.952 916.938 323.864 916.202 322.984C915.722 322.408 914.906 321.848 913.498 321.848C912.666 321.848 911.706 322.024 910.89 322.824C910.394 323.32 909.834 324.168 909.834 325.544C909.834 326.632 910.154 327.528 910.922 328.248C911.61 328.904 912.458 329.224 913.578 329.224C915.994 329.224 916.778 327.576 916.986 327.064L915.194 326.776ZM911.914 324.616C912.074 323.688 912.826 323.224 913.546 323.224C914.266 323.224 915.034 323.672 915.194 324.616H911.914ZM918.545 329H920.497V325.464C920.497 325.064 920.513 324.568 920.801 324.12C921.089 323.688 921.489 323.512 922.001 323.512C922.193 323.512 922.609 323.544 922.913 323.864C923.265 324.232 923.281 324.84 923.281 325.224V329H925.233V324.648C925.233 323.976 925.169 323.288 924.689 322.696C924.145 322.024 923.249 321.848 922.641 321.848C921.521 321.848 920.865 322.456 920.497 322.968V322.072H918.545V329ZM932.404 322.968C931.748 321.944 930.708 321.848 930.18 321.848C928.132 321.848 926.74 323.48 926.74 325.528C926.74 327.56 928.148 329.224 930.276 329.224C930.772 329.224 931.7 329.112 932.404 328.104V329H934.356V317.336H932.404V322.968ZM930.676 323.576C931.796 323.576 932.596 324.424 932.596 325.528C932.596 326.632 931.796 327.496 930.676 327.496C929.556 327.496 928.756 326.632 928.756 325.528C928.756 324.424 929.556 323.576 930.676 323.576Z" fill="#FAFAFA"/>
<path d="M901.928 398.328H896.392V409H901.928V407.88H897.576V403.736H901.8V402.616H897.576V399.448H901.928V398.328ZM903.822 409H904.974V405.384C904.974 404.584 905.118 403.224 906.43 403.224C907.646 403.224 907.63 404.6 907.63 405.064V409H908.782V405.304C908.782 404.504 908.926 403.224 910.254 403.224C911.342 403.224 911.438 404.216 911.438 404.968V409H912.59V404.792C912.59 403.848 912.398 402.2 910.43 402.2C909.982 402.2 909.07 402.264 908.43 403.272C908.302 403.048 907.822 402.2 906.622 402.2C905.918 402.2 905.342 402.52 904.974 403.064V402.36H903.822V409ZM919.864 403.304C919.56 402.904 918.872 402.2 917.592 402.2C915.896 402.2 914.36 403.384 914.36 405.672C914.36 408.008 915.912 409.192 917.592 409.192C918.76 409.192 919.48 408.568 919.864 408.072V409H921.016V402.36H919.864V403.304ZM917.72 403.224C918.744 403.224 919.928 403.976 919.928 405.688C919.928 407 919.128 408.168 917.72 408.168C916.344 408.168 915.544 407.096 915.544 405.672C915.544 404.056 916.584 403.224 917.72 403.224ZM923.197 402.36V409H924.349V402.36H923.197ZM922.957 399.848C922.957 400.296 923.325 400.664 923.773 400.664C924.221 400.664 924.589 400.296 924.589 399.848C924.589 399.4 924.221 399.032 923.773 399.032C923.325 399.032 922.957 399.4 922.957 399.848ZM926.526 397.336V409H927.678V397.336H926.526ZM933.876 398.328V409H936.532C937.268 409 938.244 408.968 939.092 408.296C939.668 407.848 940.18 407.016 940.18 405.992C940.18 404.968 939.636 403.672 938.148 403.304C939.092 402.664 939.204 401.736 939.204 401.208C939.204 399.912 938.58 399.256 938.244 399C937.46 398.376 936.388 398.328 935.796 398.328H933.876ZM935.06 399.448H935.988C936.324 399.448 938.052 399.48 938.052 401.24C938.052 402.888 936.58 403.016 935.956 403.016H935.06V399.448ZM935.06 404.072H936.276C937.124 404.072 937.684 404.168 938.084 404.392C938.5 404.616 938.996 405.112 938.996 405.96C938.996 406.6 938.708 407.128 938.292 407.432C937.78 407.832 937.108 407.88 936.42 407.88H935.06V404.072Z" fill="#6166DC"/>
<path opacity="0.4" d="M619.994 340.573C621.258 339.935 622.749 339.929 624.019 340.557L663.307 360.007C666.632 361.653 666.649 366.389 663.336 368.058L624.003 387.881C622.74 388.518 621.252 388.523 619.985 387.897L580.696 368.486C577.37 366.842 577.349 362.107 580.661 360.434L619.994 340.573Z" stroke="#6166DC"/>
<path d="M622 367.36L614 362.36V370H630V362.36L622 367.36ZM614 360L622 365L630 360L622 355L614 360ZM632 360V370C632 371.1 631.1 372 630 372H614C612.9 372 612 371.1 612 370V360C612 359.27 612.39 358.64 612.97 358.29L622 352.64L631.03 358.29C631.61 358.64 632 359.27 632 360Z" fill="#6166DC"/>
<path d="M605.064 318.088C601.704 318.088 599.368 320.424 599.368 323.672C599.368 326.92 601.704 329.24 605.064 329.24C608.424 329.24 610.76 326.92 610.76 323.672C610.76 320.424 608.424 318.088 605.064 318.088ZM605.064 327.352C602.984 327.352 601.512 325.832 601.512 323.672C601.512 321.512 602.984 319.976 605.064 319.976C607.144 319.976 608.616 321.512 608.616 323.672C608.616 325.832 607.144 327.352 605.064 327.352ZM614.341 328.104C615.109 329.144 616.085 329.224 616.565 329.224C617.589 329.224 618.389 328.824 618.917 328.328C619.317 327.944 620.005 327.096 620.005 325.528C620.005 324.152 619.477 323.288 618.965 322.776C618.181 321.992 617.205 321.848 616.597 321.848C615.317 321.848 614.645 322.536 614.341 322.968V322.072H612.389V332.664H614.341V328.104ZM616.069 323.576C616.533 323.576 617.045 323.752 617.397 324.072C617.781 324.44 617.989 325.016 617.989 325.528C617.989 326.04 617.797 326.616 617.381 327C617.125 327.24 616.709 327.496 616.069 327.496C615.461 327.496 615.045 327.256 614.789 327.032C614.405 326.696 614.149 326.168 614.149 325.528C614.149 324.888 614.373 324.408 614.805 324.04C615.157 323.72 615.557 323.576 616.069 323.576ZM626.522 326.776C626.202 327.336 625.642 327.688 624.906 327.688C624.154 327.688 623.722 327.32 623.514 327.032C623.29 326.728 623.178 326.28 623.178 325.864H628.362V325.704C628.362 324.952 628.266 323.864 627.53 322.984C627.05 322.408 626.234 321.848 624.826 321.848C623.994 321.848 623.034 322.024 622.218 322.824C621.722 323.32 621.162 324.168 621.162 325.544C621.162 326.632 621.482 327.528 622.25 328.248C622.938 328.904 623.786 329.224 624.906 329.224C627.322 329.224 628.106 327.576 628.314 327.064L626.522 326.776ZM623.242 324.616C623.402 323.688 624.154 323.224 624.874 323.224C625.594 323.224 626.362 323.672 626.522 324.616H623.242ZM629.873 329H631.825V325.464C631.825 325.064 631.841 324.568 632.129 324.12C632.417 323.688 632.817 323.512 633.329 323.512C633.521 323.512 633.937 323.544 634.241 323.864C634.593 324.232 634.609 324.84 634.609 325.224V329H636.561V324.648C636.561 323.976 636.497 323.288 636.017 322.696C635.473 322.024 634.577 321.848 633.969 321.848C632.849 321.848 632.193 322.456 631.825 322.968V322.072H629.873V329ZM642.02 325.752V324.072C642.836 323.96 643.444 323.576 643.844 323.176C644.388 322.632 644.66 321.976 644.66 321.112C644.66 320.04 644.276 319.336 643.828 318.904C643.156 318.248 642.324 318.088 641.492 318.088C640.148 318.088 639.396 318.536 638.964 318.984C638.516 319.464 638.164 320.312 638.164 321.144H640.244C640.244 320.584 640.42 320.264 640.596 320.104C640.692 320.008 640.948 319.816 641.412 319.816C641.812 319.816 642.068 319.96 642.244 320.136C642.436 320.328 642.58 320.632 642.58 321.064C642.58 321.496 642.404 321.88 642.164 322.136C641.828 322.472 641.284 322.68 640.66 322.68C640.436 322.68 640.228 322.664 640.036 322.616V325.752H642.02ZM639.78 327.992C639.78 328.696 640.324 329.24 641.028 329.24C641.732 329.24 642.276 328.696 642.276 327.992C642.276 327.288 641.732 326.744 641.028 326.744C640.324 326.744 639.78 327.288 639.78 327.992Z" fill="#FAFAFA"/>
<path opacity="0.4" d="M767.494 340.573C768.758 339.935 770.249 339.929 771.519 340.557L810.807 360.007C814.132 361.653 814.149 366.389 810.836 368.058L771.503 387.881C770.24 388.518 768.752 388.523 767.485 387.897L728.196 368.486C724.87 366.842 724.849 362.107 728.161 360.434L767.494 340.573Z" stroke="#6166DC"/>
<path d="M769.5 367L775.88 372.37L775 372.55L774.36 372.67C773.73 372.8 773.37 373.5 773.65 374.07L773.92 374.65L775.28 377.59L773.86 378.25L772.5 375.32L772.24 374.74C771.97 374.15 771.22 373.97 770.72 374.38L770.21 374.78L769.5 375.35V367ZM768.76 364.69C768.34 364.69 768 365.03 768 365.45V376.9C768 377.32 768.34 377.66 768.76 377.66C768.95 377.66 769.11 377.6 769.24 377.5L771.15 375.95L772.81 379.57C772.94 379.84 773.21 380 773.5 380C773.61 380 773.72 380 773.83 379.92L776.59 378.64C776.97 378.46 777.15 378 776.95 377.63L775.28 374L777.69 373.55C777.85 373.5 778 373.43 778.12 373.29C778.39 372.97 778.35 372.5 778 372.21L769.26 364.86L769.25 364.87C769.12 364.76 768.95 364.69 768.76 364.69ZM773 366V364H778V366H773ZM771.83 360.76L774.66 357.93L776.07 359.34L773.24 362.17L771.83 360.76ZM768 356H770V361H768V356ZM761.93 370.66L764.76 367.83L766.17 369.24L763.34 372.07L761.93 370.66ZM761.93 359.34L763.34 357.93L766.17 360.76L764.76 362.17L761.93 359.34ZM765 366H760V364H765V366Z" fill="#6166DC"/>
<path d="M758.46 326.184C757.836 326.92 756.956 327.352 755.964 327.352C754.172 327.352 752.348 326.072 752.348 323.704C752.348 321.736 753.74 319.976 755.884 319.976C756.268 319.976 757.484 320.056 758.46 321.176V318.744C757.484 318.216 756.588 318.088 755.836 318.088C754.316 318.088 752.988 318.488 751.916 319.496C751.004 320.344 750.204 321.736 750.204 323.672C750.204 325.24 750.684 326.568 751.916 327.752C752.812 328.6 753.948 329.24 755.82 329.24C756.972 329.24 757.82 328.952 758.46 328.616V326.184ZM760.084 317.336V329H762.036V317.336H760.084ZM763.897 322.072V329H765.849V322.072H763.897ZM763.705 319.144C763.705 319.784 764.233 320.312 764.873 320.312C765.513 320.312 766.041 319.784 766.041 319.144C766.041 318.504 765.513 317.976 764.873 317.976C764.233 317.976 763.705 318.504 763.705 319.144ZM772.925 322.264C772.365 321.992 771.773 321.848 771.053 321.848C770.381 321.848 769.405 321.992 768.557 322.744C767.853 323.368 767.357 324.344 767.357 325.56C767.357 326.856 767.933 327.72 768.461 328.216C769.085 328.808 770.045 329.224 771.133 329.224C771.933 329.224 772.541 328.984 772.925 328.792V326.888C772.397 327.368 771.821 327.496 771.389 327.496C770.221 327.496 769.373 326.664 769.373 325.528C769.373 324.52 770.029 323.576 771.325 323.576C771.997 323.576 772.509 323.8 772.925 324.184V322.264ZM774.397 317.336V329H776.349V326.232L776.557 326.04L779.133 329H781.725L778.221 325.112L781.469 322.072H778.941L776.349 324.6V317.336H774.397ZM786.184 325.752V324.072C787 323.96 787.608 323.576 788.008 323.176C788.552 322.632 788.824 321.976 788.824 321.112C788.824 320.04 788.44 319.336 787.992 318.904C787.32 318.248 786.488 318.088 785.656 318.088C784.312 318.088 783.56 318.536 783.128 318.984C782.68 319.464 782.328 320.312 782.328 321.144H784.408C784.408 320.584 784.584 320.264 784.76 320.104C784.856 320.008 785.112 319.816 785.576 319.816C785.976 319.816 786.232 319.96 786.408 320.136C786.6 320.328 786.744 320.632 786.744 321.064C786.744 321.496 786.568 321.88 786.328 322.136C785.992 322.472 785.448 322.68 784.824 322.68C784.6 322.68 784.392 322.664 784.2 322.616V325.752H786.184ZM783.944 327.992C783.944 328.696 784.488 329.24 785.192 329.24C785.896 329.24 786.44 328.696 786.44 327.992C786.44 327.288 785.896 326.744 785.192 326.744C784.488 326.744 783.944 327.288 783.944 327.992Z" fill="#FAFAFA"/>
<path opacity="0.4" d="M767.494 498.573C768.758 497.935 770.249 497.929 771.519 498.557L810.807 518.007C814.132 519.653 814.149 524.389 810.836 526.058L771.503 545.881C770.24 546.518 768.752 546.523 767.485 545.897L728.196 526.486C724.87 524.842 724.849 520.107 728.161 518.434L767.494 498.573Z" stroke="#6166DC"/>
<path d="M776 514C777.11 514 778 514.9 778 516V528C778 529.1 777.1 530 776 530H762C760.89 530 760 529.1 760 528V516C760 514.9 760.9 514 762 514H776ZM776 528V518H762V528H776Z" fill="#6166DC"/>
<path d="M728.766 476.328L733.246 487H734.494L739.006 476.328H736.734L733.886 483.496L731.038 476.328H728.766ZM739.959 480.072V487H741.911V480.072H739.959ZM739.767 477.144C739.767 477.784 740.295 478.312 740.935 478.312C741.575 478.312 742.103 477.784 742.103 477.144C742.103 476.504 741.575 475.976 740.935 475.976C740.295 475.976 739.767 476.504 739.767 477.144ZM748.78 484.776C748.46 485.336 747.9 485.688 747.164 485.688C746.412 485.688 745.98 485.32 745.772 485.032C745.548 484.728 745.436 484.28 745.436 483.864H750.62V483.704C750.62 482.952 750.524 481.864 749.788 480.984C749.308 480.408 748.492 479.848 747.084 479.848C746.252 479.848 745.292 480.024 744.476 480.824C743.98 481.32 743.42 482.168 743.42 483.544C743.42 484.632 743.74 485.528 744.508 486.248C745.196 486.904 746.044 487.224 747.164 487.224C749.58 487.224 750.364 485.576 750.572 485.064L748.78 484.776ZM745.5 482.616C745.66 481.688 746.412 481.224 747.132 481.224C747.852 481.224 748.62 481.672 748.78 482.616H745.5ZM757.383 482.92L759.207 487H760.167L763.687 480.072H761.511L759.687 484.072L757.831 480.072H756.935L755.079 484.072L753.255 480.072H751.079L754.599 487H755.559L757.383 482.92ZM768.669 476.328V487H770.749V483.048H772.093C773.325 483.048 774.205 482.696 774.797 482.104C775.613 481.288 775.677 480.136 775.677 479.72C775.677 478.952 775.453 477.912 774.589 477.144C773.805 476.456 772.973 476.328 771.773 476.328H768.669ZM770.749 478.12H771.469C771.965 478.12 772.509 478.152 772.941 478.456C773.245 478.68 773.533 479.08 773.533 479.672C773.533 480.136 773.341 480.616 772.957 480.92C772.509 481.256 771.997 481.256 771.597 481.256H770.749V478.12ZM782.084 480.968C781.428 479.944 780.388 479.848 779.86 479.848C777.812 479.848 776.42 481.48 776.42 483.528C776.42 485.56 777.828 487.224 779.956 487.224C780.452 487.224 781.38 487.112 782.084 486.104V487H784.036V480.072H782.084V480.968ZM780.356 481.576C781.476 481.576 782.276 482.424 782.276 483.528C782.276 484.632 781.476 485.496 780.356 485.496C779.236 485.496 778.436 484.632 778.436 483.528C778.436 482.424 779.236 481.576 780.356 481.576ZM791.177 480.968C790.905 480.552 790.297 479.848 789.001 479.848C788.073 479.848 787.225 480.184 786.617 480.776C785.945 481.432 785.545 482.44 785.545 483.528C785.545 484.872 786.137 485.768 786.649 486.28C787.321 486.936 788.121 487.224 789.049 487.224C789.577 487.224 790.505 487.096 791.177 486.072V487.048C791.177 487.608 791.129 488.152 790.681 488.584C790.425 488.824 790.057 489.016 789.497 489.016C789.225 489.016 788.697 489 788.313 488.648C788.089 488.456 787.913 488.136 787.833 487.816H785.721C785.881 488.6 786.297 489.416 786.841 489.88C787.289 490.28 788.089 490.68 789.433 490.68C790.857 490.68 791.689 490.184 792.169 489.704C793.033 488.84 793.129 487.736 793.129 486.68V480.072H791.177V480.968ZM789.481 481.576C790.009 481.576 790.457 481.736 790.841 482.136C791.113 482.424 791.401 482.872 791.401 483.528C791.401 484.088 791.177 484.648 790.777 485.016C790.441 485.32 789.961 485.496 789.481 485.496C789.017 485.496 788.489 485.336 788.073 484.888C787.785 484.584 787.561 484.136 787.561 483.528C787.561 482.808 787.865 482.344 788.185 482.056C788.425 481.832 788.857 481.576 789.481 481.576ZM799.999 484.776C799.679 485.336 799.119 485.688 798.383 485.688C797.631 485.688 797.199 485.32 796.991 485.032C796.767 484.728 796.655 484.28 796.655 483.864H801.839V483.704C801.839 482.952 801.743 481.864 801.007 480.984C800.527 480.408 799.711 479.848 798.303 479.848C797.471 479.848 796.511 480.024 795.695 480.824C795.199 481.32 794.639 482.168 794.639 483.544C794.639 484.632 794.959 485.528 795.727 486.248C796.414 486.904 797.263 487.224 798.383 487.224C800.799 487.224 801.583 485.576 801.791 485.064L799.999 484.776ZM796.719 482.616C796.879 481.688 797.631 481.224 798.351 481.224C799.071 481.224 799.839 481.672 799.999 482.616H796.719ZM806.95 483.752V482.072C807.766 481.96 808.374 481.576 808.774 481.176C809.318 480.632 809.59 479.976 809.59 479.112C809.59 478.04 809.206 477.336 808.758 476.904C808.086 476.248 807.254 476.088 806.422 476.088C805.078 476.088 804.326 476.536 803.894 476.984C803.446 477.464 803.094 478.312 803.094 479.144H805.174C805.174 478.584 805.35 478.264 805.526 478.104C805.622 478.008 805.878 477.816 806.342 477.816C806.742 477.816 806.998 477.96 807.174 478.136C807.366 478.328 807.51 478.632 807.51 479.064C807.51 479.496 807.334 479.88 807.094 480.136C806.758 480.472 806.214 480.68 805.59 480.68C805.366 480.68 805.158 480.664 804.966 480.616V483.752H806.95ZM804.71 485.992C804.71 486.696 805.254 487.24 805.958 487.24C806.662 487.24 807.206 486.696 807.206 485.992C807.206 485.288 806.662 484.744 805.958 484.744C805.254 484.744 804.71 485.288 804.71 485.992Z" fill="#FAFAFA"/>
<rect opacity="0.4" x="430.5" y="343.5" width="87" height="40" rx="4.5" stroke="#E9DAAC"/>
<path d="M474 372C470.13 372 467 368.87 467 365C467 361.13 470.13 358 474 358C477.87 358 481 361.13 481 365C481 368.87 477.87 372 474 372ZM481.03 359.39L482.45 357.97C482 357.46 481.55 357 481.04 356.56L479.62 358C478.07 356.74 476.12 356 474 356C469.03 356 465 360.03 465 365C465 369.97 469.03 374 474 374C479 374 483 369.97 483 365C483 362.88 482.26 360.93 481.03 359.39ZM473 366H475V360H473V366ZM477 353H471V355H477V353Z" fill="#E9DAAC"/>
<path d="M465.643 322.232L467.979 329H469.547L473.499 318.328H471.291L468.731 325.592L466.267 318.232H465.115L462.507 325.592L460.123 318.328H457.915L461.627 329H463.195L465.643 322.232ZM479.107 322.968C478.451 321.944 477.411 321.848 476.883 321.848C474.835 321.848 473.443 323.48 473.443 325.528C473.443 327.56 474.851 329.224 476.979 329.224C477.475 329.224 478.403 329.112 479.107 328.104V329H481.059V322.072H479.107V322.968ZM477.379 323.576C478.499 323.576 479.299 324.424 479.299 325.528C479.299 326.632 478.499 327.496 477.379 327.496C476.259 327.496 475.459 326.632 475.459 325.528C475.459 324.424 476.259 323.576 477.379 323.576ZM482.92 322.072V329H484.872V322.072H482.92ZM482.728 319.144C482.728 319.784 483.256 320.312 483.896 320.312C484.536 320.312 485.064 319.784 485.064 319.144C485.064 318.504 484.536 317.976 483.896 317.976C483.256 317.976 482.728 318.504 482.728 319.144ZM490.029 323.736V322.072H488.685V319.704H486.733V322.072H485.965V323.736H486.733V329H488.685V323.736H490.029Z" fill="#FAFAFA"/>
<path d="M455.31 400.968C455.342 400.52 455.518 400.12 455.726 399.848C456.142 399.32 456.67 399.24 457.102 399.24C458.414 399.24 458.926 400.12 458.926 401.064C458.926 402.024 458.366 402.472 458.03 402.648C457.694 402.824 457.23 402.904 456.814 402.872V403.928C457.23 403.912 457.694 403.992 458.03 404.152C458.846 404.52 459.086 405.336 459.086 405.944C459.086 407.128 458.174 408.104 456.99 408.104C456.318 408.104 455.694 407.816 455.342 407.304C455.134 407.016 455.006 406.616 454.958 406.232H453.774C453.79 406.616 453.854 406.968 454.014 407.352C454.59 408.728 455.886 409.192 456.99 409.192C458.814 409.192 460.27 407.976 460.27 405.976C460.27 404.136 459.102 403.544 458.734 403.4C459.822 402.856 460.11 401.8 460.11 401.032C460.11 399.56 459.118 398.152 457.102 398.152C456.462 398.152 455.326 398.296 454.622 399.4C454.35 399.832 454.158 400.376 454.126 400.968H455.31ZM471.754 403.304C471.45 402.904 470.762 402.2 469.482 402.2C467.786 402.2 466.25 403.384 466.25 405.672C466.25 408.008 467.802 409.192 469.482 409.192C470.65 409.192 471.37 408.568 471.754 408.072V409H472.906V397.336H471.754V403.304ZM469.61 403.224C470.634 403.224 471.818 403.976 471.818 405.688C471.818 407 471.018 408.168 469.61 408.168C468.234 408.168 467.434 407.096 467.434 405.672C467.434 404.056 468.474 403.224 469.61 403.224ZM480.176 403.304C479.872 402.904 479.184 402.2 477.904 402.2C476.208 402.2 474.672 403.384 474.672 405.672C474.672 408.008 476.224 409.192 477.904 409.192C479.072 409.192 479.792 408.568 480.176 408.072V409H481.328V402.36H480.176V403.304ZM478.032 403.224C479.056 403.224 480.24 403.976 480.24 405.688C480.24 407 479.44 408.168 478.032 408.168C476.656 408.168 475.856 407.096 475.856 405.672C475.856 404.056 476.896 403.224 478.032 403.224ZM483.494 412.68H484.774L489.654 402.36H488.374L486.214 407.112L483.862 402.36H482.55L485.606 408.376L483.494 412.68ZM494.393 403.4C493.865 402.264 492.921 402.2 492.569 402.2C491.449 402.2 490.633 402.888 490.633 404.056C490.633 404.392 490.681 404.712 490.937 405.032C491.241 405.4 491.753 405.656 492.553 406.008C493.177 406.28 493.625 406.488 493.625 407.112C493.625 407.608 493.289 408.168 492.537 408.168C491.705 408.168 491.321 407.432 491.193 407.08L490.201 407.496C490.761 409.16 492.249 409.192 492.521 409.192C493.801 409.192 494.809 408.408 494.809 407.016C494.809 406.648 494.745 406.296 494.457 405.944C494.201 405.624 493.753 405.32 492.793 404.92C492.041 404.6 491.721 404.456 491.721 403.976C491.721 403.464 492.105 403.224 492.521 403.224C492.953 403.224 493.289 403.512 493.449 403.896L494.393 403.4Z" fill="#E9DAAC"/>
<rect opacity="0.4" x="1022.5" y="343.5" width="87" height="40" rx="4.5" stroke="#E9DAAC"/>
<path d="M1066 372C1062.13 372 1059 368.87 1059 365C1059 361.13 1062.13 358 1066 358C1069.87 358 1073 361.13 1073 365C1073 368.87 1069.87 372 1066 372ZM1073.03 359.39L1074.45 357.97C1074 357.46 1073.55 357 1073.04 356.56L1071.62 358C1070.07 356.74 1068.12 356 1066 356C1061.03 356 1057 360.03 1057 365C1057 369.97 1061.03 374 1066 374C1071 374 1075 369.97 1075 365C1075 362.88 1074.26 360.93 1073.03 359.39ZM1065 366H1067V360H1065V366ZM1069 353H1063V355H1069V353Z" fill="#E9DAAC"/>
<path d="M1057.64 322.232L1059.98 329H1061.55L1065.5 318.328H1063.29L1060.73 325.592L1058.27 318.232H1057.11L1054.51 325.592L1052.12 318.328H1049.91L1053.63 329H1055.19L1057.64 322.232ZM1071.11 322.968C1070.45 321.944 1069.41 321.848 1068.88 321.848C1066.84 321.848 1065.44 323.48 1065.44 325.528C1065.44 327.56 1066.85 329.224 1068.98 329.224C1069.48 329.224 1070.4 329.112 1071.11 328.104V329H1073.06V322.072H1071.11V322.968ZM1069.38 323.576C1070.5 323.576 1071.3 324.424 1071.3 325.528C1071.3 326.632 1070.5 327.496 1069.38 327.496C1068.26 327.496 1067.46 326.632 1067.46 325.528C1067.46 324.424 1068.26 323.576 1069.38 323.576ZM1074.92 322.072V329H1076.87V322.072H1074.92ZM1074.73 319.144C1074.73 319.784 1075.26 320.312 1075.9 320.312C1076.54 320.312 1077.06 319.784 1077.06 319.144C1077.06 318.504 1076.54 317.976 1075.9 317.976C1075.26 317.976 1074.73 318.504 1074.73 319.144ZM1082.03 323.736V322.072H1080.68V319.704H1078.73V322.072H1077.96V323.736H1078.73V329H1080.68V323.736H1082.03Z" fill="#FAFAFA"/>
<path d="M1047.31 400.968C1047.34 400.52 1047.52 400.12 1047.73 399.848C1048.14 399.32 1048.67 399.24 1049.1 399.24C1050.41 399.24 1050.93 400.12 1050.93 401.064C1050.93 402.024 1050.37 402.472 1050.03 402.648C1049.69 402.824 1049.23 402.904 1048.81 402.872V403.928C1049.23 403.912 1049.69 403.992 1050.03 404.152C1050.85 404.52 1051.09 405.336 1051.09 405.944C1051.09 407.128 1050.17 408.104 1048.99 408.104C1048.32 408.104 1047.69 407.816 1047.34 407.304C1047.13 407.016 1047.01 406.616 1046.96 406.232H1045.77C1045.79 406.616 1045.85 406.968 1046.01 407.352C1046.59 408.728 1047.89 409.192 1048.99 409.192C1050.81 409.192 1052.27 407.976 1052.27 405.976C1052.27 404.136 1051.1 403.544 1050.73 403.4C1051.82 402.856 1052.11 401.8 1052.11 401.032C1052.11 399.56 1051.12 398.152 1049.1 398.152C1048.46 398.152 1047.33 398.296 1046.62 399.4C1046.35 399.832 1046.16 400.376 1046.13 400.968H1047.31ZM1063.75 403.304C1063.45 402.904 1062.76 402.2 1061.48 402.2C1059.79 402.2 1058.25 403.384 1058.25 405.672C1058.25 408.008 1059.8 409.192 1061.48 409.192C1062.65 409.192 1063.37 408.568 1063.75 408.072V409H1064.91V397.336H1063.75V403.304ZM1061.61 403.224C1062.63 403.224 1063.82 403.976 1063.82 405.688C1063.82 407 1063.02 408.168 1061.61 408.168C1060.23 408.168 1059.43 407.096 1059.43 405.672C1059.43 404.056 1060.47 403.224 1061.61 403.224ZM1072.18 403.304C1071.87 402.904 1071.18 402.2 1069.9 402.2C1068.21 402.2 1066.67 403.384 1066.67 405.672C1066.67 408.008 1068.22 409.192 1069.9 409.192C1071.07 409.192 1071.79 408.568 1072.18 408.072V409H1073.33V402.36H1072.18V403.304ZM1070.03 403.224C1071.06 403.224 1072.24 403.976 1072.24 405.688C1072.24 407 1071.44 408.168 1070.03 408.168C1068.66 408.168 1067.86 407.096 1067.86 405.672C1067.86 404.056 1068.9 403.224 1070.03 403.224ZM1075.49 412.68H1076.77L1081.65 402.36H1080.37L1078.21 407.112L1075.86 402.36H1074.55L1077.61 408.376L1075.49 412.68ZM1086.39 403.4C1085.87 402.264 1084.92 402.2 1084.57 402.2C1083.45 402.2 1082.63 402.888 1082.63 404.056C1082.63 404.392 1082.68 404.712 1082.94 405.032C1083.24 405.4 1083.75 405.656 1084.55 406.008C1085.18 406.28 1085.62 406.488 1085.62 407.112C1085.62 407.608 1085.29 408.168 1084.54 408.168C1083.71 408.168 1083.32 407.432 1083.19 407.08L1082.2 407.496C1082.76 409.16 1084.25 409.192 1084.52 409.192C1085.8 409.192 1086.81 408.408 1086.81 407.016C1086.81 406.648 1086.75 406.296 1086.46 405.944C1086.2 405.624 1085.75 405.32 1084.79 404.92C1084.04 404.6 1083.72 404.456 1083.72 403.976C1083.72 403.464 1084.11 403.224 1084.52 403.224C1084.95 403.224 1085.29 403.512 1085.45 403.896L1086.39 403.4Z" fill="#E9DAAC"/>
<line x1="769.5" y1="546" x2="769.5" y2="573" stroke="#FF5C5C"/>
<rect x="753" y="573" width="33" height="16" rx="5" fill="#FF5C5C"/>
<path d="M762.503 585V579.648L767.375 585H768.455V576.996H766.895V582.336L762.023 576.996H760.943V585H762.503ZM774.171 576.816C771.651 576.816 769.899 578.568 769.899 581.004C769.899 583.44 771.651 585.18 774.171 585.18C776.691 585.18 778.443 583.44 778.443 581.004C778.443 578.568 776.691 576.816 774.171 576.816ZM774.171 583.764C772.611 583.764 771.507 582.624 771.507 581.004C771.507 579.384 772.611 578.232 774.171 578.232C775.731 578.232 776.835 579.384 776.835 581.004C776.835 582.624 775.731 583.764 774.171 583.764Z" fill="white"/>
<path d="M769.146 631.354C769.342 631.549 769.658 631.549 769.854 631.354L773.036 628.172C773.231 627.976 773.231 627.66 773.036 627.464C772.84 627.269 772.524 627.269 772.328 627.464L769.5 630.293L766.672 627.464C766.476 627.269 766.16 627.269 765.964 627.464C765.769 627.66 765.769 627.976 765.964 628.172L769.146 631.354ZM769 589L769 631L770 631L770 589L769 589Z" fill="#FF5C5C"/>
<line x1="814" y1="522.5" x2="874" y2="522.5" stroke="#4EBE96"/>
<rect x="828" y="514" width="33" height="16" rx="5" fill="#4EBE96"/>
<path d="M837.503 526H839.063V522.34L841.883 517.996H840.035L838.319 520.78L836.603 517.996H834.755L837.503 522.34V526ZM847.209 517.996H842.769V526H847.209V524.656H844.329V522.472H847.089V521.128H844.329V519.34H847.209V517.996ZM853.475 518.752C852.659 517.912 851.711 517.816 851.207 517.816C849.431 517.816 848.639 518.992 848.639 520.168C848.639 520.984 849.011 521.428 849.275 521.656C849.683 522.016 850.187 522.208 850.607 522.352C851.063 522.508 851.543 522.664 851.843 522.94C852.059 523.144 852.155 523.372 852.155 523.66C852.155 524.332 851.627 524.764 850.919 524.764C850.355 524.764 849.623 524.476 849.239 523.696L848.219 524.668C848.639 525.28 849.503 526.18 850.979 526.18C852.635 526.18 853.763 525.112 853.763 523.552C853.763 522.736 853.439 522.196 853.079 521.872C852.671 521.5 852.083 521.284 851.459 521.068C850.955 520.888 850.691 520.792 850.499 520.612C850.307 520.444 850.247 520.264 850.247 520.072C850.247 519.664 850.511 519.136 851.351 519.136C851.639 519.136 852.191 519.196 852.659 519.82L853.475 518.752Z" fill="white"/>
<line x1="962" y1="522.5" x2="1022" y2="522.5" stroke="#4EBE96"/>
<rect x="976" y="514" width="33" height="16" rx="5" fill="#4EBE96"/>
<path d="M985.503 526H987.063V522.34L989.883 517.996H988.035L986.319 520.78L984.603 517.996H982.755L985.503 522.34V526ZM995.209 517.996H990.769V526H995.209V524.656H992.329V522.472H995.089V521.128H992.329V519.34H995.209V517.996ZM1001.47 518.752C1000.66 517.912 999.711 517.816 999.207 517.816C997.431 517.816 996.639 518.992 996.639 520.168C996.639 520.984 997.011 521.428 997.275 521.656C997.683 522.016 998.187 522.208 998.607 522.352C999.063 522.508 999.543 522.664 999.843 522.94C1000.06 523.144 1000.15 523.372 1000.15 523.66C1000.15 524.332 999.627 524.764 998.919 524.764C998.355 524.764 997.623 524.476 997.239 523.696L996.219 524.668C996.639 525.28 997.503 526.18 998.979 526.18C1000.63 526.18 1001.76 525.112 1001.76 523.552C1001.76 522.736 1001.44 522.196 1001.08 521.872C1000.67 521.5 1000.08 521.284 999.459 521.068C998.955 520.888 998.691 520.792 998.499 520.612C998.307 520.444 998.247 520.264 998.247 520.072C998.247 519.664 998.511 519.136 999.351 519.136C999.639 519.136 1000.19 519.196 1000.66 519.82L1001.47 518.752Z" fill="white"/>
<rect opacity="0.4" x="874.5" y="501.5" width="87" height="40" rx="4.5" stroke="#6166DC"/>
<path d="M929.5 527L924.5 532L921 528.5L922.5 527L924.5 529L928 525.5L929.5 527ZM907 516V528C907 529.1 907.9 530 909 530H919V528H909V518.37L917 523.36L925 518.37V523H927V516C927 514.9 926.1 514 925 514H909C907.89 514 907 514.89 907 516ZM909 516H925L917 521L909 516Z" fill="#6166DC"/>
<path d="M908.263 477.336C907.175 476.216 905.911 476.088 905.239 476.088C902.871 476.088 901.815 477.656 901.815 479.224C901.815 480.312 902.311 480.904 902.663 481.208C903.207 481.688 903.879 481.944 904.439 482.136C905.047 482.344 905.687 482.552 906.087 482.92C906.375 483.192 906.503 483.496 906.503 483.88C906.503 484.776 905.799 485.352 904.855 485.352C904.103 485.352 903.127 484.968 902.615 483.928L901.255 485.224C901.815 486.04 902.967 487.24 904.935 487.24C907.143 487.24 908.647 485.816 908.647 483.736C908.647 482.648 908.215 481.928 907.735 481.496C907.191 481 906.407 480.712 905.575 480.424C904.903 480.184 904.551 480.056 904.295 479.816C904.039 479.592 903.959 479.352 903.959 479.096C903.959 478.552 904.311 477.848 905.431 477.848C905.815 477.848 906.551 477.928 907.175 478.76L908.263 477.336ZM915.194 484.776C914.874 485.336 914.314 485.688 913.578 485.688C912.826 485.688 912.394 485.32 912.186 485.032C911.962 484.728 911.85 484.28 911.85 483.864H917.034V483.704C917.034 482.952 916.938 481.864 916.202 480.984C915.722 480.408 914.906 479.848 913.498 479.848C912.666 479.848 911.706 480.024 910.89 480.824C910.394 481.32 909.834 482.168 909.834 483.544C909.834 484.632 910.154 485.528 910.922 486.248C911.61 486.904 912.458 487.224 913.578 487.224C915.994 487.224 916.778 485.576 916.986 485.064L915.194 484.776ZM911.914 482.616C912.074 481.688 912.826 481.224 913.546 481.224C914.266 481.224 915.034 481.672 915.194 482.616H911.914ZM918.545 487H920.497V483.464C920.497 483.064 920.513 482.568 920.801 482.12C921.089 481.688 921.489 481.512 922.001 481.512C922.193 481.512 922.609 481.544 922.913 481.864C923.265 482.232 923.281 482.84 923.281 483.224V487H925.233V482.648C925.233 481.976 925.169 481.288 924.689 480.696C924.145 480.024 923.249 479.848 922.641 479.848C921.521 479.848 920.865 480.456 920.497 480.968V480.072H918.545V487ZM932.404 480.968C931.748 479.944 930.708 479.848 930.18 479.848C928.132 479.848 926.74 481.48 926.74 483.528C926.74 485.56 928.148 487.224 930.276 487.224C930.772 487.224 931.7 487.112 932.404 486.104V487H934.356V475.336H932.404V480.968ZM930.676 481.576C931.796 481.576 932.596 482.424 932.596 483.528C932.596 484.632 931.796 485.496 930.676 485.496C929.556 485.496 928.756 484.632 928.756 483.528C928.756 482.424 929.556 481.576 930.676 481.576Z" fill="#FAFAFA"/>
<path d="M900.998 556.328H895.462V567H900.998V565.88H896.646V561.736H900.87V560.616H896.646V557.448H900.998V556.328ZM902.893 567H904.045V563.384C904.045 562.584 904.189 561.224 905.501 561.224C906.717 561.224 906.701 562.6 906.701 563.064V567H907.853V563.304C907.853 562.504 907.997 561.224 909.325 561.224C910.413 561.224 910.509 562.216 910.509 562.968V567H911.661V562.792C911.661 561.848 911.469 560.2 909.501 560.2C909.053 560.2 908.141 560.264 907.501 561.272C907.373 561.048 906.893 560.2 905.693 560.2C904.989 560.2 904.413 560.52 904.045 561.064V560.36H902.893V567ZM918.934 561.304C918.63 560.904 917.942 560.2 916.662 560.2C914.966 560.2 913.43 561.384 913.43 563.672C913.43 566.008 914.982 567.192 916.662 567.192C917.83 567.192 918.55 566.568 918.934 566.072V567H920.086V560.36H918.934V561.304ZM916.79 561.224C917.814 561.224 918.998 561.976 918.998 563.688C918.998 565 918.198 566.168 916.79 566.168C915.414 566.168 914.614 565.096 914.614 563.672C914.614 562.056 915.654 561.224 916.79 561.224ZM922.268 560.36V567H923.42V560.36H922.268ZM922.028 557.848C922.028 558.296 922.396 558.664 922.844 558.664C923.292 558.664 923.66 558.296 923.66 557.848C923.66 557.4 923.292 557.032 922.844 557.032C922.396 557.032 922.028 557.4 922.028 557.848ZM925.596 555.336V567H926.748V555.336H925.596ZM941.106 557.208C939.826 556.232 938.594 556.152 937.954 556.152C934.754 556.152 932.37 558.52 932.37 561.704C932.37 564.792 934.722 567.192 937.89 567.192C938.69 567.192 939.922 567 941.106 566.152V564.68C940.914 564.872 940.482 565.272 939.874 565.576C939.314 565.864 938.61 566.072 937.89 566.072C935.938 566.072 933.586 564.616 933.586 561.72C933.586 559.256 935.41 557.272 937.874 557.272C938.498 557.272 939.154 557.432 939.714 557.688C940.258 557.944 940.77 558.344 941.106 558.68V557.208Z" fill="#6166DC"/>
<rect opacity="0.4" x="1022.5" y="501.5" width="87" height="40" rx="4.5" stroke="#E9DAAC"/>
<path d="M1066 530C1062.13 530 1059 526.87 1059 523C1059 519.13 1062.13 516 1066 516C1069.87 516 1073 519.13 1073 523C1073 526.87 1069.87 530 1066 530ZM1073.03 517.39L1074.45 515.97C1074 515.46 1073.55 515 1073.04 514.56L1071.62 516C1070.07 514.74 1068.12 514 1066 514C1061.03 514 1057 518.03 1057 523C1057 527.97 1061.03 532 1066 532C1071 532 1075 527.97 1075 523C1075 520.88 1074.26 518.93 1073.03 517.39ZM1065 524H1067V518H1065V524ZM1069 511H1063V513H1069V511Z" fill="#E9DAAC"/>
<path d="M1057.64 480.232L1059.98 487H1061.55L1065.5 476.328H1063.29L1060.73 483.592L1058.27 476.232H1057.11L1054.51 483.592L1052.12 476.328H1049.91L1053.63 487H1055.19L1057.64 480.232ZM1071.11 480.968C1070.45 479.944 1069.41 479.848 1068.88 479.848C1066.84 479.848 1065.44 481.48 1065.44 483.528C1065.44 485.56 1066.85 487.224 1068.98 487.224C1069.48 487.224 1070.4 487.112 1071.11 486.104V487H1073.06V480.072H1071.11V480.968ZM1069.38 481.576C1070.5 481.576 1071.3 482.424 1071.3 483.528C1071.3 484.632 1070.5 485.496 1069.38 485.496C1068.26 485.496 1067.46 484.632 1067.46 483.528C1067.46 482.424 1068.26 481.576 1069.38 481.576ZM1074.92 480.072V487H1076.87V480.072H1074.92ZM1074.73 477.144C1074.73 477.784 1075.26 478.312 1075.9 478.312C1076.54 478.312 1077.06 477.784 1077.06 477.144C1077.06 476.504 1076.54 475.976 1075.9 475.976C1075.26 475.976 1074.73 476.504 1074.73 477.144ZM1082.03 481.736V480.072H1080.68V477.704H1078.73V480.072H1077.96V481.736H1078.73V487H1080.68V481.736H1082.03Z" fill="#FAFAFA"/>
<path d="M1047.31 558.968C1047.34 558.52 1047.52 558.12 1047.73 557.848C1048.14 557.32 1048.67 557.24 1049.1 557.24C1050.41 557.24 1050.93 558.12 1050.93 559.064C1050.93 560.024 1050.37 560.472 1050.03 560.648C1049.69 560.824 1049.23 560.904 1048.81 560.872V561.928C1049.23 561.912 1049.69 561.992 1050.03 562.152C1050.85 562.52 1051.09 563.336 1051.09 563.944C1051.09 565.128 1050.17 566.104 1048.99 566.104C1048.32 566.104 1047.69 565.816 1047.34 565.304C1047.13 565.016 1047.01 564.616 1046.96 564.232H1045.77C1045.79 564.616 1045.85 564.968 1046.01 565.352C1046.59 566.728 1047.89 567.192 1048.99 567.192C1050.81 567.192 1052.27 565.976 1052.27 563.976C1052.27 562.136 1051.1 561.544 1050.73 561.4C1051.82 560.856 1052.11 559.8 1052.11 559.032C1052.11 557.56 1051.12 556.152 1049.1 556.152C1048.46 556.152 1047.33 556.296 1046.62 557.4C1046.35 557.832 1046.16 558.376 1046.13 558.968H1047.31ZM1063.75 561.304C1063.45 560.904 1062.76 560.2 1061.48 560.2C1059.79 560.2 1058.25 561.384 1058.25 563.672C1058.25 566.008 1059.8 567.192 1061.48 567.192C1062.65 567.192 1063.37 566.568 1063.75 566.072V567H1064.91V555.336H1063.75V561.304ZM1061.61 561.224C1062.63 561.224 1063.82 561.976 1063.82 563.688C1063.82 565 1063.02 566.168 1061.61 566.168C1060.23 566.168 1059.43 565.096 1059.43 563.672C1059.43 562.056 1060.47 561.224 1061.61 561.224ZM1072.18 561.304C1071.87 560.904 1071.18 560.2 1069.9 560.2C1068.21 560.2 1066.67 561.384 1066.67 563.672C1066.67 566.008 1068.22 567.192 1069.9 567.192C1071.07 567.192 1071.79 566.568 1072.18 566.072V567H1073.33V560.36H1072.18V561.304ZM1070.03 561.224C1071.06 561.224 1072.24 561.976 1072.24 563.688C1072.24 565 1071.44 566.168 1070.03 566.168C1068.66 566.168 1067.86 565.096 1067.86 563.672C1067.86 562.056 1068.9 561.224 1070.03 561.224ZM1075.49 570.68H1076.77L1081.65 560.36H1080.37L1078.21 565.112L1075.86 560.36H1074.55L1077.61 566.376L1075.49 570.68ZM1086.39 561.4C1085.87 560.264 1084.92 560.2 1084.57 560.2C1083.45 560.2 1082.63 560.888 1082.63 562.056C1082.63 562.392 1082.68 562.712 1082.94 563.032C1083.24 563.4 1083.75 563.656 1084.55 564.008C1085.18 564.28 1085.62 564.488 1085.62 565.112C1085.62 565.608 1085.29 566.168 1084.54 566.168C1083.71 566.168 1083.32 565.432 1083.19 565.08L1082.2 565.496C1082.76 567.16 1084.25 567.192 1084.52 567.192C1085.8 567.192 1086.81 566.408 1086.81 565.016C1086.81 564.648 1086.75 564.296 1086.46 563.944C1086.2 563.624 1085.75 563.32 1084.79 562.92C1084.04 562.6 1083.72 562.456 1083.72 561.976C1083.72 561.464 1084.11 561.224 1084.52 561.224C1084.95 561.224 1085.29 561.512 1085.45 561.896L1086.39 561.4Z" fill="#E9DAAC"/>
<path d="M177.646 298.354C177.842 298.549 178.158 298.549 178.354 298.354L181.536 295.172C181.731 294.976 181.731 294.66 181.536 294.464C181.34 294.269 181.024 294.269 180.828 294.464L178 297.293L175.172 294.464C174.976 294.269 174.66 294.269 174.464 294.464C174.269 294.66 174.269 294.976 174.464 295.172L177.646 298.354ZM177.5 253L177.5 298L178.5 298L178.5 253L177.5 253Z" fill="#93C3EA"/>
<path d="M621.646 631.354C621.842 631.549 622.158 631.549 622.354 631.354L625.536 628.172C625.731 627.976 625.731 627.66 625.536 627.464C625.34 627.269 625.024 627.269 624.828 627.464L622 630.293L619.172 627.464C618.976 627.269 618.66 627.269 618.464 627.464C618.269 627.66 618.269 627.976 618.464 628.172L621.646 631.354ZM621.5 586L621.5 631L622.5 631L622.5 586L621.5 586Z" fill="#93C3EA"/>
<path d="M1169.35 364.354C1169.55 364.158 1169.55 363.842 1169.35 363.646L1166.17 360.464C1165.98 360.269 1165.66 360.269 1165.46 360.464C1165.27 360.66 1165.27 360.976 1165.46 361.172L1168.29 364L1165.46 366.828C1165.27 367.024 1165.27 367.34 1165.46 367.536C1165.66 367.731 1165.98 367.731 1166.17 367.536L1169.35 364.354ZM1124 364.5H1169V363.5H1124V364.5Z" fill="#93C3EA"/>
<path d="M1169.35 522.354C1169.55 522.158 1169.55 521.842 1169.35 521.646L1166.17 518.464C1165.98 518.269 1165.66 518.269 1165.46 518.464C1165.27 518.66 1165.27 518.976 1165.46 519.172L1168.29 522L1165.46 524.828C1165.27 525.024 1165.27 525.34 1165.46 525.536C1165.66 525.731 1165.98 525.731 1166.17 525.536L1169.35 522.354ZM1124 522.5H1169V521.5H1124V522.5Z" fill="#93C3EA"/>
<line x1="222" y1="364.5" x2="282" y2="364.5" stroke="#93C3EA"/>
<line x1="370" y1="364.5" x2="430" y2="364.5" stroke="#93C3EA"/>
<line x1="518" y1="364.5" x2="578" y2="364.5" stroke="#93C3EA"/>
<path d="M160.28 149.184C159.656 149.92 158.776 150.352 157.784 150.352C155.992 150.352 154.168 149.072 154.168 146.704C154.168 144.736 155.56 142.976 157.704 142.976C158.088 142.976 159.304 143.056 160.28 144.176V141.744C159.304 141.216 158.408 141.088 157.656 141.088C156.136 141.088 154.808 141.488 153.736 142.496C152.824 143.344 152.024 144.736 152.024 146.672C152.024 148.24 152.504 149.568 153.736 150.752C154.632 151.6 155.768 152.24 157.64 152.24C158.792 152.24 159.64 151.952 160.28 151.616V149.184ZM165.521 144.848C164.209 144.848 163.313 145.28 162.721 145.824C162.033 146.448 161.553 147.408 161.553 148.544C161.553 149.664 162.033 150.624 162.721 151.248C163.313 151.792 164.209 152.224 165.521 152.224C166.833 152.224 167.729 151.792 168.321 151.248C169.009 150.624 169.489 149.664 169.489 148.544C169.489 147.408 169.009 146.448 168.321 145.824C167.729 145.28 166.833 144.848 165.521 144.848ZM165.521 150.496C164.385 150.496 163.569 149.6 163.569 148.544C163.569 147.456 164.401 146.576 165.521 146.576C166.641 146.576 167.473 147.456 167.473 148.544C167.473 149.6 166.657 150.496 165.521 150.496ZM170.998 152H172.95V148.464C172.95 148.064 172.966 147.568 173.254 147.12C173.542 146.688 173.942 146.512 174.454 146.512C174.646 146.512 175.062 146.544 175.366 146.864C175.718 147.232 175.734 147.84 175.734 148.224V152H177.686V147.648C177.686 146.976 177.622 146.288 177.142 145.696C176.598 145.024 175.702 144.848 175.094 144.848C173.974 144.848 173.318 145.456 172.95 145.968V145.072H170.998V152ZM182.841 146.736V145.072H181.497V142.704H179.545V145.072H178.777V146.736H179.545V152H181.497V146.736H182.841ZM189.17 145.968C188.514 144.944 187.474 144.848 186.946 144.848C184.898 144.848 183.506 146.48 183.506 148.528C183.506 150.56 184.914 152.224 187.042 152.224C187.538 152.224 188.466 152.112 189.17 151.104V152H191.122V145.072H189.17V145.968ZM187.442 146.576C188.562 146.576 189.362 147.424 189.362 148.528C189.362 149.632 188.562 150.496 187.442 150.496C186.322 150.496 185.522 149.632 185.522 148.528C185.522 147.424 186.322 146.576 187.442 146.576ZM198.199 145.264C197.639 144.992 197.047 144.848 196.327 144.848C195.655 144.848 194.679 144.992 193.831 145.744C193.127 146.368 192.631 147.344 192.631 148.56C192.631 149.856 193.207 150.72 193.735 151.216C194.359 151.808 195.319 152.224 196.407 152.224C197.207 152.224 197.815 151.984 198.199 151.792V149.888C197.671 150.368 197.095 150.496 196.663 150.496C195.495 150.496 194.647 149.664 194.647 148.528C194.647 147.52 195.303 146.576 196.599 146.576C197.271 146.576 197.783 146.8 198.199 147.184V145.264ZM203.122 146.736V145.072H201.778V142.704H199.826V145.072H199.058V146.736H199.826V152H201.778V146.736H203.122ZM208.875 145.584C207.995 144.912 207.179 144.848 206.667 144.848C206.107 144.848 205.403 144.912 204.859 145.344C204.459 145.68 204.139 146.24 204.139 146.912C204.139 147.472 204.347 147.904 204.667 148.24C205.083 148.672 205.659 148.896 206.155 149.072L206.603 149.232C206.859 149.328 207.211 149.504 207.211 149.936C207.211 150.416 206.795 150.688 206.251 150.688C205.675 150.688 205.099 150.336 204.715 149.888L203.691 151.072C204.123 151.536 204.939 152.224 206.379 152.224C207.227 152.224 207.899 152 208.459 151.488C209.019 150.976 209.227 150.352 209.227 149.728C209.227 149.28 209.083 148.864 208.875 148.576C208.475 148.032 207.659 147.76 207.115 147.584L206.651 147.44C206.107 147.264 206.027 146.992 206.027 146.816C206.027 146.48 206.315 146.256 206.779 146.256C206.987 146.256 207.451 146.288 207.915 146.72L208.875 145.584Z" fill="white"/>
<path d="M118 162C120.21 162 122 163.79 122 166C122 168.21 120.21 170 118 170C115.79 170 114 168.21 114 166C114 163.79 115.79 162 118 162ZM118 172C122.42 172 126 173.79 126 176V178H110V176C110 173.79 113.58 172 118 172Z" fill="#FAFAFA"/>
<path d="M142 162C144.21 162 146 163.79 146 166C146 168.21 144.21 170 142 170C139.79 170 138 168.21 138 166C138 163.79 139.79 162 142 162ZM142 172C146.42 172 150 173.79 150 176V178H134V176C134 173.79 137.58 172 142 172Z" fill="#FAFAFA"/>
<path d="M166 162C168.21 162 170 163.79 170 166C170 168.21 168.21 170 166 170C163.79 170 162 168.21 162 166C162 163.79 163.79 162 166 162ZM166 172C170.42 172 174 173.79 174 176V178H158V176C158 173.79 161.58 172 166 172Z" fill="#FAFAFA"/>
<path d="M190 162C192.21 162 194 163.79 194 166C194 168.21 192.21 170 190 170C187.79 170 186 168.21 186 166C186 163.79 187.79 162 190 162ZM190 172C194.42 172 198 173.79 198 176V178H182V176C182 173.79 185.58 172 190 172Z" fill="#FAFAFA"/>
<path d="M214 162C216.21 162 218 163.79 218 166C218 168.21 216.21 170 214 170C211.79 170 210 168.21 210 166C210 163.79 211.79 162 214 162ZM214 172C218.42 172 222 173.79 222 176V178H206V176C206 173.79 209.58 172 214 172Z" fill="#FAFAFA"/>
<path d="M238 162C240.21 162 242 163.79 242 166C242 168.21 240.21 170 238 170C235.79 170 234 168.21 234 166C234 163.79 235.79 162 238 162ZM238 172C242.42 172 246 173.79 246 176V178H230V176C230 173.79 233.58 172 238 172Z" fill="#FAFAFA"/>
<path d="M118 188C120.21 188 122 189.79 122 192C122 194.21 120.21 196 118 196C115.79 196 114 194.21 114 192C114 189.79 115.79 188 118 188ZM118 198C122.42 198 126 199.79 126 202V204H110V202C110 199.79 113.58 198 118 198Z" fill="#FAFAFA"/>
<path d="M142 188C144.21 188 146 189.79 146 192C146 194.21 144.21 196 142 196C139.79 196 138 194.21 138 192C138 189.79 139.79 188 142 188ZM142 198C146.42 198 150 199.79 150 202V204H134V202C134 199.79 137.58 198 142 198Z" fill="#FAFAFA"/>
<path d="M166 188C168.21 188 170 189.79 170 192C170 194.21 168.21 196 166 196C163.79 196 162 194.21 162 192C162 189.79 163.79 188 166 188ZM166 198C170.42 198 174 199.79 174 202V204H158V202C158 199.79 161.58 198 166 198Z" fill="#6166DC"/>
<path d="M190 188C192.21 188 194 189.79 194 192C194 194.21 192.21 196 190 196C187.79 196 186 194.21 186 192C186 189.79 187.79 188 190 188ZM190 198C194.42 198 198 199.79 198 202V204H182V202C182 199.79 185.58 198 190 198Z" fill="#6166DC"/>
<path d="M214 188C216.21 188 218 189.79 218 192C218 194.21 216.21 196 214 196C211.79 196 210 194.21 210 192C210 189.79 211.79 188 214 188ZM214 198C218.42 198 222 199.79 222 202V204H206V202C206 199.79 209.58 198 214 198Z" fill="#6166DC"/>
<path d="M238 188C240.21 188 242 189.79 242 192C242 194.21 240.21 196 238 196C235.79 196 234 194.21 234 192C234 189.79 235.79 188 238 188ZM238 198C242.42 198 246 199.79 246 202V204H230V202C230 199.79 233.58 198 238 198Z" fill="#6166DC"/>
<path d="M118 214C120.21 214 122 215.79 122 218C122 220.21 120.21 222 118 222C115.79 222 114 220.21 114 218C114 215.79 115.79 214 118 214ZM118 224C122.42 224 126 225.79 126 228V230H110V228C110 225.79 113.58 224 118 224Z" fill="#FAFAFA"/>
<path d="M142 214C144.21 214 146 215.79 146 218C146 220.21 144.21 222 142 222C139.79 222 138 220.21 138 218C138 215.79 139.79 214 142 214ZM142 224C146.42 224 150 225.79 150 228V230H134V228C134 225.79 137.58 224 142 224Z" fill="#FAFAFA"/>
<path d="M166 214C168.21 214 170 215.79 170 218C170 220.21 168.21 222 166 222C163.79 222 162 220.21 162 218C162 215.79 163.79 214 166 214ZM166 224C170.42 224 174 225.79 174 228V230H158V228C158 225.79 161.58 224 166 224Z" fill="#6166DC"/>
<path d="M190 214C192.21 214 194 215.79 194 218C194 220.21 192.21 222 190 222C187.79 222 186 220.21 186 218C186 215.79 187.79 214 190 214ZM190 224C194.42 224 198 225.79 198 228V230H182V228C182 225.79 185.58 224 190 224Z" fill="#6166DC"/>
<path d="M214 214C216.21 214 218 215.79 218 218C218 220.21 216.21 222 214 222C211.79 222 210 220.21 210 218C210 215.79 211.79 214 214 214ZM214 224C218.42 224 222 225.79 222 228V230H206V228C206 225.79 209.58 224 214 224Z" fill="#6166DC"/>
<path d="M238 214C240.21 214 242 215.79 242 218C242 220.21 240.21 222 238 222C235.79 222 234 220.21 234 218C234 215.79 235.79 214 238 214ZM238 224C242.42 224 246 225.79 246 228V230H230V228C230 225.79 233.58 224 238 224Z" fill="#6166DC"/>
<rect x="153.5" y="183.5" width="97" height="52" rx="4.5" stroke="#6166DC"/>
<path d="M60 50C60 47.2386 62.2386 45 65 45H1195C1197.76 45 1200 47.2386 1200 50V75H60V50Z" fill="#111216"/>
<rect x="60" y="74" width="1140" height="1" fill="#1D2128"/>
<defs>
<filter id="filter0_d" x="0" y="0" width="1260" height="758" filterUnits="userSpaceOnUse" color-interpolation-filters="sRGB">
<feFlood flood-opacity="0" result="BackgroundImageFix"/>
<feColorMatrix in="SourceAlpha" type="matrix" values="0 0 0 0 0 0 0 0 0 0 0 0 0 0 0 0 0 0 127 0"/>
<feOffset dy="15"/>
<feGaussianBlur stdDeviation="30"/>
<feColorMatrix type="matrix" values="0 0 0 0 0 0 0 0 0 0 0 0 0 0 0 0 0 0 0.15 0"/>
<feBlend mode="normal" in2="BackgroundImageFix" result="effect1_dropShadow"/>
<feBlend mode="normal" in="SourceGraphic" in2="effect1_dropShadow" result="shape"/>
</filter>
</defs>
</svg>
