<svg width="1140" height="381" viewBox="0 0 1140 381" fill="none" xmlns="http://www.w3.org/2000/svg">
<mask id="mask0" mask-type="alpha" maskUnits="userSpaceOnUse" x="0" y="0" width="1140" height="381">
<rect width="1140" height="381" rx="5" fill="#202937"/>
</mask>
<g mask="url(#mask0)">
<rect width="1140" height="381" rx="5" fill="#222838"/>
<g filter="url(#filter0_d)">
<rect x="543" y="80" width="712" height="419" rx="5" fill="#1D2128" fill-opacity="0.98"/>
<rect x="543.5" y="80.5" width="711" height="418" rx="4.5" stroke="white" stroke-opacity="0.1"/>
</g>
<rect x="544" y="245" width="710" height="64" fill="#111216" fill-opacity="0.5"/>
<path d="M611.08 281.832C610.378 282.66 609.388 283.146 608.272 283.146C606.256 283.146 604.204 281.706 604.204 279.042C604.204 276.828 605.77 274.848 608.182 274.848C608.614 274.848 609.982 274.938 611.08 276.198V273.462C609.982 272.868 608.974 272.724 608.128 272.724C606.418 272.724 604.924 273.174 603.718 274.308C602.692 275.262 601.792 276.828 601.792 279.006C601.792 280.77 602.332 282.264 603.718 283.596C604.726 284.55 606.004 285.27 608.11 285.27C609.406 285.27 610.36 284.946 611.08 284.568V281.832ZM616.975 276.954C615.499 276.954 614.491 277.44 613.825 278.052C613.051 278.754 612.511 279.834 612.511 281.112C612.511 282.372 613.051 283.452 613.825 284.154C614.491 284.766 615.499 285.252 616.975 285.252C618.451 285.252 619.459 284.766 620.125 284.154C620.899 283.452 621.439 282.372 621.439 281.112C621.439 279.834 620.899 278.754 620.125 278.052C619.459 277.44 618.451 276.954 616.975 276.954ZM616.975 283.308C615.697 283.308 614.779 282.3 614.779 281.112C614.779 279.888 615.715 278.898 616.975 278.898C618.235 278.898 619.171 279.888 619.171 281.112C619.171 282.3 618.253 283.308 616.975 283.308ZM623.138 285H625.334V281.022C625.334 280.572 625.352 280.014 625.676 279.51C626 279.024 626.45 278.826 627.026 278.826C627.242 278.826 627.71 278.862 628.052 279.222C628.448 279.636 628.466 280.32 628.466 280.752V285H630.662V280.104C630.662 279.348 630.59 278.574 630.05 277.908C629.438 277.152 628.43 276.954 627.746 276.954C626.486 276.954 625.748 277.638 625.334 278.214V277.206H623.138V285ZM636.461 279.078V277.206H634.949V274.542H632.753V277.206H631.889V279.078H632.753V285H634.949V279.078H636.461ZM643.581 278.214C642.843 277.062 641.673 276.954 641.079 276.954C638.775 276.954 637.209 278.79 637.209 281.094C637.209 283.38 638.793 285.252 641.187 285.252C641.745 285.252 642.789 285.126 643.581 283.992V285H645.777V277.206H643.581V278.214ZM641.637 278.898C642.897 278.898 643.797 279.852 643.797 281.094C643.797 282.336 642.897 283.308 641.637 283.308C640.377 283.308 639.477 282.336 639.477 281.094C639.477 279.852 640.377 278.898 641.637 278.898ZM653.738 277.422C653.108 277.116 652.442 276.954 651.632 276.954C650.876 276.954 649.778 277.116 648.824 277.962C648.032 278.664 647.474 279.762 647.474 281.13C647.474 282.588 648.122 283.56 648.716 284.118C649.418 284.784 650.498 285.252 651.722 285.252C652.622 285.252 653.306 284.982 653.738 284.766V282.624C653.144 283.164 652.496 283.308 652.01 283.308C650.696 283.308 649.742 282.372 649.742 281.094C649.742 279.96 650.48 278.898 651.938 278.898C652.694 278.898 653.27 279.15 653.738 279.582V277.422ZM659.277 279.078V277.206H657.765V274.542H655.569V277.206H654.705V279.078H655.569V285H657.765V279.078H659.277ZM664.622 277.206V281.976C664.622 282.678 664.712 283.614 665.576 284.37C666.296 285 667.448 285.252 668.402 285.252C669.356 285.252 670.508 285 671.228 284.37C672.092 283.614 672.182 282.678 672.182 281.976V277.206H669.986V281.616C669.986 282.03 669.95 282.588 669.518 282.984C669.248 283.218 668.816 283.38 668.402 283.38C667.988 283.38 667.556 283.218 667.286 282.984C666.854 282.588 666.818 282.03 666.818 281.616V277.206H664.622ZM679.601 277.782C678.611 277.026 677.693 276.954 677.117 276.954C676.487 276.954 675.695 277.026 675.083 277.512C674.633 277.89 674.273 278.52 674.273 279.276C674.273 279.906 674.507 280.392 674.867 280.77C675.335 281.256 675.983 281.508 676.541 281.706L677.045 281.886C677.333 281.994 677.729 282.192 677.729 282.678C677.729 283.218 677.261 283.524 676.649 283.524C676.001 283.524 675.353 283.128 674.921 282.624L673.769 283.956C674.255 284.478 675.173 285.252 676.793 285.252C677.747 285.252 678.503 285 679.133 284.424C679.763 283.848 679.997 283.146 679.997 282.444C679.997 281.94 679.835 281.472 679.601 281.148C679.151 280.536 678.233 280.23 677.621 280.032L677.099 279.87C676.487 279.672 676.397 279.366 676.397 279.168C676.397 278.79 676.721 278.538 677.243 278.538C677.477 278.538 677.999 278.574 678.521 279.06L679.601 277.782Z" fill="#FAFAFA"/>
<path fill-rule="evenodd" clip-rule="evenodd" d="M576.798 283.498H567.543C566.691 283.498 566 282.807 566 281.955V275.785C566 274.933 566.691 274.242 567.543 274.242H577.313C577.774 274.215 578.197 274.5 578.345 274.938C578.494 275.376 578.332 275.859 577.95 276.119L573.168 279.795C572.59 280.24 571.779 280.219 571.224 279.744L568.257 277.204C568.118 277.084 568.052 276.9 568.086 276.719C568.12 276.538 568.247 276.389 568.42 276.328C568.594 276.267 568.786 276.303 568.926 276.422L571.893 278.962C572.082 279.116 572.352 279.116 572.541 278.962L577.323 275.286L567.543 275.27C567.259 275.27 567.028 275.501 567.028 275.785V281.955C567.028 282.239 567.259 282.469 567.543 282.469H576.798C577.082 282.469 577.313 282.239 577.313 281.955V277.841C577.313 277.557 577.543 277.327 577.827 277.327C578.111 277.327 578.341 277.557 578.341 277.841V281.955C578.341 282.807 577.65 283.498 576.798 283.498Z" fill="#6166DC"/>
<path d="M602.548 334.994V347H603.88V341.744H604.222L607.876 347H609.496L605.68 341.636C607.498 341.51 608.704 340.16 608.704 338.324C608.704 337.046 608.092 336.128 607.39 335.66C606.49 335.048 605.284 334.994 604.474 334.994H602.548ZM603.88 336.254H604.69C605.266 336.254 605.878 336.29 606.418 336.596C607.174 337.028 607.372 337.694 607.372 338.36C607.372 339.764 606.382 340.556 604.726 340.556H603.88V336.254ZM616.452 344.498C616.29 344.858 616.02 345.236 615.678 345.524C615.246 345.884 614.76 346.064 614.148 346.064C612.852 346.064 611.79 345.074 611.772 343.526H617.586C617.622 342.536 617.352 341.384 616.884 340.718C616.434 340.07 615.516 339.35 614.058 339.35C611.808 339.35 610.44 341.078 610.44 343.31C610.44 346.082 612.33 347.216 614.13 347.216C615.084 347.216 615.93 346.91 616.614 346.298C616.992 345.956 617.316 345.506 617.532 345.092L616.452 344.498ZM611.862 342.446C612.06 341.33 612.96 340.502 614.058 340.502C615.156 340.502 616.038 341.276 616.254 342.446H611.862ZM625.298 340.592C624.956 340.142 624.182 339.35 622.742 339.35C620.834 339.35 619.106 340.682 619.106 343.256C619.106 345.884 620.852 347.216 622.742 347.216C624.056 347.216 624.866 346.514 625.298 345.956V347H626.594V339.53H625.298V340.592ZM622.886 340.502C624.038 340.502 625.37 341.348 625.37 343.274C625.37 344.75 624.47 346.064 622.886 346.064C621.338 346.064 620.438 344.858 620.438 343.256C620.438 341.438 621.608 340.502 622.886 340.502ZM634.772 340.592C634.43 340.142 633.656 339.35 632.216 339.35C630.308 339.35 628.58 340.682 628.58 343.256C628.58 345.884 630.326 347.216 632.216 347.216C633.53 347.216 634.34 346.514 634.772 345.956V347H636.068V333.878H634.772V340.592ZM632.36 340.502C633.512 340.502 634.844 341.348 634.844 343.274C634.844 344.75 633.944 346.064 632.36 346.064C630.812 346.064 629.912 344.858 629.912 343.256C629.912 341.438 631.082 340.502 632.36 340.502ZM651.04 347H653.56L648.538 334.994H646.702L641.536 347H644.074L645.136 344.48H649.978L651.04 347ZM645.874 342.572L647.584 338.252L649.294 342.572H645.874ZM654.638 347H656.834V343.256C656.834 342.716 656.852 342.05 657.266 341.528C657.698 340.988 658.31 340.898 658.724 340.898C659.174 340.898 659.462 340.988 659.75 341.186L660.038 339.134C659.786 339.044 659.48 338.954 659.102 338.954C658.58 338.954 658.148 339.08 657.806 339.296C657.644 339.386 657.176 339.71 656.834 340.376V339.206H654.638V347ZM665.395 341.078V339.206H663.883V336.542H661.687V339.206H660.823V341.078H661.687V347H663.883V341.078H665.395ZM666.538 339.206V347H668.734V339.206H666.538ZM666.322 335.912C666.322 336.632 666.916 337.226 667.636 337.226C668.356 337.226 668.95 336.632 668.95 335.912C668.95 335.192 668.356 334.598 667.636 334.598C666.916 334.598 666.322 335.192 666.322 335.912ZM676.695 339.422C676.065 339.116 675.399 338.954 674.589 338.954C673.833 338.954 672.735 339.116 671.781 339.962C670.989 340.664 670.431 341.762 670.431 343.13C670.431 344.588 671.079 345.56 671.673 346.118C672.375 346.784 673.455 347.252 674.679 347.252C675.579 347.252 676.263 346.982 676.695 346.766V344.624C676.101 345.164 675.453 345.308 674.967 345.308C673.653 345.308 672.699 344.372 672.699 343.094C672.699 341.96 673.437 340.898 674.895 340.898C675.651 340.898 676.227 341.15 676.695 341.582V339.422ZM678.351 333.878V347H680.547V333.878H678.351ZM688.274 344.498C687.914 345.128 687.284 345.524 686.456 345.524C685.61 345.524 685.124 345.11 684.89 344.786C684.638 344.444 684.512 343.94 684.512 343.472H690.344V343.292C690.344 342.446 690.236 341.222 689.408 340.232C688.868 339.584 687.95 338.954 686.366 338.954C685.43 338.954 684.35 339.152 683.432 340.052C682.874 340.61 682.244 341.564 682.244 343.112C682.244 344.336 682.604 345.344 683.468 346.154C684.242 346.892 685.196 347.252 686.456 347.252C689.174 347.252 690.056 345.398 690.29 344.822L688.274 344.498ZM684.584 342.068C684.764 341.024 685.61 340.502 686.42 340.502C687.23 340.502 688.094 341.006 688.274 342.068H684.584ZM697.372 339.782C696.382 339.026 695.464 338.954 694.888 338.954C694.258 338.954 693.466 339.026 692.854 339.512C692.404 339.89 692.044 340.52 692.044 341.276C692.044 341.906 692.278 342.392 692.638 342.77C693.106 343.256 693.754 343.508 694.312 343.706L694.816 343.886C695.104 343.994 695.5 344.192 695.5 344.678C695.5 345.218 695.032 345.524 694.42 345.524C693.772 345.524 693.124 345.128 692.692 344.624L691.54 345.956C692.026 346.478 692.944 347.252 694.564 347.252C695.518 347.252 696.274 347 696.904 346.424C697.534 345.848 697.768 345.146 697.768 344.444C697.768 343.94 697.606 343.472 697.372 343.148C696.922 342.536 696.004 342.23 695.392 342.032L694.87 341.87C694.258 341.672 694.168 341.366 694.168 341.168C694.168 340.79 694.492 340.538 695.014 340.538C695.248 340.538 695.77 340.574 696.292 341.06L697.372 339.782Z" fill="#73737D"/>
<path fill-rule="evenodd" clip-rule="evenodd" d="M571.965 346.44C571.771 346.435 571.582 346.375 571.421 346.266C570.315 345.529 568.962 345.261 567.658 345.521C567.495 345.556 567.326 345.515 567.197 345.409C567.069 345.303 566.996 345.144 567 344.977V336.544C567 336.243 567.244 336 567.544 336H569.077C569.539 336 569.999 336.054 570.448 336.163C570.635 336.216 570.78 336.364 570.829 336.553C570.877 336.741 570.821 336.941 570.682 337.077C570.543 337.213 570.341 337.265 570.154 337.213C569.757 337.119 569.349 337.077 568.941 337.088H568.088V344.352C569.461 344.227 570.835 344.572 571.986 345.331C573.137 344.572 574.512 344.227 575.885 344.352V337.12C574.715 336.99 573.537 337.277 572.557 337.93V343.205C572.557 343.505 572.314 343.749 572.014 343.749C571.713 343.749 571.47 343.505 571.47 343.205V337.669C571.469 337.499 571.547 337.338 571.682 337.234C573.082 336.188 574.864 335.792 576.576 336.147C576.829 336.204 577.006 336.431 577 336.691V345.016C577.004 345.182 576.931 345.341 576.803 345.447C576.674 345.553 576.505 345.594 576.342 345.559C575.038 345.299 573.685 345.567 572.579 346.304C572.394 346.413 572.179 346.461 571.965 346.44Z" fill="#73737D"/>
<path d="M579.928 181.936V180.656H567.448V181.936H572.984V202H574.392V181.936H579.928ZM581.423 209.36H582.895L591.471 188.944H589.999L585.231 200.56L579.759 188.944H578.287L584.495 202.224L581.423 209.36ZM595.303 199.664C595.687 200.304 597.127 202.352 600.359 202.352C604.327 202.352 606.759 199.216 606.759 195.376C606.759 191.6 604.359 188.656 600.423 188.656C598.343 188.656 596.551 189.52 595.303 191.216V188.944H594.023V209.36H595.303V199.664ZM600.327 201.136C597.031 201.136 595.239 198.576 595.239 195.312C595.239 191.696 597.799 189.872 600.359 189.872C603.047 189.872 605.415 191.792 605.415 195.376C605.415 198.576 603.623 201.136 600.327 201.136ZM622.203 195.632C622.203 191.472 619.547 188.656 616.027 188.656C612.827 188.656 609.691 190.992 609.691 195.536C609.691 199.344 612.059 202.352 616.123 202.352C619.355 202.352 621.083 200.272 621.851 198.8L620.763 198.16C619.931 199.888 618.331 201.136 616.219 201.136C613.467 201.136 611.035 198.96 611.035 195.632H622.203ZM611.131 194.416C611.483 191.888 613.371 189.872 616.027 189.872C618.619 189.872 620.539 191.824 620.859 194.416H611.131ZM634.548 209.36H636.02L644.596 188.944H643.124L638.356 200.56L632.884 188.944H631.412L637.62 202.224L634.548 209.36ZM653.164 188.656C649.292 188.656 646.316 191.632 646.316 195.504C646.316 199.376 649.292 202.352 653.164 202.352C657.036 202.352 660.012 199.376 660.012 195.504C660.012 191.632 657.036 188.656 653.164 188.656ZM653.164 201.136C650.028 201.136 647.66 198.672 647.66 195.504C647.66 192.336 650.028 189.872 653.164 189.872C656.3 189.872 658.668 192.336 658.668 195.504C658.668 198.672 656.3 201.136 653.164 201.136ZM663.773 188.944V197.168C663.773 198.224 663.869 199.6 664.765 200.752C665.757 202.032 667.325 202.352 668.477 202.352C669.629 202.352 671.197 202.032 672.189 200.752C673.085 199.6 673.181 198.224 673.181 197.168V188.944H671.901V196.816C671.901 197.744 671.869 199.12 671.069 200.08C670.269 201.04 669.085 201.136 668.477 201.136C667.869 201.136 666.685 201.04 665.885 200.08C665.085 199.12 665.053 197.744 665.053 196.816V188.944H663.773ZM677.804 202H679.084V194.992C679.084 193.36 679.116 189.872 681.74 189.872C682.316 189.872 682.572 190.032 682.7 190.128L683.34 188.976C682.86 188.72 682.316 188.656 681.964 188.656C680.556 188.656 679.564 189.52 679.084 190.64V188.944H677.804V202ZM704.049 190.32C702.257 188.816 700.465 188.656 699.537 188.656C695.345 188.656 692.753 191.696 692.753 195.568C692.753 199.44 695.505 202.352 699.441 202.352C701.745 202.352 703.345 201.296 704.209 200.528V198.8C703.185 199.92 701.553 201.136 699.473 201.136C696.945 201.136 694.097 199.28 694.097 195.536C694.097 192.336 696.337 189.872 699.537 189.872C701.681 189.872 703.185 191.024 704.049 192.016V190.32ZM713.758 188.656C709.886 188.656 706.91 191.632 706.91 195.504C706.91 199.376 709.886 202.352 713.758 202.352C717.63 202.352 720.606 199.376 720.606 195.504C720.606 191.632 717.63 188.656 713.758 188.656ZM713.758 201.136C710.622 201.136 708.254 198.672 708.254 195.504C708.254 192.336 710.622 189.872 713.758 189.872C716.894 189.872 719.262 192.336 719.262 195.504C719.262 198.672 716.894 201.136 713.758 201.136ZM724.367 202H725.647V194.448C725.647 191.856 726.703 189.872 728.975 189.872C731.791 189.872 731.855 192.784 731.855 193.616V202H733.135V194.128C733.135 193.328 733.167 189.872 736.623 189.872C737.231 189.872 737.999 190 738.575 190.608C739.279 191.344 739.343 192.432 739.343 193.296V202H740.623V193.296C740.623 192.24 740.559 190.8 739.503 189.744C738.927 189.168 737.999 188.656 736.559 188.656C734.831 188.656 733.423 189.456 732.687 191.024C732.431 190.352 731.599 188.656 729.039 188.656C728.143 188.656 726.639 188.88 725.647 190.576V188.944H724.367V202ZM745.242 202H746.522V194.448C746.522 191.856 747.578 189.872 749.85 189.872C752.666 189.872 752.73 192.784 752.73 193.616V202H754.01V194.128C754.01 193.328 754.042 189.872 757.498 189.872C758.106 189.872 758.874 190 759.45 190.608C760.154 191.344 760.218 192.432 760.218 193.296V202H761.498V193.296C761.498 192.24 761.434 190.8 760.378 189.744C759.802 189.168 758.874 188.656 757.434 188.656C755.706 188.656 754.298 189.456 753.562 191.024C753.306 190.352 752.474 188.656 749.914 188.656C749.018 188.656 747.514 188.88 746.522 190.576V188.944H745.242V202ZM776.741 191.216C775.493 189.456 773.701 188.656 771.653 188.656C767.845 188.656 765.285 191.44 765.285 195.472C765.285 199.76 768.229 202.352 771.653 202.352C773.349 202.352 775.429 201.68 776.741 199.664V202H778.021V188.944H776.741V191.216ZM771.717 189.872C773.957 189.872 776.805 191.504 776.805 195.376C776.805 198.384 775.013 201.136 771.749 201.136C768.453 201.136 766.629 198.32 766.629 195.376C766.629 191.824 769.125 189.872 771.717 189.872ZM782.617 202H783.897V195.216C783.897 193.936 784.025 192.72 784.601 191.696C785.081 190.832 786.009 189.872 787.801 189.872C789.369 189.872 790.073 190.672 790.361 191.152C790.841 191.888 790.873 192.88 790.873 193.776V202H792.153V193.776C792.153 192.624 792.089 191.408 791.513 190.48C791.225 190.032 790.233 188.656 787.897 188.656C785.689 188.656 784.505 189.904 783.897 190.992V188.944H782.617V202ZM807.397 191.216C806.373 189.744 804.709 188.656 802.341 188.656C799.173 188.656 795.941 190.64 795.941 195.408C795.941 199.984 799.045 202.352 802.341 202.352C804.005 202.352 806.085 201.68 807.397 199.664V202H808.677V178.672H807.397V191.216ZM802.341 189.872C805.573 189.872 807.461 192.336 807.461 195.376C807.461 199.184 804.997 201.136 802.405 201.136C799.781 201.136 797.285 199.184 797.285 195.376C797.285 191.728 799.653 189.872 802.341 189.872Z" fill="white" fill-opacity="0.15"/>
<rect x="567" y="170" width="1" height="44" fill="#6166DC"/>
<rect x="567" y="145" width="664" height="1" fill="#73737D" fill-opacity="0.3"/>
<path d="M579 120.494H567V122.345H579V120.494Z" fill="#FAFAFA"/>
<path d="M567.005 112.083V119.582L570.679 117.005V114.656L567.005 112.083Z" fill="#FAFAFA"/>
<path d="M578.993 114.112L578.991 106.658L575.303 109.206V111.518L578.993 114.112Z" fill="#FAFAFA"/>
<path d="M578.994 119.588V115.04L567.004 106.657V111.167L578.994 119.588Z" fill="#FAFAFA"/>
<path d="M603.56 121V112.76L611.88 121.48V110.328H610.696V118.6L602.376 109.88V121H603.56ZM619.426 115.304C619.122 114.904 618.434 114.2 617.154 114.2C615.458 114.2 613.922 115.384 613.922 117.672C613.922 120.008 615.474 121.192 617.154 121.192C618.322 121.192 619.042 120.568 619.426 120.072V121H620.578V114.36H619.426V115.304ZM617.282 115.224C618.306 115.224 619.49 115.976 619.49 117.688C619.49 119 618.69 120.168 617.282 120.168C615.906 120.168 615.106 119.096 615.106 117.672C615.106 116.056 616.146 115.224 617.282 115.224ZM622.76 121H623.912V117.496C623.912 116.408 624.104 115.96 624.296 115.704C624.472 115.48 624.76 115.288 625.224 115.288C625.4 115.288 625.64 115.336 625.896 115.512L626.44 114.472C626.152 114.328 625.768 114.2 625.416 114.2C624.52 114.2 624.024 114.904 623.912 115.08V114.36H622.76V121ZM632.239 115.304C631.935 114.904 631.247 114.2 629.967 114.2C628.271 114.2 626.735 115.384 626.735 117.672C626.735 120.008 628.287 121.192 629.967 121.192C631.135 121.192 631.855 120.568 632.239 120.072V121H633.391V114.36H632.239V115.304ZM630.095 115.224C631.119 115.224 632.303 115.976 632.303 117.688C632.303 119 631.503 120.168 630.095 120.168C628.719 120.168 627.919 119.096 627.919 117.672C627.919 116.056 628.959 115.224 630.095 115.224ZM637.908 115.416V114.36H636.756V111.96H635.604V114.36H634.9V115.416H635.604V121H636.756V115.416H637.908ZM638.994 114.36V121H640.146V114.36H638.994ZM638.754 111.848C638.754 112.296 639.122 112.664 639.57 112.664C640.018 112.664 640.386 112.296 640.386 111.848C640.386 111.4 640.018 111.032 639.57 111.032C639.122 111.032 638.754 111.4 638.754 111.848ZM641.362 114.36L644.626 121.432L647.89 114.36H646.61L644.626 118.84L642.642 114.36H641.362ZM654.032 118.776C653.888 119.096 653.648 119.432 653.344 119.688C652.96 120.008 652.528 120.168 651.984 120.168C650.832 120.168 649.888 119.288 649.872 117.912H655.04C655.072 117.032 654.832 116.008 654.416 115.416C654.016 114.84 653.2 114.2 651.904 114.2C649.904 114.2 648.688 115.736 648.688 117.72C648.688 120.184 650.368 121.192 651.968 121.192C652.816 121.192 653.568 120.92 654.176 120.376C654.512 120.072 654.8 119.672 654.992 119.304L654.032 118.776ZM649.952 116.952C650.128 115.96 650.928 115.224 651.904 115.224C652.88 115.224 653.664 115.912 653.856 116.952H649.952ZM668.989 111.208C667.709 110.232 666.477 110.152 665.837 110.152C662.637 110.152 660.253 112.52 660.253 115.704C660.253 118.792 662.605 121.192 665.773 121.192C666.573 121.192 667.805 121 668.989 120.152V118.68C668.797 118.872 668.365 119.272 667.757 119.576C667.197 119.864 666.493 120.072 665.773 120.072C663.821 120.072 661.469 118.616 661.469 115.72C661.469 113.256 663.293 111.272 665.757 111.272C666.381 111.272 667.037 111.432 667.597 111.688C668.141 111.944 668.653 112.344 668.989 112.68V111.208ZM673.989 121.192C676.005 121.192 677.509 119.72 677.509 117.704C677.509 115.688 676.021 114.2 673.989 114.2C671.957 114.2 670.469 115.688 670.469 117.704C670.469 119.72 671.973 121.192 673.989 121.192ZM673.989 115.224C675.205 115.224 676.325 116.072 676.325 117.704C676.325 119.32 675.189 120.168 673.989 120.168C672.805 120.168 671.653 119.336 671.653 117.704C671.653 116.088 672.773 115.224 673.989 115.224ZM679.276 121H680.428V117.384C680.428 116.584 680.572 115.224 681.884 115.224C683.1 115.224 683.084 116.6 683.084 117.064V121H684.236V117.304C684.236 116.504 684.38 115.224 685.708 115.224C686.796 115.224 686.892 116.216 686.892 116.968V121H688.044V116.792C688.044 115.848 687.852 114.2 685.884 114.2C685.436 114.2 684.524 114.264 683.884 115.272C683.756 115.048 683.276 114.2 682.076 114.2C681.372 114.2 680.796 114.52 680.428 115.064V114.36H679.276V121ZM690.229 121H691.381V117.384C691.381 116.584 691.525 115.224 692.837 115.224C694.053 115.224 694.037 116.6 694.037 117.064V121H695.189V117.304C695.189 116.504 695.333 115.224 696.661 115.224C697.749 115.224 697.845 116.216 697.845 116.968V121H698.997V116.792C698.997 115.848 698.805 114.2 696.837 114.2C696.389 114.2 695.477 114.264 694.837 115.272C694.709 115.048 694.229 114.2 693.029 114.2C692.325 114.2 691.749 114.52 691.381 115.064V114.36H690.229V121ZM706.27 115.304C705.966 114.904 705.278 114.2 703.998 114.2C702.302 114.2 700.766 115.384 700.766 117.672C700.766 120.008 702.318 121.192 703.998 121.192C705.166 121.192 705.886 120.568 706.27 120.072V121H707.422V114.36H706.27V115.304ZM704.126 115.224C705.15 115.224 706.334 115.976 706.334 117.688C706.334 119 705.534 120.168 704.126 120.168C702.75 120.168 701.95 119.096 701.95 117.672C701.95 116.056 702.99 115.224 704.126 115.224ZM709.604 121H710.756V117.528C710.756 117.048 710.788 116.264 711.236 115.736C711.572 115.336 712.004 115.224 712.404 115.224C712.916 115.224 713.268 115.416 713.492 115.704C713.764 116.056 713.796 116.52 713.796 116.92V121H714.948V116.888C714.948 116.152 714.9 115.608 714.564 115.112C714.164 114.52 713.444 114.2 712.66 114.2C711.556 114.2 710.964 114.856 710.756 115.128V114.36H709.604V121ZM722.207 115.304C721.903 114.904 721.215 114.2 719.935 114.2C718.239 114.2 716.703 115.384 716.703 117.672C716.703 120.008 718.255 121.192 719.935 121.192C721.103 121.192 721.823 120.568 722.207 120.072V121H723.359V109.336H722.207V115.304ZM720.063 115.224C721.087 115.224 722.271 115.976 722.271 117.688C722.271 119 721.471 120.168 720.063 120.168C718.687 120.168 717.887 119.096 717.887 117.672C717.887 116.056 718.927 115.224 720.063 115.224Z" fill="#73737D"/>
</g>
<defs>
<filter id="filter0_d" x="493" y="45" width="812" height="519" filterUnits="userSpaceOnUse" color-interpolation-filters="sRGB">
<feFlood flood-opacity="0" result="BackgroundImageFix"/>
<feColorMatrix in="SourceAlpha" type="matrix" values="0 0 0 0 0 0 0 0 0 0 0 0 0 0 0 0 0 0 127 0"/>
<feOffset dy="15"/>
<feGaussianBlur stdDeviation="25"/>
<feColorMatrix type="matrix" values="0 0 0 0 0 0 0 0 0 0 0 0 0 0 0 0 0 0 0.45 0"/>
<feBlend mode="normal" in2="BackgroundImageFix" result="effect1_dropShadow"/>
<feBlend mode="normal" in="SourceGraphic" in2="effect1_dropShadow" result="shape"/>
</filter>
</defs>
</svg>
