<svg width="267" height="19" viewBox="0 0 267 19" fill="none" xmlns="http://www.w3.org/2000/svg">
<path d="M12.8163 8.85552C12.8163 10.2475 12.9603 11.8795 13.0323 12.4315H12.9123C12.6483 11.7355 12.0723 10.4875 11.3283 9.31152L6.24029 1.31952H0.696289V2.47152C1.94429 2.49552 2.32829 2.83152 2.32829 4.19952V15.1915C2.32829 16.5595 1.94429 16.8955 0.696289 16.8955V17.9995H6.04829V16.8955C4.77629 16.8955 4.39229 16.5595 4.39229 15.1915V8.97552C4.39229 7.43952 4.24829 5.85552 4.17629 5.30352H4.27229C4.51229 5.83152 5.13629 7.12752 6.26429 8.87952L12.1443 17.9995H14.8323V4.19952C14.8323 2.83152 15.1923 2.49552 16.4403 2.47152V1.31952H11.1603V2.47152C12.4323 2.49552 12.8163 2.83152 12.8163 4.19952V8.85552Z" fill="#FAFAFA"/>
<path d="M28.0347 14.3995C28.0347 12.2155 28.1307 10.2235 28.1307 9.50352C28.1307 6.69552 26.2107 5.47152 23.4507 5.47152C21.5067 5.47152 19.5387 6.07152 18.2667 6.81552V9.26353H20.9067C21.0747 7.99152 21.4587 7.07952 22.8267 7.07952C24.0987 7.07952 24.5547 7.87152 24.5547 9.71952V10.8235C24.2427 10.7995 23.6907 10.7755 23.4027 10.7755C19.6347 10.7755 17.4987 11.9515 17.4987 14.7835C17.4987 17.2555 19.1787 18.3355 21.3147 18.3355C23.2107 18.3355 24.2427 17.3275 24.6507 16.4635C24.8427 17.4715 25.6347 18.1435 27.1227 18.1435C28.1787 18.1435 29.0667 17.8795 29.5707 17.5675V16.5355C28.2987 16.4875 28.0347 16.1995 28.0347 14.3995ZM24.5067 12.1675L24.4347 15.2155C24.0027 15.7675 23.2347 16.1035 22.6107 16.1035C21.6987 16.1035 21.1707 15.6955 21.1707 14.3275C21.1707 12.8635 22.0347 12.1675 23.6667 12.1675H24.5067Z" fill="#FAFAFA"/>
<path d="M35.4757 8.54352C35.4277 6.95952 34.8997 5.78352 34.7317 5.47152H34.3717L30.5077 6.43152V7.48752C31.7077 7.53552 31.9477 7.77552 31.9477 9.52752V15.2395C31.9477 16.6075 31.6837 16.8955 30.4837 16.9195V17.9995H37.4197V16.9195C35.7877 16.8955 35.5237 16.6075 35.5237 15.2395V11.4955C35.5237 9.62352 36.0037 9.04752 37.8277 9.04752C38.4037 9.04752 38.7157 9.11952 39.1477 9.23952L39.8197 5.61552C39.6277 5.54352 39.2917 5.47152 38.9317 5.47152C37.6117 5.47152 36.0757 6.47952 35.4757 8.54352Z" fill="#FAFAFA"/>
<path d="M51.1207 14.3995C51.1207 12.2155 51.2167 10.2235 51.2167 9.50352C51.2167 6.69552 49.2967 5.47152 46.5367 5.47152C44.5927 5.47152 42.6247 6.07152 41.3527 6.81552V9.26353H43.9927C44.1607 7.99152 44.5447 7.07952 45.9127 7.07952C47.1847 7.07952 47.6407 7.87152 47.6407 9.71952V10.8235C47.3287 10.7995 46.7767 10.7755 46.4887 10.7755C42.7207 10.7755 40.5847 11.9515 40.5847 14.7835C40.5847 17.2555 42.2647 18.3355 44.4007 18.3355C46.2967 18.3355 47.3287 17.3275 47.7367 16.4635C47.9287 17.4715 48.7207 18.1435 50.2087 18.1435C51.2647 18.1435 52.1527 17.8795 52.6567 17.5675V16.5355C51.3847 16.4875 51.1207 16.1995 51.1207 14.3995ZM47.5927 12.1675L47.5207 15.2155C47.0887 15.7675 46.3207 16.1035 45.6967 16.1035C44.7847 16.1035 44.2567 15.6955 44.2567 14.3275C44.2567 12.8635 45.1207 12.1675 46.7527 12.1675H47.5927Z" fill="#FAFAFA"/>
<path d="M61.2016 5.78352H58.2976C58.2976 4.55953 58.3936 3.11952 58.5136 2.25552L56.0176 2.56752C55.4176 3.47952 55.0576 4.65552 54.9136 5.73552L53.3056 6.38352V7.60752H54.7456V14.8555C54.7456 17.4955 55.9696 18.3115 58.1536 18.3115C59.4736 18.3115 60.5056 18.0235 61.4176 17.4475L61.0576 16.1995C60.5056 16.4155 60.1216 16.4875 59.6896 16.4875C58.4896 16.4875 58.3216 15.8395 58.3216 14.0635V7.60752H60.8176L61.2016 5.78352Z" fill="#FAFAFA"/>
<path d="M68.6752 17.9995V16.9195C67.4272 16.8955 67.2112 16.6075 67.2112 15.2395V5.59152H66.6832L62.1952 6.43152V7.48752C63.3952 7.53552 63.6352 7.77552 63.6352 9.52752V15.2395C63.6352 16.6075 63.3712 16.8955 62.1712 16.9195V17.9995H68.6752ZM67.4032 2.39952C67.4032 1.24752 66.4912 0.311523 65.3152 0.311523C64.1152 0.311523 63.1552 1.24752 63.1552 2.39952C63.1552 3.57552 64.1152 4.51152 65.2672 4.51152C66.4672 4.51152 67.4032 3.57552 67.4032 2.39952Z" fill="#FAFAFA"/>
<path d="M76.4309 18.1195L79.9589 8.37552C80.3909 7.22352 80.6789 7.00752 81.6389 6.88752V5.78352H76.6229V6.88752C77.6069 6.91152 78.0389 7.15152 78.0389 7.72752C78.0389 7.87152 77.9909 8.06352 77.9189 8.30352L76.3829 13.0315C76.1429 13.8235 75.9269 14.6875 75.9029 14.8795H75.7589C75.7109 14.5195 75.5669 13.8235 75.3029 13.0315L73.6709 8.30352C73.5749 8.06352 73.5269 7.87152 73.5269 7.70352C73.5269 7.19952 73.8869 6.91152 74.8949 6.88752V5.78352H68.3909V6.88752C69.2309 7.00752 69.4709 7.22352 69.9269 8.37552L73.6709 18.1195H76.4309Z" fill="#FAFAFA"/>
<path d="M89.0157 16.2235C86.7117 16.2235 85.7997 15.1195 85.7037 12.4075H92.9997V11.3755C92.9997 7.70352 91.4637 5.47152 87.6957 5.47152C84.2157 5.47152 81.8637 7.79952 81.8637 11.8555C81.8637 15.9355 84.0477 18.2875 87.7677 18.2875C89.9037 18.2875 91.4877 17.6395 92.7837 16.3675L92.2077 15.3835C91.1757 15.9355 90.0237 16.2235 89.0157 16.2235ZM87.7197 6.95952C88.9677 6.95952 89.4477 7.87152 89.4477 10.7755H85.7277C85.8957 7.84752 86.4957 6.95952 87.7197 6.95952Z" fill="#FAFAFA"/>
<path d="M107.661 18.2875C110.061 18.2875 112.125 17.6875 113.109 16.9675V13.7995H110.637C110.325 15.7675 109.701 16.6555 107.805 16.6555C105.741 16.6555 104.301 15.5515 104.301 9.74352C104.301 4.27152 105.549 2.73552 107.805 2.73552C109.461 2.73552 110.013 3.67152 110.397 5.49552H112.989V2.23152C111.837 1.48752 110.205 1.03152 107.853 1.03152C103.245 1.03152 100.101 3.79152 100.101 9.88752C100.101 15.2875 102.765 18.2875 107.661 18.2875Z" fill="#FAFAFA"/>
<path d="M127.032 11.7115C127.032 7.51153 124.536 5.47152 121.056 5.47152C117.24 5.47152 114.84 8.03952 114.84 11.9275C114.84 15.9595 117.096 18.3115 120.864 18.3115C124.2 18.3115 127.032 16.2715 127.032 11.7115ZM123.12 11.6155C123.12 15.3115 122.4 16.8235 120.984 16.8235C119.256 16.8235 118.752 15.3355 118.752 11.9755C118.752 8.18353 119.424 7.00752 120.936 7.00752C122.376 7.00752 123.12 8.13552 123.12 11.6155Z" fill="#FAFAFA"/>
<path d="M140.475 7.60752C139.971 6.28752 138.771 5.49552 137.355 5.49552C135.627 5.49552 134.427 6.31152 133.395 7.55952C133.323 6.59952 132.891 5.75952 132.747 5.47152H132.387L128.523 6.43152V7.48752C129.723 7.53552 129.963 7.77552 129.963 9.52752V15.2395C129.963 16.6075 129.699 16.8955 128.499 16.9195V17.9995H134.883V16.9195C133.659 16.9195 133.539 16.6075 133.539 15.3115V8.87952C134.163 8.44752 134.811 8.01552 135.771 8.01552C136.683 8.01552 137.211 8.51952 137.211 9.95952V15.3115C137.211 16.6075 137.067 16.9195 135.867 16.9195V17.9995H142.083V16.9195C140.955 16.8955 140.787 16.6075 140.787 15.3115V8.80752C141.363 8.39952 142.011 8.01552 142.947 8.01552C143.859 8.01552 144.387 8.51952 144.387 9.95952V15.3115C144.387 16.6075 144.243 16.9195 143.043 16.9195V17.9995H149.379V16.9195C148.203 16.8955 147.939 16.6075 147.939 15.2395V9.11952C147.939 6.64752 146.451 5.49552 144.531 5.49552C142.827 5.49552 141.507 6.33552 140.475 7.60752Z" fill="#FAFAFA"/>
<path d="M162.342 7.60752C161.838 6.28752 160.638 5.49552 159.222 5.49552C157.494 5.49552 156.294 6.31152 155.262 7.55952C155.19 6.59952 154.758 5.75952 154.614 5.47152H154.254L150.39 6.43152V7.48752C151.59 7.53552 151.83 7.77552 151.83 9.52752V15.2395C151.83 16.6075 151.566 16.8955 150.366 16.9195V17.9995H156.75V16.9195C155.526 16.9195 155.406 16.6075 155.406 15.3115V8.87952C156.03 8.44752 156.678 8.01552 157.638 8.01552C158.55 8.01552 159.078 8.51952 159.078 9.95952V15.3115C159.078 16.6075 158.934 16.9195 157.734 16.9195V17.9995H163.95V16.9195C162.822 16.8955 162.654 16.6075 162.654 15.3115V8.80752C163.23 8.39952 163.878 8.01552 164.814 8.01552C165.726 8.01552 166.254 8.51952 166.254 9.95952V15.3115C166.254 16.6075 166.11 16.9195 164.91 16.9195V17.9995H171.246V16.9195C170.07 16.8955 169.806 16.6075 169.806 15.2395V9.11952C169.806 6.64752 168.318 5.49552 166.398 5.49552C164.694 5.49552 163.374 6.33552 162.342 7.60752Z" fill="#FAFAFA"/>
<path d="M182.746 14.3995C182.746 12.2155 182.842 10.2235 182.842 9.50352C182.842 6.69552 180.922 5.47152 178.162 5.47152C176.218 5.47152 174.25 6.07152 172.978 6.81552V9.26353H175.618C175.786 7.99152 176.17 7.07952 177.538 7.07952C178.81 7.07952 179.266 7.87152 179.266 9.71952V10.8235C178.954 10.7995 178.402 10.7755 178.114 10.7755C174.346 10.7755 172.21 11.9515 172.21 14.7835C172.21 17.2555 173.89 18.3355 176.026 18.3355C177.922 18.3355 178.954 17.3275 179.362 16.4635C179.554 17.4715 180.346 18.1435 181.834 18.1435C182.89 18.1435 183.778 17.8795 184.282 17.5675V16.5355C183.01 16.4875 182.746 16.1995 182.746 14.3995ZM179.218 12.1675L179.146 15.2155C178.714 15.7675 177.946 16.1035 177.322 16.1035C176.41 16.1035 175.882 15.6955 175.882 14.3275C175.882 12.8635 176.746 12.1675 178.378 12.1675H179.218Z" fill="#FAFAFA"/>
<path d="M197.795 9.11952C197.795 6.64752 196.283 5.49552 194.315 5.49552C192.443 5.49552 191.171 6.45552 190.139 7.63152C190.067 6.67152 189.611 5.73552 189.443 5.47152H189.083L185.219 6.43152V7.48752C186.419 7.53552 186.659 7.77552 186.659 9.52752V15.2395C186.659 16.6075 186.395 16.8955 185.195 16.9195V17.9995H191.699V16.9195C190.451 16.8955 190.235 16.5835 190.235 15.2875V8.92752C190.859 8.44752 191.579 8.01552 192.635 8.01552C193.643 8.01552 194.219 8.51952 194.219 9.95952V15.2875C194.219 16.5835 194.003 16.8955 192.779 16.9195V17.9995H199.211V16.9195C198.059 16.8955 197.795 16.6075 197.795 15.2395V9.11952Z" fill="#FAFAFA"/>
<path d="M208.955 16.3675C209.027 17.3755 209.435 18.1195 209.603 18.3115H209.963L213.851 17.4475V16.4635C212.579 16.3675 212.315 16.1755 212.315 14.4235V0.383524H211.691L207.227 1.03152V2.08752C208.403 2.13552 208.763 2.37552 208.763 4.12752V6.67152C208.163 5.92752 207.107 5.49552 205.907 5.49552C202.763 5.49552 200.411 7.46352 200.411 11.9755C200.411 16.3675 202.427 18.2875 205.235 18.2875C206.867 18.2875 208.283 17.4955 208.955 16.3675ZM204.299 11.7115C204.299 8.35153 205.259 7.51152 206.699 7.51152C207.467 7.51152 208.211 7.75152 208.763 8.39952V15.0715C208.091 15.7435 207.347 16.0795 206.555 16.0795C205.115 16.0795 204.299 15.0955 204.299 11.7115Z" fill="#FAFAFA"/>
<path d="M222.213 1H219V6.79266H222.213V5.81998H220.129V4.23938H222.126V3.26669H220.129V1.97268H222.213V1Z" fill="#E9DAAC"/>
<path d="M222.718 6.79266H224.073L225.41 4.67361L226.678 6.79266H228.033L226.053 3.73567L227.833 1H226.478L225.41 2.79772L224.394 1H223.039L224.767 3.73567L222.718 6.79266Z" fill="#E9DAAC"/>
<path d="M228.864 1V6.79266H229.993V4.64755H230.722C231.391 4.64755 231.868 4.45649 232.19 4.13516C232.633 3.69224 232.667 3.06695 232.667 2.84115C232.667 2.42428 232.546 1.85978 232.077 1.44292C231.651 1.06948 231.2 1 230.548 1H228.864ZM229.993 1.97268H230.383C230.653 1.97268 230.948 1.99005 231.182 2.15506C231.347 2.27664 231.504 2.49376 231.504 2.81509C231.504 3.06695 231.399 3.32749 231.191 3.4925C230.948 3.67487 230.67 3.67487 230.453 3.67487H229.993V1.97268Z" fill="#E9DAAC"/>
<path d="M236.716 1H233.503V6.79266H236.716V5.81998H234.632V4.23938H236.629V3.26669H234.632V1.97268H236.716V1Z" fill="#E9DAAC"/>
<path d="M237.811 1V6.79266H238.94V4.46518H239.079L240.625 6.79266H242.032L240.225 4.35228C240.503 4.30017 240.712 4.20464 240.859 4.10042C241.311 3.79646 241.537 3.30143 241.537 2.73693C241.537 2.3027 241.407 1.80767 240.964 1.43423C240.694 1.20843 240.286 1 239.487 1H237.811ZM238.94 1.92057H239.279C239.487 1.92057 240.373 1.92926 240.373 2.78904C240.373 3.64013 239.479 3.66619 239.261 3.66619H238.94V1.92057Z" fill="#E9DAAC"/>
<path d="M242.798 1V6.79266H243.927V1H242.798Z" fill="#E9DAAC"/>
<path d="M244.954 6.79266H246.1L246.691 3.22327L248.176 6.79266H248.558L250.112 3.22327L250.633 6.79266H251.78L250.807 1H249.991L248.384 4.68229L246.847 1H246.031L244.954 6.79266Z" fill="#E9DAAC"/>
<path d="M256.019 1H252.806V6.79266H256.019V5.81998H253.935V4.23938H255.932V3.26669H253.935V1.97268H256.019V1Z" fill="#E9DAAC"/>
<path d="M258.243 6.79266V2.91931L261.769 6.79266H262.551V1H261.422V4.86467L257.896 1H257.114V6.79266H258.243Z" fill="#E9DAAC"/>
<path d="M267 1.97268V1H263.266V1.97268H264.568V6.79266H265.697V1.97268H267Z" fill="#E9DAAC"/>
</svg>
