<svg width="1260" height="215" viewBox="0 0 1260 215" fill="none" xmlns="http://www.w3.org/2000/svg">
<g filter="url(#filter0_d)">
<rect x="60" y="45" width="1140" height="95" rx="5" fill="#1D2128"/>
</g>
<path d="M289 85L287.59 86.41L293.17 92H281V94H293.17L287.59 99.59L289 101L297 93L289 85Z" fill="#FAFAFA"/>
<path d="M516 85L514.59 86.41L520.17 92H508V94H520.17L514.59 99.59L516 101L524 93L516 85Z" fill="#FAFAFA"/>
<path d="M743 85L741.59 86.41L747.17 92H735V94H747.17L741.59 99.59L743 101L751 93L743 85Z" fill="#FAFAFA"/>
<path d="M970 85L968.59 86.41L974.17 92H962V94H974.17L968.59 99.59L970 101L978 93L970 85Z" fill="#FAFAFA"/>
<path d="M122.432 98.576C122.504 98.792 122.552 99.008 122.552 99.176C122.552 99.656 122.168 99.848 121.088 99.896V101H127.904V99.896C126.92 99.776 126.68 99.392 126.296 98.288L121.52 84.32H118.496L113.96 98.288C113.552 99.56 113.216 99.776 112.184 99.896V101H117.488V99.896C116.432 99.848 115.952 99.776 115.952 99.176C115.952 99.032 115.976 98.84 116.048 98.576L116.648 96.512H121.784L122.432 98.576ZM118.328 90.728C118.76 89.264 118.952 88.448 119.072 87.968H119.192C119.288 88.448 119.48 89.336 119.912 90.68L121.208 94.736H117.152L118.328 90.728ZM138.921 89.456C138.081 88.904 136.881 88.496 134.985 88.496C131.649 88.496 128.817 90.776 128.817 95.096C128.817 99.296 131.457 101.288 134.673 101.288C136.497 101.288 138.129 100.64 139.233 99.344L138.585 98.432C137.577 99.032 136.881 99.296 135.753 99.296C133.953 99.296 132.513 98.144 132.513 94.544C132.513 90.872 133.857 89.984 134.985 89.984C135.969 89.984 136.161 90.608 136.257 92.096H138.921V89.456ZM144.376 94.712C144.376 91.352 145.336 90.512 146.776 90.512C147.544 90.512 148.288 90.752 148.84 91.4V98.072C148.168 98.744 147.424 99.08 146.632 99.08C145.192 99.08 144.376 98.096 144.376 94.712ZM149.44 89.936C148.744 89.048 147.664 88.496 146.152 88.496C143.008 88.496 140.488 90.464 140.488 94.976C140.488 99.368 142.504 101.288 145.312 101.288C146.944 101.288 148.168 100.496 148.84 99.416V102.944C148.84 104.288 148.6 104.6 147.328 104.624V105.704H153.856V104.624C152.68 104.6 152.416 104.312 152.416 102.944V91.904C152.416 90.464 152.536 89.168 152.704 88.544H150.424C150.016 88.784 149.632 89.264 149.44 89.936ZM166.687 88.592H166.111L161.695 89.432V90.488C162.871 90.536 163.135 90.776 163.135 92.528V98.12C162.415 98.72 161.791 99.008 160.975 99.008C159.871 99.008 159.439 98.36 159.439 97.064V88.592H158.863L154.447 89.432V90.488C155.599 90.536 155.863 90.776 155.863 92.528V97.904C155.863 100.28 157.231 101.312 159.271 101.312C161.119 101.312 162.391 100.52 163.327 99.368C163.423 100.376 163.807 101.024 163.975 101.312H164.335L168.175 100.448V99.464C166.951 99.368 166.687 99.176 166.687 97.424V88.592ZM175.745 101V99.92C174.497 99.896 174.281 99.608 174.281 98.24V88.592H173.753L169.265 89.432V90.488C170.465 90.536 170.705 90.776 170.705 92.528V98.24C170.705 99.608 170.441 99.896 169.241 99.92V101H175.745ZM174.473 85.4C174.473 84.248 173.561 83.312 172.385 83.312C171.185 83.312 170.225 84.248 170.225 85.4C170.225 86.576 171.185 87.512 172.337 87.512C173.537 87.512 174.473 86.576 174.473 85.4ZM181.42 101.312C184.78 101.312 186.7 99.824 186.7 97.232C186.7 95.048 185.356 93.776 182.98 93.248L181.228 92.84C180.244 92.624 179.812 92.24 179.812 91.448C179.812 90.512 180.436 90.032 181.54 90.032C182.764 90.032 183.58 90.512 183.772 91.88H185.98V89.336C185.332 89.048 183.988 88.472 181.828 88.472C179.188 88.472 177.004 89.816 177.004 92.528C177.004 94.616 178.18 95.84 180.172 96.272L182.02 96.656C183.148 96.896 183.7 97.328 183.7 98.312C183.7 99.368 182.884 99.824 181.708 99.824C180.388 99.824 179.5 99.368 179.332 97.688H176.956V100.28C177.628 100.64 178.876 101.312 181.42 101.312ZM194.519 101V99.92C193.271 99.896 193.055 99.608 193.055 98.24V88.592H192.527L188.039 89.432V90.488C189.239 90.536 189.479 90.776 189.479 92.528V98.24C189.479 99.608 189.215 99.896 188.015 99.92V101H194.519ZM193.247 85.4C193.247 84.248 192.335 83.312 191.159 83.312C189.959 83.312 188.999 84.248 188.999 85.4C188.999 86.576 189.959 87.512 191.111 87.512C192.311 87.512 193.247 86.576 193.247 85.4ZM203.217 88.784H200.313C200.313 87.56 200.409 86.12 200.529 85.256L198.033 85.568C197.433 86.48 197.073 87.656 196.929 88.736L195.321 89.384V90.608H196.761V97.856C196.761 100.496 197.985 101.312 200.169 101.312C201.489 101.312 202.521 101.024 203.433 100.448L203.073 99.2C202.521 99.416 202.137 99.488 201.705 99.488C200.505 99.488 200.337 98.84 200.337 97.064V90.608H202.833L203.217 88.784ZM210.691 101V99.92C209.443 99.896 209.227 99.608 209.227 98.24V88.592H208.699L204.211 89.432V90.488C205.411 90.536 205.651 90.776 205.651 92.528V98.24C205.651 99.608 205.387 99.896 204.187 99.92V101H210.691ZM209.419 85.4C209.419 84.248 208.507 83.312 207.331 83.312C206.131 83.312 205.171 84.248 205.171 85.4C205.171 86.576 206.131 87.512 207.283 87.512C208.483 87.512 209.419 86.576 209.419 85.4ZM224.165 94.712C224.165 90.512 221.669 88.472 218.189 88.472C214.373 88.472 211.973 91.04 211.973 94.928C211.973 98.96 214.229 101.312 217.997 101.312C221.333 101.312 224.165 99.272 224.165 94.712ZM220.253 94.616C220.253 98.312 219.533 99.824 218.117 99.824C216.389 99.824 215.885 98.336 215.885 94.976C215.885 91.184 216.557 90.008 218.069 90.008C219.509 90.008 220.253 91.136 220.253 94.616ZM238.232 92.12C238.232 89.648 236.72 88.496 234.752 88.496C232.88 88.496 231.608 89.456 230.576 90.632C230.504 89.672 230.048 88.736 229.88 88.472H229.52L225.656 89.432V90.488C226.856 90.536 227.096 90.776 227.096 92.528V98.24C227.096 99.608 226.832 99.896 225.632 99.92V101H232.136V99.92C230.888 99.896 230.672 99.584 230.672 98.288V91.928C231.296 91.448 232.016 91.016 233.072 91.016C234.08 91.016 234.656 91.52 234.656 92.96V98.288C234.656 99.584 234.44 99.896 233.216 99.92V101H239.648V99.92C238.496 99.896 238.232 99.608 238.232 98.24V92.12Z" fill="#FAFAFA"/>
<path d="M356.323 98.576C356.395 98.792 356.443 99.008 356.443 99.176C356.443 99.656 356.059 99.848 354.979 99.896V101H361.795V99.896C360.811 99.776 360.571 99.392 360.187 98.288L355.411 84.32H352.387L347.851 98.288C347.443 99.56 347.107 99.776 346.075 99.896V101H351.379V99.896C350.323 99.848 349.843 99.776 349.843 99.176C349.843 99.032 349.867 98.84 349.939 98.576L350.539 96.512H355.675L356.323 98.576ZM352.219 90.728C352.651 89.264 352.843 88.448 352.963 87.968H353.083C353.179 88.448 353.371 89.336 353.803 90.68L355.099 94.736H351.043L352.219 90.728ZM372.811 89.456C371.971 88.904 370.771 88.496 368.875 88.496C365.539 88.496 362.707 90.776 362.707 95.096C362.707 99.296 365.347 101.288 368.563 101.288C370.387 101.288 372.019 100.64 373.123 99.344L372.475 98.432C371.467 99.032 370.771 99.296 369.643 99.296C367.843 99.296 366.403 98.144 366.403 94.544C366.403 90.872 367.747 89.984 368.875 89.984C369.859 89.984 370.051 90.608 370.147 92.096H372.811V89.456ZM382.029 88.784H379.125C379.125 87.56 379.221 86.12 379.341 85.256L376.845 85.568C376.245 86.48 375.885 87.656 375.741 88.736L374.133 89.384V90.608H375.573V97.856C375.573 100.496 376.797 101.312 378.981 101.312C380.301 101.312 381.333 101.024 382.245 100.448L381.885 99.2C381.333 99.416 380.949 99.488 380.517 99.488C379.317 99.488 379.149 98.84 379.149 97.064V90.608H381.645L382.029 88.784ZM389.503 101V99.92C388.255 99.896 388.039 99.608 388.039 98.24V88.592H387.511L383.023 89.432V90.488C384.223 90.536 384.463 90.776 384.463 92.528V98.24C384.463 99.608 384.199 99.896 382.999 99.92V101H389.503ZM388.231 85.4C388.231 84.248 387.319 83.312 386.143 83.312C384.943 83.312 383.983 84.248 383.983 85.4C383.983 86.576 384.943 87.512 386.095 87.512C387.295 87.512 388.231 86.576 388.231 85.4ZM397.259 101.12L400.787 91.376C401.219 90.224 401.507 90.008 402.467 89.888V88.784H397.451V89.888C398.435 89.912 398.867 90.152 398.867 90.728C398.867 90.872 398.819 91.064 398.747 91.304L397.211 96.032C396.971 96.824 396.755 97.688 396.731 97.88H396.587C396.539 97.52 396.395 96.824 396.131 96.032L394.499 91.304C394.403 91.064 394.355 90.872 394.355 90.704C394.355 90.2 394.715 89.912 395.723 89.888V88.784H389.219V89.888C390.059 90.008 390.299 90.224 390.755 91.376L394.499 101.12H397.259ZM413.245 97.4C413.245 95.216 413.341 93.224 413.341 92.504C413.341 89.696 411.421 88.472 408.661 88.472C406.717 88.472 404.749 89.072 403.477 89.816V92.264H406.117C406.285 90.992 406.669 90.08 408.037 90.08C409.309 90.08 409.765 90.872 409.765 92.72V93.824C409.453 93.8 408.901 93.776 408.613 93.776C404.845 93.776 402.709 94.952 402.709 97.784C402.709 100.256 404.389 101.336 406.525 101.336C408.421 101.336 409.453 100.328 409.861 99.464C410.053 100.472 410.845 101.144 412.333 101.144C413.389 101.144 414.277 100.88 414.781 100.568V99.536C413.509 99.488 413.245 99.2 413.245 97.4ZM409.717 95.168L409.645 98.216C409.213 98.768 408.445 99.104 407.821 99.104C406.909 99.104 406.381 98.696 406.381 97.328C406.381 95.864 407.245 95.168 408.877 95.168H409.717ZM423.326 88.784H420.422C420.422 87.56 420.518 86.12 420.638 85.256L418.142 85.568C417.542 86.48 417.182 87.656 417.038 88.736L415.43 89.384V90.608H416.87V97.856C416.87 100.496 418.094 101.312 420.278 101.312C421.598 101.312 422.63 101.024 423.542 100.448L423.182 99.2C422.63 99.416 422.246 99.488 421.814 99.488C420.614 99.488 420.446 98.84 420.446 97.064V90.608H422.942L423.326 88.784ZM430.8 101V99.92C429.552 99.896 429.336 99.608 429.336 98.24V88.592H428.808L424.32 89.432V90.488C425.52 90.536 425.76 90.776 425.76 92.528V98.24C425.76 99.608 425.496 99.896 424.296 99.92V101H430.8ZM429.528 85.4C429.528 84.248 428.616 83.312 427.44 83.312C426.24 83.312 425.28 84.248 425.28 85.4C425.28 86.576 426.24 87.512 427.392 87.512C428.592 87.512 429.528 86.576 429.528 85.4ZM444.274 94.712C444.274 90.512 441.778 88.472 438.298 88.472C434.482 88.472 432.082 91.04 432.082 94.928C432.082 98.96 434.338 101.312 438.106 101.312C441.442 101.312 444.274 99.272 444.274 94.712ZM440.362 94.616C440.362 98.312 439.642 99.824 438.226 99.824C436.498 99.824 435.994 98.336 435.994 94.976C435.994 91.184 436.666 90.008 438.178 90.008C439.618 90.008 440.362 91.136 440.362 94.616ZM458.341 92.12C458.341 89.648 456.829 88.496 454.861 88.496C452.989 88.496 451.717 89.456 450.685 90.632C450.613 89.672 450.157 88.736 449.989 88.472H449.629L445.765 89.432V90.488C446.965 90.536 447.205 90.776 447.205 92.528V98.24C447.205 99.608 446.941 99.896 445.741 99.92V101H452.245V99.92C450.997 99.896 450.781 99.584 450.781 98.288V91.928C451.405 91.448 452.125 91.016 453.181 91.016C454.189 91.016 454.765 91.52 454.765 92.96V98.288C454.765 99.584 454.549 99.896 453.325 99.92V101H459.757V99.92C458.605 99.896 458.341 99.608 458.341 98.24V92.12Z" fill="#FAFAFA"/>
<path d="M584.779 93.488C587.371 93.344 589.411 92.072 589.411 89.12C589.411 85.64 586.963 84.32 583.507 84.32H575.899V85.472C577.147 85.496 577.531 85.832 577.531 87.2V98.192C577.531 99.56 577.147 99.896 575.899 99.896V101H582.931V99.896C581.707 99.896 581.299 99.536 581.299 98.192V93.992C582.523 94.112 583.027 94.52 583.867 96.032C584.803 97.784 585.139 98.528 586.195 101H591.043V99.896C589.891 99.848 589.675 99.416 589.219 98.504C588.475 96.992 588.019 96.176 587.395 95.288C586.867 94.568 585.955 93.896 584.779 93.584V93.488ZM585.403 89.144C585.403 91.664 584.539 92.312 582.739 92.312H581.299V86.024H582.787C584.611 86.024 585.403 86.84 585.403 89.144ZM598.969 99.224C596.665 99.224 595.753 98.12 595.657 95.408H602.953V94.376C602.953 90.704 601.417 88.472 597.649 88.472C594.169 88.472 591.817 90.8 591.817 94.856C591.817 98.936 594.001 101.288 597.721 101.288C599.857 101.288 601.441 100.64 602.737 99.368L602.161 98.384C601.129 98.936 599.977 99.224 598.969 99.224ZM597.673 89.96C598.921 89.96 599.401 90.872 599.401 93.776H595.681C595.849 90.848 596.449 89.96 597.673 89.96ZM611.936 88.784H609.032C609.032 87.56 609.128 86.12 609.248 85.256L606.752 85.568C606.152 86.48 605.792 87.656 605.648 88.736L604.04 89.384V90.608H605.48V97.856C605.48 100.496 606.704 101.312 608.888 101.312C610.208 101.312 611.24 101.024 612.152 100.448L611.792 99.2C611.24 99.416 610.856 99.488 610.424 99.488C609.224 99.488 609.056 98.84 609.056 97.064V90.608H611.552L611.936 88.784ZM620.039 99.224C617.735 99.224 616.823 98.12 616.727 95.408H624.023V94.376C624.023 90.704 622.487 88.472 618.719 88.472C615.239 88.472 612.887 90.8 612.887 94.856C612.887 98.936 615.071 101.288 618.791 101.288C620.927 101.288 622.511 100.64 623.807 99.368L623.231 98.384C622.199 98.936 621.047 99.224 620.039 99.224ZM618.743 89.96C619.991 89.96 620.471 90.872 620.471 93.776H616.751C616.919 90.848 617.519 89.96 618.743 89.96ZM637.974 92.12C637.974 89.648 636.462 88.496 634.494 88.496C632.622 88.496 631.35 89.456 630.318 90.632C630.246 89.672 629.79 88.736 629.622 88.472H629.262L625.398 89.432V90.488C626.598 90.536 626.838 90.776 626.838 92.528V98.24C626.838 99.608 626.574 99.896 625.374 99.92V101H631.878V99.92C630.63 99.896 630.414 99.584 630.414 98.288V91.928C631.038 91.448 631.758 91.016 632.814 91.016C633.822 91.016 634.398 91.52 634.398 92.96V98.288C634.398 99.584 634.182 99.896 632.958 99.92V101H639.39V99.92C638.238 99.896 637.974 99.608 637.974 98.24V92.12ZM648.006 88.784H645.102C645.102 87.56 645.198 86.12 645.318 85.256L642.822 85.568C642.222 86.48 641.862 87.656 641.718 88.736L640.11 89.384V90.608H641.55V97.856C641.55 100.496 642.774 101.312 644.958 101.312C646.278 101.312 647.31 101.024 648.222 100.448L647.862 99.2C647.31 99.416 646.926 99.488 646.494 99.488C645.294 99.488 645.126 98.84 645.126 97.064V90.608H647.622L648.006 88.784ZM655.48 101V99.92C654.232 99.896 654.016 99.608 654.016 98.24V88.592H653.488L649 89.432V90.488C650.2 90.536 650.44 90.776 650.44 92.528V98.24C650.44 99.608 650.176 99.896 648.976 99.92V101H655.48ZM654.208 85.4C654.208 84.248 653.296 83.312 652.12 83.312C650.92 83.312 649.96 84.248 649.96 85.4C649.96 86.576 650.92 87.512 652.072 87.512C653.272 87.512 654.208 86.576 654.208 85.4ZM668.954 94.712C668.954 90.512 666.458 88.472 662.978 88.472C659.162 88.472 656.762 91.04 656.762 94.928C656.762 98.96 659.018 101.312 662.786 101.312C666.122 101.312 668.954 99.272 668.954 94.712ZM665.042 94.616C665.042 98.312 664.322 99.824 662.906 99.824C661.178 99.824 660.674 98.336 660.674 94.976C660.674 91.184 661.346 90.008 662.858 90.008C664.298 90.008 665.042 91.136 665.042 94.616ZM683.021 92.12C683.021 89.648 681.509 88.496 679.541 88.496C677.669 88.496 676.397 89.456 675.365 90.632C675.293 89.672 674.837 88.736 674.669 88.472H674.309L670.445 89.432V90.488C671.645 90.536 671.885 90.776 671.885 92.528V98.24C671.885 99.608 671.621 99.896 670.421 99.92V101H676.925V99.92C675.677 99.896 675.461 99.584 675.461 98.288V91.928C676.085 91.448 676.805 91.016 677.861 91.016C678.869 91.016 679.445 91.52 679.445 92.96V98.288C679.445 99.584 679.229 99.896 678.005 99.92V101H684.437V99.92C683.285 99.896 683.021 99.608 683.021 98.24V92.12Z" fill="#FAFAFA"/>
<path d="M818.529 93.488C821.121 93.344 823.161 92.072 823.161 89.12C823.161 85.64 820.713 84.32 817.257 84.32H809.649V85.472C810.897 85.496 811.281 85.832 811.281 87.2V98.192C811.281 99.56 810.897 99.896 809.649 99.896V101H816.681V99.896C815.457 99.896 815.049 99.536 815.049 98.192V93.992C816.273 94.112 816.777 94.52 817.617 96.032C818.553 97.784 818.889 98.528 819.945 101H824.793V99.896C823.641 99.848 823.425 99.416 822.969 98.504C822.225 96.992 821.769 96.176 821.145 95.288C820.617 94.568 819.705 93.896 818.529 93.584V93.488ZM819.153 89.144C819.153 91.664 818.289 92.312 816.489 92.312H815.049V86.024H816.537C818.361 86.024 819.153 86.84 819.153 89.144ZM832.719 99.224C830.415 99.224 829.503 98.12 829.407 95.408H836.703V94.376C836.703 90.704 835.167 88.472 831.399 88.472C827.919 88.472 825.567 90.8 825.567 94.856C825.567 98.936 827.751 101.288 831.471 101.288C833.607 101.288 835.191 100.64 836.487 99.368L835.911 98.384C834.879 98.936 833.727 99.224 832.719 99.224ZM831.423 89.96C832.671 89.96 833.151 90.872 833.151 93.776H829.431C829.599 90.848 830.199 89.96 831.423 89.96ZM845.47 101.12L848.998 91.376C849.43 90.224 849.718 90.008 850.678 89.888V88.784H845.662V89.888C846.646 89.912 847.078 90.152 847.078 90.728C847.078 90.872 847.03 91.064 846.958 91.304L845.422 96.032C845.182 96.824 844.966 97.688 844.942 97.88H844.798C844.75 97.52 844.606 96.824 844.342 96.032L842.71 91.304C842.614 91.064 842.566 90.872 842.566 90.704C842.566 90.2 842.926 89.912 843.934 89.888V88.784H837.43V89.888C838.27 90.008 838.51 90.224 838.966 91.376L842.71 101.12H845.47ZM858.055 99.224C855.751 99.224 854.839 98.12 854.743 95.408H862.039V94.376C862.039 90.704 860.503 88.472 856.735 88.472C853.255 88.472 850.903 90.8 850.903 94.856C850.903 98.936 853.087 101.288 856.807 101.288C858.943 101.288 860.527 100.64 861.823 99.368L861.247 98.384C860.215 98.936 859.063 99.224 858.055 99.224ZM856.759 89.96C858.007 89.96 858.487 90.872 858.487 93.776H854.767C854.935 90.848 855.535 89.96 856.759 89.96ZM875.99 92.12C875.99 89.648 874.478 88.496 872.51 88.496C870.638 88.496 869.366 89.456 868.334 90.632C868.262 89.672 867.806 88.736 867.638 88.472H867.278L863.414 89.432V90.488C864.614 90.536 864.854 90.776 864.854 92.528V98.24C864.854 99.608 864.59 99.896 863.39 99.92V101H869.894V99.92C868.646 99.896 868.43 99.584 868.43 98.288V91.928C869.054 91.448 869.774 91.016 870.83 91.016C871.838 91.016 872.414 91.52 872.414 92.96V98.288C872.414 99.584 872.198 99.896 870.974 99.92V101H877.406V99.92C876.254 99.896 875.99 99.608 875.99 98.24V92.12ZM890.414 88.592H889.838L885.422 89.432V90.488C886.598 90.536 886.862 90.776 886.862 92.528V98.12C886.142 98.72 885.518 99.008 884.702 99.008C883.598 99.008 883.166 98.36 883.166 97.064V88.592H882.59L878.174 89.432V90.488C879.326 90.536 879.59 90.776 879.59 92.528V97.904C879.59 100.28 880.958 101.312 882.998 101.312C884.846 101.312 886.118 100.52 887.054 99.368C887.15 100.376 887.534 101.024 887.702 101.312H888.062L891.902 100.448V99.464C890.678 99.368 890.414 99.176 890.414 97.424V88.592ZM900.336 99.224C898.032 99.224 897.12 98.12 897.024 95.408H904.32V94.376C904.32 90.704 902.784 88.472 899.016 88.472C895.536 88.472 893.184 90.8 893.184 94.856C893.184 98.936 895.368 101.288 899.088 101.288C901.224 101.288 902.808 100.64 904.104 99.368L903.528 98.384C902.496 98.936 901.344 99.224 900.336 99.224ZM899.04 89.96C900.288 89.96 900.768 90.872 900.768 93.776H897.048C897.216 90.848 897.816 89.96 899.04 89.96Z" fill="#FAFAFA"/>
<path d="M1048.56 93.488C1051.16 93.344 1053.2 92.072 1053.2 89.12C1053.2 85.64 1050.75 84.32 1047.29 84.32H1039.68V85.472C1040.93 85.496 1041.32 85.832 1041.32 87.2V98.192C1041.32 99.56 1040.93 99.896 1039.68 99.896V101H1046.72V99.896C1045.49 99.896 1045.08 99.536 1045.08 98.192V93.992C1046.31 94.112 1046.81 94.52 1047.65 96.032C1048.59 97.784 1048.92 98.528 1049.98 101H1054.83V99.896C1053.68 99.848 1053.46 99.416 1053 98.504C1052.26 96.992 1051.8 96.176 1051.18 95.288C1050.65 94.568 1049.74 93.896 1048.56 93.584V93.488ZM1049.19 89.144C1049.19 91.664 1048.32 92.312 1046.52 92.312H1045.08V86.024H1046.57C1048.4 86.024 1049.19 86.84 1049.19 89.144ZM1062.75 99.224C1060.45 99.224 1059.54 98.12 1059.44 95.408H1066.74V94.376C1066.74 90.704 1065.2 88.472 1061.43 88.472C1057.95 88.472 1055.6 90.8 1055.6 94.856C1055.6 98.936 1057.79 101.288 1061.51 101.288C1063.64 101.288 1065.23 100.64 1066.52 99.368L1065.95 98.384C1064.91 98.936 1063.76 99.224 1062.75 99.224ZM1061.46 89.96C1062.71 89.96 1063.19 90.872 1063.19 93.776H1059.47C1059.63 90.848 1060.23 89.96 1061.46 89.96ZM1073.18 90.608H1075.67L1076.06 88.784H1073.15V86.504C1073.15 85.376 1073.51 84.824 1074.28 84.824C1074.88 84.824 1075.22 85.184 1075.26 86.264H1077.33L1077.4 83.744C1076.66 83.408 1075.12 83.216 1074.14 83.216C1071.38 83.216 1069.6 84.488 1069.6 87.032V88.784L1068.14 89.384V90.608H1069.6V98.24C1069.6 99.608 1069.34 99.896 1068.14 99.92V101H1075.1V99.92C1073.44 99.896 1073.18 99.584 1073.18 98.24V90.608ZM1083.85 99.224C1081.54 99.224 1080.63 98.12 1080.54 95.408H1087.83V94.376C1087.83 90.704 1086.3 88.472 1082.53 88.472C1079.05 88.472 1076.7 90.8 1076.7 94.856C1076.7 98.936 1078.88 101.288 1082.6 101.288C1084.74 101.288 1086.32 100.64 1087.62 99.368L1087.04 98.384C1086.01 98.936 1084.86 99.224 1083.85 99.224ZM1082.55 89.96C1083.8 89.96 1084.28 90.872 1084.28 93.776H1080.56C1080.73 90.848 1081.33 89.96 1082.55 89.96ZM1094.17 91.544C1094.13 89.96 1093.6 88.784 1093.43 88.472H1093.07L1089.21 89.432V90.488C1090.41 90.536 1090.65 90.776 1090.65 92.528V98.24C1090.65 99.608 1090.38 99.896 1089.18 99.92V101H1096.12V99.92C1094.49 99.896 1094.22 99.608 1094.22 98.24V94.496C1094.22 92.624 1094.7 92.048 1096.53 92.048C1097.1 92.048 1097.41 92.12 1097.85 92.24L1098.52 88.616C1098.33 88.544 1097.99 88.472 1097.63 88.472C1096.31 88.472 1094.77 89.48 1094.17 91.544ZM1104.07 91.544C1104.02 89.96 1103.49 88.784 1103.32 88.472H1102.96L1099.1 89.432V90.488C1100.3 90.536 1100.54 90.776 1100.54 92.528V98.24C1100.54 99.608 1100.27 99.896 1099.07 99.92V101H1106.01V99.92C1104.38 99.896 1104.11 99.608 1104.11 98.24V94.496C1104.11 92.624 1104.59 92.048 1106.42 92.048C1106.99 92.048 1107.31 92.12 1107.74 92.24L1108.41 88.616C1108.22 88.544 1107.88 88.472 1107.52 88.472C1106.2 88.472 1104.67 89.48 1104.07 91.544ZM1119.71 97.4C1119.71 95.216 1119.81 93.224 1119.81 92.504C1119.81 89.696 1117.89 88.472 1115.13 88.472C1113.18 88.472 1111.21 89.072 1109.94 89.816V92.264H1112.58C1112.75 90.992 1113.13 90.08 1114.5 90.08C1115.77 90.08 1116.23 90.872 1116.23 92.72V93.824C1115.92 93.8 1115.37 93.776 1115.08 93.776C1111.31 93.776 1109.17 94.952 1109.17 97.784C1109.17 100.256 1110.85 101.336 1112.99 101.336C1114.89 101.336 1115.92 100.328 1116.33 99.464C1116.52 100.472 1117.31 101.144 1118.8 101.144C1119.85 101.144 1120.74 100.88 1121.25 100.568V99.536C1119.97 99.488 1119.71 99.2 1119.71 97.4ZM1116.18 95.168L1116.11 98.216C1115.68 98.768 1114.91 99.104 1114.29 99.104C1113.37 99.104 1112.85 98.696 1112.85 97.328C1112.85 95.864 1113.71 95.168 1115.34 95.168H1116.18ZM1127.08 85.76C1127.08 84.32 1126.77 83.624 1126.65 83.384H1126.29L1121.94 84.032V85.088C1123.17 85.136 1123.53 85.376 1123.53 87.128V98.24C1123.53 99.608 1123.26 99.896 1122.04 99.92V101H1128.57V99.92C1127.32 99.896 1127.08 99.584 1127.08 98.216V85.76Z" fill="#FAFAFA"/>
<defs>
<filter id="filter0_d" x="0" y="0" width="1260" height="215" filterUnits="userSpaceOnUse" color-interpolation-filters="sRGB">
<feFlood flood-opacity="0" result="BackgroundImageFix"/>
<feColorMatrix in="SourceAlpha" type="matrix" values="0 0 0 0 0 0 0 0 0 0 0 0 0 0 0 0 0 0 127 0"/>
<feOffset dy="15"/>
<feGaussianBlur stdDeviation="30"/>
<feColorMatrix type="matrix" values="0 0 0 0 0 0 0 0 0 0 0 0 0 0 0 0 0 0 0.15 0"/>
<feBlend mode="normal" in2="BackgroundImageFix" result="effect1_dropShadow"/>
<feBlend mode="normal" in="SourceGraphic" in2="effect1_dropShadow" result="shape"/>
</filter>
</defs>
</svg>
