<svg width="195" height="53" viewBox="0 0 195 53" fill="none" xmlns="http://www.w3.org/2000/svg">
<path fill-rule="evenodd" clip-rule="evenodd" d="M74.5571 46.2605C75.3443 46.8808 76.4893 46.5349 77.4196 46.1651C94.9523 39.2117 113.248 34.3812 131.711 30.5884C130.614 32.0197 128.646 32.3894 126.869 32.6757C109.861 35.4547 93.4495 41.0723 77.2765 47.0358C76.2865 47.4055 75.1296 47.7634 74.2232 47.2147C74.0898 47.1377 73.9696 47.0453 73.8503 46.9536C73.6924 46.8321 73.536 46.7118 73.3525 46.6303C72.882 46.4228 72.3192 46.5309 71.7633 46.6376C71.0088 46.7825 70.2671 46.9249 69.7863 46.2725C68.7964 44.9366 70.323 42.5751 71.0983 41.5374C72.8396 39.1878 74.8792 37.0648 77.1453 35.2281H77.1334C74.4856 36.9575 71.8258 38.6988 69.178 40.4402C68.2477 41.0484 67.1266 41.6925 66.077 41.1081C65.588 40.8338 65.266 40.3447 65.1229 39.808C64.8366 38.7107 65.2421 37.6373 65.7073 36.6593C66.8761 34.1785 68.5101 31.9243 70.4781 30.0279C70.1169 30.2918 69.7574 30.5576 69.3984 30.8231C68.8328 31.2413 68.2682 31.6588 67.6991 32.0674C66.7544 32.7506 65.7977 33.4279 64.8376 34.1076C64.4401 34.389 64.042 34.6709 63.6439 34.9537C63.5843 35.0014 63.5127 35.0372 63.4292 35.0611C63.3679 35.0819 63.3063 35.1038 63.2445 35.1257C62.7058 35.317 62.1538 35.5129 61.6402 35.0849C61.0915 34.6317 61.2585 33.9876 61.4493 33.4271C61.5938 33.0076 61.8254 32.5484 62.0528 32.0976C62.2199 31.7666 62.3846 31.4401 62.5108 31.1371C62.6241 30.8687 62.7613 30.6093 62.8985 30.3499C63.0356 30.0905 63.1728 29.8311 63.2861 29.5627C63.3694 29.362 63.4215 29.2154 63.4632 29.0977C63.5531 28.8448 63.5955 28.7254 63.799 28.4893C63.8825 28.4058 64.1568 28.3819 64.276 28.4535C64.3834 28.5251 64.4788 28.7755 64.4311 28.8948C64.3104 29.2349 64.1393 29.5649 63.9734 29.8847C63.9589 29.9127 63.9445 29.9405 63.9302 29.9682C63.7746 30.2715 63.6102 30.5723 63.4456 30.8734C63.1053 31.4959 62.7642 32.1199 62.4989 32.7711C62.2723 33.2959 62.1292 33.6537 62.1411 34.3455C62.1411 34.4767 62.2723 34.5601 62.3916 34.5244C62.7255 34.417 62.9879 34.2977 63.8228 33.9161C64.8215 33.4577 65.6797 32.7577 66.5363 32.059C66.9277 31.7397 67.3189 31.4207 67.7229 31.1252C68.0332 30.897 68.3459 30.6727 68.658 30.4488C69.5698 29.7947 70.4778 29.1432 71.313 28.4058C72.6846 27.1892 73.9727 25.8773 75.237 24.5414C75.9837 23.7476 76.7076 22.9273 77.4324 22.106C77.9926 21.4712 78.5532 20.8359 79.1252 20.2119C80.306 18.9357 81.4867 17.6596 82.7271 16.443C83.9917 15.2059 85.2844 14.0111 86.5782 12.8153C86.9684 12.4546 87.3587 12.0939 87.7484 11.7318C88.0347 11.4694 88.798 10.8969 89.1081 10.6703C89.0832 10.6771 89.0575 10.6843 89.0314 10.6916C88.9198 10.7229 88.8015 10.7561 88.7145 10.7657C88.1778 10.8612 87.5457 10.9804 86.997 11.1116C85.4465 11.541 83.9079 11.9823 82.3813 12.4952C80.9291 12.9849 79.4956 13.5056 78.0628 14.0261C77.5067 14.2281 76.9508 14.43 76.3939 14.6301C76.2917 14.6694 76.1829 14.6997 76.0746 14.7298C75.8543 14.7911 75.6354 14.852 75.4755 14.9879C75.2131 15.2145 74.903 15.5604 74.8672 15.8824C74.748 16.9678 74.2232 17.8385 73.4479 18.4825C71.9451 19.7468 70.4304 21.0111 68.7725 22.0487C66.1724 23.6708 63.4889 25.1855 60.7695 26.6048C58.8336 27.6194 56.8064 28.463 54.7883 29.3028L54.6509 29.36C53.6755 29.7715 52.6709 30.1294 51.6682 30.4867C51.1015 30.6886 50.5354 30.8903 49.9755 31.1013C49.7489 31.1848 49.4865 31.3518 49.3673 31.5426C48.8631 32.3367 48.3526 33.1272 47.842 33.9178C46.5044 35.9889 45.1662 38.0609 43.9405 40.2016C42.7358 42.3008 41.9129 44.6027 41.6982 47.0597C41.6386 47.6799 41.6147 48.3358 41.7221 48.9441C41.8532 49.6836 42.4138 49.8983 43.046 49.4928C43.2228 49.3749 43.3852 49.2318 43.5471 49.0893C43.68 48.9722 43.8126 48.8555 43.9524 48.7533C44.0252 48.7048 44.1199 48.6892 44.2179 48.673C44.2645 48.6653 44.3118 48.6575 44.3579 48.646C44.3579 48.6867 44.3618 48.7304 44.3657 48.7742C44.3754 48.8842 44.3853 48.9951 44.3341 49.0634C44.3226 49.0791 44.311 49.0949 44.2994 49.1106C44.0475 49.4545 43.7827 49.816 43.4634 50.101C42.4735 50.9836 41.412 50.7928 40.9349 49.3377C40.5639 48.1919 40.7919 47.0561 41.016 45.9395C41.0369 45.8356 41.0577 45.7319 41.078 45.6284C41.3404 44.3164 41.7101 43.0045 42.1872 41.7521C42.495 40.9281 42.9432 40.1454 43.3875 39.3697C43.477 39.2135 43.5663 39.0575 43.6542 38.9016C44.4176 37.5538 45.2047 36.2299 46.0277 34.918C46.3937 34.3385 46.7841 33.7785 47.1739 33.2193C47.3938 32.9038 47.6136 32.5885 47.8287 32.2702C47.8765 32.2019 47.9126 32.1258 47.9481 32.0508C47.9746 31.9948 48.0009 31.9395 48.0314 31.8885C48.0076 31.8468 47.9927 31.8259 47.9778 31.805C47.9629 31.7841 47.948 31.7633 47.9241 31.7215C47.0824 31.8566 46.2497 32.0008 45.4102 32.1461C45.2862 32.1675 45.1621 32.189 45.0378 32.2105C44.9342 32.2272 44.8307 32.242 44.7275 32.2568C44.4619 32.2949 44.1981 32.3327 43.9405 32.4014C43.7377 32.461 43.4992 32.5922 43.3918 32.7592C42.2945 34.6079 40.8633 36.1941 39.3486 37.7089C38.8357 38.2098 38.1917 38.6273 37.5476 38.9374C36.6411 39.3787 35.9852 38.9612 35.7585 37.9713C35.4365 36.5997 35.9017 35.3712 36.5219 34.2143C36.9257 33.4611 37.3521 32.7229 37.7804 31.9814C38.288 31.1025 38.7983 30.219 39.277 29.3003C39.1059 29.4286 38.9311 29.5544 38.7557 29.6805C38.3931 29.9413 38.0284 30.2036 37.6907 30.493C36.802 31.2621 35.9256 32.0495 35.0482 32.8378C34.701 33.1497 34.3536 33.4618 34.0053 33.773C33.574 34.1568 33.1449 34.5428 32.716 34.9287C31.7454 35.8019 30.7757 36.6743 29.7831 37.518C29.539 37.7316 29.1735 37.8151 28.8271 37.8942C28.7672 37.9079 28.708 37.9214 28.65 37.9355C28.5546 37.9593 28.3042 37.7685 28.3161 37.6969C28.3399 37.4584 28.3757 37.1364 28.5308 37.0171C28.8726 36.7639 29.2279 36.5308 29.5824 36.2983C29.8957 36.0928 30.2084 35.8876 30.5107 35.6694C31.107 35.2519 31.6795 34.7987 32.2401 34.3216C33.3254 33.4032 34.3869 32.461 35.4484 31.5188C35.854 31.1569 36.2583 30.7937 36.6625 30.4306C37.4709 29.7044 38.2792 28.9782 39.0981 28.2627C39.4836 27.9215 39.8774 27.5885 40.2708 27.2558C40.9363 26.693 41.6008 26.1311 42.223 25.5314C42.5997 25.1668 42.93 24.7559 43.2595 24.3458C43.5769 23.9508 43.8937 23.5567 44.2506 23.2056C45.6103 21.8579 47.0296 20.5578 48.4608 19.2816C48.5841 19.1748 48.8037 19.1812 49.0259 19.1877C49.1261 19.1907 49.2269 19.1936 49.3196 19.1862C49.2922 19.2723 49.2738 19.3661 49.2555 19.4592C49.2181 19.6498 49.1813 19.8374 49.0691 19.9495C48.4731 20.551 47.8647 21.1373 47.2563 21.7236C46.5375 22.4163 45.8189 23.1088 45.1213 23.8258C44.8784 24.0757 44.6341 24.3244 44.3898 24.5731C42.5577 26.438 40.7229 28.3056 39.4917 30.6839C39.0175 31.5993 38.5215 32.5002 38.0258 33.4006C37.6237 34.1308 37.2219 34.8607 36.832 35.5978C36.498 36.2299 36.4026 36.9217 36.5815 37.6254C36.7366 38.2456 37.0944 38.4364 37.6311 38.0905C37.68 38.0587 37.7292 38.0268 37.7786 37.9949C38.2472 37.6918 38.7301 37.3794 39.0862 36.9694C39.9041 36.0408 40.6915 35.0817 41.4789 34.1227C41.7939 33.7391 42.1088 33.3555 42.4257 32.9738C42.8432 32.4848 43.046 31.9362 42.879 31.2683C42.8074 30.982 42.8074 30.6362 42.9148 30.3857C43.034 30.1233 43.2964 29.8013 43.5469 29.7416C43.9643 29.6462 44.1671 30.0159 44.2267 30.3976C44.2739 30.6337 44.2913 30.8772 44.3083 31.1164C44.3127 31.1794 44.3172 31.242 44.3221 31.3041C45.0566 31.3565 45.477 30.9475 45.8888 30.5468C46.0387 30.4009 46.1874 30.2562 46.3497 30.1352C47.614 29.193 48.8783 28.2388 50.0948 27.237C50.8093 26.645 51.4801 25.9919 52.1445 25.3449C52.2566 25.2358 52.3684 25.1269 52.4802 25.0185C53.1124 24.4103 54.1142 23.3726 54.7106 22.7285C55.5693 21.7744 56.4281 20.8202 57.263 19.8303C58.241 18.6734 59.2071 17.4807 60.1374 16.276C60.9535 15.2108 61.751 14.1331 62.5479 13.0565C62.8573 12.6384 63.1667 12.2204 63.4769 11.8034C64.8843 9.907 66.2917 8.02253 67.7229 6.14999C67.8333 6.00288 67.9425 5.85519 68.0515 5.70769C68.4375 5.1855 68.8218 4.66563 69.2496 4.18203C69.3615 4.04609 69.5539 3.98521 69.7476 3.9239C69.8428 3.89377 69.9384 3.86353 70.0249 3.82422C70.0212 3.91271 70.0277 4.00917 70.0344 4.10621C70.0491 4.3231 70.0641 4.54288 69.9652 4.68296C69.7226 5.05795 69.4346 5.40575 69.146 5.75429C68.9665 5.97112 68.7867 6.18824 68.6175 6.41238C68.2752 6.85871 67.9234 7.29937 67.5716 7.74021C66.6728 8.86617 65.7731 9.99329 65.0275 11.219C64.1886 12.6078 63.1913 13.8699 62.193 15.133C61.4596 16.0611 60.7257 16.9897 60.0539 17.9697C59.5971 18.6285 59.0511 19.2263 58.5043 19.825C58.1801 20.1799 57.8555 20.5352 57.5492 20.9037C56.9342 21.6491 56.3338 22.4164 55.7252 23.1941C55.5548 23.4119 55.3837 23.6305 55.2115 23.8497C55.5917 23.6441 55.9668 23.4385 56.3389 23.2345C57.1109 22.8114 57.87 22.3953 58.6346 22.001C59.6175 21.491 60.6076 21.0026 61.5994 20.5134C61.8832 20.3734 62.1672 20.2333 62.4512 20.0927C63.1033 19.7702 63.7511 19.4434 64.3971 19.1176C64.8264 18.901 65.2549 18.6849 65.6834 18.4706C65.8325 18.399 65.9846 18.3334 66.1367 18.2678C66.2887 18.2022 66.4408 18.1366 66.5899 18.0651C66.9914 17.8822 67.3916 17.694 67.7919 17.5058C68.5923 17.1295 69.3927 16.7531 70.2038 16.4191C71.2559 15.9769 72.3178 15.5689 73.3801 15.1606C73.9796 14.9302 74.5793 14.6998 75.1773 14.4631C75.5264 14.3271 75.8738 14.1825 76.2214 14.0378C76.7883 13.8017 77.3558 13.5655 77.9325 13.3658C78.8422 13.0567 79.2984 12.9016 79.7562 12.7514C80.2167 12.6004 80.6789 12.4543 81.606 12.1612C81.9837 12.0429 82.3638 11.9308 82.7683 11.8114C83.6282 11.5577 84.598 11.2715 85.8878 10.8254C86.5186 10.6023 87.7001 10.2949 88.7508 10.0215C89.3291 9.871 89.8678 9.73084 90.2531 9.62075C90.5426 9.5418 90.8127 9.39188 91.0824 9.24217C91.1795 9.18833 91.2764 9.13451 91.3742 9.08403C91.657 8.93851 91.9368 8.78863 92.2163 8.63896C92.7384 8.35929 93.2593 8.08031 93.7954 7.8317C94.2486 7.61701 94.6542 7.8317 95.0477 8.12987C95.2267 8.273 95.5248 8.38034 95.7514 8.34456C96.892 8.17454 98.0283 7.9919 99.1655 7.80912C99.9428 7.68418 100.721 7.55918 101.5 7.4381C101.882 7.37847 102.287 7.33076 102.681 7.35462C102.908 7.36654 103.146 7.52159 103.337 7.67665C103.385 7.72435 103.325 8.07024 103.265 8.08216C103.129 8.11255 102.987 8.10907 102.847 8.10561C102.767 8.10365 102.687 8.10169 102.609 8.10602C102.33 8.12197 102.048 8.12992 101.766 8.1379C101.203 8.15378 100.637 8.16975 100.081 8.24914C98.3157 8.49961 96.5505 8.80971 94.7973 9.14367C94.4872 9.2033 94.1532 9.42992 93.9147 9.66846C93.0826 10.5005 92.2615 11.3419 91.4411 12.1825C89.9919 13.6675 88.545 15.15 87.0447 16.5742C85.6293 17.9093 84.104 19.1346 82.5827 20.3567C82.2965 20.5866 82.0104 20.8164 81.7253 21.0468C81.1349 21.5239 80.5206 21.9712 79.9064 22.4185C79.2921 22.8657 78.6779 23.313 78.0875 23.79C77.0893 24.5981 76.1366 25.4516 75.1871 26.3023C74.9453 26.5189 74.7038 26.7353 74.4617 26.9507C74.0903 27.2797 73.7259 27.6205 73.3613 27.9615C72.9064 28.387 72.451 28.813 71.9809 29.2168C71.9213 29.2645 70.6093 30.7912 70.0129 31.5188C68.4624 33.439 66.8761 35.407 66.077 37.7447C65.7311 38.7704 65.8027 40.297 66.9238 40.4402C67.2578 40.4759 67.6037 40.3925 67.8899 40.2136C76.5966 34.9537 84.7786 28.8352 92.2807 21.9771L92.3412 21.9216C93.6342 20.7342 94.9661 19.511 96.6102 18.9238C93.0269 23.1637 88.6704 26.6182 84.3074 30.0779C81.2206 32.5256 78.1304 34.976 75.3085 37.7089C73.2809 39.6768 71.3607 41.8356 70.335 44.4834C70.1561 44.9605 70.2634 45.5091 70.6451 45.8312C71.1375 46.2597 71.7225 46.0263 72.3119 45.7912C72.8217 45.5879 73.3347 45.3833 73.7938 45.6046C73.9847 45.6927 74.1304 45.844 74.2754 45.9947C74.3659 46.0888 74.4562 46.1826 74.5571 46.2605ZM47.663 30.8311C47.623 30.8773 47.5829 30.9236 47.5424 30.9701C48.926 30.7316 49.7251 30.0517 49.9159 28.9544C48.9481 29.3483 48.3307 30.0607 47.663 30.8311ZM73.8937 16.6614C73.897 16.6499 73.9011 16.6359 73.9011 16.6219C73.9489 16.4072 73.9011 16.1568 73.6984 16.121C73.591 16.0971 73.4718 16.1329 73.3883 16.1925C72.8039 16.61 72.291 17.1109 71.8616 17.6834C71.7901 17.7908 71.6827 17.91 71.5515 17.91C71.4084 17.8981 71.4084 17.4687 71.4561 17.3256C71.5239 17.1367 71.6448 16.9399 71.7446 16.7776C71.8904 16.5403 71.991 16.3766 71.8139 16.4191C68.6219 17.7015 65.2371 19.4263 62.0241 21.0636C61.0832 21.5431 60.157 22.015 59.2548 22.4661C59.1217 22.533 58.9884 22.5998 58.855 22.6667C56.8945 23.649 54.9039 24.6463 53.3628 26.1874C52.3133 27.2489 51.5142 28.5131 50.715 29.7774L50.715 29.7774C50.6673 29.837 50.6315 29.9205 50.6196 29.9921C50.5791 30.2858 50.8224 30.1839 50.9989 30.11C51.0303 30.0968 51.0596 30.0846 51.0848 30.0756L51.8362 29.7893L51.8365 29.7892C52.3373 29.5984 52.8382 29.4076 53.339 29.2049C54.3408 28.7994 55.3308 28.3939 56.3207 27.9764C58.2887 27.1296 60.2447 26.2351 62.153 25.2451C64.0494 24.2552 65.8981 23.1937 67.6872 22.0129C69.4643 20.8321 71.1699 19.544 72.78 18.1366C73.2452 17.7311 73.7222 17.2779 73.8892 16.6815C73.8892 16.6766 73.8913 16.6696 73.8937 16.6614ZM77.3481 23.2056C77.3361 23.2056 77.3361 23.2176 77.3361 23.2176C77.301 23.2791 77.4667 23.3147 77.5562 23.334C77.5882 23.3408 77.6104 23.3456 77.6104 23.3487C77.6946 23.3403 77.8442 23.2012 77.9584 23.0949C78.006 23.0506 78.0475 23.012 78.0756 22.9909C78.2426 22.8597 78.4126 22.7315 78.5825 22.6033C78.7525 22.4751 78.9224 22.3469 79.0894 22.2157C79.7454 21.7147 80.3894 21.2138 81.0335 20.7129C82.3216 19.711 83.5978 18.6853 84.8501 17.6357C87.3429 15.5366 89.7283 13.3062 91.8752 10.8492C92.1733 10.5033 92.4715 10.1575 92.7578 9.79965C91.1715 9.79965 89.7999 10.8492 88.6072 11.8869C84.5878 15.3696 80.9619 19.2936 77.3481 23.2056ZM20.1273 25.3788C20.0583 25.3852 19.9889 25.3917 19.9195 25.3994C19.9076 25.3517 19.8956 25.304 19.8837 25.2682C19.9155 25.2483 19.9473 25.2271 19.9791 25.2059C20.0427 25.1635 20.1063 25.1211 20.1699 25.0893C20.6388 24.8495 21.1108 24.613 21.5835 24.3761C22.6861 23.8235 23.7923 23.2692 24.8692 22.6681C26.2658 21.8981 27.6386 21.0946 29.0117 20.2909C29.8078 19.8249 30.6041 19.3588 31.4052 18.8992C34.5539 17.0982 37.5476 15.0825 40.1238 12.5302C40.7152 11.9507 41.1541 11.207 41.58 10.4852L41.5909 10.4668C41.8413 10.0374 41.7578 9.56033 41.4239 9.13096C40.9587 8.53461 40.2908 8.45112 39.611 8.42726C37.454 8.37138 35.4227 9.00668 33.4091 9.63642C33.2738 9.67874 33.1386 9.72103 33.0034 9.76309C31.8655 10.1143 30.7442 10.5193 29.6224 10.9244C28.8393 11.2072 28.0559 11.4901 27.2665 11.7549C27.0682 11.8201 26.8658 11.8758 26.6634 11.9316C26.0137 12.1105 25.3637 12.2896 24.8453 12.7806C24.7499 12.876 24.6187 12.9357 24.4875 12.9834C23.8732 13.1862 23.262 13.3859 22.6507 13.5857C22.0394 13.7855 21.4282 13.9853 20.814 14.188C19.9598 14.4727 19.1077 14.7645 18.2555 15.0564C16.1804 15.7669 14.1052 16.4775 11.9999 17.0863C11.6633 17.1834 11.327 17.2899 10.9899 17.3966C9.46403 17.8798 7.92158 18.3683 6.25111 18.0166C6.09606 17.9808 5.8933 17.9808 5.78596 18.0643C5.60706 18.1955 5.38044 18.3863 5.36852 18.5772C5.35659 18.7203 5.63091 18.9707 5.80981 19.0065C6.25111 19.09 6.71627 19.1258 7.16949 19.1139C8.7093 19.0768 10.1553 18.5996 11.5917 18.1256C12.0022 17.9901 12.412 17.8549 12.8229 17.7303C14.0235 17.3621 15.2104 16.9347 16.3977 16.5071C17.133 16.2423 17.8685 15.9775 18.6075 15.7266C19.0594 15.5705 19.5284 15.454 19.9948 15.3381C20.2054 15.2858 20.4154 15.2336 20.6232 15.178C19.7167 15.8936 18.7626 16.5019 17.8203 17.0982C14.5046 19.2093 11.4036 21.5828 8.63652 24.3856C8.56307 24.4599 8.48957 24.5341 8.41605 24.6084C7.39117 25.6436 6.36216 26.6831 5.41622 27.7848C4.74901 28.5664 4.15798 29.4165 3.57006 30.2622C3.42231 30.4747 3.27475 30.687 3.12624 30.8978C1.80234 32.7942 0.716978 34.7979 0.0848464 37.0402C-0.201402 38.0301 0.275679 38.7815 0.931665 39.354C1.35853 39.7184 1.90354 39.4921 2.40009 39.2859C2.47239 39.2558 2.54365 39.2262 2.61337 39.199C2.86384 39.1036 3.11431 38.9366 3.31707 38.7577C4.53362 37.6962 5.76211 36.6227 6.97866 35.5254C9.80537 32.9015 12.4889 30.1583 14.8982 27.1527C15.0175 27.0096 15.2918 26.8664 15.4468 26.9022C16.4076 27.1157 17.3301 26.8897 18.2315 26.6689C18.3373 26.643 18.4427 26.6172 18.5479 26.5921C21.1003 25.9958 23.6526 25.4113 26.2766 25.2324C28.9244 25.0535 31.5602 24.97 34.0888 25.9719C34.455 26.1137 34.7744 26.4076 35.0702 26.6797L35.0787 26.6875C35.3888 26.9618 35.353 27.3316 35.0668 27.5821C34.9232 27.7074 34.7802 27.8334 34.6373 27.9592C33.8422 28.6595 33.0499 29.3572 32.1805 29.9436C31.27 30.5541 30.273 31.0396 29.2845 31.521C29.1722 31.5756 29.0601 31.6302 28.9482 31.6849C27.4812 32.4006 26.0023 33.1162 24.4995 33.7364C23.1105 34.3127 21.7124 34.8569 20.3164 35.4003C19.4588 35.7341 18.6021 36.0676 17.7488 36.4081C16.9599 36.7254 16.1745 37.0479 15.3893 37.3704C14.1087 37.8962 12.8286 38.4219 11.5348 38.9246C10.6977 39.2506 9.85147 39.5443 9.00744 39.8373C8.49249 40.016 7.97837 40.1944 7.46767 40.3797C5.34466 41.1431 3.23358 41.9064 1.1225 42.7055C0.952551 42.7703 0.81006 42.9119 0.668943 43.0521C0.602082 43.1186 0.535529 43.1847 0.466511 43.2422C0.4844 43.278 0.50527 43.3138 0.52614 43.3496C0.547014 43.3853 0.567889 43.4211 0.585781 43.4569C0.696313 43.4293 0.810402 43.407 0.925301 43.3845C1.10796 43.3488 1.29266 43.3127 1.46838 43.2542C1.72243 43.1685 1.97667 43.0828 2.23106 42.997C3.99497 42.4026 5.76569 41.8058 7.52731 41.1908C7.93831 41.0469 8.34976 40.9035 8.76139 40.76C10.4999 40.1541 12.2417 39.5469 13.9679 38.9008C14.8267 38.5778 15.672 38.2142 16.5148 37.8516C17.0415 37.625 17.5672 37.3989 18.0946 37.1833C18.9167 36.8429 19.7459 36.5155 20.5753 36.188C22.1287 35.5746 23.6828 34.961 25.1912 34.2612C27.8748 33.0088 30.5226 31.6372 33.1227 30.206C34.0768 29.6693 34.9356 28.8702 35.6989 28.0591C36.498 27.2242 36.3311 26.1508 35.353 25.6499C34.4466 25.1966 33.4566 24.7673 32.4667 24.6122C30.1767 24.2544 27.8629 24.1351 25.549 24.5049C24.7137 24.6421 23.8814 24.7793 23.0491 24.9166C22.2176 25.0537 21.3861 25.1908 20.5516 25.3278C20.4144 25.3521 20.2717 25.3653 20.1273 25.3788ZM16.4905 25.632C16.4696 25.6052 16.4487 25.5783 16.4249 25.5545C16.5123 25.4352 16.5998 25.3146 16.6872 25.194C16.8622 24.9528 17.0371 24.7116 17.212 24.481C17.82 23.7228 18.426 22.9636 19.0318 22.2048C20.589 20.2542 22.1442 18.306 23.7242 16.3826C24.2413 15.7524 24.8186 15.1769 25.3967 14.6006C25.6721 14.3261 25.9476 14.0514 26.2169 13.7706C26.2885 13.699 26.372 13.6394 26.4555 13.5917C26.7636 13.4151 27.0669 13.2278 27.37 13.0407C28.0291 12.6339 28.6869 12.2279 29.3895 11.9338C32.3951 10.6934 35.4365 9.52455 38.7284 9.28601C39.2532 9.25023 39.8018 9.27408 40.3147 9.39335C40.8752 9.51262 41.0422 9.88236 40.7679 10.3833C40.4459 10.9439 40.0523 11.4806 39.6229 11.9577C37.81 13.9375 35.6154 15.4523 33.3493 16.8358C32.9226 17.0972 32.4971 17.3603 32.0717 17.6234C30.5946 18.5368 29.1191 19.4493 27.6005 20.2827C25.8401 21.2495 24.038 22.1466 22.2366 23.0433C21.6824 23.3191 21.1283 23.5949 20.5755 23.8728C19.6503 24.3353 18.7075 24.7802 17.7698 25.2226C17.6195 25.2935 17.4693 25.3643 17.3194 25.4352C17.1652 25.5086 17.0064 25.5595 16.8487 25.61C16.7503 25.6415 16.6523 25.6728 16.5561 25.7095C16.5322 25.6857 16.5113 25.6588 16.4905 25.632ZM23.5334 14.5816L23.7719 14.8201C23.6392 15.0053 23.5075 15.1914 23.3759 15.3774C23.0581 15.8265 22.7411 16.2745 22.4122 16.7046C22.1812 16.9969 21.9501 17.2894 21.719 17.5819C20.1485 19.5697 18.5746 21.5619 16.9735 23.5269C16.5276 24.0742 16.0472 24.5908 15.567 25.1073C15.1996 25.5024 14.8323 25.8974 14.4808 26.3059C14.1569 26.682 13.8467 27.0673 13.5372 27.4517C13.1402 27.9449 12.7443 28.4367 12.322 28.906C11.7622 29.5391 11.1672 30.137 10.5694 30.7375C10.3902 30.9176 10.2108 31.0979 10.032 31.2794C9.82623 31.4852 9.62122 31.6917 9.41621 31.8982C8.80124 32.5176 8.18626 33.1371 7.55116 33.7364C6.35846 34.8575 5.1419 35.9667 3.90149 37.0402C3.43634 37.4576 2.91155 37.8154 2.36291 38.1255C1.86197 38.4118 1.36104 38.1852 1.3014 37.6246C1.24177 37.0402 1.22984 36.3842 1.42067 35.8355C2.12437 33.8199 3.26936 32.0308 4.59326 30.361C4.87162 30.0109 5.14153 29.6539 5.41126 29.2972C5.85808 28.7063 6.30441 28.116 6.78783 27.5582C8.69615 25.3517 10.7595 23.2883 13.0853 21.5351C15.0055 20.0919 16.9974 18.7084 19.0011 17.3725C19.993 16.7032 21.0231 16.0884 22.0545 15.4727C22.5485 15.1779 23.0428 14.8829 23.5334 14.5816Z" fill="#73737D"/>
</svg>
