<svg width="195" height="53" viewBox="0 0 195 53" fill="none" xmlns="http://www.w3.org/2000/svg">
<path d="M19.9195 25.3994C20.1342 25.3756 20.3489 25.3636 20.5516 25.3278C22.2214 25.0535 23.8792 24.7792 25.549 24.5049C27.8629 24.1351 30.1767 24.2544 32.4667 24.6122C33.4566 24.7673 34.4466 25.1966 35.353 25.6499C36.3311 26.1508 36.498 27.2242 35.6989 28.0591C34.9356 28.8702 34.0768 29.6693 33.1227 30.206C30.5226 31.6372 27.8748 33.0088 25.1912 34.2612C22.8774 35.3346 20.4562 36.2053 18.0946 37.1833C16.723 37.7439 15.3634 38.376 13.9679 38.9008C11.833 39.6999 9.67417 40.4394 7.52731 41.1908C5.51164 41.8945 3.48405 42.5743 1.46838 43.2542C1.18213 43.3496 0.87203 43.3853 0.585781 43.4569C0.55 43.3853 0.502292 43.3138 0.466511 43.2422C0.681197 43.0633 0.872029 42.8009 1.1225 42.7055C3.23358 41.9064 5.34466 41.1431 7.46767 40.3797C8.81542 39.8907 10.187 39.4494 11.5348 38.9246C13.622 38.1136 15.6735 37.2429 17.7488 36.408C19.991 35.5135 22.2572 34.6667 24.4995 33.7364C26.0023 33.1162 27.4812 32.4006 28.9482 31.6849C30.0455 31.1482 31.1667 30.6234 32.1805 29.9436C33.2062 29.2518 34.1246 28.405 35.0668 27.5821C35.353 27.3316 35.3888 26.9618 35.0787 26.6875C34.7805 26.4132 34.4585 26.115 34.0888 25.9719C31.5602 24.97 28.9244 25.0535 26.2766 25.2324C23.6526 25.4113 21.1003 25.9958 18.5479 26.5921C17.546 26.8307 16.5203 27.1408 15.4468 26.9022C15.2918 26.8664 15.0175 27.0096 14.8982 27.1527C12.4889 30.1583 9.80537 32.9015 6.97866 35.5254C5.76211 36.6227 4.53362 37.6962 3.31707 38.7577C3.11431 38.9366 2.86384 39.1036 2.61337 39.199C2.06473 39.4137 1.42067 39.7715 0.931665 39.354C0.275679 38.7815 -0.201402 38.0301 0.0848464 37.0402C0.716978 34.7979 1.80234 32.7942 3.12624 30.8978C3.86571 29.8482 4.58133 28.7628 5.41622 27.7848C6.43002 26.604 7.53923 25.4948 8.63652 24.3856C11.4036 21.5828 14.5046 19.2093 17.8203 17.0982C18.7626 16.5019 19.7167 15.8936 20.6232 15.178C19.9553 15.3569 19.2635 15.5 18.6075 15.7266C16.6753 16.3826 14.767 17.134 12.8229 17.7303C10.9742 18.2909 9.14938 19.0662 7.16949 19.1139C6.71627 19.1258 6.25111 19.09 5.80981 19.0065C5.63091 18.9707 5.35659 18.7203 5.36852 18.5772C5.38044 18.3863 5.60706 18.1955 5.78596 18.0643C5.8933 17.9808 6.09606 17.9808 6.25111 18.0166C8.29064 18.446 10.1393 17.623 11.9999 17.0863C14.9698 16.2275 17.88 15.166 20.814 14.188C22.0425 13.7825 23.259 13.3889 24.4875 12.9834C24.6187 12.9357 24.7499 12.876 24.8453 12.7806C25.5252 12.1366 26.4316 12.0292 27.2665 11.7549C29.1868 11.1108 31.0712 10.3594 33.0034 9.76309C35.1503 9.09518 37.3091 8.36763 39.611 8.42726C40.2908 8.45112 40.9587 8.53461 41.4239 9.13096C41.7578 9.56033 41.8413 10.0374 41.5909 10.4668C41.1615 11.1943 40.7202 11.9457 40.1238 12.5302C37.5476 15.0825 34.5539 17.0982 31.4052 18.8992C29.2225 20.1515 27.0757 21.4516 24.8692 22.6681C23.3306 23.5269 21.7324 24.2902 20.1699 25.0893C20.0745 25.137 19.9791 25.2086 19.8837 25.2682C19.8956 25.304 19.9076 25.3517 19.9195 25.3994ZM16.4249 25.5545C16.4726 25.6022 16.5084 25.6618 16.5561 25.7095C16.8065 25.6141 17.0689 25.5545 17.3194 25.4352C18.4047 24.9223 19.502 24.4095 20.5755 23.8728C22.9251 22.692 25.2986 21.547 27.6005 20.2827C29.5565 19.2093 31.441 18.0047 33.3493 16.8358C35.6154 15.4523 37.81 13.9375 39.6229 11.9577C40.0523 11.4806 40.4459 10.9439 40.7679 10.3833C41.0422 9.88236 40.8752 9.51262 40.3147 9.39335C39.8018 9.27408 39.2532 9.25023 38.7284 9.28601C35.4365 9.52455 32.3951 10.6934 29.3895 11.9338C28.3638 12.3632 27.4335 13.0311 26.4555 13.5917C26.372 13.6394 26.2885 13.699 26.2169 13.7706C25.3821 14.6412 24.4875 15.4523 23.7242 16.3826C21.5296 19.0542 19.3828 21.7736 17.212 24.481C16.9496 24.8269 16.6873 25.1966 16.4249 25.5545ZM23.7719 14.8201C23.6884 14.7367 23.6169 14.6651 23.5334 14.5816C22.0186 15.5119 20.4681 16.3826 19.0011 17.3725C16.9974 18.7084 15.0055 20.0919 13.0853 21.5351C10.7595 23.2883 8.69615 25.3517 6.78783 27.5582C6.01257 28.4527 5.33273 29.4307 4.59326 30.361C3.26936 32.0308 2.12437 33.8199 1.42067 35.8355C1.22984 36.3842 1.24177 37.0402 1.3014 37.6246C1.36104 38.1852 1.86197 38.4118 2.36291 38.1255C2.91155 37.8154 3.43634 37.4576 3.90149 37.0402C5.1419 35.9667 6.35846 34.8575 7.55116 33.7364C8.39798 32.9373 9.20901 32.1024 10.032 31.2794C10.8072 30.4922 11.5944 29.7289 12.322 28.906C13.0734 28.0711 13.7413 27.1646 14.4808 26.3059C15.2918 25.3636 16.1863 24.493 16.9735 23.5269C18.8103 21.2727 20.6112 18.9827 22.4122 16.7046C22.8774 16.0963 23.3187 15.4523 23.7719 14.8201Z" fill="#73737D"/>
<path d="M77.4196 46.1651C76.4893 46.5349 75.3443 46.8808 74.5571 46.2605C74.2947 46.0578 74.1039 45.7477 73.7938 45.6046C72.8039 45.1275 71.5634 46.6303 70.6451 45.8312C70.2634 45.5091 70.1561 44.9605 70.335 44.4834C71.3607 41.8356 73.2809 39.6768 75.3085 37.7089C82.1189 31.1132 90.4916 26.1635 96.6102 18.9238C94.9404 19.5202 93.5927 20.7725 92.2807 21.9771C84.7786 28.8352 76.5967 34.9537 67.8899 40.2136C67.6037 40.3925 67.2578 40.4759 66.9238 40.4402C65.8027 40.297 65.7311 38.7704 66.077 37.7447C66.8761 35.407 68.4624 33.439 70.0129 31.5188C70.6093 30.7912 71.9213 29.2645 71.9809 29.2168C72.8277 28.4893 73.6268 27.6902 74.4617 26.9507C75.6544 25.8892 76.8352 24.8038 78.0875 23.79C79.2683 22.8359 80.5445 22.001 81.7253 21.0468C83.5262 19.5917 85.363 18.1605 87.0447 16.5742C89.3943 14.3438 91.6128 11.9704 93.9147 9.66846C94.1532 9.42992 94.4872 9.2033 94.7973 9.14367C96.5505 8.80971 98.3157 8.49961 100.081 8.24914C100.916 8.12987 101.775 8.15373 102.609 8.10602C102.824 8.09409 103.051 8.12987 103.265 8.08216C103.325 8.07024 103.385 7.72435 103.337 7.67665C103.146 7.52159 102.908 7.36654 102.681 7.35462C102.287 7.33076 101.882 7.37847 101.5 7.4381C99.58 7.73628 97.6717 8.05831 95.7514 8.34456C95.5248 8.38034 95.2267 8.273 95.0477 8.12987C94.6542 7.8317 94.2486 7.61701 93.7954 7.8317C92.9725 8.21336 92.1853 8.66659 91.3742 9.08403C91.0045 9.27487 90.6467 9.51341 90.2531 9.62075C89.1677 9.93085 86.8658 10.4795 85.8878 10.8254C83.9914 11.4814 82.7868 11.7915 81.606 12.1612C79.7573 12.7456 79.7573 12.7456 77.9325 13.3658C77.0022 13.6879 76.0957 14.1053 75.1773 14.4631C73.5195 15.1191 71.8497 15.7274 70.2038 16.4191C68.9872 16.9201 67.7945 17.5164 66.5899 18.0651C66.2917 18.2082 65.9816 18.3275 65.6834 18.4706C64.61 19.0073 63.5366 19.556 62.4512 20.0927C61.175 20.7248 59.8988 21.345 58.6346 22.001C57.5015 22.5854 56.3804 23.2175 55.2115 23.8497C55.9987 22.8478 56.762 21.8579 57.5492 20.9037C58.3722 19.9138 59.3263 19.0192 60.0539 17.9697C61.6402 15.6558 63.5723 13.6282 65.0274 11.219C66.0651 9.51341 67.4009 7.99867 68.6175 6.41238C69.0588 5.82796 69.5716 5.29124 69.9652 4.68296C70.1083 4.4802 70.0129 4.11047 70.0249 3.82422C69.7625 3.94349 69.4166 3.97927 69.2496 4.18203C68.701 4.80223 68.2239 5.48207 67.7229 6.14999C66.2917 8.02253 64.8843 9.907 63.4769 11.8034C62.3677 13.2943 61.2704 14.7971 60.1374 16.276C59.2071 17.4807 58.241 18.6734 57.263 19.8303C56.4281 20.8202 55.5693 21.7744 54.7106 22.7285C54.1142 23.3726 53.1124 24.4103 52.4802 25.0185C51.705 25.7699 50.9297 26.5452 50.0948 27.237C48.8783 28.2388 47.614 29.193 46.3497 30.1352C45.7415 30.5884 45.324 31.3756 44.3221 31.3041C44.2983 31.0059 44.2864 30.6958 44.2267 30.3976C44.1671 30.0159 43.9643 29.6462 43.5469 29.7416C43.2964 29.8013 43.034 30.1233 42.9148 30.3857C42.8074 30.6362 42.8074 30.982 42.879 31.2683C43.046 31.9362 42.8432 32.4848 42.4257 32.9738C41.3165 34.3097 40.2312 35.6694 39.0862 36.9694C38.6926 37.4226 38.1439 37.7566 37.6311 38.0905C37.0944 38.4364 36.7366 38.2456 36.5815 37.6254C36.4026 36.9217 36.498 36.2299 36.832 35.5978C37.7026 33.9519 38.633 32.3417 39.4917 30.6839C40.8872 27.9884 43.0579 25.9488 45.1213 23.8258C46.4094 22.5019 47.769 21.2615 49.0691 19.9495C49.2361 19.7826 49.2361 19.4486 49.3196 19.1862C49.0214 19.2101 48.6397 19.1266 48.4608 19.2816C47.0296 20.5578 45.6103 21.8579 44.2506 23.2056C43.523 23.9212 42.9625 24.8158 42.223 25.5314C41.233 26.4856 40.1358 27.3443 39.0981 28.2627C37.8696 29.3361 36.665 30.4334 35.4484 31.5188C34.3869 32.461 33.3254 33.4032 32.2401 34.3216C31.6795 34.7987 31.107 35.2519 30.5107 35.6694C29.8666 36.1345 29.1748 36.54 28.5308 37.0171C28.3757 37.1364 28.3399 37.4584 28.3161 37.6969C28.3042 37.7685 28.5546 37.9593 28.65 37.9355C29.0436 37.8401 29.4969 37.7685 29.7831 37.518C31.2144 36.3015 32.5979 35.0253 34.0053 33.773C35.2338 32.6757 36.4503 31.5665 37.6907 30.493C38.1917 30.0637 38.7522 29.6939 39.277 29.3003C38.3944 30.994 37.4045 32.5683 36.5219 34.2143C35.9017 35.3712 35.4365 36.5997 35.7585 37.9713C35.9852 38.9612 36.6411 39.3787 37.5476 38.9374C38.1917 38.6273 38.8357 38.2098 39.3486 37.7089C40.8633 36.1941 42.2945 34.6079 43.3918 32.7592C43.4992 32.5922 43.7377 32.461 43.9405 32.4014C44.2983 32.3059 44.668 32.2702 45.0378 32.2105C46.0039 32.0435 46.958 31.8766 47.9241 31.7215C47.9718 31.805 47.9837 31.805 48.0314 31.8885C47.9599 32.0078 47.9122 32.1509 47.8287 32.2702C47.2323 33.1528 46.6002 34.0115 46.0277 34.918C45.2047 36.2299 44.4176 37.5538 43.6542 38.9016C43.1294 39.8319 42.5569 40.7622 42.1872 41.7521C41.7101 43.0045 41.3404 44.3164 41.078 45.6284C40.8395 46.845 40.5294 48.0854 40.9349 49.3377C41.412 50.7928 42.4735 50.9836 43.4634 50.101C43.7974 49.8029 44.0717 49.4212 44.3341 49.0634C44.4056 48.968 44.3579 48.7891 44.3579 48.646C44.2148 48.6817 44.0597 48.6817 43.9524 48.7533C43.6423 48.9799 43.368 49.2781 43.046 49.4928C42.4138 49.8983 41.8532 49.6836 41.7221 48.9441C41.6147 48.3358 41.6386 47.6799 41.6982 47.0597C41.9129 44.6027 42.7358 42.3008 43.9405 40.2016C45.6341 37.2437 47.5424 34.417 49.3673 31.5426C49.4865 31.3518 49.7489 31.1848 49.9755 31.1013C51.5261 30.5169 53.1243 30.004 54.6509 29.36C56.7143 28.5012 58.7896 27.6425 60.7695 26.6048C63.4889 25.1855 66.1724 23.6708 68.7725 22.0487C70.4304 21.0111 71.9451 19.7468 73.4479 18.4825C74.2232 17.8385 74.748 16.9678 74.8672 15.8824C74.903 15.5604 75.2131 15.2145 75.4755 14.9879C75.7141 14.7851 76.0838 14.7494 76.3939 14.6301C78.3857 13.9145 80.3656 13.175 82.3813 12.4952C83.9079 11.9823 85.4465 11.541 86.997 11.1116C87.5457 10.9804 88.1778 10.8612 88.7145 10.7657C88.8218 10.7538 88.9769 10.7061 89.1081 10.6703C88.798 10.8969 88.0347 11.4694 87.7484 11.7318C86.0667 13.2943 84.3731 14.8329 82.7271 16.443C81.4867 17.6596 80.306 18.9357 79.1252 20.2119C77.8132 21.6432 76.5609 23.1341 75.237 24.5414C73.9727 25.8773 72.6846 27.1892 71.313 28.4058C70.1918 29.3957 68.9395 30.2306 67.7229 31.1252C66.4348 32.0674 65.2779 33.2482 63.8228 33.9161C62.9879 34.2977 62.7255 34.417 62.3916 34.5244C62.2723 34.5601 62.1411 34.4767 62.1411 34.3455C62.1292 33.6537 62.2723 33.2959 62.4989 32.7711C62.8925 31.805 63.4531 30.8985 63.9302 29.9682C64.1091 29.6224 64.2999 29.2645 64.4311 28.8948C64.4788 28.7755 64.3834 28.5251 64.276 28.4535C64.1568 28.3819 63.8825 28.4058 63.799 28.4893C63.5008 28.8352 63.5485 28.9306 63.2861 29.5627C63.0595 30.0994 62.7375 30.6004 62.5108 31.1371C62.2127 31.8527 61.6998 32.6995 61.4493 33.4271C61.2585 33.9876 61.0915 34.6317 61.6402 35.0849C62.2127 35.562 62.8329 35.2638 63.4292 35.0611C63.5127 35.0372 63.5843 35.0014 63.6439 34.9537C65.0036 33.9876 66.3633 33.0335 67.6991 32.0674C68.6294 31.3995 69.5478 30.7077 70.4781 30.0279C68.5101 31.9243 66.8761 34.1785 65.7073 36.6593C65.2421 37.6373 64.8366 38.7107 65.1229 39.808C65.266 40.3447 65.588 40.8338 66.077 41.1081C67.1266 41.6925 68.2477 41.0484 69.178 40.4402C71.8258 38.6988 74.4856 36.9575 77.1334 35.2281C77.1334 35.2281 77.1334 35.2281 77.1453 35.2281C74.8792 37.0648 72.8396 39.1878 71.0983 41.5374C70.323 42.5751 68.7964 44.9366 69.7863 46.2725C70.6212 47.4055 72.2433 46.1413 73.3525 46.6303C73.6745 46.7734 73.9131 47.0358 74.2232 47.2147C75.1296 47.7634 76.2865 47.4055 77.2765 47.0358C93.4495 41.0723 109.861 35.4547 126.869 32.6757C128.646 32.3894 130.614 32.0197 131.711 30.5884C113.248 34.3812 94.9523 39.2117 77.4196 46.1651ZM47.5424 30.9701C48.2581 30.1471 48.8902 29.3719 49.9159 28.9544C49.7251 30.0517 48.926 30.7316 47.5424 30.9701ZM73.9011 16.6219C73.9011 16.6458 73.8892 16.6696 73.8892 16.6815C73.7222 17.2779 73.2452 17.7311 72.78 18.1366C71.1699 19.544 69.4643 20.8321 67.6872 22.0129C65.8981 23.1937 64.0494 24.2552 62.153 25.2451C60.2447 26.2351 58.2887 27.1296 56.3207 27.9764C55.3308 28.3939 54.3408 28.7994 53.339 29.2049C52.838 29.4077 52.3371 29.5985 51.8362 29.7893C51.5857 29.8848 51.3352 29.9802 51.0848 30.0756C50.9178 30.1352 50.5719 30.338 50.6196 29.9921C50.6315 29.9205 50.6673 29.837 50.715 29.7774C51.5141 28.5131 52.3132 27.2489 53.3628 26.1874C55.0087 24.5414 57.1675 23.5157 59.2548 22.4661C63.2384 20.4743 67.6872 18.077 71.8139 16.4191C72.1121 16.3476 71.6231 16.8604 71.4561 17.3256C71.4084 17.4687 71.4084 17.8981 71.5515 17.91C71.6827 17.91 71.7901 17.7908 71.8616 17.6834C72.291 17.1109 72.8039 16.61 73.3883 16.1925C73.4718 16.1329 73.591 16.0971 73.6984 16.121C73.9011 16.1568 73.9488 16.4072 73.9011 16.6219ZM77.3361 23.2176C77.3361 23.2176 77.3361 23.2056 77.3481 23.2056C80.9619 19.2936 84.5878 15.3696 88.6072 11.8869C89.7999 10.8492 91.1715 9.79965 92.7578 9.79965C92.4715 10.1575 92.1733 10.5033 91.8752 10.8492C89.7283 13.3062 87.3429 15.5366 84.8501 17.6357C83.5978 18.6853 82.3216 19.711 81.0335 20.7129C80.3894 21.2138 79.7454 21.7147 79.0894 22.2157C78.7554 22.4781 78.4096 22.7285 78.0756 22.9909C77.9802 23.0625 77.7297 23.3368 77.6104 23.3487C77.6104 23.3368 77.2884 23.301 77.3361 23.2176Z" fill="#73737D"/>
</svg>
