<svg width="195" height="53" viewBox="0 0 195 53" fill="none" xmlns="http://www.w3.org/2000/svg">
<path fill-rule="evenodd" clip-rule="evenodd" d="M95 23.8953C94.5 25.9258 94.4614 26.5858 94.4243 27.6984C94.368 29.3892 94.5 30.7481 95.0771 32.5193C95.1836 32.7129 95.3094 32.9065 95.5127 32.9936C95.8418 33.1388 96.2193 32.9258 96.5096 32.7032C98.3099 31.3482 99.7715 29.5963 101.165 27.8347C103.44 24.9697 105.608 22.0176 107.699 19.0171L107.713 18.9961C108.221 18.2673 108.737 17.5281 109.025 16.6845C109.073 16.549 109.112 16.3941 109.063 16.2489C108.967 16.0069 108.628 15.9392 108.395 16.0553C108.163 16.1618 108.008 16.3941 107.873 16.6167C104.534 21.8627 100.73 26.799 96.5096 31.3675C96.3644 31.5224 96.1418 31.6869 95.9676 31.5708C95.8838 31.5149 95.8538 31.4143 95.8258 31.3206L95.8224 31.3095C95.1255 28.6768 95.2707 25.8118 96.2483 23.2662C96.3838 22.8887 96.529 22.4241 96.2483 22.1434C96 21.9258 95.2804 22.1531 94.9029 22.5112C92.1154 25.173 88.931 27.4185 85.4852 29.151C84.9529 29.4124 84.3915 29.6737 83.8011 29.6156C83.2107 29.5576 82.6299 29.0446 82.7074 28.4638C85.0884 27.7089 87.5953 26.8668 89.1826 24.9407C89.6569 24.3599 90.0441 23.6727 90.1021 22.9274C90.1602 22.1821 89.8408 21.3691 89.1826 21.011C88.3889 20.5754 87.392 20.8948 86.5886 21.3207C84.5851 22.3951 82.9687 24.1857 82.0879 26.286C81.3813 27.9702 81.391 31.0384 83.9947 30.7481C84.6238 30.6803 85.1949 30.4093 85.7563 30.1286C88.8439 28.5993 92.4254 26.1796 95 23.8953ZM88.9987 22.3564C89.0858 22.5983 89.0955 22.8403 89.0471 23.092C88.989 23.3727 88.8535 23.6534 88.6987 23.8953C88.1179 24.7955 87.1887 25.4246 86.2402 25.9086C85.582 26.2473 84.9045 26.528 84.1979 26.7603C84.149 26.7766 84.0973 26.7946 84.044 26.813C83.4969 27.0026 82.7839 27.2498 83.172 26.4119C84.0915 24.418 85.8143 22.821 87.8566 22.0273C88.1179 21.9208 88.4277 21.8434 88.6793 21.9692C88.8342 22.0466 88.9406 22.2015 88.9987 22.3564ZM135.99 30.8179C134.645 31.9503 132.912 32.6182 131.151 32.6666C129.66 32.7053 128.054 32.2407 127.134 31.0695C126.447 30.1791 126.224 29.0273 126.031 27.9239C124.822 28.5655 123.844 29.4343 122.831 30.3336C122.133 30.9537 121.418 31.5883 120.601 32.1729C120.01 32.5988 118.975 32.5988 118.655 31.9407C118.529 31.689 118.549 31.3889 118.578 31.1083C118.621 30.6098 118.665 30.1137 118.708 29.6176C118.752 29.1216 118.796 28.6256 118.839 28.1271C117.407 29.2499 115.974 30.363 114.396 31.2825C113.942 31.5438 113.467 31.7955 112.945 31.8342C112.422 31.8729 111.851 31.6503 111.619 31.176C111.464 30.8469 111.493 30.4694 111.531 30.1113C111.667 28.9789 111.89 27.8561 112.19 26.7624L108.705 29.2596C107.979 29.7822 107.215 30.3146 106.343 30.5082C105.811 30.6243 105.24 30.5856 104.746 30.363C104.175 30.1016 103.924 29.7242 103.866 29.1144C103.74 27.8174 104.427 26.5688 105.24 25.6106C106.189 24.5072 107.379 23.6167 108.705 23.0166C109.634 22.6004 110.699 22.3294 111.667 22.6585C112.11 22.8153 112.497 23.087 112.883 23.3588C113.187 23.5733 113.492 23.7878 113.825 23.9458C113.862 23.9633 113.899 23.9804 113.936 23.9976C114.167 24.1042 114.406 24.2144 114.522 24.4394C114.716 24.7975 114.484 25.2234 114.29 25.5719C113.525 26.8882 113.051 28.3691 112.887 29.8887C112.867 30.1016 112.867 30.363 113.041 30.4985C113.245 30.6437 113.516 30.5178 113.729 30.3823C115.829 29.095 117.803 27.5948 119.604 25.9106C120.03 25.5138 120.678 25.0976 121.114 25.4751C121.346 25.6783 121.385 26.0365 121.288 26.3268C121.215 26.5697 121.068 26.7856 120.919 27.0026L120.919 27.0037L120.877 27.0653C120.862 27.0869 120.847 27.1085 120.833 27.1302C120.059 28.3013 119.71 29.7532 119.875 31.1567C120.861 30.3835 121.849 29.608 122.837 28.8324L122.841 28.8288C123.831 28.0521 124.821 27.2754 125.808 26.501C126.127 26.2494 126.544 25.9881 126.902 26.172C127.192 26.3171 127.289 26.6753 127.347 26.9947C127.379 27.1781 127.409 27.3646 127.438 27.5521C127.614 28.6613 127.797 29.8102 128.567 30.6049C129.38 31.4567 130.677 31.6696 131.838 31.5438C132.519 31.4706 133.184 31.3024 133.848 31.1345C134.325 31.0138 134.802 30.8932 135.284 30.8082C135.523 30.77 135.771 30.7318 135.991 30.8146L135.991 30.8155L135.99 30.8179ZM136 30.8179C135.995 30.8127 135.991 30.8146 135.991 30.8146L136 30.8179ZM112.722 24.7201C112.209 24.2942 111.657 23.8587 110.999 23.7716C110.554 23.7135 110.099 23.82 109.663 23.9748C107.776 24.633 106.16 26.0558 105.279 27.8464C104.998 28.4078 105.027 29.4047 105.898 29.3564C106.16 29.3467 106.402 29.2208 106.634 29.095C108.831 27.8948 110.883 26.4236 112.722 24.7201ZM44.2332 23.5465C44.6494 23.3917 45.114 23.7595 45.2398 24.1853C45.3544 24.573 45.2684 24.9927 45.1864 25.3934L45.176 25.4441L45.1624 25.5114C44.843 27.031 44.7752 28.6086 44.9495 30.1573C44.9882 30.5057 45.0656 30.8832 45.3463 31.0865C45.6851 31.3284 46.169 31.1929 46.5465 31.009C47.2434 30.6703 47.8628 30.2057 48.4629 29.7121C50.2826 28.2215 51.8893 26.4696 53.2153 24.5338C53.438 24.2047 53.7767 23.8369 54.1445 23.953C54.4059 24.0401 54.5317 24.3499 54.5123 24.6209C54.4844 24.8815 54.358 25.1243 54.2364 25.3578L54.222 25.3855C53.5831 26.6148 53.2444 27.9892 53.2444 29.3733C53.2444 29.925 53.4283 30.6316 53.98 30.6896C54.2704 30.7187 54.5414 30.5444 54.7833 30.3702C57.1934 28.6086 59.3131 26.4599 61.0457 24.0305L61.086 23.9751C61.2569 23.7399 61.4333 23.4972 61.6845 23.3626C61.9555 23.2174 62.3426 23.2174 62.5362 23.4594C62.7588 23.7401 62.6233 24.1563 62.4685 24.4854C61.8974 25.763 61.3554 27.1084 61.3941 28.5119C61.4328 29.9153 62.2265 31.3865 63.5719 31.793C64.4914 32.0737 65.469 31.8124 66.3982 31.5607C66.6935 31.4784 66.9912 31.3961 67.2889 31.3138C67.5865 31.2316 67.884 31.1494 68.1791 31.0671C68.334 31.4059 67.9371 31.7446 67.5984 31.9092C66.6111 32.3835 65.5658 32.79 64.472 32.8674C63.3783 32.9448 62.2265 32.6545 61.4328 31.8995C60.7359 31.2413 60.3778 30.2831 60.2713 29.3249C60.1594 28.4105 60.2633 27.4781 60.3663 26.5537L60.3778 26.4502C58.713 28.3376 57.0095 30.2541 54.8608 31.5511C54.28 31.8995 53.5347 32.1996 52.9734 31.8318C52.6443 31.6091 52.4797 31.222 52.3636 30.8348C52.0539 29.8185 51.9571 28.7441 52.0829 27.6891C50.8924 28.8893 49.6438 30.0315 48.3468 31.1155C47.3402 31.9479 45.2108 33.3223 44.1848 31.7446C43.9041 31.2994 43.8073 30.7671 43.7493 30.2444C43.5944 28.9087 43.575 27.5536 43.7009 26.2179C42.2297 27.8537 40.7488 29.4991 38.9872 30.8348C38.3774 31.2994 37.6805 31.735 36.9159 31.7059C35.735 31.6672 34.8349 30.4573 34.7768 29.2765C34.7187 28.0957 35.2995 26.9729 35.977 26.005C36.8868 24.708 38.0677 23.5175 39.5679 23.0045C41.0682 22.4915 42.9266 22.8012 43.9138 24.0401C44.0106 23.8756 44.1171 23.7111 44.2332 23.5465ZM35.948 29.0248V29.1313C35.948 29.5185 36.0351 29.925 36.2964 30.2057C37.787 31.8608 42.3942 26.1405 43.1879 25.0564C43.246 24.979 43.2944 24.9016 43.304 24.8145C43.3137 24.6596 43.1782 24.5435 43.0427 24.4563C42.0651 23.8272 40.7584 23.8079 39.6744 24.2434C38.5904 24.679 37.6999 25.5017 37.003 26.4405C36.4416 27.1955 35.977 28.0763 35.948 29.0248ZM0.00967901 20.4532C0 20.4242 0 20.3855 0 20.3564C2.67577 20.1069 3.85486 19.9167 6.5 19.4258C7.95961 19.1549 10.8842 18.5835 12.3504 18.3529C16.4737 17.7044 20.7131 17.3656 24.788 18.2464C27.5271 18.8368 30.2372 20.0273 32.0956 22.1277C32.6667 22.7762 33.1797 23.5989 33.0538 24.4603C32.9764 24.9733 32.6763 25.4282 32.3763 25.8541C31.2148 27.5092 29.9178 29.0675 28.5144 30.5291C28.3596 30.6901 28.2016 30.859 28.04 31.0318C26.9385 32.2096 25.6682 33.568 24.0814 33.8296C23.8878 33.8587 23.6749 33.8683 23.5297 33.7328C23.3942 33.5973 23.3942 33.3844 23.4135 33.1908L24.1975 21.7212C24.2266 21.3631 24.3137 20.9178 24.6718 20.8404C25.1461 20.7339 25.3881 21.4018 25.3881 21.8857C25.4043 23.3179 25.2538 24.7501 25.1035 26.1809C24.8953 28.1634 24.6873 30.1432 24.9235 32.1164C27.3722 30.442 29.492 28.2932 31.1374 25.8251C31.4955 25.2927 31.8343 24.6926 31.7762 24.0635C31.7278 23.5505 31.4181 23.0956 31.0793 22.6988C29.7146 21.1017 27.7497 20.1145 25.7365 19.5144C21.7294 18.3238 17.4513 18.5077 13.3086 19.0788C11.8677 19.2774 10.4338 19.517 9.00087 19.7565C6.31407 20.2055 3.63046 20.654 0.909827 20.8307C0.551704 20.8597 0.0774321 20.763 0.00967901 20.4532ZM73.0088 34.3008V34.2427C73.0373 33.7869 73.3174 33.3869 73.5839 33.0064L73.5992 32.9844C76.7836 28.6579 79.997 24.1862 81.3715 18.9983C81.4876 18.5627 81.5747 18.0497 81.2747 17.711C80.9553 17.3528 80.3939 17.4012 79.9196 17.4883C77.645 17.9045 75.3898 18.4562 73.1733 19.1241C73.127 19.1382 73.0806 19.1524 73.0342 19.1666C72.0617 19.4638 71.0632 19.7691 70.047 19.6952L70.0384 19.6945C69.6431 19.6656 69.1551 19.6298 68.9533 19.9662C68.8081 20.2178 68.9339 20.5663 69.1662 20.7405C69.3985 20.9244 69.7083 20.9631 69.9986 20.9728C70.9411 21 71.8496 20.7047 72.748 20.4128C72.8092 20.3929 72.8703 20.3731 72.9314 20.3533C75.1672 19.6371 77.4515 19.066 79.7647 18.6401C79.8809 18.6208 80.0067 18.6111 80.0938 18.6885C80.1906 18.7756 80.1616 18.9402 80.1229 19.066C78.671 24.1185 75.6318 28.5515 72.4765 32.7618C72.0119 33.3813 71.5085 34.0685 71.3827 34.8525C71.2375 35.772 71.8957 35.9365 72.6604 35.5591C72.9979 35.3948 73.2839 35.136 73.5669 34.8799C73.5841 34.8643 73.6014 34.8487 73.6186 34.8331C73.7541 34.7073 73.8896 34.5621 73.8605 34.3879C73.8412 34.2234 73.6476 34.1169 73.4831 34.1266C73.3174 34.1358 73.1692 34.215 73.0301 34.2894L73.0088 34.3008Z" fill="#73737D"/>
</svg>
