<svg width="195" height="53" viewBox="0 0 195 53" fill="none" xmlns="http://www.w3.org/2000/svg">
<path d="M53.0149 23.16C53.5137 22.9744 54.0705 23.4152 54.2213 23.9256C54.3721 24.436 54.2329 24.9929 54.1285 25.5149C53.7457 27.3362 53.6645 29.2271 53.8733 31.0832C53.9197 31.5008 54.0125 31.9532 54.3489 32.1968C54.7549 32.4868 55.335 32.3244 55.7874 32.104C56.6226 31.698 57.3651 31.1412 58.0843 30.5495C60.2652 28.7631 62.1909 26.6633 63.7802 24.3432C64.047 23.9488 64.453 23.508 64.8939 23.6472C65.2071 23.7516 65.3579 24.1228 65.3347 24.4476C65.2999 24.7724 65.1375 25.0741 64.9867 25.3641C64.221 26.8374 63.815 28.4846 63.815 30.1435C63.815 30.8048 64.0354 31.6516 64.6967 31.7212C65.0447 31.756 65.3695 31.5472 65.6595 31.3384C68.548 29.2271 71.0886 26.6517 73.1651 23.74C73.3855 23.4384 73.6059 23.1136 73.9307 22.9396C74.2555 22.7655 74.7196 22.7655 74.9516 23.0556C75.2184 23.392 75.056 23.8908 74.8704 24.2852C74.1859 25.8165 73.5363 27.429 73.5827 29.1111C73.6291 30.7932 74.5804 32.5564 76.1928 33.0437C77.2949 33.3801 78.4666 33.0669 79.5802 32.7653C80.2878 32.568 81.0071 32.3708 81.7147 32.1736C81.9003 32.5796 81.4247 32.9857 81.0187 33.1829C79.8354 33.7513 78.5826 34.2385 77.2717 34.3313C75.9608 34.4241 74.5804 34.0761 73.6291 33.1713C72.7939 32.3824 72.3646 31.234 72.237 30.0855C72.0978 28.9487 72.237 27.7886 72.3646 26.6401C70.3693 28.9023 68.3276 31.1992 65.7523 32.7537C65.0563 33.1713 64.163 33.5309 63.4902 33.0901C63.0958 32.8233 62.8986 32.3592 62.7594 31.8952C62.3881 30.6771 62.2721 29.3895 62.4229 28.125C60.9961 29.5635 59.4996 30.9324 57.9451 32.2316C56.7386 33.2293 54.1865 34.8766 52.9569 32.9857C52.6204 32.452 52.5044 31.814 52.4348 31.1876C52.2492 29.5867 52.226 27.9626 52.3768 26.3617C50.6135 28.3222 48.8386 30.2943 46.7273 31.8952C45.9965 32.452 45.1613 32.9741 44.2448 32.9393C42.8295 32.8929 41.7507 31.4428 41.6811 30.0275C41.6115 28.6122 42.3075 27.2666 43.1196 26.1065C44.21 24.552 45.6253 23.1252 47.4234 22.5103C49.2215 21.8955 51.4488 22.2667 52.632 23.7516C52.748 23.5544 52.8757 23.3572 53.0149 23.16ZM43.0848 29.7259C43.0848 29.7723 43.0848 29.8071 43.0848 29.8535C43.0848 30.3175 43.1892 30.8048 43.5024 31.1412C45.2889 33.1249 50.8107 26.2689 51.762 24.9697C51.8316 24.8769 51.8896 24.784 51.9012 24.6796C51.9128 24.494 51.7504 24.3548 51.588 24.2504C50.4163 23.4964 48.8502 23.4732 47.551 23.9952C46.2517 24.5172 45.1845 25.5033 44.3492 26.6285C43.6764 27.5334 43.1196 28.589 43.0848 29.7259Z" fill="#73737D"/>
<path d="M162.989 31.873C161.376 33.2302 159.3 34.0307 157.188 34.0887C155.402 34.1351 153.476 33.5783 152.374 32.1746C151.55 31.1073 151.284 29.7269 151.052 28.4044C148.604 29.7037 146.945 31.7802 144.544 33.497C143.836 34.0075 142.595 34.0075 142.212 33.2186C142.061 32.917 142.084 32.5574 142.119 32.221C142.223 31.0261 142.328 29.8429 142.432 28.648C140.715 29.9937 138.999 31.3277 137.108 32.4298C136.562 32.743 135.994 33.0446 135.368 33.091C134.741 33.1374 134.057 32.8706 133.778 32.3022C133.593 31.9078 133.627 31.4553 133.674 31.0261C133.836 29.6689 134.103 28.3232 134.463 27.0123C133.071 28.01 131.679 29.0076 130.286 30.0053C129.416 30.6317 128.5 31.2697 127.456 31.5017C126.818 31.641 126.133 31.5946 125.542 31.3277C124.857 31.0145 124.556 30.5621 124.486 29.8313C124.335 28.2768 125.159 26.7803 126.133 25.6318C127.27 24.3094 128.697 23.2421 130.286 22.5229C131.4 22.0241 132.676 21.6992 133.836 22.0937C134.787 22.4301 135.518 23.2073 136.423 23.6365C136.736 23.7874 137.096 23.915 137.258 24.2282C137.49 24.6574 137.212 25.1678 136.98 25.5854C136.064 27.1631 135.495 28.938 135.298 30.7593C135.275 31.0145 135.275 31.3277 135.484 31.4901C135.727 31.6642 136.052 31.5133 136.307 31.3509C138.825 29.8081 141.191 28.01 143.349 25.9915C143.859 25.5158 144.636 25.017 145.158 25.4694C145.437 25.7131 145.483 26.1423 145.367 26.4903C145.263 26.8383 145.031 27.1399 144.822 27.4531C143.894 28.8568 143.476 30.5969 143.674 32.279C146.04 30.4229 148.418 28.5552 150.785 26.6991C151.168 26.3975 151.666 26.0843 152.096 26.3047C152.444 26.4787 152.56 26.9079 152.629 27.2907C152.896 28.8104 153.012 30.5041 154.091 31.6178C155.065 32.6386 156.62 32.8938 158.012 32.743C159.416 32.5922 160.761 32.105 162.142 31.8614C162.432 31.815 162.733 31.7686 163 31.873C162.989 31.8614 162.989 31.873 162.989 31.873ZM135.101 24.5646C134.486 24.0542 133.825 23.5321 133.036 23.4277C132.502 23.3581 131.957 23.4857 131.435 23.6713C129.173 24.4602 127.236 26.1655 126.18 28.3116C125.843 28.9844 125.878 30.1793 126.922 30.1213C127.236 30.1097 127.526 29.9589 127.804 29.8081C130.437 28.3696 132.897 26.6063 135.101 24.5646Z" fill="#73737D"/>
<path d="M113.025 24.1677C113.025 24.1561 113.025 24.1445 113.025 24.1329C109.939 26.8706 106.482 29.214 102.781 31.0469C102.109 31.3833 101.424 31.7081 100.67 31.7893C97.5496 32.1373 97.538 28.4599 98.3848 26.4414C99.4405 23.9241 101.378 21.778 103.779 20.4903C104.742 19.9799 105.937 19.5971 106.888 20.1191C107.677 20.5483 108.06 21.5228 107.99 22.416C107.921 23.3093 107.457 24.1329 106.888 24.8289C104.986 27.1375 101.981 28.1467 99.1273 29.0515C99.0345 29.7476 99.7305 30.3624 100.438 30.432C101.146 30.5016 101.819 30.1884 102.457 29.8752C106.586 27.7987 110.403 25.1073 113.744 21.9172C114.196 21.488 114.916 21.0355 115.357 21.4764C115.693 21.8128 115.519 22.3696 115.357 22.822C114.185 25.873 114.011 29.3068 114.846 32.4621C114.881 32.5781 114.916 32.7057 115.02 32.7753C115.229 32.9145 115.496 32.7173 115.67 32.5317C120.728 27.0562 125.287 21.1399 129.289 14.8524C129.451 14.5856 129.637 14.3072 129.915 14.1796C130.194 14.0404 130.6 14.1216 130.716 14.4116C130.774 14.5856 130.727 14.7712 130.669 14.9336C130.321 15.9545 129.695 16.8477 129.08 17.7294C126.574 21.3256 123.976 24.8637 121.25 28.2975C119.579 30.4088 117.827 32.5085 115.67 34.1326C115.322 34.3994 114.869 34.6546 114.475 34.4806C114.231 34.3762 114.08 34.1442 113.953 33.9122C112.433 31.0121 113.616 27.4159 113.025 24.1677ZM106.726 22.6132C106.784 22.3116 106.772 22.0216 106.668 21.7316C106.598 21.546 106.47 21.3604 106.285 21.2676C105.983 21.1167 105.612 21.2096 105.299 21.3372C102.851 22.2884 100.786 24.2025 99.6841 26.5922C99.1737 27.6943 100.253 27.2303 100.914 27.0098C101.761 26.7314 102.573 26.395 103.362 25.989C104.498 25.409 105.612 24.6549 106.308 23.5761C106.494 23.2861 106.656 22.9496 106.726 22.6132Z" fill="#73737D"/>
<path d="M0.0116006 19.4506C0 19.4158 0 19.3694 0 19.3346C4.97665 18.8706 9.8605 17.7105 14.8024 16.9333C19.7442 16.156 24.8253 15.75 29.7091 16.8057C32.9921 17.5133 36.2402 18.9402 38.4676 21.4575C39.152 22.2347 39.7668 23.2208 39.616 24.2533C39.5232 24.8681 39.1636 25.4133 38.804 25.9237C37.4119 27.9074 35.8574 29.7751 34.1753 31.5268C32.7253 33.0349 31.0432 35.123 28.8623 35.4826C28.6303 35.5174 28.375 35.529 28.201 35.3666C28.0386 35.2042 28.0386 34.949 28.0618 34.717C28.375 30.1347 28.6883 25.5525 29.0015 20.9703C29.0363 20.5411 29.1407 20.0074 29.5699 19.9146C30.1383 19.787 30.4284 20.5875 30.4284 21.1675C30.4748 25.2625 29.3843 29.3575 29.8715 33.4293C32.8065 31.4224 35.347 28.8471 37.3191 25.8889C37.7483 25.2509 38.1543 24.5317 38.0847 23.7776C38.0267 23.1628 37.6555 22.6176 37.2495 22.1419C35.6138 20.2278 33.2589 19.0446 30.846 18.3253C26.0433 16.8985 20.9159 17.1189 15.9508 17.8033C10.9858 18.4878 6.09031 19.5782 1.09046 19.903C0.661234 19.9378 0.0928047 19.8218 0.0116006 19.4506Z" fill="#73737D"/>
<path d="M87.5033 35.9797C87.5033 36.0029 87.5033 36.0261 87.5033 36.0493C87.6773 35.9565 87.8629 35.8521 88.0717 35.8405C88.2689 35.8289 88.5009 35.9565 88.5241 36.1537C88.5589 36.3625 88.3965 36.5365 88.2341 36.6873C87.8745 37.0121 87.5149 37.3486 87.0856 37.5574C86.1692 38.0098 85.3804 37.8126 85.5544 36.7105C85.7052 35.7709 86.3084 34.9472 86.8652 34.2048C90.647 29.1585 94.2896 23.8455 96.0297 17.79C96.0761 17.6391 96.1109 17.4419 95.9949 17.3375C95.8905 17.2447 95.7397 17.2563 95.6005 17.2795C92.8279 17.79 90.0902 18.4744 87.4105 19.3328C86.262 19.704 85.1019 20.1101 83.8955 20.0753C83.5475 20.0637 83.1762 20.0173 82.8978 19.7969C82.6194 19.588 82.4686 19.1704 82.6426 18.8688C82.8862 18.4628 83.4779 18.5092 83.9535 18.544C85.2296 18.6368 86.4824 18.2308 87.7005 17.8596C90.357 17.0591 93.0599 16.3979 95.7861 15.8991C96.3545 15.7946 97.0274 15.7366 97.4102 16.1659C97.7698 16.5719 97.6654 17.1867 97.5262 17.7087C95.8789 23.9267 92.0275 29.2861 88.2109 34.4716C87.8861 34.9356 87.5381 35.4229 87.5033 35.9797Z" fill="#73737D"/>
</svg>
