<svg width="195" height="53" viewBox="0 0 195 53" fill="none" xmlns="http://www.w3.org/2000/svg">
<path d="M48.8219 21.6307L48.8211 21.6299C47.5014 20.2115 45.8872 19.1619 44.1844 18.2116C40.9622 16.4213 37.5492 15.0976 34.0528 13.9996L34.0525 13.9995C29.1193 12.4407 24.0561 11.3813 18.9407 10.6555C13.4465 9.87884 7.93012 9.52757 2.37789 9.46487L2.37749 9.46486L2.37526 9.46483L2.37303 9.4648L2.3708 9.46477L2.36857 9.46474L2.36634 9.4647L2.36411 9.46467L2.36188 9.46464L2.35965 9.46461L2.35742 9.46458L2.35519 9.46455L2.35296 9.46452L2.35073 9.46448L2.3485 9.46445L2.34627 9.46442L2.34404 9.46439L2.34181 9.46436L2.33958 9.46433L2.33735 9.4643L2.33512 9.46427L2.33289 9.46423L2.33066 9.4642L2.32843 9.46417L2.3262 9.46414L2.32397 9.46411L2.32174 9.46408L2.31951 9.46405L2.31728 9.46402L2.31505 9.46398L2.31282 9.46395L2.31059 9.46392L2.30836 9.46389L2.30613 9.46386L2.30389 9.46383L2.30166 9.4638L2.29943 9.46376L2.2972 9.46373L2.29497 9.4637L2.29274 9.46367L2.29051 9.46364L2.28828 9.46361L2.28605 9.46358L2.28382 9.46355L2.28159 9.46351L2.27936 9.46348L2.27713 9.46345L2.2749 9.46342L2.27267 9.46339L2.27044 9.46336L2.26821 9.46333L2.26598 9.4633L2.26375 9.46326L2.26152 9.46323L2.25929 9.4632L2.25706 9.46317L2.25483 9.46314L2.2526 9.46311L2.25037 9.46308L2.24814 9.46305L2.24591 9.46301L2.24368 9.46298L2.24145 9.46295L2.23922 9.46292L2.23699 9.46289L2.23476 9.46286L2.23253 9.46283L2.2303 9.46279L2.22807 9.46276L2.22584 9.46273L2.22361 9.4627L2.22138 9.46267L2.21915 9.46264L2.21692 9.46261L2.21469 9.46258L2.21246 9.46254L2.21023 9.46251L2.208 9.46248L2.20577 9.46245L2.20354 9.46242L2.20131 9.46239L2.19908 9.46236L2.19685 9.46233L2.19462 9.46229L2.19239 9.46226L2.19016 9.46223L2.18793 9.4622L2.1857 9.46217L2.18347 9.46214L2.18124 9.46211L2.179 9.46207L2.17677 9.46204L2.17454 9.46201L2.17231 9.46198L2.17008 9.46195L2.16785 9.46192L2.16562 9.46189L2.16339 9.46186L2.16116 9.46182L2.15893 9.46179L2.1567 9.46176L2.15447 9.46173L2.15224 9.4617L2.15001 9.46167L2.14778 9.46164L2.14555 9.46161L2.14332 9.46157L2.14109 9.46154L2.13886 9.46151L2.13663 9.46148L2.1344 9.46145L2.13217 9.46142L2.12994 9.46139L2.12771 9.46136L2.12548 9.46132L2.12325 9.46129L2.12102 9.46126L2.11879 9.46123L2.11656 9.4612L2.11433 9.46117L2.1121 9.46114L2.10987 9.4611L2.10764 9.46107L2.10541 9.46104L2.10318 9.46101L2.10095 9.46098L2.09872 9.46095L2.09649 9.46092L2.09426 9.46089L2.09203 9.46085L2.0898 9.46082L2.08757 9.46079L2.08534 9.46076L2.08311 9.46073L2.08088 9.4607L2.07865 9.46067L2.07642 9.46064L2.07419 9.4606L2.07196 9.46057L2.06973 9.46054L2.0675 9.46051L2.06527 9.46048L2.06304 9.46045L2.06081 9.46042L2.05858 9.46038L2.05634 9.46035L2.05411 9.46032L2.05188 9.46029L2.04965 9.46026L2.04742 9.46023L2.04519 9.4602L2.04296 9.46017L2.04073 9.46013L2.0385 9.4601L2.03627 9.46007L2.03404 9.46004L2.03181 9.46001L2.02958 9.45998L2.02735 9.45995L2.02512 9.45992L2.02289 9.45988L2.02066 9.45985L2.01843 9.45982L2.0162 9.45979L2.01397 9.45976L2.01174 9.45973L2.00951 9.4597L2.00728 9.45967L2.00505 9.45963L2.00282 9.4596L2.00059 9.45957L1.99836 9.45954L1.99613 9.45951L1.9939 9.45948L1.99167 9.45945L1.98944 9.45941L1.98721 9.45938L1.98498 9.45935L1.98275 9.45932L1.98052 9.45929L1.97829 9.45926L1.97606 9.45923L1.97383 9.4592L1.9716 9.45916L1.96937 9.45913L1.96714 9.4591L1.96491 9.45907L1.96268 9.45904L1.96045 9.45901L1.95822 9.45898L1.95599 9.45895L1.95376 9.45891L1.95153 9.45888L1.9493 9.45885L1.94707 9.45882L1.94484 9.45879L1.94261 9.45876L1.94038 9.45873L1.93815 9.45869L1.93592 9.45866L1.93369 9.45863L1.93145 9.4586L1.92922 9.45857L1.92699 9.45854L1.92476 9.45851L1.92253 9.45848L1.9203 9.45844L1.91807 9.45841L1.91584 9.45838L1.91361 9.45835L1.91138 9.45832L1.90915 9.45829L1.90692 9.45826L1.90469 9.45823L1.90246 9.45819L1.90023 9.45816L1.898 9.45813L1.89577 9.4581L1.89354 9.45807L1.89131 9.45804L1.88908 9.45801L1.88685 9.45797L1.88462 9.45794L1.88239 9.45791L1.88016 9.45788L1.87793 9.45785L1.8757 9.45782L1.87347 9.45779L1.87124 9.45776L1.86901 9.45772L1.86678 9.45769L1.86455 9.45766L1.86232 9.45763L1.86009 9.4576L1.85786 9.45757L1.85563 9.45754L1.8534 9.45751L1.85117 9.45747L1.84894 9.45744L1.84671 9.45741L1.84448 9.45738L1.84225 9.45735L1.84002 9.45732L1.83779 9.45729L1.83556 9.45726L1.83333 9.45722L1.8311 9.45719L1.82887 9.45716L1.82664 9.45713L1.82441 9.4571L1.82218 9.45707L1.81995 9.45704L1.81772 9.457L1.81549 9.45697L1.81326 9.45694L1.81103 9.45691L1.80879 9.45688L1.80656 9.45685L1.80433 9.45682L1.8021 9.45679L1.79987 9.45675L1.79764 9.45672L1.79541 9.45669L1.79318 9.45666L1.79095 9.45663L1.78872 9.4566L1.78649 9.45657L1.78426 9.45654L1.78203 9.4565L1.7798 9.45647L1.77757 9.45644L1.77534 9.45641L1.77311 9.45638L1.77088 9.45635L1.76865 9.45632L1.76642 9.45628L1.76419 9.45625L1.76196 9.45622L1.75973 9.45619L1.7575 9.45616L1.75527 9.45613L1.75304 9.4561L1.75081 9.45607L1.74858 9.45603L1.74635 9.456L1.74412 9.45597L1.74189 9.45594L1.73966 9.45591L1.73743 9.45588L1.7352 9.45585L1.73297 9.45582L1.73074 9.45578L1.72851 9.45575L1.72628 9.45572L1.72405 9.45569L1.72182 9.45566L1.71959 9.45563L1.71736 9.4556L1.71513 9.45557L1.7129 9.45553L1.71067 9.4555L1.70844 9.45547L1.70621 9.45544L1.70398 9.45541L1.70175 9.45538L1.69952 9.45535L1.69729 9.45531L1.69506 9.45528L1.69283 9.45525L1.6906 9.45522L1.68837 9.45519L1.68613 9.45516L1.6839 9.45513L1.68167 9.4551L1.67944 9.45506L1.67721 9.45503L1.67498 9.455L1.67275 9.45497L1.67052 9.45494L1.66829 9.45491L1.66606 9.45488L1.66383 9.45485L1.6616 9.45481L1.65937 9.45478L1.65714 9.45475L1.65491 9.45472L1.65268 9.45469L1.65045 9.45466L1.64822 9.45463L1.64599 9.45459L1.64376 9.45456L1.64153 9.45453L1.6393 9.4545L1.63707 9.45447L1.63484 9.45444L1.63261 9.45441L1.63038 9.45438L1.62815 9.45434L1.62592 9.45431L1.62369 9.45428L1.62146 9.45425L1.61923 9.45422L1.617 9.45419L1.61477 9.45416L1.61254 9.45413L1.61031 9.45409L1.60808 9.45406L1.60585 9.45403L1.60362 9.454L1.60139 9.45397L1.59916 9.45394L1.59693 9.45391L1.5947 9.45388L1.59247 9.45384L1.59024 9.45381L1.58801 9.45378L1.58578 9.45375L1.58355 9.45372L1.58132 9.45369L1.57909 9.45366L1.57686 9.45362L1.57463 9.45359L1.5724 9.45356L1.57017 9.45353L1.56794 9.4535L1.56571 9.45347L1.56348 9.45344L1.56124 9.45341L1.55901 9.45337L1.55678 9.45334L1.55455 9.45331L1.55232 9.45328L1.55009 9.45325L1.54786 9.45322L1.54563 9.45319L1.5434 9.45316L1.54117 9.45312L1.53894 9.45309L1.53671 9.45306L1.53448 9.45303L1.53225 9.453L1.53002 9.45297L1.52779 9.45294L1.52556 9.4529L1.52333 9.45287L1.5211 9.45284L1.51887 9.45281L1.51664 9.45278L1.51441 9.45275L1.51218 9.45272L1.50995 9.45269L1.50772 9.45265L1.50549 9.45262L1.50326 9.45259L1.50103 9.45256L1.4988 9.45253L1.49657 9.4525L1.49434 9.45247L1.49211 9.45244L1.48988 9.4524L1.48765 9.45237L1.48542 9.45234L1.48319 9.45231L1.48096 9.45228L1.47873 9.45225L1.4765 9.45222L1.47427 9.45219L1.47204 9.45215L1.46981 9.45212L1.46758 9.45209L1.46535 9.45206L1.46312 9.45203L1.46089 9.452L1.45866 9.45197L1.45643 9.45193L1.4542 9.4519L1.45197 9.45187L1.44974 9.45184L1.44751 9.45181L1.44528 9.45178L1.44305 9.45175L1.44082 9.45172L1.43858 9.45168L1.43635 9.45165L1.43412 9.45162L1.43189 9.45159L1.42966 9.45156L1.42743 9.45153L1.4252 9.4515L1.42297 9.45147L1.42074 9.45143L1.41851 9.4514L1.41628 9.45137L1.41405 9.45134L1.41182 9.45131L1.40959 9.45128L1.40736 9.45125L1.40513 9.45121L1.4029 9.45118L1.40067 9.45115L1.39844 9.45112L1.39621 9.45109L1.39398 9.45106L1.39175 9.45103L1.38952 9.451L1.38729 9.45096L1.38506 9.45093L1.38283 9.4509L1.3806 9.45087L1.37837 9.45084L1.37614 9.45081L1.37391 9.45078L1.37168 9.45075L1.36945 9.45071L1.36722 9.45068L1.36499 9.45065L1.36276 9.45062L1.36053 9.45059L1.3583 9.45056L1.35607 9.45053L1.35384 9.4505L1.35161 9.45046L1.34938 9.45043L1.34715 9.4504L1.34492 9.45037L1.34269 9.45034L1.34046 9.45031L1.33823 9.45028L1.336 9.45024L1.33377 9.45021L1.33154 9.45018L1.32931 9.45015L1.32708 9.45012L1.32485 9.45009L1.32262 9.45006L1.32039 9.45003L1.31816 9.44999L1.31592 9.44996L1.31369 9.44993L1.31146 9.4499L1.30923 9.44987L1.307 9.44984L1.30477 9.44981L1.30254 9.44978L1.30031 9.44974L1.29808 9.44971L1.29585 9.44968L1.29362 9.44965L1.29139 9.44962L1.28916 9.44959L1.28693 9.44956L1.2847 9.44952L1.28247 9.44949L1.28024 9.44946L1.27801 9.44943L1.27578 9.4494L1.27355 9.44937L1.27132 9.44934L1.26909 9.44931L1.26686 9.44927L1.26463 9.44924L1.2624 9.44921L1.26017 9.44918L1.25794 9.44915L1.25571 9.44912L1.25348 9.44909L1.25125 9.44906L1.24902 9.44902L1.24679 9.44899L1.24456 9.44896L1.24233 9.44893L1.2401 9.4489L1.23787 9.44887L1.23564 9.44884C1.08314 9.4467 0.928081 9.41538 0.806076 9.32714C0.677321 9.23401 0.603672 9.09073 0.596594 8.9072L0.596554 8.90617L0.596558 8.90617C0.589983 8.6968 0.666247 8.5407 0.809125 8.44364C0.93953 8.35506 1.10681 8.32905 1.25908 8.32318L1.26667 8.32289L1.26666 8.32309L1.26702 8.32309L1.26738 8.3231L1.26773 8.3231L1.26809 8.32311L1.26845 8.32311L1.26881 8.32312L1.26916 8.32312L1.26952 8.32313L1.26988 8.32313L1.27023 8.32314L1.27059 8.32314L1.27095 8.32315L1.2713 8.32315L1.27166 8.32316L1.27202 8.32316L1.27237 8.32317L1.27273 8.32317L1.27309 8.32318L1.27344 8.32318L1.2738 8.32319L1.27416 8.32319L1.27451 8.3232L1.27487 8.3232L1.27523 8.32321L1.27558 8.32321L1.27594 8.32322L1.2763 8.32322L1.27666 8.32323L1.27701 8.32323L1.27737 8.32324L1.27773 8.32324L1.27808 8.32325L1.27844 8.32325L1.2788 8.32326L1.27915 8.32326L1.27951 8.32327L1.27987 8.32327L1.28022 8.32328L1.28058 8.32328L1.28094 8.32329L1.28129 8.32329L1.28165 8.3233L1.28201 8.3233L1.28236 8.32331L1.28272 8.32331L1.28308 8.32332L1.28344 8.32332L1.28379 8.32333L1.28415 8.32333L1.28451 8.32334L1.28486 8.32334L1.28522 8.32335L1.28558 8.32335L1.28593 8.32336L1.28629 8.32336L1.28665 8.32337L1.287 8.32337L1.28736 8.32338L1.28772 8.32338L1.28807 8.32339L1.28843 8.32339L1.28879 8.3234L1.28914 8.3234L1.2895 8.32341L1.28986 8.32341L1.29021 8.32342L1.29057 8.32342L1.29093 8.32343L1.29129 8.32343L1.29164 8.32344L1.292 8.32344L1.29236 8.32345L1.29271 8.32345L1.29307 8.32346L1.29343 8.32346L1.29378 8.32347L1.29414 8.32347L1.2945 8.32348L1.29485 8.32348L1.29521 8.32349L1.29557 8.32349L1.29592 8.3235L1.29628 8.3235L1.29664 8.32351L1.29699 8.32351L1.29735 8.32352L1.29771 8.32352L1.29807 8.32353L1.29842 8.32353L1.29878 8.32354L1.29914 8.32354L1.29949 8.32355L1.29985 8.32355L1.30021 8.32356L1.30056 8.32356L1.30092 8.32357L1.30128 8.32357L1.30163 8.32358L1.30199 8.32358L1.30235 8.32359L1.3027 8.32359L1.30306 8.3236L1.30342 8.3236L1.30377 8.32361L1.30413 8.32361L1.30449 8.32362L1.30484 8.32362L1.3052 8.32363L1.30556 8.32363L1.30592 8.32364L1.30627 8.32364L1.30663 8.32365L1.30699 8.32365L1.30734 8.32366L1.3077 8.32366L1.30806 8.32367L1.30841 8.32367L1.30877 8.32368L1.30913 8.32368L1.30948 8.32369L1.30984 8.32369L1.3102 8.3237L1.31055 8.3237L1.31091 8.32371L1.31127 8.32371L1.31162 8.32372L1.31198 8.32372L1.31234 8.32373L1.3127 8.32373L1.31305 8.32374L1.31341 8.32374L1.31377 8.32375L1.31412 8.32375L1.31448 8.32376L1.31484 8.32376L1.31519 8.32377L1.31555 8.32377L1.31591 8.32378L1.31626 8.32378L1.31662 8.32379L1.31698 8.32379L1.31733 8.3238L1.31769 8.3238L1.31805 8.32381L1.3184 8.32381L1.31876 8.32382L1.31912 8.32382L1.31947 8.32383L1.31983 8.32383L1.32019 8.32384L1.32055 8.32384L1.3209 8.32385L1.32126 8.32385L1.32162 8.32386L1.32197 8.32386L1.32233 8.32387L1.32269 8.32387L1.32304 8.32388L1.3234 8.32388L1.32376 8.32389L1.32411 8.32389L1.32447 8.3239L1.32483 8.3239L1.32518 8.32391L1.32554 8.32391L1.3259 8.32392L1.32625 8.32392L1.32661 8.32393L1.32697 8.32393L1.32733 8.32394L1.32768 8.32394L1.32804 8.32395L1.3284 8.32395L1.32875 8.32396L1.32911 8.32396L1.32947 8.32397L1.32982 8.32397L1.33018 8.32398L1.33054 8.32398L1.33089 8.32399L1.33125 8.32399L1.33161 8.324L1.33196 8.324L1.33232 8.32401L1.33268 8.32401L1.33303 8.32402L1.33339 8.32402L1.33375 8.32403L1.3341 8.32403L1.33446 8.32404L1.33482 8.32404L1.33518 8.32405L1.33553 8.32405L1.33589 8.32406L1.33625 8.32406L1.3366 8.32407L1.33696 8.32407L1.33732 8.32408L1.33767 8.32408L1.33803 8.32409L1.33839 8.32409L1.33874 8.3241L1.3391 8.3241L1.33946 8.32411L1.33981 8.32411L1.34017 8.32412L1.34053 8.32412L1.34088 8.32413L1.34124 8.32413L1.3416 8.32414L1.34195 8.32414L1.34231 8.32415L1.34267 8.32415L1.34303 8.32416L1.34338 8.32416L1.34374 8.32417L1.3441 8.32417L1.34445 8.32418L1.34481 8.32418L1.34517 8.32419L1.34552 8.32419L1.34588 8.3242L1.34624 8.3242L1.34659 8.32421L1.34695 8.32421L1.34731 8.32422L1.34766 8.32422L1.34802 8.32423L1.34838 8.32423L1.34873 8.32424L1.34909 8.32424L1.34945 8.32425L1.34981 8.32425L1.35016 8.32426L1.35052 8.32426L1.35088 8.32427L1.35123 8.32427L1.35159 8.32428L1.35195 8.32428L1.3523 8.32429L1.35266 8.32429L1.35302 8.3243L1.35337 8.3243L1.35373 8.32431L1.35409 8.32431L1.35444 8.32432L1.3548 8.32432L1.35516 8.32433L1.35551 8.32433L1.35587 8.32434L1.35623 8.32434L1.35658 8.32435L1.35694 8.32435L1.3573 8.32436L1.35766 8.32436L1.35801 8.32437L1.35837 8.32437L1.35873 8.32438L1.35908 8.32438L1.35944 8.32439L1.3598 8.32439L1.36015 8.3244L1.36051 8.3244L1.36087 8.32441L1.36122 8.32441L1.36158 8.32442L1.36194 8.32442L1.36229 8.32443L1.36265 8.32443L1.36301 8.32444L1.36336 8.32444L1.36372 8.32445L1.36408 8.32445L1.36444 8.32446L1.36479 8.32446L1.36515 8.32447L1.36551 8.32447L1.36586 8.32448L1.36622 8.32448L1.36658 8.32449L1.36693 8.32449L1.36729 8.3245L1.36765 8.3245L1.368 8.32451L1.36836 8.32451L1.36872 8.32452L1.36907 8.32452L1.36943 8.32453L1.36979 8.32453L1.37014 8.32454L1.3705 8.32454L1.37086 8.32455L1.37121 8.32455L1.37157 8.32456L1.37193 8.32456L1.37229 8.32457L1.37264 8.32457L1.373 8.32458L1.37336 8.32458L1.37371 8.32459L1.37407 8.32459L1.37443 8.3246L1.37478 8.3246L1.37514 8.32461L1.3755 8.32461L1.37585 8.32462L1.37621 8.32462L1.37657 8.32463L1.37692 8.32463L1.37728 8.32464L1.37764 8.32464L1.37799 8.32465L1.37835 8.32465L1.37871 8.32466L1.37907 8.32466L1.37942 8.32467L1.37978 8.32467L1.38014 8.32468L1.38049 8.32468L1.38085 8.32469L1.38121 8.32469L1.38156 8.3247L1.38192 8.3247L1.38228 8.32471L1.38263 8.32471L1.38299 8.32472L1.38335 8.32472L1.3837 8.32473L1.38406 8.32473L1.38442 8.32474L1.38477 8.32474L1.38513 8.32475L1.38549 8.32475L1.38584 8.32476L1.3862 8.32476L1.38656 8.32477L1.38692 8.32477L1.38727 8.32478L1.38763 8.32478L1.38799 8.32479L1.38834 8.32479L1.3887 8.3248L1.38906 8.3248L1.38941 8.32481L1.38977 8.32481L1.39013 8.32482L1.39048 8.32482L1.39084 8.32483L1.3912 8.32483L1.39155 8.32484L1.39191 8.32484L1.39227 8.32485L1.39262 8.32485L1.39298 8.32486L1.39334 8.32486L1.3937 8.32487L1.39405 8.32487L1.39441 8.32488L1.39477 8.32488L1.39512 8.32489L1.39548 8.32489L1.39584 8.3249L1.39619 8.3249L1.39655 8.32491L1.39691 8.32491L1.39726 8.32492L1.39762 8.32492L1.39798 8.32493L1.39833 8.32493L1.39869 8.32494L1.39905 8.32494L1.3994 8.32495L1.39976 8.32495L1.40012 8.32496L1.40047 8.32496L1.40083 8.32497L1.40119 8.32497L1.40155 8.32498L1.4019 8.32498L1.40226 8.32499L1.40262 8.32499L1.40297 8.325L1.40333 8.325L1.40369 8.32501L1.40404 8.32501L1.4044 8.32502L1.40476 8.32502L1.40511 8.32503L1.40547 8.32503L1.40583 8.32504L1.40618 8.32504L1.40654 8.32505L1.4069 8.32505L1.40725 8.32506L1.40761 8.32506L1.40797 8.32507L1.40833 8.32507L1.40868 8.32508L1.40904 8.32508L1.4094 8.32509L1.40975 8.32509L1.41011 8.3251L1.41047 8.3251L1.41082 8.32511L1.41118 8.32511L1.41154 8.32512L1.41189 8.32512L1.41225 8.32513L1.41261 8.32513L1.41296 8.32514L1.41332 8.32514L1.41368 8.32515L1.41403 8.32515L1.41439 8.32516L1.41475 8.32516L1.4151 8.32517L1.41546 8.32517L1.41582 8.32518L1.41618 8.32518L1.41653 8.32519L1.41689 8.32519L1.41725 8.3252L1.4176 8.3252L1.41796 8.32521L1.41832 8.32521L1.41867 8.32522L1.41903 8.32522L1.41939 8.32523L1.41974 8.32523L1.4201 8.32524L1.42046 8.32524L1.42081 8.32525L1.42117 8.32525L1.42153 8.32526L1.42188 8.32526L1.42224 8.32527L1.4226 8.32527L1.42296 8.32528L1.42331 8.32528L1.42367 8.32529L1.42403 8.32529L1.42438 8.3253L1.42474 8.3253L1.4251 8.32531L1.42545 8.32531L1.42581 8.32532L1.42617 8.32532L1.42652 8.32533L1.42688 8.32533L1.42724 8.32534L1.42759 8.32534L1.42795 8.32535L1.42831 8.32535L1.42866 8.32536L1.42902 8.32536L1.42938 8.32537L1.42973 8.32537L1.43009 8.32538L1.43045 8.32538L1.43081 8.32539L1.43116 8.32539L1.43152 8.3254L1.43188 8.3254L1.43223 8.32541L1.43259 8.32541L1.43295 8.32542L1.4333 8.32542L1.43366 8.32543L1.43402 8.32543L1.43437 8.32544L1.43473 8.32544L1.43509 8.32545L1.43544 8.32545L1.4358 8.32546L1.43616 8.32546L1.43651 8.32547L1.43687 8.32547L1.43723 8.32548L1.43759 8.32548L1.43794 8.32549L1.4383 8.32549L1.43866 8.3255L1.43901 8.3255L1.43937 8.32551L1.43973 8.32551L1.44008 8.32552L1.44044 8.32552L1.4408 8.32553L1.44115 8.32553L1.44151 8.32554L1.44187 8.32554L1.44222 8.32555L1.44258 8.32555L1.44294 8.32556L1.44329 8.32556L1.44365 8.32557L1.44401 8.32557L1.44436 8.32558L1.44472 8.32558L1.44508 8.32559L1.44544 8.32559L1.44579 8.3256L1.44615 8.3256L1.44651 8.32561L1.44686 8.32561L1.44722 8.32562L1.44758 8.32562L1.44793 8.32563L1.44829 8.32563L1.44865 8.32564L1.449 8.32564L1.44912 8.32565C5.92852 8.37327 10.3917 8.57305 14.8371 9.01656L14.8375 9.0166C20.516 9.5994 26.114 10.5776 31.6139 12.0884C34.9723 13.005 38.2684 14.1348 41.4543 15.5841L41.3945 15.7155L41.4543 15.5841C43.9089 16.7012 46.3112 17.9439 48.4185 19.6757L48.4188 19.6759C49.5709 20.6276 50.5969 21.7107 51.184 23.1515L51.1846 23.1529C51.2043 23.2029 51.2239 23.2273 51.2377 23.2397C51.2503 23.251 51.2641 23.2576 51.2834 23.2615C51.3053 23.2659 51.3334 23.2666 51.3734 23.2637C51.3932 23.2623 51.4135 23.2602 51.4368 23.2579C51.4592 23.2556 51.4843 23.2531 51.5098 23.2513L51.5107 23.2513C52.2243 23.2064 52.9396 23.1593 53.656 23.112C55.5229 22.9888 57.3974 22.8652 59.2706 22.7813C62.1264 22.6442 64.9837 22.5169 67.8412 22.3897C72.1061 22.1997 76.3715 22.0097 80.6329 21.7868L80.6333 21.7868C87.8098 21.4307 94.9721 21.0136 102.135 20.5963L102.135 20.5963C103.655 20.5113 105.161 20.3502 106.672 20.1886L106.675 20.1883C106.799 20.1777 106.925 20.123 107.08 20.0543L107.09 20.0498C107.232 19.9865 107.4 19.9116 107.577 19.8964L107.579 19.8963C108.092 19.8582 108.667 19.8168 109.197 19.9691C109.197 19.9691 109.197 19.9692 109.197 19.9692L109.157 20.1079C109.554 20.2196 109.934 20.3979 110.316 20.5774C110.592 20.7068 110.87 20.8369 111.155 20.943L48.8219 21.6307ZM48.8219 21.6307C49.3027 22.1394 49.725 22.6795 50.0228 23.3474M48.8219 21.6307L50.1675 23.3176M132.76 22.2512C133.174 22.0895 133.39 21.8794 133.412 21.4228C133.451 20.7534 133.958 20.4407 134.595 20.6172M132.76 22.2512L132.708 22.1166M132.76 22.2512L132.708 22.1168C132.708 22.1168 132.708 22.1167 132.708 22.1166M132.76 22.2512C130.709 23.0447 128.573 23.3498 126.394 23.4106C126.316 23.4206 126.247 23.4064 126.174 23.3916C126.147 23.386 126.119 23.3804 126.09 23.3758M132.708 22.1166C132.905 22.0396 133.036 21.9579 133.122 21.8551C133.205 21.7553 133.258 21.6214 133.267 21.416L133.267 21.4143C133.29 21.0434 133.444 20.752 133.7 20.5824C133.954 20.4142 134.286 20.3816 134.634 20.4781M132.708 22.1166C130.677 22.9024 128.558 23.2058 126.39 23.2663L126.383 23.2665L126.376 23.2674C126.342 23.2718 126.308 23.2694 126.266 23.2623C126.255 23.2605 126.244 23.2585 126.233 23.2563M134.634 20.4781C134.634 20.478 134.633 20.478 134.633 20.4779L134.595 20.6172M134.634 20.4781L134.595 20.6172M134.634 20.4781C134.932 20.5595 135.161 20.739 135.266 20.9822C135.373 21.2279 135.344 21.5139 135.174 21.7819L135.171 21.7865C135.108 21.8777 135.034 21.9821 134.95 22.0759C134.868 22.1682 134.769 22.258 134.654 22.3142M134.595 20.6172C135.126 20.7617 135.348 21.2368 135.052 21.7047C134.928 21.8857 134.773 22.0967 134.589 22.1855M134.654 22.3142C134.654 22.3139 134.655 22.3136 134.656 22.3134L134.589 22.1855M134.654 22.3142C134.5 22.3954 134.432 22.4876 134.402 22.5857C134.368 22.6922 134.372 22.8239 134.399 22.9938M134.654 22.3142C134.653 22.3147 134.652 22.3151 134.651 22.3155L134.589 22.1855M134.589 22.1855C134.22 22.3783 134.201 22.6674 134.257 23.0184M32.5633 40.6107C29.5178 41.6948 26.4298 42.5499 23.2391 43.1295C21.5751 43.4259 19.8967 43.6612 18.2079 43.5614C16.2756 43.4429 14.4703 42.9607 12.981 41.6607M32.5633 40.6107L32.6114 40.7467M32.5633 40.6107L32.6117 40.7466C32.6116 40.7467 32.6115 40.7467 32.6114 40.7467M32.5633 40.6107C36.3739 39.2632 40.0366 37.6091 43.4176 35.4029C45.7383 33.8822 47.8946 32.146 49.5707 29.9006M32.6114 40.7467C29.5595 41.8331 26.464 42.6904 23.2649 43.2714L23.2644 43.2715C21.5983 43.5683 19.906 43.8063 18.1994 43.7054L18.199 43.7054C16.2491 43.5858 14.4086 43.0981 12.8867 41.7699M32.6114 40.7467C36.4294 39.3967 40.1032 37.738 43.4965 35.5237L43.4967 35.5236C45.8246 33.9982 47.9962 32.2512 49.6863 29.987L49.5707 29.9006M12.8867 41.7699C12.8869 41.7701 12.8871 41.7703 12.8872 41.7704L12.981 41.6607M12.8867 41.7699C12.8865 41.7698 12.8863 41.7696 12.8861 41.7694L12.981 41.6607M12.8867 41.7699C10.2545 39.5204 9.59036 34.7817 12.8529 31.7629L12.8533 31.7625C14.2438 30.4866 15.8566 29.6331 17.565 28.9379L17.5653 28.9378C20.3788 27.8001 23.3072 27.0319 26.2742 26.4026M12.981 41.6607C10.4079 39.4622 9.75729 34.8239 12.9509 31.8689C14.3238 30.609 15.9194 29.7634 17.6194 29.0716C20.4219 27.9384 23.3412 27.1723 26.3042 26.5438M26.2742 26.4026C26.2741 26.4027 26.2739 26.4027 26.2737 26.4027L26.3042 26.5438M26.2742 26.4026L26.3042 26.5438M26.2742 26.4026C31.9792 25.1714 37.767 24.4448 43.5637 23.9167L43.5642 23.9167C45.6626 23.7335 47.7455 23.5653 49.8429 23.3973M26.3042 26.5438C32.0014 25.3142 37.7829 24.5883 43.5768 24.0605C45.6808 23.8768 47.7693 23.7081 49.8731 23.5397M49.8429 23.3973C49.8368 23.3995 49.8306 23.4016 49.8244 23.4039L49.8731 23.5397M49.8429 23.3973C49.8492 23.3968 49.8554 23.3963 49.8616 23.3958L49.8731 23.5397M49.8429 23.3973C49.9071 23.3752 49.965 23.3602 50.0228 23.3474M49.8731 23.5397C49.948 23.5128 50.0113 23.4972 50.0807 23.4825C50.062 23.4369 50.0427 23.3918 50.0228 23.3474M50.0228 23.3474C50.0573 23.3397 50.0917 23.3328 50.1274 23.3257C50.1406 23.3231 50.1539 23.3204 50.1675 23.3176M50.1675 23.3176C49.8599 22.6159 49.4205 22.0539 48.9267 21.5316C47.5916 20.0967 45.9619 19.0383 44.2545 18.0855C41.021 16.2889 37.5982 14.9618 34.096 13.8619C29.1537 12.3002 24.0825 11.2393 18.961 10.5126C13.4595 9.73492 7.93675 9.38332 2.37952 9.32056L1.23766 9.30453C0.963619 9.30069 0.751969 9.19112 0.740803 8.90164C0.730279 8.56648 0.975156 8.47855 1.26464 8.46739L1.44734 8.46995C5.92361 8.51754 10.3825 8.71716 14.8228 9.16017C20.4946 9.74228 26.0846 10.7192 31.5759 12.2276L50.1675 23.3176ZM49.5707 29.9006C50.7967 28.258 51.6741 26.5039 51.3691 24.3678M49.5707 29.9006L49.6863 29.987C50.9124 28.3443 51.8125 26.5644 51.5182 24.3926M51.3691 24.3678L125.199 26.1195L125.055 26.1314C125.055 26.131 125.055 26.1306 125.055 26.1301C125.015 25.652 125.007 25.1754 125.013 24.716L125.013 24.7091L125.014 24.7091C125.024 24.5473 125.007 24.4852 124.984 24.4555C124.965 24.4315 124.913 24.3941 124.731 24.3842M51.3691 24.3678C51.3605 24.3589 51.3669 24.3454 51.3769 24.324C51.3845 24.308 51.3941 24.2876 51.401 24.2616M51.3691 24.3678L124.738 24.2401M51.5182 24.3926C51.5961 24.3833 51.6794 24.3741 51.7635 24.3648M51.5182 24.3926C51.5133 24.3932 51.5083 24.3938 51.5034 24.3943C51.5031 24.395 51.503 24.3952 51.503 24.3952L51.5032 24.3946L51.5033 24.3946C51.5033 24.3945 51.5033 24.3944 51.5033 24.3944C51.4745 24.3978 51.4464 24.4013 51.4194 24.4048L51.4138 24.3614L51.4096 24.3284L51.401 24.2616M51.5182 24.3926C51.5172 24.3848 51.5161 24.3771 51.515 24.3694C51.5229 24.3519 51.533 24.327 51.5405 24.2986L51.4901 24.2852L51.4725 24.2671C51.4776 24.2724 51.4823 24.2781 51.4865 24.2843L51.4617 24.2777L51.401 24.2616M51.7635 24.3648C54.3867 24.2306 57.0081 24.0947 59.6289 23.9588C64.7106 23.6953 69.7899 23.4319 74.8759 23.1819L74.8761 23.1819C77.7032 23.0389 80.531 22.9056 83.359 22.7723C87.6019 22.5723 91.8454 22.3723 96.0883 22.1395L96.0885 22.1394C98.6367 21.9971 101.188 21.7753 103.736 21.5538C104.893 21.4533 106.05 21.3527 107.205 21.2597L107.205 21.2597L107.23 21.2577C107.537 21.2329 107.891 21.2043 108.188 21.0609C108.505 20.9077 108.79 20.9477 109.076 21.1026L109.076 21.1028C110.925 22.0982 112.945 22.6017 114.95 23.0411L114.95 23.0412C118.174 23.7424 121.434 24.231 124.731 24.3842M51.7635 24.3648C51.7649 24.3646 51.7663 24.3645 51.7677 24.3643L51.7518 24.2209M51.7635 24.3648C51.762 24.3648 51.7606 24.3649 51.7592 24.365L51.7518 24.2209M124.731 24.3842C124.731 24.3842 124.731 24.3842 124.731 24.3842L124.738 24.2401M124.731 24.3842C124.73 24.3842 124.73 24.3842 124.73 24.3842L124.738 24.2401M124.738 24.2401C121.451 24.0873 118.199 23.6001 114.981 22.9001C112.977 22.4609 110.974 21.9607 109.145 20.9757C108.827 20.8037 108.493 20.7534 108.125 20.9309C107.853 21.0624 107.522 21.0892 107.206 21.1148L107.194 21.1158C106.036 21.209 104.878 21.3097 103.721 21.4103C101.173 21.6317 98.6264 21.8531 96.0804 21.9954C91.8377 22.2282 87.5955 22.4281 83.3533 22.6281C80.5252 22.7614 77.6971 22.8947 74.8688 23.0377C69.7826 23.2878 64.7028 23.5512 59.6209 23.8147C56.9988 23.9507 54.3762 24.0867 51.7518 24.2209M51.7518 24.2209L51.7517 24.2209C51.6297 24.2344 51.5078 24.2479 51.401 24.2616M134.399 22.9938L126.08 27.3349M134.399 22.9938C134.399 22.9944 134.4 22.995 134.4 22.9957L134.257 23.0184M134.399 22.9938C134.399 22.9933 134.399 22.9929 134.399 22.9923L134.257 23.0184M134.257 23.0184C134.366 23.6106 134.479 24.2029 134.592 24.7961C134.774 25.7473 134.956 26.7008 135.121 27.6597C135.345 29.0486 135.539 30.437 135.687 31.8401C135.727 32.2365 135.629 32.6768 135.502 33.0709C135.295 33.7076 134.758 33.9894 134.089 33.8886C133.391 33.7722 132.786 33.4287 132.29 32.9497C131.529 32.2182 130.795 31.4601 130.062 30.7019C129.695 30.3229 129.328 29.9438 128.957 29.5681C128.847 29.4541 128.74 29.3375 128.633 29.2214C128.38 28.9444 128.128 28.6701 127.831 28.4406C127.289 28.0219 126.701 27.6177 126.08 27.3349M126.08 27.3349L126.021 27.4665C126.021 27.4665 126.021 27.4664 126.021 27.4663C126.021 27.4663 126.02 27.4663 126.02 27.4662L126.08 27.3349ZM126.233 23.2563C126.234 23.2934 126.235 23.3349 126.234 23.3779L126.09 23.3758M126.233 23.2563C126.232 23.2313 126.232 23.2083 126.231 23.1882C126.23 23.1342 126.231 23.097 126.237 23.0666L126.237 23.0667L126.238 23.0556L126.238 23.0545C126.486 20.637 126.733 18.2201 126.995 15.8188L126.995 15.8183C127.065 15.1579 127.142 14.5013 127.22 13.8456L127.226 13.7936C127.302 13.1559 127.377 12.519 127.446 11.8818M126.233 23.2563C126.222 23.254 126.209 23.2515 126.196 23.2488C126.171 23.2437 126.143 23.238 126.112 23.2333L126.09 23.3758M126.09 23.3758C126.091 23.3269 126.089 23.2819 126.088 23.24C126.086 23.1646 126.084 23.0995 126.095 23.0409C126.342 20.6232 126.589 18.2054 126.851 15.8031C126.923 15.1248 127.003 14.4506 127.083 13.7784C127.158 13.1396 127.234 12.5026 127.302 11.8655M127.446 11.8818C127.446 11.8824 127.446 11.8829 127.445 11.8834L127.302 11.8655M127.446 11.8818C127.464 11.7319 127.457 11.568 127.383 11.4308C127.304 11.2834 127.16 11.1906 126.96 11.1688L126.96 11.1687L126.954 11.1682C126.766 11.1562 126.613 11.2115 126.505 11.3304C126.404 11.4411 126.358 11.59 126.339 11.7382M127.446 11.8818C127.446 11.8815 127.446 11.8812 127.446 11.8809L127.302 11.8655M127.302 11.8655C127.337 11.5919 127.264 11.3472 126.945 11.3123C126.64 11.2928 126.516 11.489 126.481 11.7627L126.34 11.7323L126.339 11.738C126.339 11.7381 126.339 11.7381 126.339 11.7382M126.339 11.7382C126.324 11.8086 126.306 11.8936 126.304 11.9815" fill="#73737D" stroke="#73737D" stroke-width="0.288634"/>
<path d="M15.4463 24.8194L15.4481 24.8009L15.4452 24.7826C15.4314 24.696 15.4192 24.5995 15.4064 24.497C15.3703 24.2106 15.3284 23.8777 15.2279 23.5847C14.731 22.0081 14.2233 20.4522 13.7141 18.892C13.6107 18.5751 13.5072 18.258 13.4037 17.9405L13.4036 17.9399C13.3666 17.8281 13.3295 17.7165 13.2925 17.605C12.8009 16.1245 12.3175 14.6686 12.1995 13.1149L12.1995 13.1149L12.1992 13.1119C12.1846 12.9607 12.1429 12.8122 12.0482 12.7012C11.9476 12.5834 11.8038 12.5269 11.6295 12.5341C11.457 12.5413 11.3127 12.6084 11.2154 12.7272C11.12 12.8438 11.0819 12.9952 11.0889 13.1512L11.0888 13.1512L11.089 13.1538C11.0927 13.2131 11.0961 13.2739 11.0996 13.3357C11.1185 13.6764 11.1392 14.0482 11.2289 14.3866L11.2289 14.3866L11.2294 14.3885C11.6794 15.9954 12.1598 17.6024 12.6555 19.194L12.6557 19.1945C12.8135 19.695 12.9913 20.1875 13.1696 20.6758C13.1864 20.7219 13.2032 20.7678 13.2199 20.8138C13.3816 21.2562 13.5421 21.6956 13.6886 22.1384C14.0114 23.1148 14.2629 24.1001 14.3009 25.1459C14.3011 25.2171 14.3302 25.283 14.3598 25.3328C14.3918 25.3866 14.4344 25.4382 14.4799 25.4828C14.5255 25.5274 14.5778 25.5686 14.6317 25.5998C14.6827 25.6292 14.7487 25.6576 14.8187 25.6586C14.8868 25.6596 14.9482 25.6362 14.9973 25.6096C15.0473 25.5824 15.0942 25.5466 15.136 25.51C15.2098 25.4457 15.2814 25.367 15.338 25.3048C15.3442 25.2981 15.3502 25.2915 15.356 25.2851C15.4292 25.2107 15.4353 25.1064 15.4379 25.0475C15.4391 25.0179 15.4395 24.9911 15.4398 24.9648C15.4404 24.9193 15.4409 24.8751 15.4463 24.8194Z" fill="#73737D" stroke="#73737D" stroke-width="0.288634"/>
</svg>
