<svg width="195" height="53" viewBox="0 0 195 53" fill="none" xmlns="http://www.w3.org/2000/svg">
<path fill-rule="evenodd" clip-rule="evenodd" d="M134.75 25.95C134.825 26.425 134.9 26.9 135 27.4C135.052 27.8134 135.103 28.2067 135.153 28.5869C135.297 29.6784 135.426 30.6617 135.5 31.7C135.5 32 135.5 32.5 135.3 33C135.1 33.7 134.4 34.1 133.6 34C132.8 33.9 132.2 33.6 131.6 33C131.262 32.6617 130.923 32.3 130.574 31.9263C130.2 31.5267 129.813 31.1134 129.4 30.7C129.137 30.5029 128.918 30.2627 128.685 30.0077C128.563 29.8745 128.437 29.7373 128.3 29.6L128 29.3C127.896 29.196 127.804 29.092 127.716 28.9921C127.549 28.804 127.396 28.6307 127.2 28.5C127.071 28.4078 126.949 28.3189 126.832 28.2341C126.316 27.8592 125.908 27.5631 125.5 27.4C124.9 27.1 124.5 26.6 124.5 25.9V24.5V24.3H124.4C121.3 24.2 118.1 23.8 114.6 23C114.436 22.9568 114.271 22.9137 114.104 22.8702C112.339 22.41 110.436 21.9137 108.7 21C108.4 20.9 108.2 20.9 107.9 21C107.6 21.1 107.2 21.2 106.9 21.2C106.3 21.25 105.725 21.3 105.15 21.35C104.575 21.4 104 21.45 103.4 21.5C102.506 21.5687 101.613 21.6493 100.724 21.7294C99.0248 21.8826 97.3409 22.0344 95.7 22.1L95.6978 22.1001C91.3986 22.3001 87.0993 22.5 83 22.7C81.6 22.75 80.175 22.825 78.75 22.9C77.325 22.975 75.9 23.05 74.5 23.1C69.6 23.3 64.8 23.5 59.9 23.8L51.3 24.3C51.5 26.7 50.4 28.5 49.4 29.9C47.9 31.9 46 33.7 43.2 35.5C40.1 37.5 36.5 39.2 32.3 40.7C29.1 41.8 26 42.6 22.9 43.2C21.5 43.5 20.1 43.7 18.6 43.7H17.8C15.5 43.5 13.8 42.9 12.4 41.7C11 40.5 10.1 38.6 10.1 36.7C10 34.7 10.8 32.9 12.3 31.5C13.6 30.3 15.1 29.4 17.1 28.6C19.5 27.7 22.3 26.8 25.8 26.1C30.8 25 36.3 24.2 43.1 23.6C44.15 23.5 45.2 23.425 46.25 23.35C47.3 23.275 48.35 23.2 49.4 23.1C49.2 22.6 48.8 22.1 48.3 21.6C46.9 20.1 45.2 19 43.7 18.2C40.8 16.6 37.6 15.3 33.6 14C28.9 12.5 24 11.4 18.4 10.6C13.3 9.9 7.8 9.5 1.9 9.4H0.8C0.3 9.4 0 9.1 0 8.7C0 8.5 0.1 8 0.8 8H1C5.9 8.1 10.3 8.3 14.3 8.7C20.3 9.3 25.8 10.3 31.1 11.8C34.8 12.8 38 13.9 41 15.3C43.2 16.3 45.8 17.6 48 19.4C49.4 20.5 50.3 21.6 50.8 22.9H50.9H51H53.2C54.9994 22.8 56.8988 22.7001 58.7982 22.6001L58.8 22.6C61.4071 22.4069 64.1073 22.307 66.7208 22.2103L67 22.2H67.4C71.5986 22.0001 75.8971 21.8001 80.1957 21.6002L80.2 21.6C81.9998 21.5 83.8058 21.4 85.6118 21.3C91.0308 21 96.4498 20.7 101.7 20.4L101.7 20.4C103.2 20.3 104.7 20.2 106.2 20C106.3 20 106.5 20 106.6 19.9C106.7 19.8 106.9 19.7 107.1 19.7C107.253 19.7 107.4 19.6935 107.544 19.6871C107.962 19.6685 108.353 19.6511 108.8 19.8C109.2 19.9 109.6 20.1 110 20.3L110 20.3C110.3 20.5 110.5 20.6 110.8 20.7C112.6 21.4 114.5 21.8 116.2 22.1C119.4 22.7 121.9 23 124.3 23.1H124.6V22.8C124.8 20.9013 125 19.1025 125.2 17.3038L125.2 17.3L125.3 16.2C125.4 15.45 125.475 14.725 125.55 14C125.625 13.275 125.7 12.55 125.8 11.8V11.5C125.9 11 126.2 10.8 126.6 10.8C126.9 10.8 127 10.9 127.1 11C127.2 11.1 127.2 11.3 127.2 11.6C127.15 11.9 127.125 12.175 127.1 12.45C127.075 12.725 127.05 13 127 13.3V13.5C127 14.1 126.9 14.8 126.8 15.5C126.5 17.9 126.2 20.3 126 22.7V22.8C128.5 22.8 130.5 22.4 132.3 21.7C132.7 21.5 132.8 21.4 132.8 21.1C132.9 20.7 133 20.4 133.3 20.2C133.6 20 134 20 134.4 20.1C134.7 20.2 135 20.4 135.1 20.7C135.2 21 135.2 21.3 135 21.6C134.933 21.6667 134.867 21.7444 134.8 21.8222C134.667 21.9778 134.533 22.1333 134.4 22.2C134.2 22.3 134.1 22.4 134.2 22.7L134.5 24.5C134.6 25 134.675 25.475 134.75 25.95ZM134.1 32.1V31.6L134 30.9C133.948 30.69 133.923 30.4525 133.896 30.2019C133.872 29.9751 133.848 29.7375 133.8 29.5C133.7 28.9 133.575 28.275 133.45 27.65C133.325 27.025 133.2 26.4 133.1 25.8L132.7 23.5C132.7 23.4586 132.683 23.4172 132.663 23.3686C132.634 23.3 132.6 23.2172 132.6 23.1C132.45 23.15 132.275 23.2 132.1 23.25C131.925 23.3 131.75 23.35 131.6 23.4C131.421 23.4512 131.235 23.5091 131.044 23.5684C130.49 23.7406 129.895 23.9256 129.3 24C128.767 24.1333 128.233 24.1778 127.7 24.2222C127.433 24.2444 127.167 24.2667 126.9 24.3C126.75 24.3 126.575 24.325 126.4 24.35C126.225 24.375 126.05 24.4 125.9 24.4H125.8V24.9C125.9 25.3 125.9 25.6 125.9 25.9C125.9 26 126 26.1 126 26.1C126.9 26.4 127.7 27 128.4 27.7C128.6 27.9 128.775 28.1 128.95 28.3C129.125 28.5 129.3 28.7 129.5 28.9L129.6 29.1C129.9 29.4 130.175 29.7 130.45 30C130.725 30.3 131 30.6 131.3 30.9C131.433 31.0139 131.562 31.1277 131.69 31.2402C132.235 31.7205 132.752 32.1759 133.4 32.5C133.8 32.6 133.9 32.6 133.9 32.6C133.981 32.6 133.996 32.5345 134.052 32.2977C134.065 32.2418 134.081 32.1764 134.1 32.1ZM44.6 32.6C46.7 30.9 48.1 29.4 49.1 27.6C49.7 26.6 50 25.5 50 24.4V24.3H49.9C49.3 24.35 48.675 24.4 48.05 24.45C47.425 24.5 46.8 24.55 46.2 24.6L46.1985 24.6001C44.099 24.8001 41.9995 25 40 25.2C34 25.8 29.1 26.6 24.6 27.7C22.2 28.2 19.4 29 16.7 30.2C15 30.9 13.9 31.7 13 32.7C11.9 33.9 11.4 35.5 11.6 37.1C11.8 38.7 12.7 40.1 14 40.9C15.2 41.7 16.7 42.1 18.9 42.1H19.2C19.6 42.1 20.1 42.1 20.6 42C21.9 41.8 23 41.6 24.1 41.4C28.3 40.5 32.6 39.1 36.8 37.2C39.8 35.8 42.4 34.3 44.6 32.6ZM12.4 19.8992C12.3 19.6242 12.2 19.3492 12.1 19.0992C11.7863 18.1582 11.5273 17.2992 11.2801 16.4793C11.0545 15.7309 10.8386 15.0151 10.6 14.2992C10.5 13.8992 10.5 13.5992 10.5 13.1992V12.9992C10.5 12.6992 10.6 12.4992 10.7 12.3992C10.8 12.2992 11 12.1992 11.2 12.1992C11.6 12.1992 11.9 12.3992 11.9 12.8992C12 14.4992 12.5 15.9992 13 17.3992L13.4 18.7992C13.65 19.5992 13.9 20.3742 14.15 21.1492C14.4 21.9242 14.65 22.6992 14.9 23.4992C15 23.7992 15.1 24.0992 15.1 24.3992V24.6992V24.7992C15.1 24.8992 15.1 25.0992 15 25.1992C14.9 25.3992 14.7 25.5992 14.4 25.5992C14.2 25.5992 14.1 25.4992 14 25.3992C13.9 25.3992 13.8 25.1992 13.8 24.9992C13.7 23.4992 13.2 22.0992 12.7 20.6992C12.6 20.4492 12.5 20.1742 12.4 19.8992Z" fill="#73737D"/>
</svg>
