<svg width="195" height="53" viewBox="0 0 195 53" fill="none" xmlns="http://www.w3.org/2000/svg">
<path fill-rule="evenodd" clip-rule="evenodd" d="M135.1 23.3H135.2L135.3 23.9V24.8C135.3 25 135.1 25.2 135 25.2C134.7 25.3 134.4 25.3 134.1 25.3C133.8 25.3 133.6 25.3 133.4 25.1C133.3 25 133.3 24.8 133.3 24.6V24.5H133C131.6 24.6 130.3 24.6 128.9 24.6C126.3 24.6 123.5 24.7 120.8 24.8C117.169 24.9397 113.44 25.1768 109.784 25.4094C108.205 25.5099 106.639 25.6095 105.1 25.7L103 25.8C101.2 25.9 99.5 26 97.8 26.2C97.3 26.25 96.825 26.3 96.35 26.35C95.875 26.4 95.4 26.45 94.9 26.5H94.7C94.7897 27.3972 94.477 28.2138 94.1951 28.95C94.1628 29.0344 94.1309 29.1177 94.1 29.2C94.0439 29.2562 94.0193 29.3438 93.9908 29.4454C93.9685 29.5246 93.9439 29.6123 93.9 29.7C93.7807 30.0581 93.6257 30.3806 93.4776 30.6887C93.3775 30.8969 93.2807 31.0984 93.2 31.3L93 31.7L93.8 31.1C94.2625 30.6889 94.725 30.2514 95.2011 29.801C95.6514 29.375 96.1139 28.9375 96.6 28.5C96.7 28.45 96.825 28.375 96.95 28.3C97.075 28.225 97.2 28.15 97.3 28.1C97.6 28 97.8 28 98 28.1C98.2 28.2 98.3 28.4 98.3 28.7C98.3 28.8652 98.2697 29 98.2425 29.1212C98.2202 29.2202 98.2 29.3101 98.2 29.4V29.6C98.2 29.65 98.175 29.725 98.15 29.8C98.125 29.875 98.1 29.95 98.1 30C98.1 30.0414 98.0829 30.1 98.0628 30.1686C98.0343 30.2657 98 30.3828 98 30.5C98 30.6 98 30.7 98.1 31C98.2 31.1 98.3 31.1 98.4 31.1H98.7C99.1 31.1 99.5 31.1 99.9 31C100.841 30.6863 101.727 30.4 102.573 30.1267C103.346 29.8772 104.084 29.6386 104.8 29.4C106.9 28.7 109.3 27.9 111.9 27.5C112.1 27.4 112.4 27.4 112.7 27.4C113.1 27.3 113.3 27.5 113.4 27.8C113.5 28.1 113.3 28.4 113 28.5C112.65 28.65 112.3 28.775 111.95 28.9C111.6 29.025 111.25 29.15 110.9 29.3L110.5 29.4C110.1 29.5 109.7 29.6 109.3 29.8C114.6 29 119.1 28.7 123.2 28.9C123.882 28.9 124.611 28.9931 125.323 29.084C125.654 29.1263 125.982 29.1682 126.3 29.2H126.4C126.6 29.2 126.775 29.225 126.95 29.25C127.125 29.275 127.3 29.3 127.5 29.3C127.7 29.4 127.9 29.5 128.2 29.6C128.6 29.8 128.8 30.1 128.9 30.4C129 30.8 128.9 31.1 128.6 31.4C128.2 31.8 127.7 32.2 127.1 32.6C125.1 33.8 122.9 34.7 120.3 35.6C116.8 36.8 113 37.7 108.3 38.6C103 39.6 97.2 40.4 90.7 40.9C89.35 41 87.95 41.1 86.55 41.2C85.15 41.3 83.75 41.4 82.4 41.5C82.1 41.5 82.1 41.6 82.1 41.8V43V45.4C82.1 46 82.4 46.6 82.9 47.2C83 47.4 83.1 47.7 83.1 47.9C83.1 48.1639 83.0722 48.4279 83.0459 48.6771C83.0223 48.9 83 49.1111 83 49.3C82.9 49.7 82.7 49.9 82.4 49.9C82.1 49.9 81.9 49.7 81.9 49.3V48.9V48.2C81.9 48.1 81.8 47.9 81.8 47.9C81.1 47.2 80.8 46.2 80.8 44.9C80.8 44.55 80.825 44.2 80.85 43.85C80.875 43.5 80.9 43.15 80.9 42.8V42V41.9C81 41.8 81 41.7 81 41.6H80.8H80.2C72.5 41.9 65.6 42 59 41.8C51.7 41.6 45.8 41.2 40.5 40.5C40.4297 40.4908 40.3593 40.4817 40.2888 40.4725C38.0534 40.1813 35.7297 39.8786 33.5 39.2C33 39 32.5 38.8 32.1 38.6C31.7 38.4 31.4 38.1 31.4 37.7C31.3 37.4 31.5 37.1 31.9 36.8C32.5 36.3 33.3 35.9 34.1 35.6C36.6 34.6 39.1 33.9 42.1 33.2C42.2172 33.2 42.3 33.1657 42.3687 33.1373C42.4172 33.1172 42.4586 33.1 42.5 33.1C42.5415 33.1 42.6 33.0828 42.6687 33.0627C42.7657 33.0343 42.8829 33 43 33C42.7 32.6 42.9 32.3 43.1 32L43.6 31.2C43.9552 30.5607 44.3608 29.9719 44.781 29.3619C44.9524 29.1131 45.1262 28.8607 45.3 28.6C45.3 28.4 45.4 28.3 45.5 28.2C45.45 28.15 45.4 28.125 45.35 28.1C45.3 28.075 45.25 28.05 45.2 28C45.1236 27.9388 45.0471 27.88 44.9713 27.8217C44.5518 27.4989 44.1542 27.1929 43.9 26.6L43.5 27C43.2 27.35 42.9 27.675 42.6 28C42.3 28.325 42 28.65 41.7 29L39.8 31C39.75 31.05 39.675 31.1 39.6 31.15C39.525 31.2 39.45 31.25 39.4 31.3L39.3 31.4C39 31.6 38.7 31.7 38.5 31.6C38.3 31.6 38.1 31.4 38 31H37.9C37.8 31.05 37.7 31.075 37.6 31.1C37.5 31.125 37.4 31.15 37.3 31.2C37.1 31.25 36.875 31.325 36.65 31.4C36.425 31.475 36.2 31.55 36 31.6C35.8 31.65 35.575 31.725 35.35 31.8C35.125 31.875 34.9 31.95 34.7 32C34.4 32.1 34.1 32.2 33.7 32.2C33.3 32.2 33.1 32.2 32.9 32C32.8 31.9 32.7 31.7 32.7 31.4L32.6 31.5C32.45 31.6 32.275 31.675 32.1 31.75C31.925 31.825 31.75 31.9 31.6 32C31.53 32.0311 31.4594 32.0625 31.3882 32.0942C29.6288 32.877 27.5106 33.8194 25.3 34.3C24.7 34.5 24 34.5 23.4 34.5C22.8 34.6 22.4 34.3 22.3 33.8C22.1 33.4 22.3 32.9 22.8 32.6C23.4 32.1 24.1 31.6 24.8 31.3C26.9 30.3 28.9 29.8 31 29.8H31.3C31.9 29.8 32.1 29.9 32.2 30.5C32.5 30.4 32.9 30.2 33.2 30L33.3 30.1C33.45 30.05 33.6 29.975 33.75 29.9C33.9 29.825 34.05 29.75 34.2 29.7C34.4 29.6 34.8 29.6 34.9 29.8C35 30 35 30.3 34.9 30.5C34.8 30.7 34.7 30.9 34.5 31.1H34.6L35.4 30.8C35.6983 30.7148 35.9966 30.6114 36.3027 30.5053C36.7148 30.3625 37.1409 30.2148 37.6 30.1C38.2 29.9 38.6 30 39 30.4L39.3 30.1C41.2 28.3 43.1 26.1 45.1 23.5C48.1 19.5 51.1 15.5 53.3 12.5C54.061 11.4673 54.7628 10.4346 55.4538 9.4179C56.0341 8.56411 56.6066 7.72163 57.2 6.9L57.7 6.1L58.3 5.2C58.35 5.1 58.425 4.975 58.5 4.85C58.575 4.725 58.65 4.6 58.7 4.5C58.9 4.2 59.1 4 59.3 4C59.5 4 59.6 4 59.9 4.2C60.3 4.5 60.1 4.9 59.9 5.3C59.55 5.95 59.2 6.625 58.85 7.3C58.5 7.975 58.15 8.65 57.8 9.3C57.25 10.3 56.7 11.325 56.15 12.35C55.6 13.375 55.05 14.4 54.5 15.4C53.9 16.7 53.2 17.9 52.5 19.1C52.35 19.35 52.2 19.625 52.05 19.9C51.9 20.175 51.75 20.45 51.6 20.7C51.5 20.7 51.5 20.8 51.5 20.8V20.9C52 21.4 52.1 21.7 51.6 22.4C51.3 22.85 50.975 23.3 50.65 23.75C50.325 24.2 50 24.65 49.7 25.1L48.9 26.1C48.7 26.35 48.525 26.6 48.35 26.85C48.175 27.1 48 27.35 47.8 27.6L47.5 28.1L50.2 29.4C50.65 29.65 51.1 29.875 51.55 30.1C52 30.325 52.45 30.55 52.9 30.8C53.1756 30.2488 53.5356 30.0352 53.98 29.7715C54.0194 29.7481 54.0594 29.7244 54.1 29.7C54.15 29.7 54.175 29.675 54.2 29.65C54.225 29.625 54.25 29.6 54.3 29.6C56.5 28.3 58.9 27.3 61.9 26.3C63.5 25.7 65.3 25.2 67.1 25C67.7 24.9 68.4 24.9 69.1 25C70 25.2 70.5 25.8 70.5 26.8C70.5 27.1 70.5 27.4 70.4 27.7C70.4 27.75 70.375 27.825 70.35 27.9C70.325 27.975 70.3 28.05 70.3 28.1C70.2 28.1 70.2 28.2 70.2 28.3C70.4 28.25 70.6 28.225 70.8 28.2C71 28.175 71.2 28.15 71.4 28.1H71.5H71.7C72.7 28.2 73.3 27.7 74 26.9C75 25.75 76.05 24.575 77.1 23.4C78.15 22.225 79.2 21.05 80.2 19.9C82.1 17.8 84.3 15.3 86.4 12.9C87.2262 12.005 88.005 11.0625 88.769 10.1379C89.1147 9.71961 89.4574 9.30495 89.8 8.9L90.1 8.5C90.25 8.3 90.425 8.1 90.6 7.9C90.775 7.7 90.95 7.5 91.1 7.3L91.2 7.2C91.3 7 91.4 6.9 91.6 6.8C91.6 6.8 92.1 6.5 92.3 6.7C92.5 6.8 92.6 7.1 92.6 7.4C92.6 7.6 92.5 7.8 92.4 8C92.4 8 92.3 8.1 92.3 8.2C92.05 8.8 91.825 9.4 91.6 10C91.375 10.6 91.15 11.2 90.9 11.8V11.9C90 14.1 89.1 16.4 88.3 18.6C87.8541 19.6829 87.4894 20.8064 87.1282 21.9188C86.9224 22.5527 86.7178 23.1829 86.5 23.8C86.35 24.2 86.225 24.575 86.1 24.95C85.975 25.325 85.85 25.7 85.7 26.1C85.6425 26.1575 85.6181 26.1819 85.6077 26.2113C85.6 26.2331 85.6 26.2575 85.6 26.3C101.3 24.7 118 23.2 135.1 23.3ZM54.1 13.6L46.9 23.2C47.3 22.9 47.725 22.6 48.15 22.3C48.575 22 49 21.7 49.4 21.4C49.7 21.2 49.9 21 50 20.8C51.071 18.9876 52.0741 17.1752 52.9534 15.5864C53.1415 15.2466 53.3239 14.9171 53.5 14.6C53.6 14.45 53.7 14.275 53.8 14.1C53.9 13.925 54 13.75 54.1 13.6ZM46.8 29C46.7 28.9 46.7 28.9 46.6 28.9C46.6 28.9 46.5 28.9 46.5 29C46.1386 29.6023 45.7409 30.2047 45.3288 30.8289C45.0568 31.2409 44.7784 31.6626 44.5 32.1C44.45 32.2 44.375 32.3 44.3 32.4C44.225 32.5 44.15 32.6 44.1 32.7C44 32.7 44 32.8 44 32.8C44.5833 32.6834 45.1665 32.5582 45.7547 32.432C47.1835 32.1254 48.6416 31.8125 50.2 31.6L51.4 31.3L51.3 31.2C51.2 31.1 51.1 31 51 31L49.7 30.5C48.8 30 47.8 29.5 46.8 29ZM48.5 23.3C48.4 23.4 48.2 23.6 48 23.7C47.5 24.1 47 24.5 46.4 24.8C46.3142 24.8686 46.2314 24.9343 46.151 24.9981C45.7628 25.3059 45.4314 25.5686 45.1 25.9C45.0618 25.9764 45.0236 26.0382 44.991 26.091C44.9382 26.1764 44.9 26.2382 44.9 26.3C44.9 26.4 45 26.5 45.2 26.7C45.4 26.9 45.7 27.1 46 27.3L46 27.3H46.1L46.8 26.1C47.1 25.65 47.375 25.175 47.65 24.7C47.925 24.225 48.2 23.75 48.5 23.3ZM70.9 29.2C71 29.3 71.1 29.5 71.2 29.7C71.2517 29.6483 71.3034 29.6033 71.3533 29.5598C71.4967 29.435 71.6259 29.3225 71.7 29.1C71.55 29.1 71.425 29.125 71.3 29.15C71.175 29.175 71.05 29.2 70.9 29.2ZM69.291 29.882C69.3236 29.8618 69.3618 29.8382 69.4 29.8C69.6 29.6 69.8 29.5 70 29.4C69.9123 29.4438 69.8246 29.4685 69.7454 29.4907C69.6439 29.5192 69.5562 29.5438 69.5 29.6C69.4164 29.6836 69.3328 29.7672 69.2492 29.9094C69.2615 29.9002 69.2756 29.8915 69.291 29.882ZM69 27.55C69.075 27.3 69.15 27.05 69.2 26.8C69.2 26.6 69.2 26.3 69.1 26C69 25.8 68.8 25.7 68.5 25.7H67.8C67.7 25.7 67.6 25.725 67.5 25.75C67.4 25.775 67.3 25.8 67.2 25.8H67.1C66.6667 25.9 66.2334 25.9889 65.8001 26.0778C64.9334 26.2556 64.0667 26.4333 63.2 26.7C60.1 27.6 57.5 28.7 55.1 30C54.95 30.1 54.825 30.175 54.7 30.25C54.575 30.325 54.45 30.4 54.3 30.5C54.25 30.55 54.2 30.575 54.15 30.6C54.1 30.625 54.05 30.65 54 30.7H54.1C54.3345 30.6531 54.5469 30.6282 54.7477 30.6047C54.9751 30.578 55.1876 30.5531 55.4 30.5C56.5 30.3 57.6 30.1 58.8 29.9L64.8 29H65.3C65.85 28.9 66.375 28.825 66.9 28.75C67.425 28.675 67.95 28.6 68.5 28.5C68.6 28.4 68.8 28.3 68.8 28.3C68.85 28.05 68.925 27.8 69 27.55ZM60.6 37.7L60.3 37.4C59.9 36.9 59.6 36.6 59.4 36.4C57.5 34.8 55.4 33.5 53.4 32.4C53.3 32.3 53.1 32.3 53 32.3C48.6 33.1 43.5 34.1 38.7 35.5C37.644 35.7816 36.6376 36.1623 35.6459 36.5375C35.2289 36.6952 34.8144 36.852 34.4 37L33.6 37.3C33.3 37.4 33 37.6 32.7 37.8C32.65 37.8 32.625 37.825 32.6 37.85C32.575 37.875 32.55 37.9 32.5 37.9C32.55 37.9 32.575 37.925 32.6 37.95C32.625 37.975 32.65 38 32.7 38L32.8 37.9C33.2 38.1 33.6 38.2 34 38.3C37 39 40 39.4 43.6 39.8C49.1 40.3 54.5 40.6 59.7 40.7C62.9819 40.767 66.2637 40.7442 69.4854 40.7219C71.074 40.7109 72.6479 40.7 74.2 40.7C75.7 40.7 77.2 40.7 78.6 40.6H78.9C79.5 40.5 80.2 40.5 80.8 40.5C81 40.5 81.1 40.5 81.1 40.3C81.1 39.9 81.1 39.6 81.2 39.3C81.8 35.9 82.6 32.5 83.7 28.9L83.8 28.5L84.1 27.6H84C83 27.8 82 27.9 81 28L80.5 28.4C79.4 28.55 78.3 28.675 77.2 28.8C76.1 28.925 75 29.05 73.9 29.2C73.7 29.2 73.5 29.3 73.3 29.5C73.1 29.7 72.925 29.9 72.75 30.1C72.575 30.3 72.4 30.5 72.2 30.7L72 30.9C71.8 31.15 71.575 31.4 71.35 31.65C71.125 31.9 70.9 32.15 70.7 32.4C70.6 32.5 70.4 32.7 70.2 32.8C70 32.8 69.7 32.8 69.6 32.7C69.5 32.6 69.4 32.4 69.4 32.2C69.4 32 69.4 31.9 69.5 31.8V31.7C69.5382 31.6236 69.5618 31.5618 69.582 31.509C69.6146 31.4236 69.6382 31.3618 69.7 31.3C68.3 32.8 66.8 34.4 65.3 35.9C65.15 36.05 65.025 36.2 64.9 36.35C64.775 36.5 64.65 36.65 64.5 36.8C64.4 36.9 64.325 37 64.25 37.1C64.175 37.2 64.1 37.3 64 37.4C63.9 37.5 63.5 37.9 63.1 37.5C62.8 37.2 62.8 36.9 63.1 36.6L63.3 36.4C63.3 36.3 63.4 36.2 63.5 36.1C65.5 34 66.9 32.1 68.1 30.1C68.1 30.05 68.125 30.025 68.15 30C68.175 29.975 68.2 29.95 68.2 29.9C68.3 29.9 68.3 29.8 68.3 29.8L65.7 30.2C62.1 30.7 58.5 31.3 54.9 31.9C54.95 31.9 54.975 31.925 55 31.95C55.025 31.975 55.05 32 55.1 32C55.15 32 55.175 32.025 55.2 32.05C55.225 32.075 55.25 32.1 55.3 32.1C57.2 33.3 58.9 34.4 60.5 35.8L60.5001 35.8C60.8001 36.1 61.1 36.4 61.4 36.8C61.45 36.85 61.475 36.9 61.5 36.95C61.525 37 61.55 37.05 61.6 37.1C61.7 37.2 61.8 37.3 61.7 37.5C61.6781 37.5438 61.661 37.5829 61.6455 37.6182C61.5904 37.7438 61.5562 37.8219 61.4 37.9C61.1 38.1 60.8 38 60.6 37.7ZM84.2 26.4C84.4 26.4 84.5 26.4 84.5 26.2C84.8 25.4 85.1 24.5 85.3 23.6C86.8 19.1 88.5 14.4 90.4 9.9C85.2 15.8 80 21.7 74.7 27.6L77.8 27.2C78.0653 27.1638 78.3292 27.1276 78.5918 27.0916C80.5065 26.8291 82.3533 26.5759 84.2 26.4ZM91.7 31.7L92.6 29.6V29.2C92.6929 28.9833 92.7858 28.7762 92.8757 28.5757C93.0762 28.1285 93.2619 27.7143 93.4 27.3C93.5 27.2 93.5 27 93.5 26.9V26.8L92.9 27.1C92.5 27.3 92.1 27.5 91.7 27.8C89.9 29 88.3 30.4 86.9 31.9C86.7 32.1 86.6 32.2 86.4 32.2C86.3 32.2 86.1 32.1 86 32C85.9 31.9 85.8 31.7 85.8 31.6C85.8 31.4 86 31.2 86.1 31.1C87.8 29.3 89.7 27.7 91.7 26.5C91.35 26.55 91 26.575 90.65 26.6C90.3 26.625 89.95 26.65 89.6 26.7C88.9 26.75 88.225 26.825 87.55 26.9C86.875 26.975 86.2 27.05 85.5 27.1C85.2 27.1 85.1 27.2 85 27.5C84.1 30.7 83.1 34.4 82.4 38.2C82.3 38.9 82.2 39.6 82.1 40.2H82.2H82.5C83.6 40.2 84.7 40.1 85.7999 40L85.8 40H86L86.2699 39.985C87.9892 39.8898 89.7897 39.79 91.5 39.6C99.9 38.9 106.8 37.9 113.1 36.4C117 35.5 120.4 34.4 123.4 33.2C124.7 32.7 126.1 32 127.3 31.1C127.5 31 127.6 30.9 127.7 30.7L127.8 30.6H127.7C127.5 30.5 127.3 30.4 127.1 30.4C126.886 30.4 126.7 30.3713 126.528 30.3446C126.378 30.3215 126.239 30.3 126.1 30.3C125.813 30.2713 125.509 30.2343 125.196 30.1962C124.419 30.1016 123.584 30 122.8 30C119.1 29.9 115.5 30.2 112.7 30.5C109.3 30.9 106.5 31.4 104 32L101.7 32.6C101.3 32.7 101 32.6 100.9 32.3C100.8 32.1 100.8 31.9 101 31.7C100.9 31.8 100.8 31.8 100.7 31.8H100.5C100.283 31.8311 100.055 31.8718 99.8246 31.9132C99.3126 32.005 98.7825 32.1 98.3 32.1C97.7 32.1 97.3 31.9 97 31.6C96.7 31.3 96.6 30.8 96.7 30.2C96.8 30.1 96.8 30 96.8 29.9C96.9 29.8 96.9 29.7 96.9 29.6L96.2 30.3C95.8893 30.5589 95.5518 30.8715 95.2014 31.196C94.8751 31.4982 94.5375 31.8107 94.2 32.1L94.1996 32.1004C93.6997 32.5002 93.1999 32.9001 92.8 33.2L92.5 33.4C92.2 33.6 91.8 33.7 91.6 33.4C91.5 33.2 91.4 32.8 91.4 32.6C91.4 32.3 91.5 32.1 91.6 31.9C91.6575 31.8425 91.682 31.8181 91.6924 31.7887C91.7 31.7669 91.7 31.7425 91.7 31.7ZM23.5 33.4C24.8 33.7 29.5 31.9 31.1 31C30.6 30.9 29.8 31 28.7 31.2C26.7 31.6 24.2 32.6 23.5 33.4ZM17.8247 41.4749C17.9183 41.7636 18.0327 42.1159 18.4 42.2996C18.6 42.3996 18.7 42.5996 18.7 42.7996C18.7 42.9996 18.7 43.0996 18.6 43.2996C18.5 43.3996 18.3 43.4996 18.2 43.4996C18 43.4996 17.8 43.3996 17.7 43.2996C17 42.8996 16.7 42.2996 16.6 41.3996C16.5 40.0996 16.7 38.6996 16.9 37.3996C17.5 33.3996 18.7 29.2996 20.5 24.6996C21.8 21.4996 23.4 18.0996 25.3 14.2996C25.25 14.3496 25.2 14.4246 25.15 14.4996C25.1 14.5746 25.05 14.6496 25 14.6996C24.25 15.7996 23.475 16.9246 22.7 18.0495C21.925 19.1746 21.15 20.2996 20.4 21.3996L19.8 22.1996C18.95 23.4496 18.075 24.7246 17.2 25.9996C16.325 27.2746 15.45 28.5496 14.6 29.7996C14.4 30.0496 14.2 30.3246 14 30.5996C13.8 30.8746 13.6 31.1496 13.4 31.3996C13.3 31.4996 13.225 31.5996 13.15 31.6996C13.075 31.7996 13 31.8996 12.9 31.9996L12.7 32.1996C12.6 32.2996 12.3 32.5996 11.9 32.3996C11.6 32.1996 11.5 31.8996 11.7 31.5996C12 30.9996 12.3 30.3996 12.7 29.7996L13 29.1996C13.7 28.0996 14.4 26.9996 15 25.8996C9.6 31.3996 5.2 36.0996 1.5 40.7996C1.4 40.9996 1.3 41.0996 1.1 41.2996C0.7 41.5996 0.4 41.4996 0.3 41.3996C0.1 41.2996 0 40.9996 0.1 40.6996L0.100014 40.6996C0.40001 39.9996 0.700006 39.2996 1.1 38.5996C3.31152 33.8227 5.75779 29.2024 8.23116 24.5308C8.5538 23.9214 8.8769 23.3112 9.2 22.6996C9.4 22.1996 9.6 21.7996 9.8 21.3996V21.2996C9.85 21.1996 9.875 21.1246 9.9 21.0496C9.925 20.9746 9.95 20.8996 10 20.7996C9.95 20.7996 9.9 20.8246 9.85 20.8496C9.8 20.8746 9.75 20.8996 9.7 20.8996C7.2 21.9996 5 23.4996 2.9 25.3996C2.57054 25.6632 2.28451 25.9702 1.98467 26.2919C1.82945 26.4585 1.67054 26.6291 1.5 26.7996C1.45 26.8996 1.375 26.9746 1.3 27.0496C1.225 27.1246 1.15 27.1996 1.1 27.2996C0.7 27.5996 0.4 27.4996 0.3 27.3996C0.1 27.2996 0 27.1996 0 26.9996C0 26.8996 0 26.6996 0.2 26.6996L0.3 26.4996C0.7 25.9996 1.1 25.4996 1.6 25.0996C3.6 23.1996 5.9 21.5996 8.7 20.1996C9.1 19.9996 9.5 19.7996 10 19.6996C10.4 19.5996 10.7 19.6996 10.9 19.8996C11.1 20.0996 11.2 20.3996 11.2 20.6996C11.1 21.1996 11 21.5996 10.8 21.9996C10.55 22.4496 10.325 22.8746 10.1 23.2996C9.875 23.7246 9.65 24.1496 9.4 24.5996V24.6996C9.24308 25.0135 9.07077 25.3273 8.89514 25.6472C8.62309 26.1427 8.34308 26.6527 8.1 27.1996C7.2 28.7996 6.4 30.3996 5.6 31.9996L5.4 32.3996C5 33.1996 4.575 34.0246 4.15 34.8496C3.725 35.6746 3.3 36.4996 2.9 37.2996C6.8 32.6996 11 28.1996 15.4 23.9996C15.5834 23.862 15.7459 23.7244 15.8969 23.5965C16.0752 23.4455 16.2376 23.3079 16.4 23.1996C16.6 22.9996 17 22.6996 17.3 22.9996C17.4403 23.0698 17.4822 23.1891 17.5292 23.3232C17.5492 23.3802 17.5702 23.4399 17.6 23.4996C17.8 23.3996 17.9 23.1996 18 22.9996C18.1 22.8996 18.175 22.7746 18.25 22.6496C18.325 22.5246 18.4 22.3996 18.5 22.2996C19.05 21.5496 19.575 20.7746 20.1 19.9996C20.625 19.2246 21.15 18.4496 21.7 17.6996L21.8 17.4996C23.0041 15.658 24.2584 13.8666 25.5273 12.0543C26.0499 11.3079 26.5749 10.558 27.1 9.79961C27.2381 9.52344 27.4238 9.29494 27.6243 9.04829C27.7143 8.93769 27.8071 8.82344 27.9 8.69961C28 8.59961 28.2 8.39961 28.3 8.19961L28.7 7.79961C28.7536 7.77281 28.8 7.74602 28.8431 7.72115C28.9608 7.6532 29.0536 7.59961 29.2 7.59961C29.3 7.59961 29.4 7.69961 29.5 7.79961C29.6 7.99961 29.7 8.29961 29.6 8.49961C29.55 8.64961 29.475 8.79961 29.4 8.94961C29.325 9.09961 29.25 9.24961 29.2 9.39961C29.15 9.44961 29.125 9.49961 29.1 9.54961C29.075 9.59961 29.05 9.64961 29 9.69961C28.8 10.0996 28.6 10.4746 28.4 10.8496C28.2 11.2246 28 11.5996 27.8 11.9996L27.6 12.1996L24.3 18.7996C21.7 24.2996 19.8 29.2996 18.7 34.1996C18.2 36.0996 17.7 38.1996 17.7 40.3996C17.7 40.6996 17.7 40.9996 17.8 41.3996C17.8082 41.4241 17.8163 41.4493 17.8247 41.4749Z" fill="#73737D"/>
</svg>
