<svg width="195" height="53" viewBox="0 0 195 53" fill="none" xmlns="http://www.w3.org/2000/svg">
<path d="M80.9567 41.3655C80.5937 41.3655 80.2761 41.3504 79.9736 41.3655C72.8954 41.668 65.8171 41.789 58.7389 41.6075C52.553 41.4412 46.3672 41.1084 40.2266 40.3371C37.8824 40.0497 35.5532 39.7018 33.2845 39.0515C32.8157 38.9154 32.3468 38.7339 31.9234 38.4919C31.1823 38.0533 31.1066 37.3424 31.8024 36.8433C32.4678 36.3745 33.2241 35.9661 33.9803 35.6485C36.5514 34.5747 39.2284 33.8638 41.9206 33.2135C42.2684 33.1227 42.6314 33.032 43.0247 32.9261C42.6768 32.548 42.828 32.2153 43.0549 31.8977C43.8111 30.7785 44.5825 29.6441 45.3387 28.5098C45.4294 28.3585 45.5202 28.2224 45.6412 28.0409C44.9606 27.557 44.1287 27.2242 43.8868 26.2411C43.6901 26.468 43.5389 26.6495 43.3725 26.8159C42.1323 28.1317 40.9072 29.4324 39.667 30.7482C39.5158 30.8994 39.3343 31.0204 39.1679 31.1414C38.563 31.5498 38.2454 31.4439 38.0185 30.6877C37.7311 30.7482 37.4438 30.7936 37.1715 30.8843C36.2943 31.1566 35.4171 31.4591 34.5399 31.7313C34.2223 31.8372 33.8895 31.9128 33.5417 31.9582C32.8913 32.0489 32.6644 31.8069 32.7249 31.0961C32.2561 31.3229 31.8326 31.5347 31.394 31.7313C29.3522 32.6993 27.3104 33.5916 25.1174 34.0604C24.4973 34.1966 23.8469 34.2117 23.2117 34.2268C22.7731 34.2419 22.3647 34.0756 22.2286 33.6067C22.0774 33.153 22.3345 32.7597 22.6823 32.5178C23.3327 32.064 23.983 31.6103 24.709 31.2776C26.7206 30.3247 28.8531 29.7802 31.1066 29.8256C31.757 29.8407 31.8477 29.9012 31.9385 30.5818C32.3468 30.3701 32.7552 30.1584 33.1484 29.9617C33.4812 29.7954 33.829 29.6139 34.1769 29.4929C34.3281 29.4475 34.6155 29.4929 34.7062 29.5987C34.797 29.7197 34.8121 30.0071 34.7365 30.1432C34.5701 30.4306 34.3281 30.6726 34.0256 31.0204C34.2525 30.9599 34.3886 30.9297 34.5247 30.8843C35.5381 30.5667 36.5363 30.234 37.5648 29.9466C38.2 29.7651 38.4571 29.8559 38.8957 30.3247C39.0469 30.2037 39.1982 30.0979 39.3343 29.9617C41.4668 27.9351 43.3725 25.6967 45.1572 23.3675C47.9552 19.7528 50.6927 16.0775 53.4 12.4023C54.8973 10.3454 56.3341 8.21285 57.7861 6.08031C58.1339 5.56608 58.4062 4.99136 58.7389 4.44688C59.0111 3.99314 59.2834 3.85703 59.5405 4.02339C59.7976 4.18976 59.7825 4.44688 59.5405 4.90061C57.7407 8.28847 55.956 11.6763 54.1562 15.0491C53.2034 16.8186 52.2052 18.5731 51.2221 20.3426C51.1616 20.4334 51.1162 20.5392 51.0557 20.63C51.5851 21.1291 51.6456 21.3711 51.207 21.9912C50.3297 23.2314 49.4072 24.4413 48.4997 25.6664C47.9855 26.347 47.4712 27.0427 46.9419 27.7536C48.8627 28.7215 50.7381 29.6592 52.6287 30.6121C52.8404 29.9012 53.4907 29.6441 54.0503 29.3114C56.4249 27.9048 58.9809 26.8915 61.5974 26.0596C63.2914 25.5152 65.0004 25.0009 66.77 24.8043C67.4203 24.7287 68.1009 24.7438 68.7513 24.8497C69.6285 24.9858 70.0822 25.5908 70.0368 26.4982C70.0217 26.9369 69.8856 27.3603 69.81 27.7989C69.7797 27.9199 69.7495 28.0409 69.689 28.2224C70.2032 28.1619 70.6721 28.1014 71.1409 28.0409C71.2468 28.0258 71.3375 27.9956 71.4434 27.9956C72.5021 28.0409 73.1978 27.5116 73.8936 26.7251C78.0225 22.0366 82.2271 17.4085 86.3561 12.7199C87.9744 10.905 89.5019 9.01444 91.0598 7.15414C91.1959 6.98778 91.332 6.79116 91.4984 6.70041C91.6799 6.60967 91.9823 6.51892 92.0882 6.59454C92.2395 6.70041 92.3151 7.0029 92.2848 7.21464C92.2394 7.51713 92.0882 7.80449 91.9823 8.10698C90.6514 11.5402 89.2751 14.9432 87.9895 18.3916C87.0669 20.8568 86.2804 23.3675 85.4335 25.863C85.4032 25.9689 85.373 26.0748 85.3276 26.2563C101.859 24.5926 118.359 23.1406 134.996 23.2768C134.996 23.7759 135.011 24.154 134.981 24.5321C134.981 24.6228 134.86 24.7438 134.769 24.7741C134.497 24.8497 134.195 24.9102 133.907 24.9102C133.711 24.9102 133.453 24.8951 133.332 24.7741C133.227 24.6682 133.272 24.396 133.257 24.1388C133.181 24.1388 133.015 24.1237 132.848 24.1237C128.78 24.2145 124.712 24.1993 120.643 24.396C114.699 24.6833 108.77 25.0917 102.827 25.4849C100.119 25.6664 97.4271 25.9538 94.735 26.1806C94.614 26.1958 94.493 26.2109 94.3569 26.2411C94.5686 27.4662 93.9939 28.4947 93.5855 29.5534C93.3284 30.2188 93.0259 30.8541 92.7386 31.4893C92.6932 31.5952 92.6478 31.7162 92.6781 31.8825C93.041 31.5649 93.404 31.2473 93.767 30.9297C94.7047 30.0525 95.6424 29.1753 96.5953 28.3132C96.7768 28.1468 97.0036 27.9956 97.2154 27.9048C97.654 27.7082 98.017 27.9502 98.017 28.419C98.017 28.7215 97.9414 29.0089 97.896 29.3114C97.8506 29.629 97.7599 29.9617 97.7296 30.2793C97.6994 30.6272 97.8657 30.8692 98.2136 30.8541C98.7127 30.839 99.2421 30.8541 99.7109 30.718C101.359 30.234 102.993 29.7197 104.611 29.1601C106.94 28.3737 109.285 27.6628 111.72 27.2545C111.992 27.2091 112.264 27.194 112.552 27.1788C112.809 27.1637 113.005 27.2545 113.066 27.5116C113.141 27.7687 113.005 27.9653 112.778 28.0561C112.068 28.3434 111.342 28.6005 110.616 28.8577C109.769 29.1601 108.907 29.4475 108.06 29.8407C108.181 29.8256 108.302 29.8256 108.423 29.7954C113.247 29.0694 118.102 28.6157 123.002 28.8274C124.439 28.8879 125.876 29.145 127.313 29.3265C127.54 29.3568 127.782 29.4626 127.978 29.5685C128.689 29.9315 128.856 30.5818 128.311 31.1717C127.888 31.6405 127.358 32.0489 126.829 32.3816C124.727 33.6975 122.413 34.5747 120.068 35.3763C116.151 36.7072 112.128 37.6449 108.06 38.4011C102.237 39.4901 96.3835 40.1858 90.485 40.6698C87.7173 40.8967 84.9344 41.0782 82.1515 41.2597C81.8339 41.2748 81.6977 41.3807 81.6977 41.6983C81.6826 42.9082 81.6221 44.1182 81.6524 45.313C81.6675 46.0541 81.9851 46.6893 82.4993 47.2489C82.6355 47.385 82.7111 47.627 82.7111 47.8085C82.7111 48.2623 82.6657 48.716 82.6203 49.1697C82.6052 49.4571 82.454 49.6235 82.1666 49.6083C81.8944 49.5932 81.7734 49.3966 81.7885 49.1395C81.8036 48.7765 81.8339 48.4135 81.8339 48.0505C81.8339 47.9295 81.8036 47.7631 81.728 47.6724C80.9869 46.8254 80.7449 45.8121 80.7298 44.7231C80.7147 43.7703 80.7903 42.8175 80.8357 41.8495C80.9113 41.6983 80.9264 41.547 80.9567 41.3655ZM32.0897 37.6147C32.3166 37.7659 32.4225 37.8718 32.5586 37.9172C33.0274 38.0835 33.5114 38.265 33.9954 38.386C37.1413 39.1574 40.3628 39.5506 43.5843 39.8833C48.9232 40.4127 54.2923 40.7303 59.6615 40.7908C64.5013 40.8362 69.3411 40.7908 74.1809 40.7454C76.3588 40.7303 78.5367 40.5942 80.7147 40.5186C80.9869 40.5034 81.123 40.4278 81.1381 40.1405C81.1533 39.8077 81.2138 39.4901 81.2743 39.1725C81.8944 35.6636 82.7262 32.2153 83.7244 28.7972C83.8605 28.3132 83.9967 27.8141 84.1479 27.2998C84.0118 27.2998 83.921 27.2847 83.8454 27.2998C80.4727 27.7082 77.0848 28.1317 73.7121 28.5249C73.4247 28.5552 73.2281 28.6913 73.0466 28.8879C72.1543 29.871 71.2619 30.8389 70.3696 31.822C70.2335 31.9733 70.0822 32.1245 69.9158 32.2001C69.7948 32.2606 69.568 32.2606 69.4772 32.1699C69.3714 32.0792 69.3109 31.8674 69.3109 31.7162C69.3109 31.58 69.4167 31.4288 69.4772 31.3078C69.6134 31.0356 69.7495 30.7785 69.8856 30.5213C69.7041 30.5667 69.5831 30.6423 69.4772 30.7482C67.995 32.2909 66.5129 33.8336 65.0458 35.3914C64.5769 35.8905 64.1686 36.4199 63.7148 36.9341C63.5182 37.1458 63.2762 37.3273 62.9889 37.0702C62.7318 36.8433 62.8376 36.6013 63.0191 36.3745C63.1552 36.2081 63.2762 36.0266 63.4124 35.8754C65.1214 33.9999 66.6943 32.0187 67.9799 29.8256C68.0555 29.6895 68.1312 29.5231 68.2068 29.387C68.1917 29.3568 68.1614 29.3114 68.1463 29.2811C63.5485 30.0222 58.9658 30.7633 54.3226 31.5044C54.3982 31.6254 54.4133 31.6708 54.4436 31.6859C54.5948 31.7767 54.7461 31.8825 54.8973 31.9733C56.7122 33.0925 58.512 34.2268 60.1152 35.6334C60.5538 36.0115 60.8866 36.5257 61.2496 36.9946C61.4159 37.2214 61.3706 37.4634 61.1286 37.6147C60.8866 37.7508 60.69 37.6601 60.5085 37.4332C60.1001 36.9341 59.7371 36.3896 59.2531 35.9964C57.3777 34.4386 55.3057 33.1681 53.1883 31.9582C53.0521 31.8825 52.8555 31.8372 52.6891 31.8674C47.8796 32.7597 43.0852 33.7126 38.3966 35.104C36.6875 35.6183 35.0239 36.2837 33.3602 36.919C32.9064 37.04 32.5435 37.3424 32.0897 37.6147ZM81.9246 40.4127C82.1364 40.4127 82.2876 40.4278 82.4237 40.4127C85.4184 40.1858 88.413 40.0043 91.3925 39.7472C98.6522 39.112 105.867 38.1592 112.975 36.4955C116.484 35.6788 119.947 34.6654 123.275 33.274C124.651 32.6993 125.997 32.064 127.177 31.1414C127.419 30.9448 127.585 30.6575 127.797 30.4155C127.51 30.2945 127.237 30.113 126.935 30.0827C125.528 29.9164 124.107 29.7046 122.7 29.6441C119.312 29.4929 115.955 29.7349 112.597 30.0979C109.678 30.4155 106.774 30.8541 103.915 31.5649C103.159 31.7615 102.403 31.9582 101.647 32.1548C101.39 32.2304 101.163 32.1699 101.057 31.8977C100.966 31.6405 101.102 31.4591 101.329 31.3532C101.586 31.2322 101.859 31.1263 102.131 31.0053C102.297 30.9297 102.448 30.8692 102.615 30.7936C101.98 30.9297 101.375 31.1566 100.754 31.2927C99.968 31.4591 99.1664 31.6405 98.38 31.6557C97.3061 31.6859 96.7768 30.9902 96.9431 29.9164C96.9734 29.7046 97.0339 29.4929 97.0641 29.2811C97.0793 29.2055 97.0641 29.1299 97.0641 29.0089C96.9734 29.0694 96.928 29.1148 96.8826 29.145C95.9601 30.0071 95.0526 30.8843 94.1149 31.7162C93.5855 32.2001 92.9957 32.6236 92.4361 33.0471C92.2243 33.2135 91.9218 33.274 91.7403 33.0622C91.6042 32.8959 91.5135 32.6085 91.5286 32.3968C91.5437 32.1245 91.695 31.8523 91.8008 31.58C92.3605 30.1735 92.9503 28.7518 93.5099 27.3452C93.5855 27.1637 93.5855 26.952 93.6158 26.7402C93.5704 26.71 93.5401 26.6797 93.4948 26.6495C92.8747 27.0125 92.2395 27.3301 91.6496 27.7233C89.8801 28.9182 88.2466 30.2793 86.7947 31.8523C86.5981 32.0791 86.3409 32.2304 86.0838 31.9733C85.8116 31.7162 85.978 31.4742 86.1897 31.2624C87.8836 29.4626 89.759 27.8897 91.8613 26.589C91.9218 26.5587 91.9672 26.4982 92.0731 26.4075C91.9067 26.4075 91.816 26.3924 91.7101 26.4075C89.6381 26.6192 87.5811 26.8461 85.5091 27.0427C85.131 27.073 84.9797 27.2393 84.8739 27.5872C83.8454 31.1112 82.8926 34.6503 82.2422 38.265C82.1515 38.991 82.0456 39.6716 81.9246 40.4127ZM90.7119 9.04469C85.2671 15.1852 79.7921 21.3711 74.317 27.557C74.4229 27.557 74.5137 27.5721 74.6044 27.557C77.7805 27.1788 80.9567 26.7856 84.1328 26.4226C84.3596 26.3924 84.4655 26.3016 84.526 26.0899C84.7982 25.2127 85.0705 24.3355 85.3579 23.4582C86.9157 18.7697 88.6399 14.1416 90.5153 9.57405C90.5909 9.37743 90.6665 9.18081 90.7119 9.04469ZM53.5059 30.6575C53.521 30.7028 53.5361 30.7331 53.5512 30.7785C53.7025 30.7482 53.8689 30.7331 54.0201 30.7028C55.5779 30.4306 57.1206 30.1432 58.6784 29.9012C61.8999 29.387 65.1214 28.903 68.3429 28.4039C68.4941 28.3737 68.7059 28.2829 68.7513 28.1619C68.9328 27.6628 69.1142 27.1637 69.1899 26.6495C69.2957 26.0294 68.9933 25.6815 68.3732 25.621C67.9194 25.5757 67.4506 25.5605 67.0271 25.6362C65.6961 25.8933 64.3501 26.1504 63.0494 26.5134C60.2211 27.2998 57.4685 28.3434 54.8973 29.7802C54.4285 30.0525 53.9747 30.3701 53.5059 30.6575ZM51.6758 31.1112C51.3733 30.9448 51.1616 30.8238 50.965 30.718C49.5735 30.0222 48.167 29.3416 46.7755 28.6157C46.5033 28.4795 46.3672 28.5098 46.2008 28.7669C45.5504 29.7954 44.885 30.8238 44.2195 31.8372C44.0229 32.1396 43.796 32.4421 43.554 32.79C46.2764 32.2455 48.9232 31.6859 51.6758 31.1112ZM54.7007 12.2208C54.6856 12.2208 54.6704 12.2057 54.6553 12.2057C51.8422 15.9717 49.0139 19.7528 46.1403 23.5944C46.352 23.4431 46.4881 23.3524 46.6091 23.2616C47.5317 22.6415 48.4543 22.0214 49.3467 21.3862C49.6038 21.2047 49.8609 20.9627 50.0121 20.7056C51.1918 18.6336 52.3413 16.5615 53.4907 14.4744C53.9294 13.7333 54.3075 12.977 54.7007 12.2208ZM23.1361 33.3042C24.3007 33.9092 30.0479 31.6254 31.2881 30.8087C30.1538 30.0525 23.9679 31.943 23.1361 33.3042ZM46.0949 27.3603C47.0024 25.8479 47.8796 24.396 48.7417 22.944C48.7114 22.9138 48.6661 22.8835 48.6358 22.8533C47.8493 23.428 47.0477 23.9876 46.2764 24.5774C45.8227 24.9253 45.3992 25.2883 45.006 25.6967C44.6127 26.0899 44.643 26.3168 45.0665 26.6646C45.3689 26.8915 45.7017 27.1032 46.0949 27.3603ZM68.7513 30.2189C68.9025 30.0827 68.9933 29.992 69.1142 29.9164C69.4772 29.6592 69.8402 29.3568 70.2335 29.1601C70.6116 28.9635 70.8838 29.145 70.9897 29.5534C71.0048 29.6139 71.035 29.6744 71.0804 29.7954C71.3829 29.4626 71.6551 29.1601 71.9274 28.8577C71.3375 28.8425 70.8082 28.9182 70.2788 28.9938C69.2352 29.145 69.2352 29.145 68.7664 30.0979C68.7513 30.0979 68.7513 30.113 68.7513 30.2189Z"/>
</mask>
<path d="M80.9567 41.3655C80.5937 41.3655 80.2761 41.3504 79.9736 41.3655C72.8954 41.668 65.8171 41.789 58.7389 41.6075C52.553 41.4412 46.3672 41.1084 40.2266 40.3371C37.8824 40.0497 35.5532 39.7018 33.2845 39.0515C32.8157 38.9154 32.3468 38.7339 31.9234 38.4919C31.1823 38.0533 31.1066 37.3424 31.8024 36.8433C32.4678 36.3745 33.2241 35.9661 33.9803 35.6485C36.5514 34.5747 39.2284 33.8638 41.9206 33.2135C42.2684 33.1227 42.6314 33.032 43.0247 32.9261C42.6768 32.548 42.828 32.2153 43.0549 31.8977C43.8111 30.7785 44.5825 29.6441 45.3387 28.5098C45.4294 28.3585 45.5202 28.2224 45.6412 28.0409C44.9606 27.557 44.1287 27.2242 43.8868 26.2411C43.6901 26.468 43.5389 26.6495 43.3725 26.8159C42.1323 28.1317 40.9072 29.4324 39.667 30.7482C39.5158 30.8994 39.3343 31.0204 39.1679 31.1414C38.563 31.5498 38.2454 31.4439 38.0185 30.6877C37.7311 30.7482 37.4438 30.7936 37.1715 30.8843C36.2943 31.1566 35.4171 31.4591 34.5399 31.7313C34.2223 31.8372 33.8895 31.9128 33.5417 31.9582C32.8913 32.0489 32.6644 31.8069 32.7249 31.0961C32.2561 31.3229 31.8326 31.5347 31.394 31.7313C29.3522 32.6993 27.3104 33.5916 25.1174 34.0604C24.4973 34.1966 23.8469 34.2117 23.2117 34.2268C22.7731 34.2419 22.3647 34.0756 22.2286 33.6067C22.0774 33.153 22.3345 32.7597 22.6823 32.5178C23.3327 32.064 23.983 31.6103 24.709 31.2776C26.7206 30.3247 28.8531 29.7802 31.1066 29.8256C31.757 29.8407 31.8477 29.9012 31.9385 30.5818C32.3468 30.3701 32.7552 30.1584 33.1484 29.9617C33.4812 29.7954 33.829 29.6139 34.1769 29.4929C34.3281 29.4475 34.6155 29.4929 34.7062 29.5987C34.797 29.7197 34.8121 30.0071 34.7365 30.1432C34.5701 30.4306 34.3281 30.6726 34.0256 31.0204C34.2525 30.9599 34.3886 30.9297 34.5247 30.8843C35.5381 30.5667 36.5363 30.234 37.5648 29.9466C38.2 29.7651 38.4571 29.8559 38.8957 30.3247C39.0469 30.2037 39.1982 30.0979 39.3343 29.9617C41.4668 27.9351 43.3725 25.6967 45.1572 23.3675C47.9552 19.7528 50.6927 16.0775 53.4 12.4023C54.8973 10.3454 56.3341 8.21285 57.7861 6.08031C58.1339 5.56608 58.4062 4.99136 58.7389 4.44688C59.0111 3.99314 59.2834 3.85703 59.5405 4.02339C59.7976 4.18976 59.7825 4.44688 59.5405 4.90061C57.7407 8.28847 55.956 11.6763 54.1562 15.0491C53.2034 16.8186 52.2052 18.5731 51.2221 20.3426C51.1616 20.4334 51.1162 20.5392 51.0557 20.63C51.5851 21.1291 51.6456 21.3711 51.207 21.9912C50.3297 23.2314 49.4072 24.4413 48.4997 25.6664C47.9855 26.347 47.4712 27.0427 46.9419 27.7536C48.8627 28.7215 50.7381 29.6592 52.6287 30.6121C52.8404 29.9012 53.4907 29.6441 54.0503 29.3114C56.4249 27.9048 58.9809 26.8915 61.5974 26.0596C63.2914 25.5152 65.0004 25.0009 66.77 24.8043C67.4203 24.7287 68.1009 24.7438 68.7513 24.8497C69.6285 24.9858 70.0822 25.5908 70.0368 26.4982C70.0217 26.9369 69.8856 27.3603 69.81 27.7989C69.7797 27.9199 69.7495 28.0409 69.689 28.2224C70.2032 28.1619 70.6721 28.1014 71.1409 28.0409C71.2468 28.0258 71.3375 27.9956 71.4434 27.9956C72.5021 28.0409 73.1978 27.5116 73.8936 26.7251C78.0225 22.0366 82.2271 17.4085 86.3561 12.7199C87.9744 10.905 89.5019 9.01444 91.0598 7.15414C91.1959 6.98778 91.332 6.79116 91.4984 6.70041C91.6799 6.60967 91.9823 6.51892 92.0882 6.59454C92.2395 6.70041 92.3151 7.0029 92.2848 7.21464C92.2394 7.51713 92.0882 7.80449 91.9823 8.10698C90.6514 11.5402 89.2751 14.9432 87.9895 18.3916C87.0669 20.8568 86.2804 23.3675 85.4335 25.863C85.4032 25.9689 85.373 26.0748 85.3276 26.2563C101.859 24.5926 118.359 23.1406 134.996 23.2768C134.996 23.7759 135.011 24.154 134.981 24.5321C134.981 24.6228 134.86 24.7438 134.769 24.7741C134.497 24.8497 134.195 24.9102 133.907 24.9102C133.711 24.9102 133.453 24.8951 133.332 24.7741C133.227 24.6682 133.272 24.396 133.257 24.1388C133.181 24.1388 133.015 24.1237 132.848 24.1237C128.78 24.2145 124.712 24.1993 120.643 24.396C114.699 24.6833 108.77 25.0917 102.827 25.4849C100.119 25.6664 97.4271 25.9538 94.735 26.1806C94.614 26.1958 94.493 26.2109 94.3569 26.2411C94.5686 27.4662 93.9939 28.4947 93.5855 29.5534C93.3284 30.2188 93.0259 30.8541 92.7386 31.4893C92.6932 31.5952 92.6478 31.7162 92.6781 31.8825C93.041 31.5649 93.404 31.2473 93.767 30.9297C94.7047 30.0525 95.6424 29.1753 96.5953 28.3132C96.7768 28.1468 97.0036 27.9956 97.2154 27.9048C97.654 27.7082 98.017 27.9502 98.017 28.419C98.017 28.7215 97.9414 29.0089 97.896 29.3114C97.8506 29.629 97.7599 29.9617 97.7296 30.2793C97.6994 30.6272 97.8657 30.8692 98.2136 30.8541C98.7127 30.839 99.2421 30.8541 99.7109 30.718C101.359 30.234 102.993 29.7197 104.611 29.1601C106.94 28.3737 109.285 27.6628 111.72 27.2545C111.992 27.2091 112.264 27.194 112.552 27.1788C112.809 27.1637 113.005 27.2545 113.066 27.5116C113.141 27.7687 113.005 27.9653 112.778 28.0561C112.068 28.3434 111.342 28.6005 110.616 28.8577C109.769 29.1601 108.907 29.4475 108.06 29.8407C108.181 29.8256 108.302 29.8256 108.423 29.7954C113.247 29.0694 118.102 28.6157 123.002 28.8274C124.439 28.8879 125.876 29.145 127.313 29.3265C127.54 29.3568 127.782 29.4626 127.978 29.5685C128.689 29.9315 128.856 30.5818 128.311 31.1717C127.888 31.6405 127.358 32.0489 126.829 32.3816C124.727 33.6975 122.413 34.5747 120.068 35.3763C116.151 36.7072 112.128 37.6449 108.06 38.4011C102.237 39.4901 96.3835 40.1858 90.485 40.6698C87.7173 40.8967 84.9344 41.0782 82.1515 41.2597C81.8339 41.2748 81.6977 41.3807 81.6977 41.6983C81.6826 42.9082 81.6221 44.1182 81.6524 45.313C81.6675 46.0541 81.9851 46.6893 82.4993 47.2489C82.6355 47.385 82.7111 47.627 82.7111 47.8085C82.7111 48.2623 82.6657 48.716 82.6203 49.1697C82.6052 49.4571 82.454 49.6235 82.1666 49.6083C81.8944 49.5932 81.7734 49.3966 81.7885 49.1395C81.8036 48.7765 81.8339 48.4135 81.8339 48.0505C81.8339 47.9295 81.8036 47.7631 81.728 47.6724C80.9869 46.8254 80.7449 45.8121 80.7298 44.7231C80.7147 43.7703 80.7903 42.8175 80.8357 41.8495C80.9113 41.6983 80.9264 41.547 80.9567 41.3655ZM32.0897 37.6147C32.3166 37.7659 32.4225 37.8718 32.5586 37.9172C33.0274 38.0835 33.5114 38.265 33.9954 38.386C37.1413 39.1574 40.3628 39.5506 43.5843 39.8833C48.9232 40.4127 54.2923 40.7303 59.6615 40.7908C64.5013 40.8362 69.3411 40.7908 74.1809 40.7454C76.3588 40.7303 78.5367 40.5942 80.7147 40.5186C80.9869 40.5034 81.123 40.4278 81.1381 40.1405C81.1533 39.8077 81.2138 39.4901 81.2743 39.1725C81.8944 35.6636 82.7262 32.2153 83.7244 28.7972C83.8605 28.3132 83.9967 27.8141 84.1479 27.2998C84.0118 27.2998 83.921 27.2847 83.8454 27.2998C80.4727 27.7082 77.0848 28.1317 73.7121 28.5249C73.4247 28.5552 73.2281 28.6913 73.0466 28.8879C72.1543 29.871 71.2619 30.8389 70.3696 31.822C70.2335 31.9733 70.0822 32.1245 69.9158 32.2001C69.7948 32.2606 69.568 32.2606 69.4772 32.1699C69.3714 32.0792 69.3109 31.8674 69.3109 31.7162C69.3109 31.58 69.4167 31.4288 69.4772 31.3078C69.6134 31.0356 69.7495 30.7785 69.8856 30.5213C69.7041 30.5667 69.5831 30.6423 69.4772 30.7482C67.995 32.2909 66.5129 33.8336 65.0458 35.3914C64.5769 35.8905 64.1686 36.4199 63.7148 36.9341C63.5182 37.1458 63.2762 37.3273 62.9889 37.0702C62.7318 36.8433 62.8376 36.6013 63.0191 36.3745C63.1552 36.2081 63.2762 36.0266 63.4124 35.8754C65.1214 33.9999 66.6943 32.0187 67.9799 29.8256C68.0555 29.6895 68.1312 29.5231 68.2068 29.387C68.1917 29.3568 68.1614 29.3114 68.1463 29.2811C63.5485 30.0222 58.9658 30.7633 54.3226 31.5044C54.3982 31.6254 54.4133 31.6708 54.4436 31.6859C54.5948 31.7767 54.7461 31.8825 54.8973 31.9733C56.7122 33.0925 58.512 34.2268 60.1152 35.6334C60.5538 36.0115 60.8866 36.5257 61.2496 36.9946C61.4159 37.2214 61.3706 37.4634 61.1286 37.6147C60.8866 37.7508 60.69 37.6601 60.5085 37.4332C60.1001 36.9341 59.7371 36.3896 59.2531 35.9964C57.3777 34.4386 55.3057 33.1681 53.1883 31.9582C53.0521 31.8825 52.8555 31.8372 52.6891 31.8674C47.8796 32.7597 43.0852 33.7126 38.3966 35.104C36.6875 35.6183 35.0239 36.2837 33.3602 36.919C32.9064 37.04 32.5435 37.3424 32.0897 37.6147ZM81.9246 40.4127C82.1364 40.4127 82.2876 40.4278 82.4237 40.4127C85.4184 40.1858 88.413 40.0043 91.3925 39.7472C98.6522 39.112 105.867 38.1592 112.975 36.4955C116.484 35.6788 119.947 34.6654 123.275 33.274C124.651 32.6993 125.997 32.064 127.177 31.1414C127.419 30.9448 127.585 30.6575 127.797 30.4155C127.51 30.2945 127.237 30.113 126.935 30.0827C125.528 29.9164 124.107 29.7046 122.7 29.6441C119.312 29.4929 115.955 29.7349 112.597 30.0979C109.678 30.4155 106.774 30.8541 103.915 31.5649C103.159 31.7615 102.403 31.9582 101.647 32.1548C101.39 32.2304 101.163 32.1699 101.057 31.8977C100.966 31.6405 101.102 31.4591 101.329 31.3532C101.586 31.2322 101.859 31.1263 102.131 31.0053C102.297 30.9297 102.448 30.8692 102.615 30.7936C101.98 30.9297 101.375 31.1566 100.754 31.2927C99.968 31.4591 99.1664 31.6405 98.38 31.6557C97.3061 31.6859 96.7768 30.9902 96.9431 29.9164C96.9734 29.7046 97.0339 29.4929 97.0641 29.2811C97.0793 29.2055 97.0641 29.1299 97.0641 29.0089C96.9734 29.0694 96.928 29.1148 96.8826 29.145C95.9601 30.0071 95.0526 30.8843 94.1149 31.7162C93.5855 32.2001 92.9957 32.6236 92.4361 33.0471C92.2243 33.2135 91.9218 33.274 91.7403 33.0622C91.6042 32.8959 91.5135 32.6085 91.5286 32.3968C91.5437 32.1245 91.695 31.8523 91.8008 31.58C92.3605 30.1735 92.9503 28.7518 93.5099 27.3452C93.5855 27.1637 93.5855 26.952 93.6158 26.7402C93.5704 26.71 93.5401 26.6797 93.4948 26.6495C92.8747 27.0125 92.2395 27.3301 91.6496 27.7233C89.8801 28.9182 88.2466 30.2793 86.7947 31.8523C86.5981 32.0791 86.3409 32.2304 86.0838 31.9733C85.8116 31.7162 85.978 31.4742 86.1897 31.2624C87.8836 29.4626 89.759 27.8897 91.8613 26.589C91.9218 26.5587 91.9672 26.4982 92.0731 26.4075C91.9067 26.4075 91.816 26.3924 91.7101 26.4075C89.6381 26.6192 87.5811 26.8461 85.5091 27.0427C85.131 27.073 84.9797 27.2393 84.8739 27.5872C83.8454 31.1112 82.8926 34.6503 82.2422 38.265C82.1515 38.991 82.0456 39.6716 81.9246 40.4127ZM90.7119 9.04469C85.2671 15.1852 79.7921 21.3711 74.317 27.557C74.4229 27.557 74.5137 27.5721 74.6044 27.557C77.7805 27.1788 80.9567 26.7856 84.1328 26.4226C84.3596 26.3924 84.4655 26.3016 84.526 26.0899C84.7982 25.2127 85.0705 24.3355 85.3579 23.4582C86.9157 18.7697 88.6399 14.1416 90.5153 9.57405C90.5909 9.37743 90.6665 9.18081 90.7119 9.04469ZM53.5059 30.6575C53.521 30.7028 53.5361 30.7331 53.5512 30.7785C53.7025 30.7482 53.8689 30.7331 54.0201 30.7028C55.5779 30.4306 57.1206 30.1432 58.6784 29.9012C61.8999 29.387 65.1214 28.903 68.3429 28.4039C68.4941 28.3737 68.7059 28.2829 68.7513 28.1619C68.9328 27.6628 69.1142 27.1637 69.1899 26.6495C69.2957 26.0294 68.9933 25.6815 68.3732 25.621C67.9194 25.5757 67.4506 25.5605 67.0271 25.6362C65.6961 25.8933 64.3501 26.1504 63.0494 26.5134C60.2211 27.2998 57.4685 28.3434 54.8973 29.7802C54.4285 30.0525 53.9747 30.3701 53.5059 30.6575ZM51.6758 31.1112C51.3733 30.9448 51.1616 30.8238 50.965 30.718C49.5735 30.0222 48.167 29.3416 46.7755 28.6157C46.5033 28.4795 46.3672 28.5098 46.2008 28.7669C45.5504 29.7954 44.885 30.8238 44.2195 31.8372C44.0229 32.1396 43.796 32.4421 43.554 32.79C46.2764 32.2455 48.9232 31.6859 51.6758 31.1112ZM54.7007 12.2208C54.6856 12.2208 54.6704 12.2057 54.6553 12.2057C51.8422 15.9717 49.0139 19.7528 46.1403 23.5944C46.352 23.4431 46.4881 23.3524 46.6091 23.2616C47.5317 22.6415 48.4543 22.0214 49.3467 21.3862C49.6038 21.2047 49.8609 20.9627 50.0121 20.7056C51.1918 18.6336 52.3413 16.5615 53.4907 14.4744C53.9294 13.7333 54.3075 12.977 54.7007 12.2208ZM23.1361 33.3042C24.3007 33.9092 30.0479 31.6254 31.2881 30.8087C30.1538 30.0525 23.9679 31.943 23.1361 33.3042ZM46.0949 27.3603C47.0024 25.8479 47.8796 24.396 48.7417 22.944C48.7114 22.9138 48.6661 22.8835 48.6358 22.8533C47.8493 23.428 47.0477 23.9876 46.2764 24.5774C45.8227 24.9253 45.3992 25.2883 45.006 25.6967C44.6127 26.0899 44.643 26.3168 45.0665 26.6646C45.3689 26.8915 45.7017 27.1032 46.0949 27.3603ZM68.7513 30.2189C68.9025 30.0827 68.9933 29.992 69.1142 29.9164C69.4772 29.6592 69.8402 29.3568 70.2335 29.1601C70.6116 28.9635 70.8838 29.145 70.9897 29.5534C71.0048 29.6139 71.035 29.6744 71.0804 29.7954C71.3829 29.4626 71.6551 29.1601 71.9274 28.8577C71.3375 28.8425 70.8082 28.9182 70.2788 28.9938C69.2352 29.145 69.2352 29.145 68.7664 30.0979C68.7513 30.0979 68.7513 30.113 68.7513 30.2189Z" fill="#73737D"/>
<path d="M80.9567 41.3655C80.5937 41.3655 80.2761 41.3504 79.9736 41.3655C72.8954 41.668 65.8171 41.789 58.7389 41.6075C52.553 41.4412 46.3672 41.1084 40.2266 40.3371C37.8824 40.0497 35.5532 39.7018 33.2845 39.0515C32.8157 38.9154 32.3468 38.7339 31.9234 38.4919C31.1823 38.0533 31.1066 37.3424 31.8024 36.8433C32.4678 36.3745 33.2241 35.9661 33.9803 35.6485C36.5514 34.5747 39.2284 33.8638 41.9206 33.2135C42.2684 33.1227 42.6314 33.032 43.0247 32.9261C42.6768 32.548 42.828 32.2153 43.0549 31.8977C43.8111 30.7785 44.5825 29.6441 45.3387 28.5098C45.4294 28.3585 45.5202 28.2224 45.6412 28.0409C44.9606 27.557 44.1287 27.2242 43.8868 26.2411C43.6901 26.468 43.5389 26.6495 43.3725 26.8159C42.1323 28.1317 40.9072 29.4324 39.667 30.7482C39.5158 30.8994 39.3343 31.0204 39.1679 31.1414C38.563 31.5498 38.2454 31.4439 38.0185 30.6877C37.7311 30.7482 37.4438 30.7936 37.1715 30.8843C36.2943 31.1566 35.4171 31.4591 34.5399 31.7313C34.2223 31.8372 33.8895 31.9128 33.5417 31.9582C32.8913 32.0489 32.6644 31.8069 32.7249 31.0961C32.2561 31.3229 31.8326 31.5347 31.394 31.7313C29.3522 32.6993 27.3104 33.5916 25.1174 34.0604C24.4973 34.1966 23.8469 34.2117 23.2117 34.2268C22.7731 34.2419 22.3647 34.0756 22.2286 33.6067C22.0774 33.153 22.3345 32.7597 22.6823 32.5178C23.3327 32.064 23.983 31.6103 24.709 31.2776C26.7206 30.3247 28.8531 29.7802 31.1066 29.8256C31.757 29.8407 31.8477 29.9012 31.9385 30.5818C32.3468 30.3701 32.7552 30.1584 33.1484 29.9617C33.4812 29.7954 33.829 29.6139 34.1769 29.4929C34.3281 29.4475 34.6155 29.4929 34.7062 29.5987C34.797 29.7197 34.8121 30.0071 34.7365 30.1432C34.5701 30.4306 34.3281 30.6726 34.0256 31.0204C34.2525 30.9599 34.3886 30.9297 34.5247 30.8843C35.5381 30.5667 36.5363 30.234 37.5648 29.9466C38.2 29.7651 38.4571 29.8559 38.8957 30.3247C39.0469 30.2037 39.1982 30.0979 39.3343 29.9617C41.4668 27.9351 43.3725 25.6967 45.1572 23.3675C47.9552 19.7528 50.6927 16.0775 53.4 12.4023C54.8973 10.3454 56.3341 8.21285 57.7861 6.08031C58.1339 5.56608 58.4062 4.99136 58.7389 4.44688C59.0111 3.99314 59.2834 3.85703 59.5405 4.02339C59.7976 4.18976 59.7825 4.44688 59.5405 4.90061C57.7407 8.28847 55.956 11.6763 54.1562 15.0491C53.2034 16.8186 52.2052 18.5731 51.2221 20.3426C51.1616 20.4334 51.1162 20.5392 51.0557 20.63C51.5851 21.1291 51.6456 21.3711 51.207 21.9912C50.3297 23.2314 49.4072 24.4413 48.4997 25.6664C47.9855 26.347 47.4712 27.0427 46.9419 27.7536C48.8627 28.7215 50.7381 29.6592 52.6287 30.6121C52.8404 29.9012 53.4907 29.6441 54.0503 29.3114C56.4249 27.9048 58.9809 26.8915 61.5974 26.0596C63.2914 25.5152 65.0004 25.0009 66.77 24.8043C67.4203 24.7287 68.1009 24.7438 68.7513 24.8497C69.6285 24.9858 70.0822 25.5908 70.0368 26.4982C70.0217 26.9369 69.8856 27.3603 69.81 27.7989C69.7797 27.9199 69.7495 28.0409 69.689 28.2224C70.2032 28.1619 70.6721 28.1014 71.1409 28.0409C71.2468 28.0258 71.3375 27.9956 71.4434 27.9956C72.5021 28.0409 73.1978 27.5116 73.8936 26.7251C78.0225 22.0366 82.2271 17.4085 86.3561 12.7199C87.9744 10.905 89.5019 9.01444 91.0598 7.15414C91.1959 6.98778 91.332 6.79116 91.4984 6.70041C91.6799 6.60967 91.9823 6.51892 92.0882 6.59454C92.2395 6.70041 92.3151 7.0029 92.2848 7.21464C92.2394 7.51713 92.0882 7.80449 91.9823 8.10698C90.6514 11.5402 89.2751 14.9432 87.9895 18.3916C87.0669 20.8568 86.2804 23.3675 85.4335 25.863C85.4032 25.9689 85.373 26.0748 85.3276 26.2563C101.859 24.5926 118.359 23.1406 134.996 23.2768C134.996 23.7759 135.011 24.154 134.981 24.5321C134.981 24.6228 134.86 24.7438 134.769 24.7741C134.497 24.8497 134.195 24.9102 133.907 24.9102C133.711 24.9102 133.453 24.8951 133.332 24.7741C133.227 24.6682 133.272 24.396 133.257 24.1388C133.181 24.1388 133.015 24.1237 132.848 24.1237C128.78 24.2145 124.712 24.1993 120.643 24.396C114.699 24.6833 108.77 25.0917 102.827 25.4849C100.119 25.6664 97.4271 25.9538 94.735 26.1806C94.614 26.1958 94.493 26.2109 94.3569 26.2411C94.5686 27.4662 93.9939 28.4947 93.5855 29.5534C93.3284 30.2188 93.0259 30.8541 92.7386 31.4893C92.6932 31.5952 92.6478 31.7162 92.6781 31.8825C93.041 31.5649 93.404 31.2473 93.767 30.9297C94.7047 30.0525 95.6424 29.1753 96.5953 28.3132C96.7768 28.1468 97.0036 27.9956 97.2154 27.9048C97.654 27.7082 98.017 27.9502 98.017 28.419C98.017 28.7215 97.9414 29.0089 97.896 29.3114C97.8506 29.629 97.7599 29.9617 97.7296 30.2793C97.6994 30.6272 97.8657 30.8692 98.2136 30.8541C98.7127 30.839 99.2421 30.8541 99.7109 30.718C101.359 30.234 102.993 29.7197 104.611 29.1601C106.94 28.3737 109.285 27.6628 111.72 27.2545C111.992 27.2091 112.264 27.194 112.552 27.1788C112.809 27.1637 113.005 27.2545 113.066 27.5116C113.141 27.7687 113.005 27.9653 112.778 28.0561C112.068 28.3434 111.342 28.6005 110.616 28.8577C109.769 29.1601 108.907 29.4475 108.06 29.8407C108.181 29.8256 108.302 29.8256 108.423 29.7954C113.247 29.0694 118.102 28.6157 123.002 28.8274C124.439 28.8879 125.876 29.145 127.313 29.3265C127.54 29.3568 127.782 29.4626 127.978 29.5685C128.689 29.9315 128.856 30.5818 128.311 31.1717C127.888 31.6405 127.358 32.0489 126.829 32.3816C124.727 33.6975 122.413 34.5747 120.068 35.3763C116.151 36.7072 112.128 37.6449 108.06 38.4011C102.237 39.4901 96.3835 40.1858 90.485 40.6698C87.7173 40.8967 84.9344 41.0782 82.1515 41.2597C81.8339 41.2748 81.6977 41.3807 81.6977 41.6983C81.6826 42.9082 81.6221 44.1182 81.6524 45.313C81.6675 46.0541 81.9851 46.6893 82.4993 47.2489C82.6355 47.385 82.7111 47.627 82.7111 47.8085C82.7111 48.2623 82.6657 48.716 82.6203 49.1697C82.6052 49.4571 82.454 49.6235 82.1666 49.6083C81.8944 49.5932 81.7734 49.3966 81.7885 49.1395C81.8036 48.7765 81.8339 48.4135 81.8339 48.0505C81.8339 47.9295 81.8036 47.7631 81.728 47.6724C80.9869 46.8254 80.7449 45.8121 80.7298 44.7231C80.7147 43.7703 80.7903 42.8175 80.8357 41.8495C80.9113 41.6983 80.9264 41.547 80.9567 41.3655ZM32.0897 37.6147C32.3166 37.7659 32.4225 37.8718 32.5586 37.9172C33.0274 38.0835 33.5114 38.265 33.9954 38.386C37.1413 39.1574 40.3628 39.5506 43.5843 39.8833C48.9232 40.4127 54.2923 40.7303 59.6615 40.7908C64.5013 40.8362 69.3411 40.7908 74.1809 40.7454C76.3588 40.7303 78.5367 40.5942 80.7147 40.5186C80.9869 40.5034 81.123 40.4278 81.1381 40.1405C81.1533 39.8077 81.2138 39.4901 81.2743 39.1725C81.8944 35.6636 82.7262 32.2153 83.7244 28.7972C83.8605 28.3132 83.9967 27.8141 84.1479 27.2998C84.0118 27.2998 83.921 27.2847 83.8454 27.2998C80.4727 27.7082 77.0848 28.1317 73.7121 28.5249C73.4247 28.5552 73.2281 28.6913 73.0466 28.8879C72.1543 29.871 71.2619 30.8389 70.3696 31.822C70.2335 31.9733 70.0822 32.1245 69.9158 32.2001C69.7948 32.2606 69.568 32.2606 69.4772 32.1699C69.3714 32.0792 69.3109 31.8674 69.3109 31.7162C69.3109 31.58 69.4167 31.4288 69.4772 31.3078C69.6134 31.0356 69.7495 30.7785 69.8856 30.5213C69.7041 30.5667 69.5831 30.6423 69.4772 30.7482C67.995 32.2909 66.5129 33.8336 65.0458 35.3914C64.5769 35.8905 64.1686 36.4199 63.7148 36.9341C63.5182 37.1458 63.2762 37.3273 62.9889 37.0702C62.7318 36.8433 62.8376 36.6013 63.0191 36.3745C63.1552 36.2081 63.2762 36.0266 63.4124 35.8754C65.1214 33.9999 66.6943 32.0187 67.9799 29.8256C68.0555 29.6895 68.1312 29.5231 68.2068 29.387C68.1917 29.3568 68.1614 29.3114 68.1463 29.2811C63.5485 30.0222 58.9658 30.7633 54.3226 31.5044C54.3982 31.6254 54.4133 31.6708 54.4436 31.6859C54.5948 31.7767 54.7461 31.8825 54.8973 31.9733C56.7122 33.0925 58.512 34.2268 60.1152 35.6334C60.5538 36.0115 60.8866 36.5257 61.2496 36.9946C61.4159 37.2214 61.3706 37.4634 61.1286 37.6147C60.8866 37.7508 60.69 37.6601 60.5085 37.4332C60.1001 36.9341 59.7371 36.3896 59.2531 35.9964C57.3777 34.4386 55.3057 33.1681 53.1883 31.9582C53.0521 31.8825 52.8555 31.8372 52.6891 31.8674C47.8796 32.7597 43.0852 33.7126 38.3966 35.104C36.6875 35.6183 35.0239 36.2837 33.3602 36.919C32.9064 37.04 32.5435 37.3424 32.0897 37.6147ZM81.9246 40.4127C82.1364 40.4127 82.2876 40.4278 82.4237 40.4127C85.4184 40.1858 88.413 40.0043 91.3925 39.7472C98.6522 39.112 105.867 38.1592 112.975 36.4955C116.484 35.6788 119.947 34.6654 123.275 33.274C124.651 32.6993 125.997 32.064 127.177 31.1414C127.419 30.9448 127.585 30.6575 127.797 30.4155C127.51 30.2945 127.237 30.113 126.935 30.0827C125.528 29.9164 124.107 29.7046 122.7 29.6441C119.312 29.4929 115.955 29.7349 112.597 30.0979C109.678 30.4155 106.774 30.8541 103.915 31.5649C103.159 31.7615 102.403 31.9582 101.647 32.1548C101.39 32.2304 101.163 32.1699 101.057 31.8977C100.966 31.6405 101.102 31.4591 101.329 31.3532C101.586 31.2322 101.859 31.1263 102.131 31.0053C102.297 30.9297 102.448 30.8692 102.615 30.7936C101.98 30.9297 101.375 31.1566 100.754 31.2927C99.968 31.4591 99.1664 31.6405 98.38 31.6557C97.3061 31.6859 96.7768 30.9902 96.9431 29.9164C96.9734 29.7046 97.0339 29.4929 97.0641 29.2811C97.0793 29.2055 97.0641 29.1299 97.0641 29.0089C96.9734 29.0694 96.928 29.1148 96.8826 29.145C95.9601 30.0071 95.0526 30.8843 94.1149 31.7162C93.5855 32.2001 92.9957 32.6236 92.4361 33.0471C92.2243 33.2135 91.9218 33.274 91.7403 33.0622C91.6042 32.8959 91.5135 32.6085 91.5286 32.3968C91.5437 32.1245 91.695 31.8523 91.8008 31.58C92.3605 30.1735 92.9503 28.7518 93.5099 27.3452C93.5855 27.1637 93.5855 26.952 93.6158 26.7402C93.5704 26.71 93.5401 26.6797 93.4948 26.6495C92.8747 27.0125 92.2395 27.3301 91.6496 27.7233C89.8801 28.9182 88.2466 30.2793 86.7947 31.8523C86.5981 32.0791 86.3409 32.2304 86.0838 31.9733C85.8116 31.7162 85.978 31.4742 86.1897 31.2624C87.8836 29.4626 89.759 27.8897 91.8613 26.589C91.9218 26.5587 91.9672 26.4982 92.0731 26.4075C91.9067 26.4075 91.816 26.3924 91.7101 26.4075C89.6381 26.6192 87.5811 26.8461 85.5091 27.0427C85.131 27.073 84.9797 27.2393 84.8739 27.5872C83.8454 31.1112 82.8926 34.6503 82.2422 38.265C82.1515 38.991 82.0456 39.6716 81.9246 40.4127ZM90.7119 9.04469C85.2671 15.1852 79.7921 21.3711 74.317 27.557C74.4229 27.557 74.5137 27.5721 74.6044 27.557C77.7805 27.1788 80.9567 26.7856 84.1328 26.4226C84.3596 26.3924 84.4655 26.3016 84.526 26.0899C84.7982 25.2127 85.0705 24.3355 85.3579 23.4582C86.9157 18.7697 88.6399 14.1416 90.5153 9.57405C90.5909 9.37743 90.6665 9.18081 90.7119 9.04469ZM53.5059 30.6575C53.521 30.7028 53.5361 30.7331 53.5512 30.7785C53.7025 30.7482 53.8689 30.7331 54.0201 30.7028C55.5779 30.4306 57.1206 30.1432 58.6784 29.9012C61.8999 29.387 65.1214 28.903 68.3429 28.4039C68.4941 28.3737 68.7059 28.2829 68.7513 28.1619C68.9328 27.6628 69.1142 27.1637 69.1899 26.6495C69.2957 26.0294 68.9933 25.6815 68.3732 25.621C67.9194 25.5757 67.4506 25.5605 67.0271 25.6362C65.6961 25.8933 64.3501 26.1504 63.0494 26.5134C60.2211 27.2998 57.4685 28.3434 54.8973 29.7802C54.4285 30.0525 53.9747 30.3701 53.5059 30.6575ZM51.6758 31.1112C51.3733 30.9448 51.1616 30.8238 50.965 30.718C49.5735 30.0222 48.167 29.3416 46.7755 28.6157C46.5033 28.4795 46.3672 28.5098 46.2008 28.7669C45.5504 29.7954 44.885 30.8238 44.2195 31.8372C44.0229 32.1396 43.796 32.4421 43.554 32.79C46.2764 32.2455 48.9232 31.6859 51.6758 31.1112ZM54.7007 12.2208C54.6856 12.2208 54.6704 12.2057 54.6553 12.2057C51.8422 15.9717 49.0139 19.7528 46.1403 23.5944C46.352 23.4431 46.4881 23.3524 46.6091 23.2616C47.5317 22.6415 48.4543 22.0214 49.3467 21.3862C49.6038 21.2047 49.8609 20.9627 50.0121 20.7056C51.1918 18.6336 52.3413 16.5615 53.4907 14.4744C53.9294 13.7333 54.3075 12.977 54.7007 12.2208ZM23.1361 33.3042C24.3007 33.9092 30.0479 31.6254 31.2881 30.8087C30.1538 30.0525 23.9679 31.943 23.1361 33.3042ZM46.0949 27.3603C47.0024 25.8479 47.8796 24.396 48.7417 22.944C48.7114 22.9138 48.6661 22.8835 48.6358 22.8533C47.8493 23.428 47.0477 23.9876 46.2764 24.5774C45.8227 24.9253 45.3992 25.2883 45.006 25.6967C44.6127 26.0899 44.643 26.3168 45.0665 26.6646C45.3689 26.8915 45.7017 27.1032 46.0949 27.3603ZM68.7513 30.2189C68.9025 30.0827 68.9933 29.992 69.1142 29.9164C69.4772 29.6592 69.8402 29.3568 70.2335 29.1601C70.6116 28.9635 70.8838 29.145 70.9897 29.5534C71.0048 29.6139 71.035 29.6744 71.0804 29.7954C71.3829 29.4626 71.6551 29.1601 71.9274 28.8577C71.3375 28.8425 70.8082 28.9182 70.2788 28.9938C69.2352 29.145 69.2352 29.145 68.7664 30.0979C68.7513 30.0979 68.7513 30.113 68.7513 30.2189Z" stroke="#73737D" stroke-width="0.271968" mask="url(#path-1-outside-1)"/>
<path d="M26.9677 9.78004L26.9679 9.77978C27.2308 9.40561 27.508 9.04399 27.7841 8.68368C27.9217 8.50414 28.059 8.32492 28.1942 8.14464L28.1949 8.14368C28.302 8.00598 28.4107 7.88148 28.536 7.7718M26.9677 9.78004L18.4178 42.9262C18.5992 42.6539 18.4934 42.4119 18.2211 42.2607L18.2551 42.2018C18.255 42.2017 18.2548 42.2016 18.2547 42.2015C17.8842 41.9876 17.697 41.6313 17.6535 41.225L17.6533 41.2234C17.6082 40.8774 17.5785 40.5188 17.5934 40.1765L17.5934 40.175C17.6386 38.0502 18.0756 35.9842 18.5596 33.9276L18.5596 33.9274C19.7984 28.5796 21.7776 23.4875 24.1657 18.5602C25.2384 16.3492 26.3742 14.1782 27.5109 12.0057C27.9443 11.1772 28.3779 10.3486 28.8081 9.51739L28.8085 9.51654C28.8633 9.4071 28.9212 9.29861 28.9792 9.18988C29.1256 8.91563 29.2729 8.63979 29.3718 8.34305L29.3719 8.34306L29.3724 8.34109C29.3998 8.24983 29.3938 8.13098 29.37 8.02159C29.3459 7.91148 29.3012 7.79887 29.24 7.72021L29.24 7.72017L29.2382 7.71803C29.1375 7.59895 29.0062 7.56658 28.8778 7.58911C28.7535 7.61091 28.6327 7.6833 28.536 7.7718M26.9677 9.78004C25.1842 12.3438 23.412 14.9135 21.6408 17.4818C20.5281 19.0951 19.4158 20.7079 18.3013 22.3183C18.1431 22.5453 17.9895 22.7733 17.8406 22.9942C17.6836 23.227 17.532 23.452 17.386 23.6595C17.3677 23.6158 17.3507 23.5706 17.3333 23.5242C17.3182 23.4841 17.3028 23.4431 17.2859 23.4015C17.2365 23.2799 17.1744 23.1551 17.0684 23.0749C16.9943 23.0143 16.9157 22.9833 16.835 22.9765C16.7548 22.9696 16.6769 22.9869 16.604 23.0161C16.4608 23.0733 16.3245 23.1823 16.2129 23.2715C15.8797 23.529 15.5447 23.803 15.2395 24.1082C10.7611 28.3899 6.52478 32.8986 2.53054 37.6342L2.58251 37.678L2.53089 37.6338C2.48655 37.6855 2.43834 37.7374 2.389 37.7905L2.38854 37.791C2.38439 37.7955 2.38023 37.8 2.37607 37.8045C3.29694 35.9929 4.21405 34.1813 5.13113 32.3698C6.04995 30.5549 6.96873 28.74 7.89129 26.9251L7.89139 26.9249C8.33722 26.0408 8.79821 25.1679 9.25956 24.2944L9.25966 24.2942C9.7208 23.4211 10.1823 22.5473 10.6287 21.662C10.8301 21.2746 10.9377 20.8426 10.9837 20.4132L10.9837 20.4127C11.0159 20.0907 10.9072 19.8215 10.7041 19.654C10.5015 19.4869 10.2137 19.4282 9.90138 19.5081M26.9677 9.78004L9.96282 20.6629M28.536 7.7718C28.5358 7.77198 28.5356 7.77215 28.5354 7.77233L28.5813 7.82245L28.5366 7.77128C28.5364 7.77145 28.5362 7.77163 28.536 7.7718ZM25.6826 13.2458C25.413 13.6289 25.1457 14.0116 24.8868 14.3943L24.8865 14.3947C23.1477 16.9197 21.409 19.4485 19.6702 21.9773L19.6686 21.9796L19.6663 21.9829C17.9278 24.5113 16.1893 27.0398 14.4507 29.5644C14.0602 30.1335 13.6363 30.6705 13.2114 31.2087C13.0587 31.4021 12.9059 31.5956 12.7545 31.7909L12.7538 31.7917C12.691 31.8703 12.6283 31.933 12.5683 31.993C12.4747 32.0942 12.3706 32.1796 12.2501 32.2169C12.1253 32.2554 11.9922 32.2396 11.8495 32.1557L11.8454 32.1533L11.8455 32.1531C11.7106 32.0604 11.6381 31.9422 11.62 31.8115C11.6024 31.6833 11.6382 31.5515 11.7029 31.4301C12.0211 30.824 12.3545 30.233 12.7031 29.6571L12.7032 29.6569C12.8125 29.4778 12.9219 29.2987 13.0314 29.1195C13.7837 27.8887 14.538 26.6545 15.2463 25.3833C15.2449 25.3845 15.2435 25.3857 15.242 25.3869C10.3587 30.225 5.65771 35.2284 1.36521 40.6092L1.36515 40.6092C1.24244 40.7626 1.10462 40.9157 0.951778 41.0686C0.864435 41.1559 0.760024 41.2329 0.642097 41.2656C0.521119 41.2992 0.391362 41.2847 0.261831 41.1986C0.127572 41.1144 0.0476419 41.0017 0.0187471 40.8728C-0.00981122 40.7454 0.0130528 40.6095 0.0699279 40.4793C0.372774 39.7677 0.690699 39.0713 1.02366 38.375C1.02373 38.3749 1.02379 38.3748 1.02386 38.3746L1.08519 38.404L25.6826 13.2458ZM25.6826 13.2458C25.612 13.4123 25.5318 13.5729 25.4505 13.7355C25.4504 13.7357 25.4504 13.7358 25.4503 13.7359L25.5111 13.7663C23.7113 17.2601 22.0325 20.8143 20.5957 24.4744C18.9774 28.6034 17.6918 32.808 16.9809 37.1789C16.7692 38.5098 16.5877 39.8257 16.7238 41.1717C16.7994 41.9128 17.0868 42.5329 17.722 42.9564L25.6826 13.2458ZM9.96282 20.6629L9.9629 20.6629C9.97285 20.643 9.97925 20.6181 9.9846 20.5752C9.98734 20.5533 9.98954 20.5296 9.99199 20.5019C9.94175 20.5172 9.8945 20.5307 9.84994 20.5435C9.82786 20.5498 9.80644 20.5559 9.78564 20.562C9.6958 20.5882 9.61656 20.6135 9.53811 20.6491C7.04856 21.826 4.78524 23.3198 2.71784 25.1156L2.7177 25.1157C2.21067 25.5536 1.74852 26.0614 1.28667 26.5689C1.14576 26.7238 1.00487 26.8786 0.862737 27.0314C0.767706 27.1343 0.662292 27.2129 0.545862 27.242C0.42589 27.272 0.303778 27.2471 0.184081 27.1617M9.96282 20.6629L9.96146 20.666M9.96282 20.6629L9.96146 20.666M0.184081 27.1617C0.183915 27.1616 0.183749 27.1615 0.183584 27.1614L0.223103 27.1061M0.184081 27.1617C0.184248 27.1618 0.184416 27.162 0.184584 27.1621L0.223103 27.1061M0.184081 27.1617C0.0499929 27.0694 -0.027464 26.947 -0.0411572 26.8123C-0.05478 26.6784 -0.00419043 26.5433 0.0958576 26.4266L0.0959588 26.4265C0.145314 26.3691 0.194711 26.3116 0.244201 26.254C0.663767 25.7653 1.08995 25.2689 1.55282 24.8333L1.55316 24.8329C3.67594 22.8618 6.05573 21.3007 8.61573 19.9828C9.0151 19.7678 9.45912 19.6149 9.90138 19.5081M0.223103 27.1061C-0.0188873 26.9397 -0.0340117 26.6826 0.147481 26.4708M0.223103 27.1061C0.434845 27.2573 0.631462 27.1817 0.812955 26.9851C0.953902 26.8335 1.09403 26.6796 1.23448 26.5252C1.69688 26.0171 2.16282 25.5051 2.67326 25.0643L0.147481 26.4708M9.90138 19.5081C9.90155 19.5081 9.90172 19.5081 9.90189 19.508L9.91784 19.5741M9.90138 19.5081C9.90124 19.5082 9.9011 19.5082 9.90096 19.5082L9.91784 19.5741M9.91784 19.5741C9.47924 19.68 9.04063 19.8312 8.64739 20.043L10.9161 20.4059C10.9766 19.801 10.5077 19.4229 9.91784 19.5741ZM0.147481 26.4708C0.196868 26.4135 0.246254 26.356 0.295693 26.2984C0.715614 25.8093 1.13936 25.3158 1.59942 24.8828L0.147481 26.4708ZM9.96146 20.666C9.87726 20.8577 9.79784 21.0484 9.71908 21.2374C9.54099 21.6648 9.36623 22.0842 9.14718 22.491L9.96146 20.666Z" fill="#73737D" stroke="#73737D" stroke-width="0.135984"/>
</svg>
