<svg width="195" height="53" viewBox="0 0 195 53" fill="none" xmlns="http://www.w3.org/2000/svg">
<path d="M33.1835 21.3816C33.2972 21.3604 33.3825 21.3392 33.4749 21.318C35.3018 20.8376 37.143 20.4207 39.0055 20.0815C42.0551 19.5304 45.1331 19.382 48.2254 19.5516C49.6045 19.6222 50.9409 19.8766 52.256 20.2652C54.3744 20.887 56.251 21.9186 57.7581 23.5579C57.9571 23.777 58.1348 23.8052 58.4121 23.7346C63.5872 22.3285 68.812 21.099 74.0796 20.0886C75.8354 19.7494 77.5912 19.4173 79.3755 19.2407C80.3849 19.1417 81.3944 19.1205 82.4038 19.2972C82.546 19.3184 82.681 19.3608 82.8161 19.4032C82.9511 19.4456 83.0222 19.5374 82.9938 19.6858C82.9725 19.8271 82.8516 19.8271 82.745 19.8342C82.2829 19.8483 81.8209 19.8625 81.3588 19.8695C80.1361 19.8837 78.949 20.138 77.7689 20.4277C71.6768 21.8974 65.606 23.4873 59.5779 25.1972C59.4784 25.2255 59.3717 25.2608 59.2722 25.2961C59.0376 25.3739 59.0234 25.388 59.0945 25.6212C59.2154 26.0239 59.3504 26.4196 59.4642 26.8153C59.9262 28.4193 59.976 30.0515 59.7272 31.6978C59.3575 34.1426 58.4476 36.3896 57.1539 38.4882C55.4193 41.2863 53.2867 43.7169 50.5144 45.5329C49.1637 46.4232 47.7207 47.1722 46.1354 47.6032C45.2753 47.8364 44.4009 47.9847 43.5052 47.9989C42.8228 48.013 42.1475 47.8929 41.4864 47.7445C39.24 47.2499 37.47 46.0416 36.162 44.1621C34.9038 42.3532 34.1147 40.3465 33.6598 38.2055C33.3683 36.8418 33.155 35.464 32.9062 34.0932C32.8849 33.966 32.8494 33.8317 32.8138 33.6834C32.3233 33.8388 31.8613 33.9872 31.4063 34.1356C27.2051 35.4993 23.0039 36.8842 18.7956 38.2267C15.5114 39.2725 12.1987 40.2334 8.85056 41.0602C7.47859 41.3993 6.0924 41.7032 4.69199 41.8727C3.48352 42.0211 2.27505 42.0635 1.07369 41.7597C0.504997 41.6184 0.220651 41.1944 0.0358257 40.7139C-0.0423694 40.5231 0.0216084 40.2405 0.092695 40.0285C0.192216 39.7459 0.334389 39.4633 0.512105 39.216C1.14478 38.3469 1.94094 37.6261 2.75133 36.9337C4.23704 35.6689 5.86492 34.609 7.49991 33.5562C11.0187 31.3022 14.7223 29.3732 18.4615 27.5078C21.1059 26.1864 23.7645 24.8863 26.4942 23.7487C28.2998 22.9997 30.141 22.3567 32.0034 21.7632C32.1527 21.7137 32.2025 21.6501 32.2025 21.4947C32.2309 18.845 32.238 16.1953 32.3091 13.5456C32.3589 11.7014 32.4797 9.86422 32.5863 8.02709C32.6361 7.14385 32.7996 6.27474 33.0413 5.42684C33.0626 5.34911 33.0911 5.27139 33.1195 5.19366C33.155 5.08061 33.2119 4.98169 33.3541 5.00288C33.4963 5.02408 33.61 5.08061 33.6384 5.22899C33.6598 5.34911 33.6882 5.4763 33.6882 5.59642C33.674 6.77642 33.674 7.94936 33.6313 9.12937C33.5531 11.2633 33.4536 13.3972 33.3683 15.5381C33.2972 17.4177 33.2332 19.3043 33.1693 21.1838C33.1693 21.2474 33.1764 21.3039 33.1835 21.3816ZM58.9097 29.8748C58.8813 29.4438 58.867 29.0057 58.8244 28.5747C58.732 27.6067 58.4832 26.6811 58.0353 25.8049C57.9713 25.6777 57.9074 25.6565 57.7794 25.6989C55.6539 26.349 53.5142 26.9778 51.3887 27.6279C45.6165 29.4014 39.8798 31.3022 34.1574 33.2382C33.7379 33.3795 33.7379 33.3866 33.7877 33.8247C33.9441 35.2873 34.2355 36.7288 34.591 38.1561C35.053 39.972 35.7284 41.6961 36.7876 43.2577C38.1169 45.2149 39.9438 46.4232 42.3181 46.7553C43.5337 46.9249 44.735 46.8895 45.9222 46.5433C47.7918 45.9992 49.4978 45.1301 51.0404 43.9572C54.0331 41.682 56.2084 38.7637 57.687 35.3368C58.4334 33.5915 58.8955 31.7826 58.9097 29.8748ZM2.69446 40.4737C2.69446 40.4878 2.70157 40.4949 2.70157 40.509C3.52617 40.4101 4.365 40.3465 5.18249 40.2052C7.35063 39.8236 9.47612 39.2372 11.5874 38.6224C18.625 36.5733 25.5559 34.2133 32.501 31.8886C32.6148 31.8533 32.6432 31.8038 32.629 31.6837C32.5508 30.6945 32.4655 29.7123 32.4157 28.7231C32.3304 26.9001 32.2665 25.0771 32.1954 23.2541C32.174 22.6535 32.1385 22.7595 31.6978 22.9149C30.1268 23.4731 28.5486 24.0172 26.9989 24.6461C23.4162 26.1087 19.9614 27.8328 16.5279 29.6063C13.2224 31.3163 9.98794 33.1534 6.92411 35.2732C5.53792 36.2341 4.18728 37.2375 2.95037 38.3822C2.44566 38.8556 1.9836 39.3714 1.59262 39.9437C1.37225 40.2617 1.4149 40.3606 1.79166 40.403C2.10444 40.4454 2.40301 40.4596 2.69446 40.4737ZM56.8695 24.1232C56.8126 24.0384 56.7842 23.9678 56.7344 23.9183C56.5923 23.7699 56.443 23.6215 56.2866 23.4873C54.2251 21.7491 51.7726 20.9294 49.1353 20.6468C47.8415 20.5125 46.5335 20.5196 45.2326 20.5055C44.4223 20.4984 43.6119 20.5267 42.8015 20.5973C39.6523 20.887 36.553 21.4876 33.5176 22.3709C33.1124 22.491 33.1337 22.4062 33.155 22.8725C33.2474 25.4516 33.3541 28.0236 33.4536 30.6026C33.4678 30.8782 33.5105 31.1608 33.5389 31.4576C33.6526 31.4293 33.7308 31.4081 33.809 31.3869C34.9891 31.0125 36.1691 30.638 37.342 30.2493C41.92 28.7302 46.498 27.211 51.1186 25.8332C52.8887 25.3103 54.6587 24.7945 56.4359 24.2716C56.5709 24.2363 56.706 24.1797 56.8695 24.1232Z" fill="#73737D"/>
</svg>
