<svg width="1140" height="724" viewBox="0 0 1140 724" fill="none" xmlns="http://www.w3.org/2000/svg">
<rect width="1140" height="724" rx="5" fill="#1D2128"/>
<path d="M0 5C0 2.23857 2.23858 0 5 0H1135C1137.76 0 1140 2.23858 1140 5V95H0V5Z" fill="#16181C"/>
<path d="M506.374 53.192C506.374 54.56 505.99 54.896 504.718 54.896V56H511.774V54.896C510.526 54.896 510.142 54.56 510.142 53.192V42.2C510.142 40.832 510.526 40.496 511.774 40.472V39.32H504.718V40.472C505.99 40.496 506.374 40.832 506.374 42.2V46.544H500.662V42.2C500.662 40.832 501.046 40.496 502.318 40.472V39.32H495.262V40.472C496.51 40.496 496.894 40.832 496.894 42.2V53.192C496.894 54.56 496.51 54.896 495.262 54.896V56H502.318V54.896C501.046 54.896 500.662 54.56 500.662 53.192V48.344H506.374V53.192ZM525.27 49.712C525.27 45.512 522.774 43.472 519.294 43.472C515.478 43.472 513.078 46.04 513.078 49.928C513.078 53.96 515.334 56.312 519.102 56.312C522.438 56.312 525.27 54.272 525.27 49.712ZM521.358 49.616C521.358 53.312 520.638 54.824 519.222 54.824C517.494 54.824 516.99 53.336 516.99 49.976C516.99 46.184 517.662 45.008 519.174 45.008C520.614 45.008 521.358 46.136 521.358 49.616ZM534.858 50.408C535.122 49.448 535.338 48.272 535.386 47.888H535.506C535.53 48.104 535.698 49.424 536.034 50.408L537.954 56.12H540.906L543.594 46.448C543.93 45.272 544.266 45.008 545.274 44.888V43.784H540.306V44.888C541.242 44.912 541.65 45.128 541.65 45.728C541.65 45.944 541.626 46.112 541.578 46.28L540.522 50.864C540.378 51.488 540.21 52.52 540.162 52.784H540.042C539.994 52.496 539.874 51.56 539.61 50.744L537.378 43.784H534.786L532.986 50.744C532.746 51.632 532.65 52.592 532.626 52.784H532.482C532.458 52.544 532.314 51.584 532.098 50.744L530.922 46.304C530.874 46.088 530.85 45.92 530.85 45.752C530.85 45.2 531.282 44.912 532.17 44.888V43.784H525.786V44.888C526.65 45.008 526.938 45.224 527.346 46.544L530.25 56.12H533.25L534.858 50.408ZM558.955 43.784H556.051C556.051 42.56 556.147 41.12 556.267 40.256L553.771 40.568C553.171 41.48 552.811 42.656 552.667 43.736L551.059 44.384V45.608H552.499V52.856C552.499 55.496 553.723 56.312 555.907 56.312C557.227 56.312 558.259 56.024 559.171 55.448L558.811 54.2C558.259 54.416 557.875 54.488 557.443 54.488C556.243 54.488 556.075 53.84 556.075 52.064V45.608H558.571L558.955 43.784ZM572.098 49.712C572.098 45.512 569.602 43.472 566.122 43.472C562.306 43.472 559.906 46.04 559.906 49.928C559.906 53.96 562.162 56.312 565.93 56.312C569.266 56.312 572.098 54.272 572.098 49.712ZM568.186 49.616C568.186 53.312 567.466 54.824 566.05 54.824C564.322 54.824 563.818 53.336 563.818 49.976C563.818 46.184 564.49 45.008 566.002 45.008C567.442 45.008 568.186 46.136 568.186 49.616ZM585.46 56V54.92C584.212 54.896 583.996 54.608 583.996 53.24V43.592H583.468L578.98 44.432V45.488C580.18 45.536 580.42 45.776 580.42 47.528V53.24C580.42 54.608 580.156 54.896 578.956 54.92V56H585.46ZM584.188 40.4C584.188 39.248 583.276 38.312 582.1 38.312C580.9 38.312 579.94 39.248 579.94 40.4C579.94 41.576 580.9 42.512 582.052 42.512C583.252 42.512 584.188 41.576 584.188 40.4ZM599.126 47.12C599.126 44.648 597.614 43.496 595.646 43.496C593.774 43.496 592.502 44.456 591.47 45.632C591.398 44.672 590.942 43.736 590.774 43.472H590.414L586.55 44.432V45.488C587.75 45.536 587.99 45.776 587.99 47.528V53.24C587.99 54.608 587.726 54.896 586.526 54.92V56H593.03V54.92C591.782 54.896 591.566 54.584 591.566 53.288V46.928C592.19 46.448 592.91 46.016 593.966 46.016C594.974 46.016 595.55 46.52 595.55 47.96V53.288C595.55 54.584 595.334 54.896 594.11 54.92V56H600.542V54.92C599.39 54.896 599.126 54.608 599.126 53.24V47.12ZM608.333 56.12L611.861 46.376C612.293 45.224 612.581 45.008 613.541 44.888V43.784H608.525V44.888C609.509 44.912 609.941 45.152 609.941 45.728C609.941 45.872 609.893 46.064 609.821 46.304L608.285 51.032C608.045 51.824 607.829 52.688 607.805 52.88H607.661C607.613 52.52 607.469 51.824 607.205 51.032L605.573 46.304C605.477 46.064 605.429 45.872 605.429 45.704C605.429 45.2 605.789 44.912 606.797 44.888V43.784H600.293V44.888C601.133 45.008 601.373 45.224 601.829 46.376L605.573 56.12H608.333ZM620.918 54.224C618.614 54.224 617.702 53.12 617.606 50.408H624.902V49.376C624.902 45.704 623.366 43.472 619.598 43.472C616.118 43.472 613.766 45.8 613.766 49.856C613.766 53.936 615.95 56.288 619.67 56.288C621.806 56.288 623.39 55.64 624.686 54.368L624.11 53.384C623.078 53.936 621.926 54.224 620.918 54.224ZM619.622 44.96C620.87 44.96 621.35 45.872 621.35 48.776H617.63C617.798 45.848 618.398 44.96 619.622 44.96ZM630.861 56.312C634.221 56.312 636.141 54.824 636.141 52.232C636.141 50.048 634.797 48.776 632.421 48.248L630.669 47.84C629.685 47.624 629.253 47.24 629.253 46.448C629.253 45.512 629.877 45.032 630.981 45.032C632.205 45.032 633.021 45.512 633.213 46.88H635.421V44.336C634.773 44.048 633.429 43.472 631.269 43.472C628.629 43.472 626.445 44.816 626.445 47.528C626.445 49.616 627.621 50.84 629.613 51.272L631.461 51.656C632.589 51.896 633.141 52.328 633.141 53.312C633.141 54.368 632.325 54.824 631.149 54.824C629.829 54.824 628.941 54.368 628.773 52.688H626.397V55.28C627.069 55.64 628.317 56.312 630.861 56.312ZM645.088 43.784H642.184C642.184 42.56 642.28 41.12 642.4 40.256L639.904 40.568C639.304 41.48 638.944 42.656 638.8 43.736L637.192 44.384V45.608H638.632V52.856C638.632 55.496 639.856 56.312 642.04 56.312C643.36 56.312 644.392 56.024 645.304 55.448L644.944 54.2C644.392 54.416 644.008 54.488 643.576 54.488C642.376 54.488 642.208 53.84 642.208 52.064V45.608H644.704L645.088 43.784Z" fill="#FAFAFA"/>
<rect y="95" width="1140" height="35" fill="#111216"/>
<path d="M535.382 111.386L538.01 119H539.774L544.22 106.994H541.736L538.856 115.166L536.084 106.886H534.788L531.854 115.166L529.172 106.994H526.688L530.864 119H532.628L535.382 111.386ZM548.973 110.954C547.497 110.954 546.489 111.44 545.823 112.052C545.049 112.754 544.509 113.834 544.509 115.112C544.509 116.372 545.049 117.452 545.823 118.154C546.489 118.766 547.497 119.252 548.973 119.252C550.449 119.252 551.457 118.766 552.123 118.154C552.897 117.452 553.437 116.372 553.437 115.112C553.437 113.834 552.897 112.754 552.123 112.052C551.457 111.44 550.449 110.954 548.973 110.954ZM548.973 117.308C547.695 117.308 546.777 116.3 546.777 115.112C546.777 113.888 547.713 112.898 548.973 112.898C550.233 112.898 551.169 113.888 551.169 115.112C551.169 116.3 550.251 117.308 548.973 117.308ZM555.136 119H557.332V115.256C557.332 114.716 557.35 114.05 557.764 113.528C558.196 112.988 558.808 112.898 559.222 112.898C559.672 112.898 559.96 112.988 560.248 113.186L560.536 111.134C560.284 111.044 559.978 110.954 559.6 110.954C559.078 110.954 558.646 111.08 558.304 111.296C558.142 111.386 557.674 111.71 557.332 112.376V111.206H555.136V119ZM561.622 105.878V119H563.818V105.878H561.622ZM571.887 112.214C571.149 111.062 569.979 110.954 569.385 110.954C567.081 110.954 565.515 112.79 565.515 115.094C565.515 117.38 567.099 119.252 569.493 119.252C570.051 119.252 571.095 119.126 571.887 117.992V119H574.083V105.878H571.887V112.214ZM569.943 112.898C571.203 112.898 572.103 113.852 572.103 115.094C572.103 116.336 571.203 117.308 569.943 117.308C568.683 117.308 567.783 116.336 567.783 115.094C567.783 113.852 568.683 112.898 569.943 112.898ZM582.261 114.41L584.313 119H585.393L589.353 111.206H586.905L584.853 115.706L582.765 111.206H581.757L579.669 115.706L577.617 111.206H575.169L579.129 119H580.209L582.261 114.41ZM590.433 111.206V119H592.629V111.206H590.433ZM590.217 107.912C590.217 108.632 590.811 109.226 591.531 109.226C592.251 109.226 592.845 108.632 592.845 107.912C592.845 107.192 592.251 106.598 591.531 106.598C590.811 106.598 590.217 107.192 590.217 107.912ZM600.698 112.214C599.96 111.062 598.79 110.954 598.196 110.954C595.892 110.954 594.326 112.79 594.326 115.094C594.326 117.38 595.91 119.252 598.304 119.252C598.862 119.252 599.906 119.126 600.698 117.992V119H602.894V105.878H600.698V112.214ZM598.754 112.898C600.014 112.898 600.914 113.852 600.914 115.094C600.914 116.336 600.014 117.308 598.754 117.308C597.494 117.308 596.594 116.336 596.594 115.094C596.594 113.852 597.494 112.898 598.754 112.898ZM610.621 116.498C610.261 117.128 609.631 117.524 608.803 117.524C607.957 117.524 607.471 117.11 607.237 116.786C606.985 116.444 606.859 115.94 606.859 115.472H612.691V115.292C612.691 114.446 612.583 113.222 611.755 112.232C611.215 111.584 610.297 110.954 608.713 110.954C607.777 110.954 606.697 111.152 605.779 112.052C605.221 112.61 604.591 113.564 604.591 115.112C604.591 116.336 604.951 117.344 605.815 118.154C606.589 118.892 607.543 119.252 608.803 119.252C611.521 119.252 612.403 117.398 612.637 116.822L610.621 116.498ZM606.931 114.068C607.111 113.024 607.957 112.502 608.767 112.502C609.577 112.502 610.441 113.006 610.621 114.068H606.931Z" fill="#73737D"/>
<path d="M84.852 661.691C86.16 661.583 87.12 660.779 87.12 659.195C87.12 657.683 86.208 656.723 84.456 656.723L79.632 656.723L79.632 657.971L84.456 657.971C85.5 657.971 85.98 658.379 85.98 659.219C85.98 659.927 85.56 660.311 84.852 660.395L84.852 661.691ZM87.12 652.399C87.12 650.635 86.088 649.447 84.072 649.447L79.632 649.447L79.632 650.695L83.928 650.695C85.344 650.695 86.004 651.295 86.004 652.399C86.004 653.503 85.344 654.103 83.928 654.103L79.632 654.103L79.632 655.351L84.06 655.351C86.088 655.351 87.12 654.151 87.12 652.399ZM79.632 642.002L79.632 643.202L84.744 643.202L79.632 646.754L79.632 647.93L87 647.93L87 646.73L81.636 646.73L87 642.962L87 642.002L79.632 642.002ZM87.12 635.299C87.12 633.631 85.56 632.515 83.316 632.515C81.072 632.515 79.512 633.631 79.512 635.299C79.512 636.967 81.072 638.083 83.316 638.083C85.56 638.083 87.12 636.967 87.12 635.299ZM80.64 635.299C80.64 634.219 81.768 633.739 83.316 633.739C84.864 633.739 85.992 634.219 85.992 635.299C85.992 636.391 84.864 636.871 83.316 636.871C81.768 636.871 80.64 636.391 80.64 635.299ZM81.984 627.739C82.872 627.739 83.448 628.291 83.448 629.131C83.448 629.947 82.86 630.499 81.984 630.499C81.132 630.499 80.556 629.947 80.556 629.131C80.556 628.291 81.132 627.739 81.984 627.739ZM85.248 631.579C86.436 631.279 87.12 630.547 87.12 629.203C87.12 627.511 85.452 626.455 83.16 626.455C82.248 626.455 81.576 626.587 80.928 626.899C79.944 627.391 79.512 628.219 79.512 629.119C79.512 630.727 80.664 631.639 82.008 631.639C83.316 631.639 84.456 630.739 84.456 629.251C84.456 628.471 84.06 627.823 83.508 627.559L83.64 627.559C84.876 627.559 86.1 628.207 86.1 629.203C86.1 629.803 85.776 630.163 85.248 630.331L85.248 631.579Z" fill="#858E97"/>
<path d="M108.96 659.873C110.328 659.609 111.12 658.493 111.12 656.933C111.12 655.409 110.268 654.305 108.888 654.305C107.784 654.305 107.112 655.061 106.848 656.213L106.548 657.497C106.392 658.157 106.08 658.469 105.588 658.469C104.976 658.469 104.568 657.929 104.568 657.137C104.568 656.261 105 655.793 105.552 655.601L105.552 654.353C104.328 654.617 103.512 655.553 103.512 657.149C103.512 658.637 104.448 659.657 105.696 659.657C106.884 659.657 107.436 658.841 107.676 657.821L107.976 656.573C108.156 655.805 108.456 655.505 108.972 655.505C109.656 655.505 110.064 656.069 110.064 656.933C110.064 657.737 109.716 658.361 108.96 658.601L108.96 659.873ZM103.632 653.075L111 653.075L111 648.263L109.884 648.263L109.884 651.851L107.772 651.851L107.772 648.599L106.68 648.599L106.68 651.851L104.736 651.851L104.736 648.263L103.632 648.263L103.632 653.075ZM108.252 644.067C108.252 642.543 107.448 641.547 105.948 641.547C104.424 641.547 103.632 642.543 103.632 644.067L103.632 646.911L111 646.911L111 645.663L108.252 645.663L108.252 644.067ZM105.948 642.783C106.656 642.783 107.172 643.227 107.172 644.091L107.172 645.663L104.712 645.663L104.712 644.091C104.712 643.227 105.216 642.783 105.948 642.783ZM111.12 635.299C111.12 633.631 109.56 632.515 107.316 632.515C105.072 632.515 103.512 633.631 103.512 635.299C103.512 636.967 105.072 638.083 107.316 638.083C109.56 638.083 111.12 636.967 111.12 635.299ZM104.64 635.299C104.64 634.219 105.768 633.739 107.316 633.739C108.864 633.739 109.992 634.219 109.992 635.299C109.992 636.391 108.864 636.871 107.316 636.871C105.768 636.871 104.64 636.391 104.64 635.299ZM105.984 627.739C106.872 627.739 107.448 628.291 107.448 629.131C107.448 629.947 106.86 630.499 105.984 630.499C105.132 630.499 104.556 629.947 104.556 629.131C104.556 628.291 105.132 627.739 105.984 627.739ZM109.248 631.579C110.436 631.279 111.12 630.547 111.12 629.203C111.12 627.511 109.452 626.455 107.16 626.455C106.248 626.455 105.576 626.587 104.928 626.899C103.944 627.391 103.512 628.219 103.512 629.119C103.512 630.727 104.664 631.639 106.008 631.639C107.316 631.639 108.456 630.739 108.456 629.251C108.456 628.471 108.06 627.823 107.508 627.559L107.64 627.559C108.876 627.559 110.1 628.207 110.1 629.203C110.1 629.803 109.776 630.163 109.248 630.331L109.248 631.579Z" fill="#858E97"/>
<path d="M133.884 659.748L128.736 659.748L128.736 658.56C128.736 657.012 129.732 656.184 131.316 656.184C132.888 656.184 133.884 657.012 133.884 658.56L133.884 659.748ZM135 660.996L135 658.512C135 656.34 133.56 654.936 131.316 654.936C129.072 654.936 127.632 656.34 127.632 658.512L127.632 660.996L135 660.996ZM127.632 653.696L135 653.696L135 648.884L133.884 648.884L133.884 652.472L131.772 652.472L131.772 649.22L130.68 649.22L130.68 652.472L128.736 652.472L128.736 648.884L127.632 648.884L127.632 653.696ZM131.316 647.928C133.584 647.928 135.12 646.476 135.12 644.58C135.12 642.924 134.16 641.856 132.672 641.58L132.672 642.804C133.464 643.092 133.992 643.596 133.992 644.58C133.992 645.888 132.852 646.668 131.316 646.668C129.768 646.668 128.64 645.876 128.64 644.58C128.64 643.596 129.168 643.092 129.948 642.804L129.948 641.58C128.472 641.856 127.512 642.912 127.512 644.58C127.512 646.476 129.048 647.928 131.316 647.928ZM135.12 635.299C135.12 633.631 133.56 632.515 131.316 632.515C129.072 632.515 127.512 633.631 127.512 635.299C127.512 636.967 129.072 638.083 131.316 638.083C133.56 638.083 135.12 636.967 135.12 635.299ZM128.64 635.299C128.64 634.219 129.768 633.739 131.316 633.739C132.864 633.739 133.992 634.219 133.992 635.299C133.992 636.391 132.864 636.871 131.316 636.871C129.768 636.871 128.64 636.391 128.64 635.299ZM129.984 627.739C130.872 627.739 131.448 628.291 131.448 629.131C131.448 629.947 130.86 630.499 129.984 630.499C129.132 630.499 128.556 629.947 128.556 629.131C128.556 628.291 129.132 627.739 129.984 627.739ZM133.248 631.579C134.436 631.279 135.12 630.547 135.12 629.203C135.12 627.511 133.452 626.455 131.16 626.455C130.248 626.455 129.576 626.587 128.928 626.899C127.944 627.391 127.512 628.219 127.512 629.119C127.512 630.727 128.664 631.639 130.008 631.639C131.316 631.639 132.456 630.739 132.456 629.251C132.456 628.471 132.06 627.823 131.508 627.559L131.64 627.559C132.876 627.559 134.1 628.207 134.1 629.203C134.1 629.803 133.776 630.163 133.248 630.331L133.248 631.579Z" fill="#858E97"/>
<path d="M159 657.08L153.876 655.1L159 655.1L159 653.9L151.632 653.9L151.632 655.292L157.296 657.512L151.632 659.756L151.632 661.184L159 661.184L159 659.996L153.876 659.996L159 657.968L159 657.08ZM151.632 650.01L159 652.842L159 651.582L156.96 650.826L156.96 648.006L159 647.25L159 645.978L151.632 648.81L151.632 650.01ZM153.156 649.422L155.88 648.414L155.88 650.43L153.156 649.422ZM156.012 642.782L159 640.73L159 639.314L155.964 641.45C155.784 640.286 155.076 639.566 153.84 639.566C152.4 639.566 151.632 640.55 151.632 642.074L151.632 644.918L159 644.918L159 643.67L156.012 643.67L156.012 642.782ZM152.712 643.67L152.712 642.098C152.712 641.27 153.156 640.802 153.84 640.802C154.524 640.802 154.968 641.27 154.968 642.098L154.968 643.67L152.712 643.67ZM151.632 633.262L151.632 633.994L152.748 636.202L154.008 636.202L153.132 634.474L159 634.474L159 633.262L151.632 633.262ZM159.12 629.24C159.12 627.572 157.56 626.456 155.316 626.456C153.072 626.456 151.512 627.572 151.512 629.24C151.512 630.908 153.072 632.024 155.316 632.024C157.56 632.024 159.12 630.908 159.12 629.24ZM152.64 629.24C152.64 628.16 153.768 627.68 155.316 627.68C156.864 627.68 157.992 628.16 157.992 629.24C157.992 630.332 156.864 630.812 155.316 630.812C153.768 630.812 152.64 630.332 152.64 629.24Z" fill="#858E97"/>
<path d="M181.852 659.582C183.16 659.474 184.12 658.67 184.12 657.086C184.12 655.574 183.208 654.614 181.456 654.614L176.632 654.614L176.632 655.862L181.456 655.862C182.5 655.862 182.98 656.27 182.98 657.11C182.98 657.818 182.56 658.202 181.852 658.286L181.852 659.582ZM184.12 650.289C184.12 648.525 183.088 647.337 181.072 647.337L176.632 647.337L176.632 648.585L180.928 648.585C182.344 648.585 183.004 649.185 183.004 650.289C183.004 651.393 182.344 651.993 180.928 651.993L176.632 651.993L176.632 653.241L181.06 653.241C183.088 653.241 184.12 652.041 184.12 650.289ZM176.632 639.893L176.632 641.093L181.744 641.093L176.632 644.645L176.632 645.821L184 645.821L184 644.621L178.636 644.621L184 640.853L184 639.893L176.632 639.893ZM176.632 633.262L176.632 633.994L177.748 636.202L179.008 636.202L178.132 634.474L184 634.474L184 633.262L176.632 633.262ZM184.12 629.24C184.12 627.572 182.56 626.456 180.316 626.456C178.072 626.456 176.512 627.572 176.512 629.24C176.512 630.908 178.072 632.024 180.316 632.024C182.56 632.024 184.12 630.908 184.12 629.24ZM177.64 629.24C177.64 628.16 178.768 627.68 180.316 627.68C181.864 627.68 182.992 628.16 182.992 629.24C182.992 630.332 181.864 630.812 180.316 630.812C178.768 630.812 177.64 630.332 177.64 629.24Z" fill="#858E97"/>
<path d="M206.96 657.764C208.328 657.5 209.12 656.384 209.12 654.824C209.12 653.3 208.268 652.196 206.888 652.196C205.784 652.196 205.112 652.952 204.848 654.104L204.548 655.388C204.392 656.048 204.08 656.36 203.588 656.36C202.976 656.36 202.568 655.82 202.568 655.028C202.568 654.152 203 653.684 203.552 653.492L203.552 652.244C202.328 652.508 201.512 653.444 201.512 655.04C201.512 656.528 202.448 657.548 203.696 657.548C204.884 657.548 205.436 656.732 205.676 655.712L205.976 654.464C206.156 653.696 206.456 653.396 206.972 653.396C207.656 653.396 208.064 653.96 208.064 654.824C208.064 655.628 207.716 656.252 206.96 656.492L206.96 657.764ZM201.632 650.965L209 650.965L209 646.153L207.884 646.153L207.884 649.741L205.772 649.741L205.772 646.489L204.68 646.489L204.68 649.741L202.736 649.741L202.736 646.153L201.632 646.153L201.632 650.965ZM206.252 641.957C206.252 640.433 205.448 639.437 203.948 639.437C202.424 639.437 201.632 640.433 201.632 641.957L201.632 644.801L209 644.801L209 643.553L206.252 643.553L206.252 641.957ZM203.948 640.673C204.656 640.673 205.172 641.117 205.172 641.981L205.172 643.553L202.712 643.553L202.712 641.981C202.712 641.117 203.216 640.673 203.948 640.673ZM201.632 633.262L201.632 633.994L202.748 636.202L204.008 636.202L203.132 634.474L209 634.474L209 633.262L201.632 633.262ZM209.12 629.24C209.12 627.572 207.56 626.456 205.316 626.456C203.072 626.456 201.512 627.572 201.512 629.24C201.512 630.908 203.072 632.024 205.316 632.024C207.56 632.024 209.12 630.908 209.12 629.24ZM202.64 629.24C202.64 628.16 203.768 627.68 205.316 627.68C206.864 627.68 207.992 628.16 207.992 629.24C207.992 630.332 206.864 630.812 205.316 630.812C203.768 630.812 202.64 630.332 202.64 629.24Z" fill="#858E97"/>
<path d="M232.884 657.639L227.736 657.639L227.736 656.451C227.736 654.903 228.732 654.075 230.316 654.075C231.888 654.075 232.884 654.903 232.884 656.451L232.884 657.639ZM234 658.887L234 656.403C234 654.231 232.56 652.827 230.316 652.827C228.072 652.827 226.632 654.231 226.632 656.403L226.632 658.887L234 658.887ZM226.632 651.586L234 651.586L234 646.774L232.884 646.774L232.884 650.362L230.772 650.362L230.772 647.11L229.68 647.11L229.68 650.362L227.736 650.362L227.736 646.774L226.632 646.774L226.632 651.586ZM230.316 645.818C232.584 645.818 234.12 644.366 234.12 642.47C234.12 640.814 233.16 639.746 231.672 639.47L231.672 640.694C232.464 640.982 232.992 641.486 232.992 642.47C232.992 643.778 231.852 644.558 230.316 644.558C228.768 644.558 227.64 643.766 227.64 642.47C227.64 641.486 228.168 640.982 228.948 640.694L228.948 639.47C227.472 639.746 226.512 640.802 226.512 642.47C226.512 644.366 228.048 645.818 230.316 645.818ZM226.632 633.262L226.632 633.994L227.748 636.202L229.008 636.202L228.132 634.474L234 634.474L234 633.262L226.632 633.262ZM234.12 629.24C234.12 627.572 232.56 626.456 230.316 626.456C228.072 626.456 226.512 627.572 226.512 629.24C226.512 630.908 228.072 632.024 230.316 632.024C232.56 632.024 234.12 630.908 234.12 629.24ZM227.64 629.24C227.64 628.16 228.768 627.68 230.316 627.68C231.864 627.68 232.992 628.16 232.992 629.24C232.992 630.332 231.864 630.812 230.316 630.812C228.768 630.812 227.64 630.332 227.64 629.24Z" fill="#858E97"/>
<path d="M259 654.549L253.876 652.569L259 652.569L259 651.369L251.632 651.369L251.632 652.761L257.296 654.981L251.632 657.225L251.632 658.653L259 658.653L259 657.465L253.876 657.465L259 655.437L259 654.549ZM251.632 647.479L259 650.311L259 649.051L256.96 648.295L256.96 645.475L259 644.719L259 643.447L251.632 646.279L251.632 647.479ZM253.156 646.891L255.88 645.883L255.88 647.899L253.156 646.891ZM256.012 640.251L259 638.199L259 636.783L255.964 638.919C255.784 637.755 255.076 637.035 253.84 637.035C252.4 637.035 251.632 638.019 251.632 639.543L251.632 642.387L259 642.387L259 641.139L256.012 641.139L256.012 640.251ZM252.712 641.139L252.712 639.567C252.712 638.739 253.156 638.271 253.84 638.271C254.524 638.271 254.968 638.739 254.968 639.567L254.968 641.139L252.712 641.139ZM251.632 630.73L251.632 631.462L252.748 633.67L254.008 633.67L253.132 631.942L259 631.942L259 630.73L251.632 630.73ZM251.632 626.781L251.632 627.513L252.748 629.721L254.008 629.721L253.132 627.993L259 627.993L259 626.781L251.632 626.781Z" fill="#858E97"/>
<path d="M281.852 657.05C283.16 656.942 284.12 656.138 284.12 654.554C284.12 653.042 283.208 652.082 281.456 652.082L276.632 652.082L276.632 653.33L281.456 653.33C282.5 653.33 282.98 653.738 282.98 654.578C282.98 655.286 282.56 655.67 281.852 655.754L281.852 657.05ZM284.12 647.758C284.12 645.994 283.088 644.806 281.072 644.806L276.632 644.806L276.632 646.054L280.928 646.054C282.344 646.054 283.004 646.654 283.004 647.758C283.004 648.862 282.344 649.462 280.928 649.462L276.632 649.462L276.632 650.71L281.06 650.71C283.088 650.71 284.12 649.51 284.12 647.758ZM276.632 637.361L276.632 638.561L281.744 638.561L276.632 642.113L276.632 643.289L284 643.289L284 642.089L278.636 642.089L284 638.321L284 637.361L276.632 637.361ZM276.632 630.73L276.632 631.462L277.748 633.67L279.008 633.67L278.132 631.942L284 631.942L284 630.73L276.632 630.73ZM276.632 626.781L276.632 627.513L277.748 629.721L279.008 629.721L278.132 627.993L284 627.993L284 626.781L276.632 626.781Z" fill="#858E97"/>
<path d="M306.96 655.233C308.328 654.969 309.12 653.853 309.12 652.293C309.12 650.769 308.268 649.665 306.888 649.665C305.784 649.665 305.112 650.421 304.848 651.573L304.548 652.857C304.392 653.517 304.08 653.829 303.588 653.829C302.976 653.829 302.568 653.289 302.568 652.497C302.568 651.621 303 651.153 303.552 650.961L303.552 649.713C302.328 649.977 301.512 650.913 301.512 652.509C301.512 653.997 302.448 655.017 303.696 655.017C304.884 655.017 305.436 654.201 305.676 653.181L305.976 651.933C306.156 651.165 306.456 650.865 306.972 650.865C307.656 650.865 308.064 651.429 308.064 652.293C308.064 653.097 307.716 653.721 306.96 653.961L306.96 655.233ZM301.632 648.434L309 648.434L309 643.622L307.884 643.622L307.884 647.21L305.772 647.21L305.772 643.958L304.68 643.958L304.68 647.21L302.736 647.21L302.736 643.622L301.632 643.622L301.632 648.434ZM306.252 639.426C306.252 637.902 305.448 636.906 303.948 636.906C302.424 636.906 301.632 637.902 301.632 639.426L301.632 642.27L309 642.27L309 641.022L306.252 641.022L306.252 639.426ZM303.948 638.142C304.656 638.142 305.172 638.586 305.172 639.45L305.172 641.022L302.712 641.022L302.712 639.45C302.712 638.586 303.216 638.142 303.948 638.142ZM301.632 630.73L301.632 631.462L302.748 633.67L304.008 633.67L303.132 631.942L309 631.942L309 630.73L301.632 630.73ZM301.632 626.781L301.632 627.513L302.748 629.721L304.008 629.721L303.132 627.993L309 627.993L309 626.781L301.632 626.781Z" fill="#858E97"/>
<path d="M332.884 655.108L327.736 655.108L327.736 653.92C327.736 652.372 328.732 651.544 330.316 651.544C331.888 651.544 332.884 652.372 332.884 653.92L332.884 655.108ZM334 656.356L334 653.872C334 651.7 332.56 650.296 330.316 650.296C328.072 650.296 326.632 651.7 326.632 653.872L326.632 656.356L334 656.356ZM326.632 649.055L334 649.055L334 644.243L332.884 644.243L332.884 647.831L330.772 647.831L330.772 644.579L329.68 644.579L329.68 647.831L327.736 647.831L327.736 644.243L326.632 644.243L326.632 649.055ZM330.316 643.287C332.584 643.287 334.12 641.835 334.12 639.939C334.12 638.283 333.16 637.215 331.672 636.939L331.672 638.163C332.464 638.451 332.992 638.955 332.992 639.939C332.992 641.247 331.852 642.027 330.316 642.027C328.768 642.027 327.64 641.235 327.64 639.939C327.64 638.955 328.168 638.451 328.948 638.163L328.948 636.939C327.472 637.215 326.512 638.271 326.512 639.939C326.512 641.835 328.048 643.287 330.316 643.287ZM326.632 630.73L326.632 631.462L327.748 633.67L329.008 633.67L328.132 631.942L334 631.942L334 630.73L326.632 630.73ZM326.632 626.781L326.632 627.513L327.748 629.721L329.008 629.721L328.132 627.993L334 627.993L334 626.781L326.632 626.781Z" fill="#858E97"/>
<path d="M359 656.295L353.876 654.315L359 654.315L359 653.115L351.632 653.115L351.632 654.507L357.296 656.727L351.632 658.971L351.632 660.399L359 660.399L359 659.211L353.876 659.211L359 657.183L359 656.295ZM351.632 649.225L359 652.057L359 650.797L356.96 650.041L356.96 647.221L359 646.465L359 645.193L351.632 648.025L351.632 649.225ZM353.156 648.637L355.88 647.629L355.88 649.645L353.156 648.637ZM356.012 641.997L359 639.945L359 638.529L355.964 640.665C355.784 639.501 355.076 638.781 353.84 638.781C352.4 638.781 351.632 639.765 351.632 641.289L351.632 644.133L359 644.133L359 642.885L356.012 642.885L356.012 641.997ZM352.712 642.885L352.712 641.313C352.712 640.485 353.156 640.017 353.84 640.017C354.524 640.017 354.968 640.485 354.968 641.313L354.968 642.885L352.712 642.885ZM351.632 632.477L351.632 633.209L352.748 635.417L354.008 635.417L353.132 633.689L359 633.689L359 632.477L351.632 632.477ZM353.66 627.689C354.296 627.689 354.92 628.325 355.76 629.081L358.184 631.265L359 631.265L359 626.357L357.908 626.357L357.908 629.561L356.144 627.977C355.292 627.221 354.548 626.477 353.648 626.477C352.34 626.477 351.512 627.341 351.512 628.817C351.512 630.185 352.472 631.133 353.84 631.277L353.84 629.993C353.144 629.945 352.616 629.549 352.616 628.817C352.616 628.121 353.048 627.689 353.66 627.689Z" fill="#858E97"/>
<path d="M381.852 658.797C383.16 658.689 384.12 657.885 384.12 656.301C384.12 654.789 383.208 653.829 381.456 653.829L376.632 653.829L376.632 655.077L381.456 655.077C382.5 655.077 382.98 655.485 382.98 656.325C382.98 657.033 382.56 657.417 381.852 657.501L381.852 658.797ZM384.12 649.504C384.12 647.74 383.088 646.552 381.072 646.552L376.632 646.552L376.632 647.8L380.928 647.8C382.344 647.8 383.004 648.4 383.004 649.504C383.004 650.608 382.344 651.208 380.928 651.208L376.632 651.208L376.632 652.456L381.06 652.456C383.088 652.456 384.12 651.256 384.12 649.504ZM376.632 639.108L376.632 640.308L381.744 640.308L376.632 643.86L376.632 645.036L384 645.036L384 643.836L378.636 643.836L384 640.068L384 639.108L376.632 639.108ZM376.632 632.477L376.632 633.209L377.748 635.417L379.008 635.417L378.132 633.689L384 633.689L384 632.477L376.632 632.477ZM378.66 627.689C379.296 627.689 379.92 628.325 380.76 629.081L383.184 631.265L384 631.265L384 626.357L382.908 626.357L382.908 629.561L381.144 627.977C380.292 627.221 379.548 626.477 378.648 626.477C377.34 626.477 376.512 627.341 376.512 628.817C376.512 630.185 377.472 631.133 378.84 631.277L378.84 629.993C378.144 629.945 377.616 629.549 377.616 628.817C377.616 628.121 378.048 627.689 378.66 627.689Z" fill="#858E97"/>
<path d="M406.96 656.979C408.328 656.715 409.12 655.599 409.12 654.039C409.12 652.515 408.268 651.411 406.888 651.411C405.784 651.411 405.112 652.167 404.848 653.319L404.548 654.603C404.392 655.263 404.08 655.575 403.588 655.575C402.976 655.575 402.568 655.035 402.568 654.243C402.568 653.367 403 652.899 403.552 652.707L403.552 651.459C402.328 651.723 401.512 652.659 401.512 654.255C401.512 655.743 402.448 656.763 403.696 656.763C404.884 656.763 405.436 655.947 405.676 654.927L405.976 653.679C406.156 652.911 406.456 652.611 406.972 652.611C407.656 652.611 408.064 653.175 408.064 654.039C408.064 654.843 407.716 655.467 406.96 655.707L406.96 656.979ZM401.632 650.18L409 650.18L409 645.368L407.884 645.368L407.884 648.956L405.772 648.956L405.772 645.704L404.68 645.704L404.68 648.956L402.736 648.956L402.736 645.368L401.632 645.368L401.632 650.18ZM406.252 641.172C406.252 639.648 405.448 638.652 403.948 638.652C402.424 638.652 401.632 639.648 401.632 641.172L401.632 644.016L409 644.016L409 642.768L406.252 642.768L406.252 641.172ZM403.948 639.888C404.656 639.888 405.172 640.332 405.172 641.196L405.172 642.768L402.712 642.768L402.712 641.196C402.712 640.332 403.216 639.888 403.948 639.888ZM401.632 632.477L401.632 633.209L402.748 635.417L404.008 635.417L403.132 633.689L409 633.689L409 632.477L401.632 632.477ZM403.66 627.689C404.296 627.689 404.92 628.325 405.76 629.081L408.184 631.265L409 631.265L409 626.357L407.908 626.357L407.908 629.561L406.144 627.977C405.292 627.221 404.548 626.477 403.648 626.477C402.34 626.477 401.512 627.341 401.512 628.817C401.512 630.185 402.472 631.133 403.84 631.277L403.84 629.993C403.144 629.945 402.616 629.549 402.616 628.817C402.616 628.121 403.048 627.689 403.66 627.689Z" fill="#858E97"/>
<path d="M432.884 656.854L427.736 656.854L427.736 655.666C427.736 654.118 428.732 653.29 430.316 653.29C431.888 653.29 432.884 654.118 432.884 655.666L432.884 656.854ZM434 658.102L434 655.618C434 653.446 432.56 652.042 430.316 652.042C428.072 652.042 426.632 653.446 426.632 655.618L426.632 658.102L434 658.102ZM426.632 650.801L434 650.801L434 645.989L432.884 645.989L432.884 649.577L430.772 649.577L430.772 646.325L429.68 646.325L429.68 649.577L427.736 649.577L427.736 645.989L426.632 645.989L426.632 650.801ZM430.316 645.033C432.584 645.033 434.12 643.581 434.12 641.685C434.12 640.029 433.16 638.961 431.672 638.685L431.672 639.909C432.464 640.197 432.992 640.701 432.992 641.685C432.992 642.993 431.852 643.773 430.316 643.773C428.768 643.773 427.64 642.981 427.64 641.685C427.64 640.701 428.168 640.197 428.948 639.909L428.948 638.685C427.472 638.961 426.512 640.017 426.512 641.685C426.512 643.581 428.048 645.033 430.316 645.033ZM426.632 632.477L426.632 633.209L427.748 635.417L429.008 635.417L428.132 633.689L434 633.689L434 632.477L426.632 632.477ZM428.66 627.689C429.296 627.689 429.92 628.325 430.76 629.081L433.184 631.265L434 631.265L434 626.357L432.908 626.357L432.908 629.561L431.144 627.977C430.292 627.221 429.548 626.477 428.648 626.477C427.34 626.477 426.512 627.341 426.512 628.817C426.512 630.185 427.472 631.133 428.84 631.277L428.84 629.993C428.144 629.945 427.616 629.549 427.616 628.817C427.616 628.121 428.048 627.689 428.66 627.689Z" fill="#858E97"/>
<path d="M459 656.236L453.876 654.256L459 654.256L459 653.056L451.632 653.056L451.632 654.448L457.296 656.668L451.632 658.912L451.632 660.34L459 660.34L459 659.152L453.876 659.152L459 657.124L459 656.236ZM451.632 649.166L459 651.998L459 650.738L456.96 649.982L456.96 647.162L459 646.406L459 645.134L451.632 647.966L451.632 649.166ZM453.156 648.578L455.88 647.57L455.88 649.586L453.156 648.578ZM456.012 641.939L459 639.887L459 638.471L455.964 640.607C455.784 639.443 455.076 638.723 453.84 638.723C452.4 638.723 451.632 639.707 451.632 641.231L451.632 644.075L459 644.075L459 642.827L456.012 642.827L456.012 641.939ZM452.712 642.827L452.712 641.255C452.712 640.427 453.156 639.959 453.84 639.959C454.524 639.959 454.968 640.427 454.968 641.255L454.968 642.827L452.712 642.827ZM451.632 632.418L451.632 633.15L452.748 635.358L454.008 635.358L453.132 633.63L459 633.63L459 632.418L451.632 632.418ZM455.76 629.346L455.76 628.878C455.76 628.098 456.204 627.546 456.912 627.546C457.596 627.546 458.052 628.074 458.052 628.818C458.052 629.67 457.536 630.15 456.792 630.234L456.792 631.446C458.172 631.362 459.12 630.318 459.12 628.806C459.12 627.282 458.148 626.37 456.9 626.37C456.216 626.37 455.544 626.718 455.232 627.474C454.98 626.886 454.344 626.514 453.576 626.514C452.376 626.514 451.512 627.366 451.512 628.818C451.512 630.198 452.46 631.122 453.744 631.278L453.744 630.054C453.096 630.006 452.592 629.586 452.592 628.806C452.592 628.098 453.06 627.678 453.648 627.678C454.344 627.678 454.716 628.206 454.716 628.914L454.716 629.346L455.76 629.346Z" fill="#858E97"/>
<path d="M481.852 658.738C483.16 658.63 484.12 657.826 484.12 656.242C484.12 654.73 483.208 653.77 481.456 653.77L476.632 653.77L476.632 655.018L481.456 655.018C482.5 655.018 482.98 655.426 482.98 656.266C482.98 656.974 482.56 657.358 481.852 657.442L481.852 658.738ZM484.12 649.446C484.12 647.682 483.088 646.494 481.072 646.494L476.632 646.494L476.632 647.742L480.928 647.742C482.344 647.742 483.004 648.342 483.004 649.446C483.004 650.55 482.344 651.15 480.928 651.15L476.632 651.15L476.632 652.398L481.06 652.398C483.088 652.398 484.12 651.198 484.12 649.446ZM476.632 639.049L476.632 640.249L481.744 640.249L476.632 643.801L476.632 644.977L484 644.977L484 643.777L478.636 643.777L484 640.009L484 639.049L476.632 639.049ZM476.632 632.418L476.632 633.15L477.748 635.358L479.008 635.358L478.132 633.63L484 633.63L484 632.418L476.632 632.418ZM480.76 629.346L480.76 628.878C480.76 628.098 481.204 627.546 481.912 627.546C482.596 627.546 483.052 628.074 483.052 628.818C483.052 629.67 482.536 630.15 481.792 630.234L481.792 631.446C483.172 631.362 484.12 630.318 484.12 628.806C484.12 627.282 483.148 626.37 481.9 626.37C481.216 626.37 480.544 626.718 480.232 627.474C479.98 626.886 479.344 626.514 478.576 626.514C477.376 626.514 476.512 627.366 476.512 628.818C476.512 630.198 477.46 631.122 478.744 631.278L478.744 630.054C478.096 630.006 477.592 629.586 477.592 628.806C477.592 628.098 478.06 627.678 478.648 627.678C479.344 627.678 479.716 628.206 479.716 628.914L479.716 629.346L480.76 629.346Z" fill="#858E97"/>
<path d="M506.96 656.92C508.328 656.656 509.12 655.54 509.12 653.98C509.12 652.456 508.268 651.352 506.888 651.352C505.784 651.352 505.112 652.108 504.848 653.26L504.548 654.544C504.392 655.204 504.08 655.516 503.588 655.516C502.976 655.516 502.568 654.976 502.568 654.184C502.568 653.308 503 652.84 503.552 652.648L503.552 651.4C502.328 651.664 501.512 652.6 501.512 654.196C501.512 655.684 502.448 656.704 503.696 656.704C504.884 656.704 505.436 655.888 505.676 654.868L505.976 653.62C506.156 652.852 506.456 652.552 506.972 652.552C507.656 652.552 508.064 653.116 508.064 653.98C508.064 654.784 507.716 655.408 506.96 655.648L506.96 656.92ZM501.632 650.121L509 650.121L509 645.309L507.884 645.309L507.884 648.897L505.772 648.897L505.772 645.645L504.68 645.645L504.68 648.897L502.736 648.897L502.736 645.309L501.632 645.309L501.632 650.121ZM506.252 641.113C506.252 639.589 505.448 638.593 503.948 638.593C502.424 638.593 501.632 639.589 501.632 641.113L501.632 643.957L509 643.957L509 642.709L506.252 642.709L506.252 641.113ZM503.948 639.829C504.656 639.829 505.172 640.273 505.172 641.137L505.172 642.709L502.712 642.709L502.712 641.137C502.712 640.273 503.216 639.829 503.948 639.829ZM501.632 632.418L501.632 633.15L502.748 635.358L504.008 635.358L503.132 633.63L509 633.63L509 632.418L501.632 632.418ZM505.76 629.346L505.76 628.878C505.76 628.098 506.204 627.546 506.912 627.546C507.596 627.546 508.052 628.074 508.052 628.818C508.052 629.67 507.536 630.15 506.792 630.234L506.792 631.446C508.172 631.362 509.12 630.318 509.12 628.806C509.12 627.282 508.148 626.37 506.9 626.37C506.216 626.37 505.544 626.718 505.232 627.474C504.98 626.886 504.344 626.514 503.576 626.514C502.376 626.514 501.512 627.366 501.512 628.818C501.512 630.198 502.46 631.122 503.744 631.278L503.744 630.054C503.096 630.006 502.592 629.586 502.592 628.806C502.592 628.098 503.06 627.678 503.648 627.678C504.344 627.678 504.716 628.206 504.716 628.914L504.716 629.346L505.76 629.346Z" fill="#858E97"/>
<path d="M532.884 656.795L527.736 656.795L527.736 655.607C527.736 654.059 528.732 653.231 530.316 653.231C531.888 653.231 532.884 654.059 532.884 655.607L532.884 656.795ZM534 658.043L534 655.559C534 653.387 532.56 651.983 530.316 651.983C528.072 651.983 526.632 653.387 526.632 655.559L526.632 658.043L534 658.043ZM526.632 650.743L534 650.743L534 645.931L532.884 645.931L532.884 649.519L530.772 649.519L530.772 646.267L529.68 646.267L529.68 649.519L527.736 649.519L527.736 645.931L526.632 645.931L526.632 650.743ZM530.316 644.975C532.584 644.975 534.12 643.523 534.12 641.627C534.12 639.971 533.16 638.903 531.672 638.627L531.672 639.851C532.464 640.139 532.992 640.643 532.992 641.627C532.992 642.935 531.852 643.715 530.316 643.715C528.768 643.715 527.64 642.923 527.64 641.627C527.64 640.643 528.168 640.139 528.948 639.851L528.948 638.627C527.472 638.903 526.512 639.959 526.512 641.627C526.512 643.523 528.048 644.975 530.316 644.975ZM526.632 632.418L526.632 633.15L527.748 635.358L529.008 635.358L528.132 633.63L534 633.63L534 632.418L526.632 632.418ZM530.76 629.346L530.76 628.878C530.76 628.098 531.204 627.546 531.912 627.546C532.596 627.546 533.052 628.074 533.052 628.818C533.052 629.67 532.536 630.15 531.792 630.234L531.792 631.446C533.172 631.362 534.12 630.318 534.12 628.806C534.12 627.282 533.148 626.37 531.9 626.37C531.216 626.37 530.544 626.718 530.232 627.474C529.98 626.886 529.344 626.514 528.576 626.514C527.376 626.514 526.512 627.366 526.512 628.818C526.512 630.198 527.46 631.122 528.744 631.278L528.744 630.054C528.096 630.006 527.592 629.586 527.592 628.806C527.592 628.098 528.06 627.678 528.648 627.678C529.344 627.678 529.716 628.206 529.716 628.914L529.716 629.346L530.76 629.346Z" fill="#858E97"/>
<path d="M559 656.799L553.876 654.819L559 654.819L559 653.619L551.632 653.619L551.632 655.011L557.296 657.231L551.632 659.475L551.632 660.903L559 660.903L559 659.715L553.876 659.715L559 657.687L559 656.799ZM551.632 649.729L559 652.561L559 651.301L556.96 650.545L556.96 647.725L559 646.969L559 645.697L551.632 648.529L551.632 649.729ZM553.156 649.141L555.88 648.133L555.88 650.149L553.156 649.141ZM556.012 642.501L559 640.449L559 639.033L555.964 641.169C555.784 640.005 555.076 639.285 553.84 639.285C552.4 639.285 551.632 640.269 551.632 641.793L551.632 644.637L559 644.637L559 643.389L556.012 643.389L556.012 642.501ZM552.712 643.389L552.712 641.817C552.712 640.989 553.156 640.521 553.84 640.521C554.524 640.521 554.968 640.989 554.968 641.817L554.968 643.389L552.712 643.389ZM551.632 632.98L551.632 633.712L552.748 635.92L554.008 635.92L553.132 634.192L559 634.192L559 632.98L551.632 632.98ZM551.632 627.891L551.632 629.151L556.6 631.923L557.464 631.923L557.464 628.599L559 628.599L559 627.447L557.464 627.447L557.464 626.235L556.432 626.235L556.432 627.447L554.704 627.447L554.704 628.599L556.432 628.599L556.432 630.567L551.632 627.891Z" fill="#858E97"/>
<path d="M581.852 659.3C583.16 659.192 584.12 658.388 584.12 656.804C584.12 655.292 583.208 654.332 581.456 654.332L576.632 654.332L576.632 655.58L581.456 655.58C582.5 655.58 582.98 655.988 582.98 656.828C582.98 657.536 582.56 657.92 581.852 658.004L581.852 659.3ZM584.12 650.008C584.12 648.244 583.088 647.056 581.072 647.056L576.632 647.056L576.632 648.304L580.928 648.304C582.344 648.304 583.004 648.904 583.004 650.008C583.004 651.112 582.344 651.712 580.928 651.712L576.632 651.712L576.632 652.96L581.06 652.96C583.088 652.96 584.12 651.76 584.12 650.008ZM576.632 639.611L576.632 640.811L581.744 640.811L576.632 644.363L576.632 645.539L584 645.539L584 644.339L578.636 644.339L584 640.571L584 639.611L576.632 639.611ZM576.632 632.98L576.632 633.712L577.748 635.92L579.008 635.92L578.132 634.192L584 634.192L584 632.98L576.632 632.98ZM576.632 627.891L576.632 629.151L581.6 631.923L582.464 631.923L582.464 628.599L584 628.599L584 627.447L582.464 627.447L582.464 626.235L581.432 626.235L581.432 627.447L579.704 627.447L579.704 628.599L581.432 628.599L581.432 630.567L576.632 627.891Z" fill="#858E97"/>
<path d="M606.96 657.483C608.328 657.219 609.12 656.103 609.12 654.543C609.12 653.019 608.268 651.915 606.888 651.915C605.784 651.915 605.112 652.671 604.848 653.823L604.548 655.107C604.392 655.767 604.08 656.079 603.588 656.079C602.976 656.079 602.568 655.539 602.568 654.747C602.568 653.871 603 653.403 603.552 653.211L603.552 651.963C602.328 652.227 601.512 653.163 601.512 654.759C601.512 656.247 602.448 657.267 603.696 657.267C604.884 657.267 605.436 656.451 605.676 655.431L605.976 654.183C606.156 653.415 606.456 653.115 606.972 653.115C607.656 653.115 608.064 653.679 608.064 654.543C608.064 655.347 607.716 655.971 606.96 656.211L606.96 657.483ZM601.632 650.684L609 650.684L609 645.872L607.884 645.872L607.884 649.46L605.772 649.46L605.772 646.208L604.68 646.208L604.68 649.46L602.736 649.46L602.736 645.872L601.632 645.872L601.632 650.684ZM606.252 641.676C606.252 640.152 605.448 639.156 603.948 639.156C602.424 639.156 601.632 640.152 601.632 641.676L601.632 644.52L609 644.52L609 643.272L606.252 643.272L606.252 641.676ZM603.948 640.392C604.656 640.392 605.172 640.836 605.172 641.7L605.172 643.272L602.712 643.272L602.712 641.7C602.712 640.836 603.216 640.392 603.948 640.392ZM601.632 632.98L601.632 633.712L602.748 635.92L604.008 635.92L603.132 634.192L609 634.192L609 632.98L601.632 632.98ZM601.632 627.891L601.632 629.151L606.6 631.923L607.464 631.923L607.464 628.599L609 628.599L609 627.447L607.464 627.447L607.464 626.235L606.432 626.235L606.432 627.447L604.704 627.447L604.704 628.599L606.432 628.599L606.432 630.567L601.632 627.891Z" fill="#858E97"/>
<path d="M632.884 657.358L627.736 657.358L627.736 656.17C627.736 654.622 628.732 653.794 630.316 653.794C631.888 653.794 632.884 654.622 632.884 656.17L632.884 657.358ZM634 658.606L634 656.122C634 653.95 632.56 652.546 630.316 652.546C628.072 652.546 626.632 653.95 626.632 656.122L626.632 658.606L634 658.606ZM626.632 651.305L634 651.305L634 646.493L632.884 646.493L632.884 650.081L630.772 650.081L630.772 646.829L629.68 646.829L629.68 650.081L627.736 650.081L627.736 646.493L626.632 646.493L626.632 651.305ZM630.316 645.537C632.584 645.537 634.12 644.085 634.12 642.189C634.12 640.533 633.16 639.465 631.672 639.189L631.672 640.413C632.464 640.701 632.992 641.205 632.992 642.189C632.992 643.497 631.852 644.277 630.316 644.277C628.768 644.277 627.64 643.485 627.64 642.189C627.64 641.205 628.168 640.701 628.948 640.413L628.948 639.189C627.472 639.465 626.512 640.521 626.512 642.189C626.512 644.085 628.048 645.537 630.316 645.537ZM626.632 632.98L626.632 633.712L627.748 635.92L629.008 635.92L628.132 634.192L634 634.192L634 632.98L626.632 632.98ZM626.632 627.891L626.632 629.151L631.6 631.923L632.464 631.923L632.464 628.599L634 628.599L634 627.447L632.464 627.447L632.464 626.235L631.432 626.235L631.432 627.447L629.704 627.447L629.704 628.599L631.432 628.599L631.432 630.567L626.632 627.891Z" fill="#858E97"/>
<path d="M659 656.318L653.876 654.338L659 654.338L659 653.138L651.632 653.138L651.632 654.53L657.296 656.75L651.632 658.994L651.632 660.422L659 660.422L659 659.234L653.876 659.234L659 657.206L659 656.318ZM651.632 649.248L659 652.08L659 650.82L656.96 650.064L656.96 647.244L659 646.488L659 645.216L651.632 648.048L651.632 649.248ZM653.156 648.66L655.88 647.652L655.88 649.668L653.156 648.66ZM656.012 642.021L659 639.969L659 638.553L655.964 640.689C655.784 639.525 655.076 638.805 653.84 638.805C652.4 638.805 651.632 639.789 651.632 641.313L651.632 644.157L659 644.157L659 642.909L656.012 642.909L656.012 642.021ZM652.712 642.909L652.712 641.337C652.712 640.509 653.156 640.041 653.84 640.041C654.524 640.041 654.968 640.509 654.968 641.337L654.968 642.909L652.712 642.909ZM651.632 632.5L651.632 633.232L652.748 635.44L654.008 635.44L653.132 633.712L659 633.712L659 632.5L651.632 632.5ZM655.208 628.803C655.208 627.999 655.796 627.507 656.624 627.507C657.452 627.507 658.04 627.999 658.04 628.779C658.04 629.607 657.536 630.051 656.792 630.147L656.792 631.359C658.208 631.239 659.12 630.243 659.12 628.779C659.12 627.351 658.088 626.343 656.624 626.343C655.148 626.343 654.14 627.291 654.14 628.671C654.14 629.235 654.344 629.703 654.524 629.931L652.736 629.931L652.736 626.799L651.632 626.799L651.632 630.951L655.784 630.951L655.784 630.003C655.472 629.751 655.208 629.343 655.208 628.803Z" fill="#858E97"/>
<path d="M681.852 658.82C683.16 658.712 684.12 657.908 684.12 656.324C684.12 654.812 683.208 653.852 681.456 653.852L676.632 653.852L676.632 655.1L681.456 655.1C682.5 655.1 682.98 655.508 682.98 656.348C682.98 657.056 682.56 657.44 681.852 657.524L681.852 658.82ZM684.12 649.528C684.12 647.764 683.088 646.576 681.072 646.576L676.632 646.576L676.632 647.824L680.928 647.824C682.344 647.824 683.004 648.424 683.004 649.528C683.004 650.632 682.344 651.232 680.928 651.232L676.632 651.232L676.632 652.48L681.06 652.48C683.088 652.48 684.12 651.28 684.12 649.528ZM676.632 639.131L676.632 640.331L681.744 640.331L676.632 643.883L676.632 645.059L684 645.059L684 643.859L678.636 643.859L684 640.091L684 639.131L676.632 639.131ZM676.632 632.5L676.632 633.232L677.748 635.44L679.008 635.44L678.132 633.712L684 633.712L684 632.5L676.632 632.5ZM680.208 628.803C680.208 627.999 680.796 627.507 681.624 627.507C682.452 627.507 683.04 627.999 683.04 628.779C683.04 629.607 682.536 630.051 681.792 630.147L681.792 631.359C683.208 631.239 684.12 630.243 684.12 628.779C684.12 627.351 683.088 626.343 681.624 626.343C680.148 626.343 679.14 627.291 679.14 628.671C679.14 629.235 679.344 629.703 679.524 629.931L677.736 629.931L677.736 626.799L676.632 626.799L676.632 630.951L680.784 630.951L680.784 630.003C680.472 629.751 680.208 629.343 680.208 628.803Z" fill="#858E97"/>
<path d="M706.96 657.002C708.328 656.738 709.12 655.622 709.12 654.062C709.12 652.538 708.268 651.434 706.888 651.434C705.784 651.434 705.112 652.19 704.848 653.342L704.548 654.626C704.392 655.286 704.08 655.598 703.588 655.598C702.976 655.598 702.568 655.058 702.568 654.266C702.568 653.39 703 652.922 703.552 652.73L703.552 651.482C702.328 651.746 701.512 652.682 701.512 654.278C701.512 655.766 702.448 656.786 703.696 656.786C704.884 656.786 705.436 655.97 705.676 654.95L705.976 653.702C706.156 652.934 706.456 652.634 706.972 652.634C707.656 652.634 708.064 653.198 708.064 654.062C708.064 654.866 707.716 655.49 706.96 655.73L706.96 657.002ZM701.632 650.204L709 650.204L709 645.392L707.884 645.392L707.884 648.98L705.772 648.98L705.772 645.728L704.68 645.728L704.68 648.98L702.736 648.98L702.736 645.392L701.632 645.392L701.632 650.204ZM706.252 641.195C706.252 639.671 705.448 638.675 703.948 638.675C702.424 638.675 701.632 639.671 701.632 641.195L701.632 644.039L709 644.039L709 642.791L706.252 642.791L706.252 641.195ZM703.948 639.911C704.656 639.911 705.172 640.355 705.172 641.219L705.172 642.791L702.712 642.791L702.712 641.219C702.712 640.355 703.216 639.911 703.948 639.911ZM701.632 632.5L701.632 633.232L702.748 635.44L704.008 635.44L703.132 633.712L709 633.712L709 632.5L701.632 632.5ZM705.208 628.803C705.208 627.999 705.796 627.507 706.624 627.507C707.452 627.507 708.04 627.999 708.04 628.779C708.04 629.607 707.536 630.051 706.792 630.147L706.792 631.359C708.208 631.239 709.12 630.243 709.12 628.779C709.12 627.351 708.088 626.343 706.624 626.343C705.148 626.343 704.14 627.291 704.14 628.671C704.14 629.235 704.344 629.703 704.524 629.931L702.736 629.931L702.736 626.799L701.632 626.799L701.632 630.951L705.784 630.951L705.784 630.003C705.472 629.751 705.208 629.343 705.208 628.803Z" fill="#858E97"/>
<path d="M732.884 656.877L727.736 656.877L727.736 655.689C727.736 654.141 728.732 653.313 730.316 653.313C731.888 653.313 732.884 654.141 732.884 655.689L732.884 656.877ZM734 658.125L734 655.641C734 653.469 732.56 652.065 730.316 652.065C728.072 652.065 726.632 653.469 726.632 655.641L726.632 658.125L734 658.125ZM726.632 650.825L734 650.825L734 646.013L732.884 646.013L732.884 649.601L730.772 649.601L730.772 646.349L729.68 646.349L729.68 649.601L727.736 649.601L727.736 646.013L726.632 646.013L726.632 650.825ZM730.316 645.057C732.584 645.057 734.12 643.605 734.12 641.709C734.12 640.053 733.16 638.985 731.672 638.709L731.672 639.933C732.464 640.221 732.992 640.725 732.992 641.709C732.992 643.017 731.852 643.797 730.316 643.797C728.768 643.797 727.64 643.005 727.64 641.709C727.64 640.725 728.168 640.221 728.948 639.933L728.948 638.709C727.472 638.985 726.512 640.041 726.512 641.709C726.512 643.605 728.048 645.057 730.316 645.057ZM726.632 632.5L726.632 633.232L727.748 635.44L729.008 635.44L728.132 633.712L734 633.712L734 632.5L726.632 632.5ZM730.208 628.803C730.208 627.999 730.796 627.507 731.624 627.507C732.452 627.507 733.04 627.999 733.04 628.779C733.04 629.607 732.536 630.051 731.792 630.147L731.792 631.359C733.208 631.239 734.12 630.243 734.12 628.779C734.12 627.351 733.088 626.343 731.624 626.343C730.148 626.343 729.14 627.291 729.14 628.671C729.14 629.235 729.344 629.703 729.524 629.931L727.736 629.931L727.736 626.799L726.632 626.799L726.632 630.951L730.784 630.951L730.784 630.003C730.472 629.751 730.208 629.343 730.208 628.803Z" fill="#858E97"/>
<path d="M759 656.658L753.876 654.678L759 654.678L759 653.478L751.632 653.478L751.632 654.87L757.296 657.09L751.632 659.334L751.632 660.762L759 660.762L759 659.574L753.876 659.574L759 657.546L759 656.658ZM751.632 649.588L759 652.42L759 651.16L756.96 650.404L756.96 647.584L759 646.828L759 645.556L751.632 648.388L751.632 649.588ZM753.156 649L755.88 647.992L755.88 650.008L753.156 649ZM756.012 642.36L759 640.308L759 638.892L755.964 641.028C755.784 639.864 755.076 639.144 753.84 639.144C752.4 639.144 751.632 640.128 751.632 641.652L751.632 644.496L759 644.496L759 643.248L756.012 643.248L756.012 642.36ZM752.712 643.248L752.712 641.676C752.712 640.848 753.156 640.38 753.84 640.38C754.524 640.38 754.968 640.848 754.968 641.676L754.968 643.248L752.712 643.248ZM751.632 632.84L751.632 633.572L752.748 635.78L754.008 635.78L753.132 634.052L759 634.052L759 632.84L751.632 632.84ZM756.648 630.319C755.76 630.319 755.184 629.767 755.184 628.927C755.184 628.111 755.772 627.559 756.648 627.559C757.5 627.559 758.076 628.111 758.076 628.927C758.076 629.767 757.5 630.319 756.648 630.319ZM753.384 626.479C752.196 626.779 751.512 627.511 751.512 628.855C751.512 630.547 753.18 631.603 755.472 631.603C756.384 631.603 757.056 631.471 757.704 631.159C758.688 630.667 759.12 629.839 759.12 628.939C759.12 627.331 757.968 626.419 756.624 626.419C755.316 626.419 754.176 627.319 754.176 628.807C754.176 629.587 754.572 630.235 755.124 630.499L754.992 630.499C753.756 630.499 752.532 629.851 752.532 628.855C752.532 628.255 752.856 627.895 753.384 627.727L753.384 626.479Z" fill="#858E97"/>
<path d="M781.96 657.342C783.328 657.078 784.12 655.962 784.12 654.402C784.12 652.878 783.268 651.774 781.888 651.774C780.784 651.774 780.112 652.53 779.848 653.682L779.548 654.966C779.392 655.626 779.08 655.938 778.588 655.938C777.976 655.938 777.568 655.398 777.568 654.606C777.568 653.73 778 653.262 778.552 653.07L778.552 651.822C777.328 652.086 776.512 653.022 776.512 654.618C776.512 656.106 777.448 657.126 778.696 657.126C779.884 657.126 780.436 656.31 780.676 655.29L780.976 654.042C781.156 653.274 781.456 652.974 781.972 652.974C782.656 652.974 783.064 653.538 783.064 654.402C783.064 655.206 782.716 655.83 781.96 656.07L781.96 657.342ZM776.632 650.543L784 650.543L784 645.731L782.884 645.731L782.884 649.319L780.772 649.319L780.772 646.067L779.68 646.067L779.68 649.319L777.736 649.319L777.736 645.731L776.632 645.731L776.632 650.543ZM781.252 641.535C781.252 640.011 780.448 639.015 778.948 639.015C777.424 639.015 776.632 640.011 776.632 641.535L776.632 644.379L784 644.379L784 643.131L781.252 643.131L781.252 641.535ZM778.948 640.251C779.656 640.251 780.172 640.695 780.172 641.559L780.172 643.131L777.712 643.131L777.712 641.559C777.712 640.695 778.216 640.251 778.948 640.251ZM776.632 632.84L776.632 633.572L777.748 635.78L779.008 635.78L778.132 634.052L784 634.052L784 632.84L776.632 632.84ZM781.648 630.319C780.76 630.319 780.184 629.767 780.184 628.927C780.184 628.111 780.772 627.559 781.648 627.559C782.5 627.559 783.076 628.111 783.076 628.927C783.076 629.767 782.5 630.319 781.648 630.319ZM778.384 626.479C777.196 626.779 776.512 627.511 776.512 628.855C776.512 630.547 778.18 631.603 780.472 631.603C781.384 631.603 782.056 631.471 782.704 631.159C783.688 630.667 784.12 629.839 784.12 628.939C784.12 627.331 782.968 626.419 781.624 626.419C780.316 626.419 779.176 627.319 779.176 628.807C779.176 629.587 779.572 630.235 780.124 630.499L779.992 630.499C778.756 630.499 777.532 629.851 777.532 628.855C777.532 628.255 777.856 627.895 778.384 627.727L778.384 626.479Z" fill="#858E97"/>
<path d="M807.884 657.217L802.736 657.217L802.736 656.029C802.736 654.481 803.732 653.653 805.316 653.653C806.888 653.653 807.884 654.481 807.884 656.029L807.884 657.217ZM809 658.465L809 655.981C809 653.809 807.56 652.405 805.316 652.405C803.072 652.405 801.632 653.809 801.632 655.981L801.632 658.465L809 658.465ZM801.632 651.164L809 651.164L809 646.352L807.884 646.352L807.884 649.94L805.772 649.94L805.772 646.688L804.68 646.688L804.68 649.94L802.736 649.94L802.736 646.352L801.632 646.352L801.632 651.164ZM805.316 645.396C807.584 645.396 809.12 643.944 809.12 642.048C809.12 640.392 808.16 639.324 806.672 639.048L806.672 640.272C807.464 640.56 807.992 641.064 807.992 642.048C807.992 643.356 806.852 644.136 805.316 644.136C803.768 644.136 802.64 643.344 802.64 642.048C802.64 641.064 803.168 640.56 803.948 640.272L803.948 639.048C802.472 639.324 801.512 640.38 801.512 642.048C801.512 643.944 803.048 645.396 805.316 645.396ZM801.632 632.84L801.632 633.572L802.748 635.78L804.008 635.78L803.132 634.052L809 634.052L809 632.84L801.632 632.84ZM806.648 630.319C805.76 630.319 805.184 629.767 805.184 628.927C805.184 628.111 805.772 627.559 806.648 627.559C807.5 627.559 808.076 628.111 808.076 628.927C808.076 629.767 807.5 630.319 806.648 630.319ZM803.384 626.479C802.196 626.779 801.512 627.511 801.512 628.855C801.512 630.547 803.18 631.603 805.472 631.603C806.384 631.603 807.056 631.471 807.704 631.159C808.688 630.667 809.12 629.839 809.12 628.939C809.12 627.331 807.968 626.419 806.624 626.419C805.316 626.419 804.176 627.319 804.176 628.807C804.176 629.587 804.572 630.235 805.124 630.499L804.992 630.499C803.756 630.499 802.532 629.851 802.532 628.855C802.532 628.255 802.856 627.895 803.384 627.727L803.384 626.479Z" fill="#858E97"/>
<path d="M834 656.002L828.876 654.022L834 654.022L834 652.822L826.632 652.822L826.632 654.214L832.296 656.434L826.632 658.678L826.632 660.106L834 660.106L834 658.918L828.876 658.918L834 656.89L834 656.002ZM826.632 648.932L834 651.764L834 650.504L831.96 649.748L831.96 646.928L834 646.172L834 644.9L826.632 647.732L826.632 648.932ZM828.156 648.344L830.88 647.336L830.88 649.352L828.156 648.344ZM831.012 641.704L834 639.652L834 638.236L830.964 640.372C830.784 639.208 830.076 638.488 828.84 638.488C827.4 638.488 826.632 639.472 826.632 640.996L826.632 643.84L834 643.84L834 642.592L831.012 642.592L831.012 641.704ZM827.712 642.592L827.712 641.02C827.712 640.192 828.156 639.724 828.84 639.724C829.524 639.724 829.968 640.192 829.968 641.02L829.968 642.592L827.712 642.592ZM826.632 632.184L826.632 632.916L827.748 635.124L829.008 635.124L828.132 633.396L834 633.396L834 632.184L826.632 632.184ZM827.58 626.338L826.632 626.338L826.632 631.186L827.736 631.186L827.736 627.61L834 630.13L834 628.882L827.58 626.338Z" fill="#858E97"/>
<path d="M856.852 658.504C858.16 658.396 859.12 657.592 859.12 656.008C859.12 654.496 858.208 653.536 856.456 653.536L851.632 653.536L851.632 654.784L856.456 654.784C857.5 654.784 857.98 655.192 857.98 656.032C857.98 656.74 857.56 657.124 856.852 657.208L856.852 658.504ZM859.12 649.211C859.12 647.447 858.088 646.259 856.072 646.259L851.632 646.259L851.632 647.507L855.928 647.507C857.344 647.507 858.004 648.107 858.004 649.211C858.004 650.315 857.344 650.915 855.928 650.915L851.632 650.915L851.632 652.163L856.06 652.163C858.088 652.163 859.12 650.963 859.12 649.211ZM851.632 638.815L851.632 640.015L856.744 640.015L851.632 643.567L851.632 644.743L859 644.743L859 643.543L853.636 643.543L859 639.775L859 638.815L851.632 638.815ZM851.632 632.184L851.632 632.916L852.748 635.124L854.008 635.124L853.132 633.396L859 633.396L859 632.184L851.632 632.184ZM852.58 626.338L851.632 626.338L851.632 631.186L852.736 631.186L852.736 627.61L859 630.13L859 628.882L852.58 626.338Z" fill="#858E97"/>
<path d="M881.96 656.686C883.328 656.422 884.12 655.306 884.12 653.746C884.12 652.222 883.268 651.118 881.888 651.118C880.784 651.118 880.112 651.874 879.848 653.026L879.548 654.31C879.392 654.97 879.08 655.282 878.588 655.282C877.976 655.282 877.568 654.742 877.568 653.95C877.568 653.074 878 652.606 878.552 652.414L878.552 651.166C877.328 651.43 876.512 652.366 876.512 653.962C876.512 655.45 877.448 656.47 878.696 656.47C879.884 656.47 880.436 655.654 880.676 654.634L880.976 653.386C881.156 652.618 881.456 652.318 881.972 652.318C882.656 652.318 883.064 652.882 883.064 653.746C883.064 654.55 882.716 655.174 881.96 655.414L881.96 656.686ZM876.632 649.887L884 649.887L884 645.075L882.884 645.075L882.884 648.663L880.772 648.663L880.772 645.411L879.68 645.411L879.68 648.663L877.736 648.663L877.736 645.075L876.632 645.075L876.632 649.887ZM881.252 640.879C881.252 639.355 880.448 638.359 878.948 638.359C877.424 638.359 876.632 639.355 876.632 640.879L876.632 643.723L884 643.723L884 642.475L881.252 642.475L881.252 640.879ZM878.948 639.595C879.656 639.595 880.172 640.039 880.172 640.903L880.172 642.475L877.712 642.475L877.712 640.903C877.712 640.039 878.216 639.595 878.948 639.595ZM876.632 632.184L876.632 632.916L877.748 635.124L879.008 635.124L878.132 633.396L884 633.396L884 632.184L876.632 632.184ZM877.58 626.338L876.632 626.338L876.632 631.186L877.736 631.186L877.736 627.61L884 630.13L884 628.882L877.58 626.338Z" fill="#858E97"/>
<path d="M907.884 656.561L902.736 656.561L902.736 655.373C902.736 653.825 903.732 652.997 905.316 652.997C906.888 652.997 907.884 653.825 907.884 655.373L907.884 656.561ZM909 657.809L909 655.325C909 653.153 907.56 651.749 905.316 651.749C903.072 651.749 901.632 653.153 901.632 655.325L901.632 657.809L909 657.809ZM901.632 650.508L909 650.508L909 645.696L907.884 645.696L907.884 649.284L905.772 649.284L905.772 646.032L904.68 646.032L904.68 649.284L902.736 649.284L902.736 645.696L901.632 645.696L901.632 650.508ZM905.316 644.74C907.584 644.74 909.12 643.288 909.12 641.392C909.12 639.736 908.16 638.668 906.672 638.392L906.672 639.616C907.464 639.904 907.992 640.408 907.992 641.392C907.992 642.7 906.852 643.48 905.316 643.48C903.768 643.48 902.64 642.688 902.64 641.392C902.64 640.408 903.168 639.904 903.948 639.616L903.948 638.392C902.472 638.668 901.512 639.724 901.512 641.392C901.512 643.288 903.048 644.74 905.316 644.74ZM901.632 632.184L901.632 632.916L902.748 635.124L904.008 635.124L903.132 633.396L909 633.396L909 632.184L901.632 632.184ZM902.58 626.338L901.632 626.338L901.632 631.186L902.736 631.186L902.736 627.61L909 630.13L909 628.882L902.58 626.338Z" fill="#858E97"/>
<path d="M934 656.506L928.876 654.526L934 654.526L934 653.326L926.632 653.326L926.632 654.718L932.296 656.938L926.632 659.182L926.632 660.61L934 660.61L934 659.422L928.876 659.422L934 657.394L934 656.506ZM926.632 649.436L934 652.268L934 651.008L931.96 650.252L931.96 647.432L934 646.676L934 645.404L926.632 648.236L926.632 649.436ZM928.156 648.848L930.88 647.84L930.88 649.856L928.156 648.848ZM931.012 642.208L934 640.156L934 638.74L930.964 640.876C930.784 639.712 930.076 638.992 928.84 638.992C927.4 638.992 926.632 639.976 926.632 641.5L926.632 644.344L934 644.344L934 643.096L931.012 643.096L931.012 642.208ZM927.712 643.096L927.712 641.524C927.712 640.696 928.156 640.228 928.84 640.228C929.524 640.228 929.968 640.696 929.968 641.524L929.968 643.096L927.712 643.096ZM926.632 632.687L926.632 633.419L927.748 635.627L929.008 635.627L928.132 633.899L934 633.899L934 632.687L926.632 632.687ZM933.112 628.954C933.112 629.722 932.656 630.298 931.9 630.298C931.132 630.298 930.688 629.722 930.688 628.954C930.688 628.186 931.132 627.61 931.9 627.61C932.656 627.61 933.112 628.186 933.112 628.954ZM929.644 628.954C929.644 629.554 929.26 630.082 928.588 630.082C927.892 630.082 927.508 629.554 927.508 628.954C927.508 628.354 927.892 627.826 928.588 627.826C929.26 627.826 929.644 628.354 929.644 628.954ZM934.12 628.954C934.12 627.538 933.328 626.41 931.996 626.41C931.012 626.41 930.364 627.046 930.184 627.766C929.944 627.142 929.356 626.638 928.528 626.638C927.232 626.638 926.512 627.718 926.512 628.954C926.512 630.19 927.232 631.27 928.528 631.27C929.356 631.27 929.944 630.766 930.184 630.142C930.364 630.862 931.012 631.498 931.996 631.498C933.328 631.498 934.12 630.37 934.12 628.954Z" fill="#858E97"/>
<path d="M956.852 659.007C958.16 658.899 959.12 658.095 959.12 656.511C959.12 654.999 958.208 654.039 956.456 654.039L951.632 654.039L951.632 655.287L956.456 655.287C957.5 655.287 957.98 655.695 957.98 656.535C957.98 657.243 957.56 657.627 956.852 657.711L956.852 659.007ZM959.12 649.715C959.12 647.951 958.088 646.763 956.072 646.763L951.632 646.763L951.632 648.011L955.928 648.011C957.344 648.011 958.004 648.611 958.004 649.715C958.004 650.819 957.344 651.419 955.928 651.419L951.632 651.419L951.632 652.667L956.06 652.667C958.088 652.667 959.12 651.467 959.12 649.715ZM951.632 639.318L951.632 640.518L956.744 640.518L951.632 644.07L951.632 645.246L959 645.246L959 644.046L953.636 644.046L959 640.278L959 639.318L951.632 639.318ZM951.632 632.687L951.632 633.419L952.748 635.627L954.008 635.627L953.132 633.899L959 633.899L959 632.687L951.632 632.687ZM958.112 628.954C958.112 629.722 957.656 630.298 956.9 630.298C956.132 630.298 955.688 629.722 955.688 628.954C955.688 628.186 956.132 627.61 956.9 627.61C957.656 627.61 958.112 628.186 958.112 628.954ZM954.644 628.954C954.644 629.554 954.26 630.082 953.588 630.082C952.892 630.082 952.508 629.554 952.508 628.954C952.508 628.354 952.892 627.826 953.588 627.826C954.26 627.826 954.644 628.354 954.644 628.954ZM959.12 628.954C959.12 627.538 958.328 626.41 956.996 626.41C956.012 626.41 955.364 627.046 955.184 627.766C954.944 627.142 954.356 626.638 953.528 626.638C952.232 626.638 951.512 627.718 951.512 628.954C951.512 630.19 952.232 631.27 953.528 631.27C954.356 631.27 954.944 630.766 955.184 630.142C955.364 630.862 956.012 631.498 956.996 631.498C958.328 631.498 959.12 630.37 959.12 628.954Z" fill="#858E97"/>
<path d="M981.96 657.19C983.328 656.926 984.12 655.81 984.12 654.25C984.12 652.726 983.268 651.622 981.888 651.622C980.784 651.622 980.112 652.378 979.848 653.53L979.548 654.814C979.392 655.474 979.08 655.786 978.588 655.786C977.976 655.786 977.568 655.246 977.568 654.454C977.568 653.578 978 653.11 978.552 652.918L978.552 651.67C977.328 651.934 976.512 652.87 976.512 654.466C976.512 655.954 977.448 656.974 978.696 656.974C979.884 656.974 980.436 656.158 980.676 655.138L980.976 653.89C981.156 653.122 981.456 652.822 981.972 652.822C982.656 652.822 983.064 653.386 983.064 654.25C983.064 655.054 982.716 655.678 981.96 655.918L981.96 657.19ZM976.632 650.391L984 650.391L984 645.579L982.884 645.579L982.884 649.167L980.772 649.167L980.772 645.915L979.68 645.915L979.68 649.167L977.736 649.167L977.736 645.579L976.632 645.579L976.632 650.391ZM981.252 641.383C981.252 639.859 980.448 638.863 978.948 638.863C977.424 638.863 976.632 639.859 976.632 641.383L976.632 644.227L984 644.227L984 642.979L981.252 642.979L981.252 641.383ZM978.948 640.099C979.656 640.099 980.172 640.543 980.172 641.407L980.172 642.979L977.712 642.979L977.712 641.407C977.712 640.543 978.216 640.099 978.948 640.099ZM976.632 632.687L976.632 633.419L977.748 635.627L979.008 635.627L978.132 633.899L984 633.899L984 632.687L976.632 632.687ZM983.112 628.954C983.112 629.722 982.656 630.298 981.9 630.298C981.132 630.298 980.688 629.722 980.688 628.954C980.688 628.186 981.132 627.61 981.9 627.61C982.656 627.61 983.112 628.186 983.112 628.954ZM979.644 628.954C979.644 629.554 979.26 630.082 978.588 630.082C977.892 630.082 977.508 629.554 977.508 628.954C977.508 628.354 977.892 627.826 978.588 627.826C979.26 627.826 979.644 628.354 979.644 628.954ZM984.12 628.954C984.12 627.538 983.328 626.41 981.996 626.41C981.012 626.41 980.364 627.046 980.184 627.766C979.944 627.142 979.356 626.638 978.528 626.638C977.232 626.638 976.512 627.718 976.512 628.954C976.512 630.19 977.232 631.27 978.528 631.27C979.356 631.27 979.944 630.766 980.184 630.142C980.364 630.862 981.012 631.498 981.996 631.498C983.328 631.498 984.12 630.37 984.12 628.954Z" fill="#858E97"/>
<path d="M1007.88 657.065L1002.74 657.065L1002.74 655.877C1002.74 654.329 1003.73 653.501 1005.32 653.501C1006.89 653.501 1007.88 654.329 1007.88 655.877L1007.88 657.065ZM1009 658.313L1009 655.829C1009 653.657 1007.56 652.253 1005.32 652.253C1003.07 652.253 1001.63 653.657 1001.63 655.829L1001.63 658.313L1009 658.313ZM1001.63 651.012L1009 651.012L1009 646.2L1007.88 646.2L1007.88 649.788L1005.77 649.788L1005.77 646.536L1004.68 646.536L1004.68 649.788L1002.74 649.788L1002.74 646.2L1001.63 646.2L1001.63 651.012ZM1005.32 645.244C1007.58 645.244 1009.12 643.792 1009.12 641.896C1009.12 640.24 1008.16 639.172 1006.67 638.896L1006.67 640.12C1007.46 640.408 1007.99 640.912 1007.99 641.896C1007.99 643.204 1006.85 643.984 1005.32 643.984C1003.77 643.984 1002.64 643.192 1002.64 641.896C1002.64 640.912 1003.17 640.408 1003.95 640.12L1003.95 638.896C1002.47 639.172 1001.51 640.228 1001.51 641.896C1001.51 643.792 1003.05 645.244 1005.32 645.244ZM1001.63 632.687L1001.63 633.419L1002.75 635.627L1004.01 635.627L1003.13 633.899L1009 633.899L1009 632.687L1001.63 632.687ZM1008.11 628.954C1008.11 629.722 1007.66 630.298 1006.9 630.298C1006.13 630.298 1005.69 629.722 1005.69 628.954C1005.69 628.186 1006.13 627.61 1006.9 627.61C1007.66 627.61 1008.11 628.186 1008.11 628.954ZM1004.64 628.954C1004.64 629.554 1004.26 630.082 1003.59 630.082C1002.89 630.082 1002.51 629.554 1002.51 628.954C1002.51 628.354 1002.89 627.826 1003.59 627.826C1004.26 627.826 1004.64 628.354 1004.64 628.954ZM1009.12 628.954C1009.12 627.538 1008.33 626.41 1007 626.41C1006.01 626.41 1005.36 627.046 1005.18 627.766C1004.94 627.142 1004.36 626.638 1003.53 626.638C1002.23 626.638 1001.51 627.718 1001.51 628.954C1001.51 630.19 1002.23 631.27 1003.53 631.27C1004.36 631.27 1004.94 630.766 1005.18 630.142C1005.36 630.862 1006.01 631.498 1007 631.498C1008.33 631.498 1009.12 630.37 1009.12 628.954Z" fill="#858E97"/>
<path d="M1034 656.658L1028.88 654.678L1034 654.678L1034 653.478L1026.63 653.478L1026.63 654.87L1032.3 657.09L1026.63 659.334L1026.63 660.762L1034 660.762L1034 659.574L1028.88 659.574L1034 657.546L1034 656.658ZM1026.63 649.588L1034 652.42L1034 651.16L1031.96 650.404L1031.96 647.584L1034 646.828L1034 645.556L1026.63 648.388L1026.63 649.588ZM1028.16 649L1030.88 647.992L1030.88 650.008L1028.16 649ZM1031.01 642.36L1034 640.308L1034 638.892L1030.96 641.028C1030.78 639.864 1030.08 639.144 1028.84 639.144C1027.4 639.144 1026.63 640.128 1026.63 641.652L1026.63 644.496L1034 644.496L1034 643.248L1031.01 643.248L1031.01 642.36ZM1027.71 643.248L1027.71 641.676C1027.71 640.848 1028.16 640.38 1028.84 640.38C1029.52 640.38 1029.97 640.848 1029.97 641.676L1029.97 643.248L1027.71 643.248ZM1026.63 632.84L1026.63 633.572L1027.75 635.78L1029.01 635.78L1028.13 634.052L1034 634.052L1034 632.84L1026.63 632.84ZM1028.98 627.739C1029.87 627.739 1030.45 628.291 1030.45 629.131C1030.45 629.947 1029.86 630.499 1028.98 630.499C1028.13 630.499 1027.56 629.947 1027.56 629.131C1027.56 628.291 1028.13 627.739 1028.98 627.739ZM1032.25 631.579C1033.44 631.279 1034.12 630.547 1034.12 629.203C1034.12 627.511 1032.45 626.455 1030.16 626.455C1029.25 626.455 1028.58 626.587 1027.93 626.899C1026.94 627.391 1026.51 628.219 1026.51 629.119C1026.51 630.727 1027.66 631.639 1029.01 631.639C1030.32 631.639 1031.46 630.739 1031.46 629.251C1031.46 628.471 1031.06 627.823 1030.51 627.559L1030.64 627.559C1031.88 627.559 1033.1 628.207 1033.1 629.203C1033.1 629.803 1032.78 630.163 1032.25 630.331L1032.25 631.579Z" fill="#858E97"/>
<path d="M1056.85 659.16C1058.16 659.052 1059.12 658.248 1059.12 656.664C1059.12 655.152 1058.21 654.192 1056.46 654.192L1051.63 654.192L1051.63 655.44L1056.46 655.44C1057.5 655.44 1057.98 655.848 1057.98 656.688C1057.98 657.396 1057.56 657.78 1056.85 657.864L1056.85 659.16ZM1059.12 649.868C1059.12 648.104 1058.09 646.916 1056.07 646.916L1051.63 646.916L1051.63 648.164L1055.93 648.164C1057.34 648.164 1058 648.764 1058 649.868C1058 650.972 1057.34 651.572 1055.93 651.572L1051.63 651.572L1051.63 652.82L1056.06 652.82C1058.09 652.82 1059.12 651.62 1059.12 649.868ZM1051.63 639.471L1051.63 640.671L1056.74 640.671L1051.63 644.223L1051.63 645.399L1059 645.399L1059 644.199L1053.64 644.199L1059 640.431L1059 639.471L1051.63 639.471ZM1051.63 632.84L1051.63 633.572L1052.75 635.78L1054.01 635.78L1053.13 634.052L1059 634.052L1059 632.84L1051.63 632.84ZM1053.98 627.739C1054.87 627.739 1055.45 628.291 1055.45 629.131C1055.45 629.947 1054.86 630.499 1053.98 630.499C1053.13 630.499 1052.56 629.947 1052.56 629.131C1052.56 628.291 1053.13 627.739 1053.98 627.739ZM1057.25 631.579C1058.44 631.279 1059.12 630.547 1059.12 629.203C1059.12 627.511 1057.45 626.455 1055.16 626.455C1054.25 626.455 1053.58 626.587 1052.93 626.899C1051.94 627.391 1051.51 628.219 1051.51 629.119C1051.51 630.727 1052.66 631.639 1054.01 631.639C1055.32 631.639 1056.46 630.739 1056.46 629.251C1056.46 628.471 1056.06 627.823 1055.51 627.559L1055.64 627.559C1056.88 627.559 1058.1 628.207 1058.1 629.203C1058.1 629.803 1057.78 630.163 1057.25 630.331L1057.25 631.579Z" fill="#858E97"/>
<path d="M35.78 587.14C37.726 587.14 39.028 585.32 39.028 582.702C39.028 580.084 37.726 578.264 35.78 578.264C33.834 578.264 32.532 580.084 32.532 582.702C32.532 585.32 33.834 587.14 35.78 587.14ZM35.78 579.58C37.04 579.58 37.6 580.896 37.6 582.702C37.6 584.508 37.04 585.824 35.78 585.824C34.506 585.824 33.946 584.508 33.946 582.702C33.946 580.896 34.506 579.58 35.78 579.58Z" fill="#858E97"/>
<path d="M36.606 520.77C36.606 521.512 35.864 522.24 34.982 523.22L32.434 526.048V527H38.16V525.726H34.422L36.27 523.668C37.152 522.674 38.02 521.806 38.02 520.756C38.02 519.23 37.012 518.264 35.29 518.264C33.694 518.264 32.588 519.384 32.42 520.98H33.918C33.974 520.168 34.436 519.552 35.29 519.552C36.102 519.552 36.606 520.056 36.606 520.77ZM42.3562 527.14C44.3022 527.14 45.6042 525.32 45.6042 522.702C45.6042 520.084 44.3022 518.264 42.3562 518.264C40.4102 518.264 39.1082 520.084 39.1082 522.702C39.1082 525.32 40.4102 527.14 42.3562 527.14ZM42.3562 519.58C43.6162 519.58 44.1762 520.896 44.1762 522.702C44.1762 524.508 43.6162 525.824 42.3562 525.824C41.0822 525.824 40.5222 524.508 40.5222 522.702C40.5222 520.896 41.0822 519.58 42.3562 519.58Z" fill="#858E97"/>
<path d="M37.026 455.404H35.556L32.322 461.2V462.208H36.2V464H37.544V462.208H38.958V461.004H37.544V458.988H36.2V461.004H33.904L37.026 455.404ZM43.0808 464.14C45.0268 464.14 46.3288 462.32 46.3288 459.702C46.3288 457.084 45.0268 455.264 43.0808 455.264C41.1348 455.264 39.8328 457.084 39.8328 459.702C39.8328 462.32 41.1348 464.14 43.0808 464.14ZM43.0808 456.58C44.3408 456.58 44.9008 457.896 44.9008 459.702C44.9008 461.508 44.3408 462.824 43.0808 462.824C41.8068 462.824 41.2468 461.508 41.2468 459.702C41.2468 457.896 41.8068 456.58 43.0808 456.58Z" fill="#858E97"/>
<path d="M34.03 397.256C34.03 396.22 34.674 395.548 35.654 395.548C36.606 395.548 37.25 396.234 37.25 397.256C37.25 398.25 36.606 398.922 35.654 398.922C34.674 398.922 34.03 398.25 34.03 397.256ZM38.51 393.448C38.16 392.062 37.306 391.264 35.738 391.264C33.764 391.264 32.532 393.21 32.532 395.884C32.532 396.948 32.686 397.732 33.05 398.488C33.624 399.636 34.59 400.14 35.64 400.14C37.516 400.14 38.58 398.796 38.58 397.228C38.58 395.702 37.53 394.372 35.794 394.372C34.884 394.372 34.128 394.834 33.82 395.478V395.324C33.82 393.882 34.576 392.454 35.738 392.454C36.438 392.454 36.858 392.832 37.054 393.448H38.51ZM42.8484 400.14C44.7944 400.14 46.0964 398.32 46.0964 395.702C46.0964 393.084 44.7944 391.264 42.8484 391.264C40.9024 391.264 39.6004 393.084 39.6004 395.702C39.6004 398.32 40.9024 400.14 42.8484 400.14ZM42.8484 392.58C44.1084 392.58 44.6684 393.896 44.6684 395.702C44.6684 397.508 44.1084 398.824 42.8484 398.824C41.5744 398.824 41.0144 397.508 41.0144 395.702C41.0144 393.896 41.5744 392.58 42.8484 392.58Z" fill="#858E97"/>
<path d="M35.444 335.964C34.548 335.964 33.876 335.432 33.876 334.55C33.876 333.654 34.548 333.136 35.444 333.136C36.34 333.136 37.012 333.654 37.012 334.55C37.012 335.432 36.34 335.964 35.444 335.964ZM35.444 331.918C34.744 331.918 34.128 331.47 34.128 330.686C34.128 329.874 34.744 329.426 35.444 329.426C36.144 329.426 36.76 329.874 36.76 330.686C36.76 331.47 36.144 331.918 35.444 331.918ZM35.444 337.14C37.096 337.14 38.412 336.216 38.412 334.662C38.412 333.514 37.67 332.758 36.83 332.548C37.558 332.268 38.146 331.582 38.146 330.616C38.146 329.104 36.886 328.264 35.444 328.264C34.002 328.264 32.742 329.104 32.742 330.616C32.742 331.582 33.33 332.268 34.058 332.548C33.218 332.758 32.476 333.514 32.476 334.662C32.476 336.216 33.792 337.14 35.444 337.14ZM42.6706 337.14C44.6166 337.14 45.9186 335.32 45.9186 332.702C45.9186 330.084 44.6166 328.264 42.6706 328.264C40.7246 328.264 39.4226 330.084 39.4226 332.702C39.4226 335.32 40.7246 337.14 42.6706 337.14ZM42.6706 329.58C43.9306 329.58 44.4906 330.896 44.4906 332.702C44.4906 334.508 43.9306 335.824 42.6706 335.824C41.3966 335.824 40.8366 334.508 40.8366 332.702C40.8366 330.896 41.3966 329.58 42.6706 329.58Z" fill="#858E97"/>
<path d="M35.696 265.404H34.842L32.266 266.706V268.176L34.282 267.154V274H35.696V265.404ZM40.3874 274.14C42.3334 274.14 43.6354 272.32 43.6354 269.702C43.6354 267.084 42.3334 265.264 40.3874 265.264C38.4414 265.264 37.1394 267.084 37.1394 269.702C37.1394 272.32 38.4414 274.14 40.3874 274.14ZM40.3874 266.58C41.6474 266.58 42.2074 267.896 42.2074 269.702C42.2074 271.508 41.6474 272.824 40.3874 272.824C39.1134 272.824 38.5534 271.508 38.5534 269.702C38.5534 267.896 39.1134 266.58 40.3874 266.58ZM47.948 274.14C49.894 274.14 51.196 272.32 51.196 269.702C51.196 267.084 49.894 265.264 47.948 265.264C46.002 265.264 44.7 267.084 44.7 269.702C44.7 272.32 46.002 274.14 47.948 274.14ZM47.948 266.58C49.208 266.58 49.768 267.896 49.768 269.702C49.768 271.508 49.208 272.824 47.948 272.824C46.674 272.824 46.114 271.508 46.114 269.702C46.114 267.896 46.674 266.58 47.948 266.58Z" fill="#858E97"/>
<path d="M35.696 201.404H34.842L32.266 202.706V204.176L34.282 203.154V210H35.696V201.404ZM41.2818 203.77C41.2818 204.512 40.5398 205.24 39.6578 206.22L37.1098 209.048V210H42.8358V208.726H39.0978L40.9458 206.668C41.8278 205.674 42.6958 204.806 42.6958 203.756C42.6958 202.23 41.6878 201.264 39.9658 201.264C38.3698 201.264 37.2638 202.384 37.0958 203.98H38.5938C38.6498 203.168 39.1118 202.552 39.9658 202.552C40.7778 202.552 41.2818 203.056 41.2818 203.77ZM47.032 210.14C48.978 210.14 50.28 208.32 50.28 205.702C50.28 203.084 48.978 201.264 47.032 201.264C45.086 201.264 43.784 203.084 43.784 205.702C43.784 208.32 45.086 210.14 47.032 210.14ZM47.032 202.58C48.292 202.58 48.852 203.896 48.852 205.702C48.852 207.508 48.292 208.824 47.032 208.824C45.758 208.824 45.198 207.508 45.198 205.702C45.198 203.896 45.758 202.58 47.032 202.58Z" fill="#858E97"/>
<line opacity="0.8" x1="68" y1="458.75" x2="1053.77" y2="458.75" stroke="#08080B" stroke-width="0.5"/>
<line opacity="0.8" x1="68" y1="521.75" x2="1053.77" y2="521.75" stroke="#08080B" stroke-width="0.5"/>
<line opacity="0.8" x1="68" y1="395.75" x2="1056" y2="395.75" stroke="#08080B" stroke-width="0.5"/>
<line opacity="0.8" x1="68" y1="332.75" x2="1056" y2="332.75" stroke="#08080B" stroke-width="0.5"/>
<line opacity="0.8" x1="68" y1="205.75" x2="1056" y2="205.75" stroke="#08080B" stroke-width="0.5"/>
<line opacity="0.8" x1="68" y1="269.75" x2="1056" y2="269.75" stroke="#08080B" stroke-width="0.5"/>
<line x1="68" y1="584.5" x2="1053.77" y2="584.5" stroke="#73737D"/>
<line opacity="0.8" x1="105.75" y1="611" x2="105.75" y2="206" stroke="#08080B" stroke-width="0.5"/>
<line opacity="0.8" x1="130.75" y1="611" x2="130.75" y2="206" stroke="#08080B" stroke-width="0.5"/>
<line opacity="0.8" x1="155.75" y1="611" x2="155.75" y2="206" stroke="#08080B" stroke-width="0.5"/>
<line opacity="0.8" x1="180.75" y1="611" x2="180.75" y2="206" stroke="#08080B" stroke-width="0.5"/>
<line opacity="0.8" x1="205.75" y1="611" x2="205.75" y2="206" stroke="#08080B" stroke-width="0.5"/>
<line opacity="0.8" x1="230.75" y1="611" x2="230.75" y2="206" stroke="#08080B" stroke-width="0.5"/>
<line opacity="0.8" x1="255.75" y1="611" x2="255.75" y2="206" stroke="#08080B" stroke-width="0.5"/>
<line opacity="0.8" x1="280.75" y1="611" x2="280.75" y2="206" stroke="#08080B" stroke-width="0.5"/>
<line opacity="0.8" x1="305.75" y1="611" x2="305.75" y2="206" stroke="#08080B" stroke-width="0.5"/>
<line opacity="0.8" x1="330.75" y1="611" x2="330.75" y2="206" stroke="#08080B" stroke-width="0.5"/>
<line opacity="0.8" x1="355.75" y1="611" x2="355.75" y2="206" stroke="#08080B" stroke-width="0.5"/>
<line opacity="0.8" x1="380.75" y1="611" x2="380.75" y2="206" stroke="#08080B" stroke-width="0.5"/>
<line opacity="0.8" x1="405.75" y1="611" x2="405.75" y2="206" stroke="#08080B" stroke-width="0.5"/>
<line opacity="0.8" x1="430.75" y1="611" x2="430.75" y2="206" stroke="#08080B" stroke-width="0.5"/>
<line opacity="0.8" x1="455.75" y1="611" x2="455.75" y2="206" stroke="#08080B" stroke-width="0.5"/>
<line opacity="0.8" x1="480.75" y1="611" x2="480.75" y2="206" stroke="#08080B" stroke-width="0.5"/>
<line opacity="0.8" x1="505.75" y1="611" x2="505.75" y2="206" stroke="#08080B" stroke-width="0.5"/>
<line opacity="0.8" x1="530.75" y1="611" x2="530.75" y2="206" stroke="#08080B" stroke-width="0.5"/>
<line opacity="0.8" x1="555.75" y1="611" x2="555.75" y2="206" stroke="#08080B" stroke-width="0.5"/>
<line opacity="0.8" x1="580.75" y1="611" x2="580.75" y2="206" stroke="#08080B" stroke-width="0.5"/>
<line opacity="0.8" x1="605.75" y1="611" x2="605.75" y2="206" stroke="#08080B" stroke-width="0.5"/>
<line opacity="0.8" x1="630.75" y1="611" x2="630.75" y2="206" stroke="#08080B" stroke-width="0.5"/>
<line opacity="0.8" x1="655.75" y1="611" x2="655.75" y2="206" stroke="#08080B" stroke-width="0.5"/>
<line opacity="0.8" x1="680.75" y1="611" x2="680.75" y2="206" stroke="#08080B" stroke-width="0.5"/>
<line opacity="0.8" x1="705.75" y1="611" x2="705.75" y2="206" stroke="#08080B" stroke-width="0.5"/>
<line opacity="0.8" x1="730.75" y1="611" x2="730.75" y2="206" stroke="#08080B" stroke-width="0.5"/>
<line opacity="0.8" x1="755.75" y1="611" x2="755.75" y2="206" stroke="#08080B" stroke-width="0.5"/>
<line opacity="0.8" x1="780.75" y1="611" x2="780.75" y2="206" stroke="#08080B" stroke-width="0.5"/>
<line opacity="0.8" x1="805.75" y1="611" x2="805.75" y2="206" stroke="#08080B" stroke-width="0.5"/>
<line opacity="0.8" x1="830.75" y1="611" x2="830.75" y2="206" stroke="#08080B" stroke-width="0.5"/>
<line opacity="0.8" x1="855.75" y1="611" x2="855.75" y2="206" stroke="#08080B" stroke-width="0.5"/>
<line opacity="0.8" x1="880.75" y1="611" x2="880.75" y2="206" stroke="#08080B" stroke-width="0.5"/>
<line opacity="0.8" x1="905.75" y1="611" x2="905.75" y2="206" stroke="#08080B" stroke-width="0.5"/>
<line opacity="0.8" x1="930.75" y1="611" x2="930.75" y2="206" stroke="#08080B" stroke-width="0.5"/>
<line opacity="0.8" x1="955.75" y1="611" x2="955.75" y2="206" stroke="#08080B" stroke-width="0.5"/>
<line opacity="0.8" x1="980.75" y1="611" x2="980.75" y2="206" stroke="#08080B" stroke-width="0.5"/>
<line opacity="0.8" x1="1005.75" y1="611" x2="1005.75" y2="206" stroke="#08080B" stroke-width="0.5"/>
<line opacity="0.8" x1="1030.75" y1="611" x2="1030.75" y2="206" stroke="#08080B" stroke-width="0.5"/>
<line opacity="0.8" x1="1055.75" y1="611" x2="1055.75" y2="206" stroke="#08080B" stroke-width="0.5"/>
<line opacity="0.8" x1="84.75" y1="611" x2="84.75" y2="206" stroke="#08080B" stroke-width="0.5"/>
<path d="M84 532L84 587" stroke="#6166DC" stroke-width="5" stroke-miterlimit="10" stroke-linecap="round" stroke-linejoin="round"/>
<g opacity="0.3">
<path d="M92 522L92 587" stroke="#6166DC" stroke-width="2.5" stroke-miterlimit="10" stroke-linecap="round" stroke-linejoin="round"/>
<path d="M98 519L98 587" stroke="#6166DC" stroke-width="2.5" stroke-miterlimit="10" stroke-linecap="round" stroke-linejoin="round"/>
<path d="M116 511L116 587" stroke="#6166DC" stroke-width="2.5" stroke-miterlimit="10" stroke-linecap="round" stroke-linejoin="round"/>
<path d="M122 509L122 587" stroke="#6166DC" stroke-width="2.5" stroke-miterlimit="10" stroke-linecap="round" stroke-linejoin="round"/>
<path d="M141 502L141 587" stroke="#6166DC" stroke-width="2.5" stroke-miterlimit="10" stroke-linecap="round" stroke-linejoin="round"/>
<path d="M147 516L147 587" stroke="#6166DC" stroke-width="2.5" stroke-miterlimit="10" stroke-linecap="round" stroke-linejoin="round"/>
<path d="M166 502L166 587" stroke="#6166DC" stroke-width="2.5" stroke-miterlimit="10" stroke-linecap="round" stroke-linejoin="round"/>
<path d="M172 498L172 587" stroke="#6166DC" stroke-width="2.5" stroke-miterlimit="10" stroke-linecap="round" stroke-linejoin="round"/>
<path d="M191 507L191 587" stroke="#6166DC" stroke-width="2.5" stroke-miterlimit="10" stroke-linecap="round" stroke-linejoin="round"/>
<path d="M197 513L197 587" stroke="#6166DC" stroke-width="2.5" stroke-miterlimit="10" stroke-linecap="round" stroke-linejoin="round"/>
<path d="M215 493L215 587" stroke="#6166DC" stroke-width="2.5" stroke-miterlimit="10" stroke-linecap="round" stroke-linejoin="round"/>
<path d="M221 511L221 587" stroke="#6166DC" stroke-width="2.5" stroke-miterlimit="10" stroke-linecap="round" stroke-linejoin="round"/>
<path d="M241 481L241 587" stroke="#6166DC" stroke-width="2.5" stroke-miterlimit="10" stroke-linecap="round" stroke-linejoin="round"/>
<path d="M247 473L247 587" stroke="#6166DC" stroke-width="2.5" stroke-miterlimit="10" stroke-linecap="round" stroke-linejoin="round"/>
<path d="M266 490L266 587" stroke="#6166DC" stroke-width="2.5" stroke-miterlimit="10" stroke-linecap="round" stroke-linejoin="round"/>
<path d="M272 503L272 587" stroke="#6166DC" stroke-width="2.5" stroke-miterlimit="10" stroke-linecap="round" stroke-linejoin="round"/>
<path d="M291 502L291 587" stroke="#6166DC" stroke-width="2.5" stroke-miterlimit="10" stroke-linecap="round" stroke-linejoin="round"/>
<path d="M297 469L297 587" stroke="#6166DC" stroke-width="2.5" stroke-miterlimit="10" stroke-linecap="round" stroke-linejoin="round"/>
<path d="M316 522L316 587" stroke="#6166DC" stroke-width="2.5" stroke-miterlimit="10" stroke-linecap="round" stroke-linejoin="round"/>
<path d="M322 519L322 587" stroke="#6166DC" stroke-width="2.5" stroke-miterlimit="10" stroke-linecap="round" stroke-linejoin="round"/>
<path d="M341 503L341 587" stroke="#6166DC" stroke-width="2.5" stroke-miterlimit="10" stroke-linecap="round" stroke-linejoin="round"/>
<path d="M347 495L347 587" stroke="#6166DC" stroke-width="2.5" stroke-miterlimit="10" stroke-linecap="round" stroke-linejoin="round"/>
<path d="M366 522L366 587" stroke="#6166DC" stroke-width="2.5" stroke-miterlimit="10" stroke-linecap="round" stroke-linejoin="round"/>
<path d="M372 503L372 587" stroke="#6166DC" stroke-width="2.5" stroke-miterlimit="10" stroke-linecap="round" stroke-linejoin="round"/>
<path d="M391 513L391 587" stroke="#6166DC" stroke-width="2.5" stroke-miterlimit="10" stroke-linecap="round" stroke-linejoin="round"/>
<path d="M397 513L397 587" stroke="#6166DC" stroke-width="2.5" stroke-miterlimit="10" stroke-linecap="round" stroke-linejoin="round"/>
<path d="M416 505L416 587" stroke="#6166DC" stroke-width="2.5" stroke-miterlimit="10" stroke-linecap="round" stroke-linejoin="round"/>
<path d="M422 519L422 587" stroke="#6166DC" stroke-width="2.5" stroke-miterlimit="10" stroke-linecap="round" stroke-linejoin="round"/>
<path d="M440 493L440 587" stroke="#6166DC" stroke-width="2.5" stroke-miterlimit="10" stroke-linecap="round" stroke-linejoin="round"/>
<path d="M446 498L446 587" stroke="#6166DC" stroke-width="2.5" stroke-miterlimit="10" stroke-linecap="round" stroke-linejoin="round"/>
<path d="M466 503L466 587" stroke="#6166DC" stroke-width="2.5" stroke-miterlimit="10" stroke-linecap="round" stroke-linejoin="round"/>
<path d="M472 509L472 587" stroke="#6166DC" stroke-width="2.5" stroke-miterlimit="10" stroke-linecap="round" stroke-linejoin="round"/>
<path d="M491 511L491 587" stroke="#6166DC" stroke-width="2.5" stroke-miterlimit="10" stroke-linecap="round" stroke-linejoin="round"/>
<path d="M497 507L497 587" stroke="#6166DC" stroke-width="2.5" stroke-miterlimit="10" stroke-linecap="round" stroke-linejoin="round"/>
<path d="M516 487L516 587" stroke="#6166DC" stroke-width="2.5" stroke-miterlimit="10" stroke-linecap="round" stroke-linejoin="round"/>
<path d="M522 485L522 587" stroke="#6166DC" stroke-width="2.5" stroke-miterlimit="10" stroke-linecap="round" stroke-linejoin="round"/>
<path d="M541 522L541 587" stroke="#6166DC" stroke-width="2.5" stroke-miterlimit="10" stroke-linecap="round" stroke-linejoin="round"/>
<path d="M547 519L547 587" stroke="#6166DC" stroke-width="2.5" stroke-miterlimit="10" stroke-linecap="round" stroke-linejoin="round"/>
<path d="M566 493L566 587" stroke="#6166DC" stroke-width="2.5" stroke-miterlimit="10" stroke-linecap="round" stroke-linejoin="round"/>
<path d="M572 487L572 587" stroke="#6166DC" stroke-width="2.5" stroke-miterlimit="10" stroke-linecap="round" stroke-linejoin="round"/>
<path d="M591 487L591 587" stroke="#6166DC" stroke-width="2.5" stroke-miterlimit="10" stroke-linecap="round" stroke-linejoin="round"/>
<path d="M597 478L597 587" stroke="#6166DC" stroke-width="2.5" stroke-miterlimit="10" stroke-linecap="round" stroke-linejoin="round"/>
<path d="M616 438L616 587" stroke="#6166DC" stroke-width="2.5" stroke-miterlimit="10" stroke-linecap="round" stroke-linejoin="round"/>
<path d="M622 463L622 587" stroke="#6166DC" stroke-width="2.5" stroke-miterlimit="10" stroke-linecap="round" stroke-linejoin="round"/>
<path d="M640 465L640 587" stroke="#6166DC" stroke-width="2.5" stroke-miterlimit="10" stroke-linecap="round" stroke-linejoin="round"/>
<path d="M646 476L646 587" stroke="#6166DC" stroke-width="2.5" stroke-miterlimit="10" stroke-linecap="round" stroke-linejoin="round"/>
<path d="M666 467L666 587" stroke="#6166DC" stroke-width="2.5" stroke-miterlimit="10" stroke-linecap="round" stroke-linejoin="round"/>
<path d="M672 457L672 587" stroke="#6166DC" stroke-width="2.5" stroke-miterlimit="10" stroke-linecap="round" stroke-linejoin="round"/>
<path d="M691 483L691 587" stroke="#6166DC" stroke-width="2.5" stroke-miterlimit="10" stroke-linecap="round" stroke-linejoin="round"/>
<path d="M697 490L697 587" stroke="#6166DC" stroke-width="2.5" stroke-miterlimit="10" stroke-linecap="round" stroke-linejoin="round"/>
<path d="M716 461L716 587" stroke="#6166DC" stroke-width="2.5" stroke-miterlimit="10" stroke-linecap="round" stroke-linejoin="round"/>
<path d="M722 480L722 587" stroke="#6166DC" stroke-width="2.5" stroke-miterlimit="10" stroke-linecap="round" stroke-linejoin="round"/>
<path d="M741 483L741 587" stroke="#6166DC" stroke-width="2.5" stroke-miterlimit="10" stroke-linecap="round" stroke-linejoin="round"/>
<path d="M747 490L747 587" stroke="#6166DC" stroke-width="2.5" stroke-miterlimit="10" stroke-linecap="round" stroke-linejoin="round"/>
<path d="M766 471L766 587" stroke="#6166DC" stroke-width="2.5" stroke-miterlimit="10" stroke-linecap="round" stroke-linejoin="round"/>
<path d="M772 483L772 587" stroke="#6166DC" stroke-width="2.5" stroke-miterlimit="10" stroke-linecap="round" stroke-linejoin="round"/>
<path d="M791 480L791 587" stroke="#6166DC" stroke-width="2.5" stroke-miterlimit="10" stroke-linecap="round" stroke-linejoin="round"/>
<path d="M797 467L797 587" stroke="#6166DC" stroke-width="2.5" stroke-miterlimit="10" stroke-linecap="round" stroke-linejoin="round"/>
<path d="M816 435L816 587" stroke="#6166DC" stroke-width="2.5" stroke-miterlimit="10" stroke-linecap="round" stroke-linejoin="round"/>
<path d="M822 440L822 587" stroke="#6166DC" stroke-width="2.5" stroke-miterlimit="10" stroke-linecap="round" stroke-linejoin="round"/>
<path d="M841 446L841 587" stroke="#6166DC" stroke-width="2.5" stroke-miterlimit="10" stroke-linecap="round" stroke-linejoin="round"/>
<path d="M847 451L847 587" stroke="#6166DC" stroke-width="2.5" stroke-miterlimit="10" stroke-linecap="round" stroke-linejoin="round"/>
<path d="M866 424L866 587" stroke="#6166DC" stroke-width="2.5" stroke-miterlimit="10" stroke-linecap="round" stroke-linejoin="round"/>
<path d="M872 420L872 587" stroke="#6166DC" stroke-width="2.5" stroke-miterlimit="10" stroke-linecap="round" stroke-linejoin="round"/>
<path d="M891 399L891 587" stroke="#6166DC" stroke-width="2.5" stroke-miterlimit="10" stroke-linecap="round" stroke-linejoin="round"/>
<path d="M897 347L897 587" stroke="#6166DC" stroke-width="2.5" stroke-miterlimit="10" stroke-linecap="round" stroke-linejoin="round"/>
<path d="M916 295L916 587" stroke="#6166DC" stroke-width="2.5" stroke-miterlimit="10" stroke-linecap="round" stroke-linejoin="round"/>
<path d="M922 396L922 587" stroke="#6166DC" stroke-width="2.5" stroke-miterlimit="10" stroke-linecap="round" stroke-linejoin="round"/>
<path d="M941 426L941 587" stroke="#6166DC" stroke-width="2.5" stroke-miterlimit="10" stroke-linecap="round" stroke-linejoin="round"/>
<path d="M947 435L947 587" stroke="#6166DC" stroke-width="2.5" stroke-miterlimit="10" stroke-linecap="round" stroke-linejoin="round"/>
<path d="M966 432L966 587" stroke="#6166DC" stroke-width="2.5" stroke-miterlimit="10" stroke-linecap="round" stroke-linejoin="round"/>
<path d="M972 412L972 587" stroke="#6166DC" stroke-width="2.5" stroke-miterlimit="10" stroke-linecap="round" stroke-linejoin="round"/>
<path d="M991 432L991 587" stroke="#6166DC" stroke-width="2.5" stroke-miterlimit="10" stroke-linecap="round" stroke-linejoin="round"/>
<path d="M997 451L997 587" stroke="#6166DC" stroke-width="2.5" stroke-miterlimit="10" stroke-linecap="round" stroke-linejoin="round"/>
<path d="M1015 412L1015 587" stroke="#6166DC" stroke-width="2.5" stroke-miterlimit="10" stroke-linecap="round" stroke-linejoin="round"/>
<path d="M1021 432L1021 587" stroke="#6166DC" stroke-width="2.5" stroke-miterlimit="10" stroke-linecap="round" stroke-linejoin="round"/>
<path d="M1041 432L1041 587" stroke="#6166DC" stroke-width="2.5" stroke-miterlimit="10" stroke-linecap="round" stroke-linejoin="round"/>
<path d="M1047 435L1047 587" stroke="#6166DC" stroke-width="2.5" stroke-miterlimit="10" stroke-linecap="round" stroke-linejoin="round"/>
</g>
<path d="M106 514L106 587" stroke="#6166DC" stroke-width="5" stroke-miterlimit="10" stroke-linecap="round" stroke-linejoin="round"/>
<path d="M131 514L131 587" stroke="#6166DC" stroke-width="5" stroke-miterlimit="10" stroke-linecap="round" stroke-linejoin="round"/>
<path d="M156 507L156 587" stroke="#6166DC" stroke-width="5" stroke-miterlimit="10" stroke-linecap="round" stroke-linejoin="round"/>
<path d="M181 509L181 587" stroke="#6166DC" stroke-width="5" stroke-miterlimit="10" stroke-linecap="round" stroke-linejoin="round"/>
<path d="M206 507L206 587" stroke="#6166DC" stroke-width="5" stroke-miterlimit="10" stroke-linecap="round" stroke-linejoin="round"/>
<path d="M231 495L231 587" stroke="#6166DC" stroke-width="5" stroke-miterlimit="10" stroke-linecap="round" stroke-linejoin="round"/>
<path d="M256 490L256 587" stroke="#6166DC" stroke-width="5" stroke-miterlimit="10" stroke-linecap="round" stroke-linejoin="round"/>
<path d="M281 507L281 587" stroke="#6166DC" stroke-width="5" stroke-miterlimit="10" stroke-linecap="round" stroke-linejoin="round"/>
<path d="M306 502L306 587" stroke="#6166DC" stroke-width="5" stroke-miterlimit="10" stroke-linecap="round" stroke-linejoin="round"/>
<path d="M331 518L331 587" stroke="#6166DC" stroke-width="5" stroke-miterlimit="10" stroke-linecap="round" stroke-linejoin="round"/>
<path d="M356 509L356 587" stroke="#6166DC" stroke-width="5" stroke-miterlimit="10" stroke-linecap="round" stroke-linejoin="round"/>
<path d="M381 511L381 587" stroke="#6166DC" stroke-width="5" stroke-miterlimit="10" stroke-linecap="round" stroke-linejoin="round"/>
<path d="M406 495L406 587" stroke="#6166DC" stroke-width="5" stroke-miterlimit="10" stroke-linecap="round" stroke-linejoin="round"/>
<path d="M431 505L431 587" stroke="#6166DC" stroke-width="5" stroke-miterlimit="10" stroke-linecap="round" stroke-linejoin="round"/>
<path d="M456 495L456 587" stroke="#6166DC" stroke-width="5" stroke-miterlimit="10" stroke-linecap="round" stroke-linejoin="round"/>
<path d="M481 507L481 587" stroke="#6166DC" stroke-width="5" stroke-miterlimit="10" stroke-linecap="round" stroke-linejoin="round"/>
<path d="M506 485L506 587" stroke="#6166DC" stroke-width="5" stroke-miterlimit="10" stroke-linecap="round" stroke-linejoin="round"/>
<path d="M531 483L531 587" stroke="#6166DC" stroke-width="5" stroke-miterlimit="10" stroke-linecap="round" stroke-linejoin="round"/>
<path d="M556 485L556 587" stroke="#6166DC" stroke-width="5" stroke-miterlimit="10" stroke-linecap="round" stroke-linejoin="round"/>
<path d="M581 483L581 587" stroke="#6166DC" stroke-width="5" stroke-miterlimit="10" stroke-linecap="round" stroke-linejoin="round"/>
<path d="M606 459L606 587" stroke="#6166DC" stroke-width="5" stroke-miterlimit="10" stroke-linecap="round" stroke-linejoin="round"/>
<path d="M631 455L631 587" stroke="#6166DC" stroke-width="5" stroke-miterlimit="10" stroke-linecap="round" stroke-linejoin="round"/>
<path d="M656 465L656 587" stroke="#6166DC" stroke-width="5" stroke-miterlimit="10" stroke-linecap="round" stroke-linejoin="round"/>
<path d="M681 472L681 587" stroke="#6166DC" stroke-width="5" stroke-miterlimit="10" stroke-linecap="round" stroke-linejoin="round"/>
<path d="M706 475L706 587" stroke="#6166DC" stroke-width="5" stroke-miterlimit="10" stroke-linecap="round" stroke-linejoin="round"/>
<path d="M731 469L731 587" stroke="#6166DC" stroke-width="5" stroke-miterlimit="10" stroke-linecap="round" stroke-linejoin="round"/>
<path d="M756 476L756 587" stroke="#6166DC" stroke-width="5" stroke-miterlimit="10" stroke-linecap="round" stroke-linejoin="round"/>
<path d="M781 472L781 587" stroke="#6166DC" stroke-width="5" stroke-miterlimit="10" stroke-linecap="round" stroke-linejoin="round"/>
<path d="M806 469L806 587" stroke="#6166DC" stroke-width="5" stroke-miterlimit="10" stroke-linecap="round" stroke-linejoin="round"/>
<path d="M831 429L831 587" stroke="#6166DC" stroke-width="5" stroke-miterlimit="10" stroke-linecap="round" stroke-linejoin="round"/>
<path d="M856 424L856 587" stroke="#6166DC" stroke-width="5" stroke-miterlimit="10" stroke-linecap="round" stroke-linejoin="round"/>
<path d="M881 412L881 587" stroke="#6166DC" stroke-width="5" stroke-miterlimit="10" stroke-linecap="round" stroke-linejoin="round"/>
<path d="M906 270L906 587" stroke="#6166DC" stroke-width="5" stroke-miterlimit="10" stroke-linecap="round" stroke-linejoin="round"/>
<path d="M931 426L931 587" stroke="#6166DC" stroke-width="5" stroke-miterlimit="10" stroke-linecap="round" stroke-linejoin="round"/>
<path d="M956 425L956 587" stroke="#6166DC" stroke-width="5" stroke-miterlimit="10" stroke-linecap="round" stroke-linejoin="round"/>
<path d="M981 446L981 587" stroke="#6166DC" stroke-width="5" stroke-miterlimit="10" stroke-linecap="round" stroke-linejoin="round"/>
<path d="M1006 409L1006 587" stroke="#6166DC" stroke-width="5" stroke-miterlimit="10" stroke-linecap="round" stroke-linejoin="round"/>
<path d="M1031 440L1031 587" stroke="#6166DC" stroke-width="5" stroke-miterlimit="10" stroke-linecap="round" stroke-linejoin="round"/>
<path d="M1056 422L1056 587" stroke="#6166DC" stroke-width="5" stroke-miterlimit="10" stroke-linecap="round" stroke-linejoin="round"/>
<path d="M81.5 503C233.5 503 629 519 1057 396" stroke="#E9DAAC" stroke-width="2" stroke-linecap="round"/>
</svg>
