<svg width="146" height="18" viewBox="0 0 146 18" fill="none" xmlns="http://www.w3.org/2000/svg">
<path d="M12.0553 8.61756C12.0553 9.89356 12.1873 11.3896 12.2533 11.8956H12.1433C11.9013 11.2576 11.3733 10.1136 10.6913 9.03556L6.02731 1.70956H0.945312V2.76556C2.08931 2.78756 2.44131 3.09556 2.44131 4.34956V14.4256C2.44131 15.6796 2.08931 15.9876 0.945312 15.9876V16.9996H5.85131V15.9876C4.68531 15.9876 4.33331 15.6796 4.33331 14.4256V8.72756C4.33331 7.31956 4.20131 5.86756 4.13531 5.36156H4.22331C4.44331 5.84556 5.01531 7.03356 6.04931 8.63956L11.4393 16.9996H13.9033V4.34956C13.9033 3.09556 14.2333 2.78756 15.3773 2.76556V1.70956H10.5373V2.76556C11.7033 2.78756 12.0553 3.09556 12.0553 4.34956V8.61756Z" fill="#08080B"/>
<path d="M27.6361 11.2356C27.6361 7.38556 25.3481 5.51556 22.1581 5.51556C18.6601 5.51556 16.4601 7.86956 16.4601 11.4336C16.4601 15.1296 18.5281 17.2856 21.9821 17.2856C25.0401 17.2856 27.6361 15.4156 27.6361 11.2356ZM24.0501 11.1476C24.0501 14.5356 23.3901 15.9216 22.0921 15.9216C20.5081 15.9216 20.0461 14.5576 20.0461 11.4776C20.0461 8.00156 20.6621 6.92356 22.0481 6.92356C23.3681 6.92356 24.0501 7.95756 24.0501 11.1476Z" fill="#08080B"/>
<path d="M35.6714 17.1096L38.9055 8.17756C39.3015 7.12156 39.5654 6.92356 40.4454 6.81356V5.80156H35.8475V6.81356C36.7495 6.83556 37.1454 7.05556 37.1454 7.58356C37.1454 7.71556 37.1014 7.89156 37.0354 8.11156L35.6275 12.4456C35.4075 13.1716 35.2095 13.9636 35.1875 14.1396H35.0555C35.0115 13.8096 34.8795 13.1716 34.6375 12.4456L33.1415 8.11156C33.0535 7.89156 33.0095 7.71556 33.0095 7.56156C33.0095 7.09956 33.3395 6.83556 34.2635 6.81356V5.80156H28.3015V6.81356C29.0715 6.92356 29.2914 7.12156 29.7094 8.17756L33.1415 17.1096H35.6714Z" fill="#08080B"/>
<path d="M47.2075 15.3716C45.0955 15.3716 44.2595 14.3596 44.1715 11.8736H50.8595V10.9276C50.8595 7.56156 49.4515 5.51556 45.9975 5.51556C42.8075 5.51556 40.6515 7.64956 40.6515 11.3676C40.6515 15.1076 42.6535 17.2636 46.0635 17.2636C48.0215 17.2636 49.4735 16.6696 50.6615 15.5036L50.1335 14.6016C49.1875 15.1076 48.1315 15.3716 47.2075 15.3716ZM46.0195 6.87956C47.1635 6.87956 47.6035 7.71556 47.6035 10.3776H44.1935C44.3475 7.69356 44.8975 6.87956 46.0195 6.87956Z" fill="#08080B"/>
<path d="M56.6081 3.02956C56.6081 1.70956 56.3221 1.07156 56.2121 0.851562H55.8821L51.9001 1.44556V2.41356C53.0221 2.45756 53.3521 2.67756 53.3521 4.28356V14.4696C53.3521 15.7236 53.1101 15.9876 51.9881 16.0096V16.9996H57.9721V16.0096C56.8281 15.9876 56.6081 15.7016 56.6081 14.4476V3.02956Z" fill="#08080B"/>
<path d="M68.5876 13.6996C68.5876 11.6976 68.6756 9.87156 68.6756 9.21156C68.6756 6.63756 66.9156 5.51556 64.3856 5.51556C62.6036 5.51556 60.7996 6.06556 59.6336 6.74756V8.99156H62.0536C62.2076 7.82556 62.5596 6.98956 63.8136 6.98956C64.9796 6.98956 65.3976 7.71556 65.3976 9.40956V10.4216C65.1116 10.3996 64.6056 10.3776 64.3416 10.3776C60.8876 10.3776 58.9296 11.4556 58.9296 14.0516C58.9296 16.3176 60.4696 17.3076 62.4276 17.3076C64.1656 17.3076 65.1116 16.3836 65.4856 15.5916C65.6616 16.5156 66.3876 17.1316 67.7516 17.1316C68.7196 17.1316 69.5336 16.8896 69.9956 16.6036V15.6576C68.8296 15.6136 68.5876 15.3496 68.5876 13.6996ZM65.3536 11.6536L65.2876 14.4476C64.8916 14.9536 64.1876 15.2616 63.6156 15.2616C62.7796 15.2616 62.2956 14.8876 62.2956 13.6336C62.2956 12.2916 63.0876 11.6536 64.5836 11.6536H65.3536Z" fill="#08080B"/>
<path d="M75.7958 1.70956L75.5538 5.80156H77.2258C77.6658 3.90956 77.7978 3.27156 79.2278 3.27156H80.1738V14.4256C80.1738 15.7016 79.7558 15.9876 78.4358 15.9876V16.9996H85.3658V15.9876C84.0458 15.9876 83.6278 15.7016 83.6278 14.4256V3.27156H84.5738C85.9818 3.27156 86.1358 3.90956 86.5758 5.80156H88.2258L87.9838 1.70956H75.7958Z" fill="#08080B"/>
<path d="M93.7755 3.02956C93.7755 1.88556 93.5775 1.18156 93.3795 0.851562H93.0495L89.0895 1.44556V2.41356C90.1895 2.45756 90.4975 2.67756 90.4975 4.28356V14.4696C90.4975 15.7236 90.2775 15.9876 89.1775 16.0096V16.9996H95.1175V16.0096C93.9735 15.9876 93.7755 15.7016 93.7755 14.5136V8.68356C94.3475 8.24356 95.0075 7.84756 95.9975 7.84756C96.8995 7.84756 97.4495 8.30956 97.4495 9.62956V14.5136C97.4495 15.7016 97.2515 15.9876 96.1075 16.0096V16.9996H102.026V16.0096C100.948 15.9876 100.706 15.7236 100.706 14.4696V8.85956C100.706 6.59356 99.3415 5.53756 97.5375 5.53756C95.8215 5.53756 94.7435 6.30756 93.7755 7.38556V3.02956Z" fill="#08080B"/>
<path d="M109.684 15.3716C107.572 15.3716 106.736 14.3596 106.648 11.8736H113.336V10.9276C113.336 7.56156 111.928 5.51556 108.474 5.51556C105.284 5.51556 103.128 7.64956 103.128 11.3676C103.128 15.1076 105.13 17.2636 108.54 17.2636C110.498 17.2636 111.95 16.6696 113.138 15.5036L112.61 14.6016C111.664 15.1076 110.608 15.3716 109.684 15.3716ZM108.496 6.87956C109.64 6.87956 110.08 7.71556 110.08 10.3776H106.67C106.824 7.69356 107.374 6.87956 108.496 6.87956Z" fill="#08080B"/>
<path d="M125.553 7.47356C125.091 6.26356 123.991 5.53756 122.693 5.53756C121.109 5.53756 120.009 6.28556 119.063 7.42956C118.997 6.54956 118.601 5.77956 118.469 5.51556H118.139L114.597 6.39556V7.36356C115.697 7.40756 115.917 7.62756 115.917 9.23356V14.4696C115.917 15.7236 115.675 15.9876 114.575 16.0096V16.9996H120.427V16.0096C119.305 16.0096 119.195 15.7236 119.195 14.5356V8.63956C119.767 8.24356 120.361 7.84756 121.241 7.84756C122.077 7.84756 122.561 8.30956 122.561 9.62956V14.5356C122.561 15.7236 122.429 16.0096 121.329 16.0096V16.9996H127.027V16.0096C125.993 15.9876 125.839 15.7236 125.839 14.5356V8.57356C126.367 8.19956 126.961 7.84756 127.819 7.84756C128.655 7.84756 129.139 8.30956 129.139 9.62956V14.5356C129.139 15.7236 129.007 16.0096 127.907 16.0096V16.9996H133.715V16.0096C132.637 15.9876 132.395 15.7236 132.395 14.4696V8.85956C132.395 6.59356 131.031 5.53756 129.271 5.53756C127.709 5.53756 126.499 6.30756 125.553 7.47356Z" fill="#08080B"/>
<path d="M141.374 15.3716C139.262 15.3716 138.426 14.3596 138.338 11.8736H145.026V10.9276C145.026 7.56156 143.618 5.51556 140.164 5.51556C136.974 5.51556 134.818 7.64956 134.818 11.3676C134.818 15.1076 136.82 17.2636 140.23 17.2636C142.188 17.2636 143.64 16.6696 144.828 15.5036L144.3 14.6016C143.354 15.1076 142.298 15.3716 141.374 15.3716ZM140.186 6.87956C141.33 6.87956 141.77 7.71556 141.77 10.3776H138.36C138.514 7.69356 139.064 6.87956 140.186 6.87956Z" fill="#08080B"/>
</svg>
