<svg width="150" height="80" viewBox="0 0 150 80" fill="none" xmlns="http://www.w3.org/2000/svg">
<path d="M81.8817 38.5137H84.1022V46.444H81.8817V45.4131C81.0887 46.6026 80.0577 46.6819 79.4233 46.6819C76.9649 46.6819 75.3789 44.7786 75.3789 42.4789C75.3789 40.0998 76.9649 38.2758 79.2647 38.2758C79.8991 38.2758 81.0887 38.3551 81.8024 39.5446V38.5137H81.8817ZM77.758 42.4789C77.758 43.7477 78.6303 44.6993 79.9784 44.6993C81.2473 44.6993 82.1989 43.7477 82.1989 42.4789C82.1989 41.21 81.3266 40.2584 79.9784 40.2584C78.7096 40.2584 77.758 41.21 77.758 42.4789ZM88.4639 40.417V46.444H86.2434V40.417H85.3711V38.5137H86.2434V35.8174H88.4639V38.5137H89.9706V40.417H88.4639ZM95.2046 40.417C94.6495 39.9412 94.1737 39.8619 93.9358 39.8619C93.3807 39.8619 93.0634 40.0998 93.0634 40.4963C93.0634 40.7342 93.1428 40.9721 93.7772 41.21L94.3323 41.3686C94.9667 41.6065 95.9184 41.8444 96.3149 42.4789C96.5528 42.7961 96.7114 43.2719 96.7114 43.827C96.7114 44.5407 96.4735 45.2545 95.8391 45.8096C95.2046 46.3647 94.4116 46.6819 93.46 46.6819C91.7946 46.6819 90.9223 45.8889 90.3671 45.3338L91.5567 43.9856C92.0325 44.4614 92.6669 44.9373 93.3014 44.9373C93.9358 44.9373 94.4116 44.62 94.4116 44.0649C94.4116 43.5891 94.0151 43.3512 93.6979 43.2719L93.2221 43.1133C92.6669 42.8754 92.0325 42.6375 91.5567 42.1616C91.1602 41.7651 90.9223 41.2893 90.9223 40.6549C90.9223 39.8619 91.3188 39.2274 91.7153 38.8309C92.3497 38.3551 93.1428 38.2758 93.7772 38.2758C94.3323 38.2758 95.2839 38.3551 96.3149 39.1481L95.2046 40.417ZM100.042 39.5446C100.835 38.4344 101.945 38.2758 102.58 38.2758C104.88 38.2758 106.466 40.0998 106.466 42.4789C106.466 44.8579 104.88 46.6819 102.501 46.6819C102.025 46.6819 100.835 46.6026 99.9628 45.4131V46.444H97.8216V33.1211H100.042V39.5446ZM99.8042 42.4789C99.8042 43.7477 100.677 44.6993 102.025 44.6993C103.294 44.6993 104.245 43.7477 104.245 42.4789C104.245 41.21 103.373 40.2584 102.025 40.2584C100.677 40.2584 99.8042 41.21 99.8042 42.4789ZM110.114 45.2545L106.307 38.5137H108.924L111.382 43.034L113.603 38.5137H116.141L109.796 50.6471H107.259L110.114 45.2545ZM74.8237 39.8619H72.6033H69.2725V42.0823H72.2067C71.7309 43.5891 70.6207 44.62 68.5588 44.62C66.259 44.62 64.5936 42.7168 64.5936 40.417C64.5936 38.1172 66.1797 36.1346 68.4795 36.1346C69.7483 36.1346 71.0172 36.769 71.8102 37.8L73.6342 36.6104C72.4447 34.9451 70.5414 33.9934 68.4795 33.9934C64.9902 33.9934 62.1353 36.8483 62.1353 40.417C62.1353 43.9856 64.8316 46.8405 68.4795 46.8405C72.1274 46.8405 74.8237 43.9856 74.8237 40.417C74.903 40.1791 74.8237 40.0205 74.8237 39.8619Z" fill="#FAFAFA"/>
<path d="M43.1024 29C36.9961 29 32 33.9961 32 40.1024C32 46.2088 36.9961 51.2049 43.1024 51.2049C49.2088 51.2049 54.2049 46.2088 54.2049 40.1024C54.2049 33.9961 49.2088 29 43.1024 29ZM36.9168 46.2881C35.2514 44.6227 34.3791 42.4022 34.3791 40.261L43.0231 48.8258C40.8026 48.7465 38.5822 47.9534 36.9168 46.2881ZM45.0057 48.5879L34.617 38.1992C35.4893 34.3133 38.9787 31.3791 43.1024 31.3791C46.0366 31.3791 48.5743 32.8065 50.1604 34.9477L48.9709 35.9787C47.6227 34.1547 45.4815 32.9652 43.1024 32.9652C40.0096 32.9652 37.3926 34.9477 36.3617 37.7233L45.4815 46.8432C47.7813 46.0502 49.526 44.0676 50.0811 41.6885H46.2746V40.1024H51.8258C51.8258 44.2262 48.8916 47.7155 45.0057 48.5879Z" fill="#FAFAFA"/>
</svg>
