<svg width="150" height="80" viewBox="0 0 150 80" fill="none" xmlns="http://www.w3.org/2000/svg">
<path d="M49.5131 36.0072C49.5105 36.0058 49.508 36.0049 49.5055 36.0039C49.5009 36.0021 49.4966 36.0005 49.4926 35.9967C49.4795 35.9844 49.4744 35.9623 49.4772 35.9446L49.9089 33.3031L51.9352 35.3295L49.8282 36.226C49.8223 36.2285 49.816 36.2298 49.8097 36.2298C49.8056 36.2298 49.8032 36.2298 49.8012 36.2291C49.7983 36.2281 49.796 36.2257 49.7904 36.2203C49.716 36.1375 49.6236 36.0636 49.5131 36.0072ZM52.4518 35.8461L54.6182 38.0125C55.0683 38.4626 55.2934 38.6877 55.3757 38.948C55.3879 38.9864 55.3979 39.0253 55.4058 39.0646L50.2287 36.8725C50.2261 36.8714 50.2233 36.8702 50.2206 36.8691C50.1996 36.8606 50.1756 36.851 50.1756 36.8296C50.1756 36.8085 50.2003 36.7984 50.2209 36.7899C50.2231 36.789 50.2253 36.7881 50.2274 36.7873L52.4518 35.8461ZM55.3172 39.7601C55.2055 39.9702 54.9877 40.1881 54.6182 40.5575L52.1765 42.9992L49.0176 42.3413C49.0124 42.3402 49.0067 42.3393 49.0009 42.3384C48.9733 42.3338 48.9431 42.3289 48.9431 42.3033C48.9142 42.0367 48.789 41.7987 48.5771 41.6369C48.5642 41.6241 48.5678 41.6039 48.5712 41.5853C48.5716 41.5826 48.5721 41.5801 48.5725 41.5776L49.167 37.9303C49.1676 37.9264 49.1682 37.9223 49.1688 37.9182C49.1726 37.8904 49.1772 37.8577 49.203 37.8577C49.4687 37.8202 49.697 37.6902 49.851 37.4861C49.8557 37.48 49.8593 37.4742 49.8662 37.4709C49.8838 37.4626 49.9056 37.4713 49.9236 37.4789L55.3172 39.7601ZM51.6146 43.5612L47.5984 47.5773L48.2864 43.3519C48.2867 43.3499 48.287 43.3479 48.2872 43.346C48.2879 43.3407 48.2886 43.3354 48.2906 43.3303C48.2959 43.3168 48.3107 43.3109 48.3247 43.3054C48.3269 43.3045 48.3291 43.3037 48.3312 43.3028C48.4838 43.2393 48.6133 43.1385 48.7197 43.014C48.7333 42.9981 48.7495 42.9834 48.77 42.9799C48.7746 42.9791 48.7816 42.9796 48.7862 42.9805L51.6146 43.5612ZM46.7485 48.4272L46.2957 48.8801L41.2912 41.6469C41.2894 41.6442 41.2874 41.6416 41.2854 41.639C41.2775 41.6286 41.2695 41.618 41.2706 41.6054C41.2714 41.5964 41.2772 41.5891 41.2829 41.5818C41.2848 41.5795 41.2867 41.5771 41.2884 41.5747C41.3037 41.5527 41.3167 41.5304 41.3309 41.5059C41.3346 41.4995 41.3384 41.4931 41.3423 41.4864L41.3434 41.4846C41.3512 41.4713 41.3585 41.4587 41.3721 41.4515C41.3839 41.4452 41.3999 41.4478 41.4129 41.4506L46.9577 42.5941C46.9715 42.5969 46.9902 42.6027 47.0003 42.6126C47.0074 42.6198 47.0089 42.6275 47.0106 42.6364C47.0112 42.6399 47.0119 42.6436 47.013 42.6474C47.0944 42.9339 47.3031 43.1817 47.5852 43.2933C47.6009 43.301 47.594 43.3187 47.5867 43.3372C47.5833 43.3456 47.5799 43.3543 47.5786 43.3622C47.5088 43.7872 46.9094 47.4409 46.7485 48.4272ZM45.8029 49.3724C45.4693 49.7027 45.2726 49.8773 45.0501 49.9477C44.8308 50.017 44.5953 50.017 44.376 49.9477C44.1157 49.8654 43.8906 49.6403 43.4406 49.1902L38.4147 44.1643L39.7272 42.128C39.7336 42.1179 39.7395 42.1088 39.7493 42.1019C39.7635 42.0918 39.7839 42.0967 39.8005 42.1019C39.9356 42.1435 40.0631 42.1605 40.1991 42.1605C40.3747 42.1605 40.5413 42.1254 40.7161 42.0554C40.7309 42.0494 40.7462 42.0459 40.758 42.0564C40.7637 42.0614 40.7695 42.0684 40.7737 42.0746L45.8029 49.3724ZM37.93 43.6796L36.7767 42.5263L39.054 41.555C39.0599 41.5525 39.0662 41.5512 39.0725 41.5512C39.0914 41.5512 39.1024 41.5701 39.1127 41.5877C39.1153 41.592 39.1178 41.5963 39.1203 41.6001C39.142 41.6332 39.1638 41.662 39.1855 41.6906C39.1872 41.6929 39.1911 41.6972 39.1927 41.6995C39.1991 41.709 39.1944 41.7182 39.1882 41.7278L37.93 43.6796ZM36.2667 42.0163L34.8079 40.5575C34.5598 40.3094 34.38 40.1297 34.2549 39.9747L38.6898 40.8944C38.695 40.8954 38.7006 40.8964 38.7064 40.8973C38.7341 40.9018 38.7643 40.9068 38.7643 40.9324C38.7643 40.9602 38.7315 40.9732 38.7034 40.9843C38.699 40.986 38.6946 40.9878 38.6905 40.9895L36.2667 42.0163ZM34 39.2246C34.0051 39.1312 34.0219 39.0382 34.0504 38.948C34.1327 38.6877 34.3578 38.4626 34.8079 38.0125L36.6751 36.1453C36.9828 36.5968 39.0152 39.5328 39.2524 39.8726C39.2547 39.8759 39.2572 39.8793 39.2598 39.8827C39.275 39.9032 39.2916 39.9257 39.2747 39.9424C39.1929 40.0322 39.1111 40.1306 39.0536 40.2374C39.0468 40.25 39.0381 40.2643 39.026 40.2718C39.0186 40.2764 39.011 40.2748 39.0025 40.273L39.0013 40.2728L34 39.2246ZM37.1741 35.6463L39.6842 33.1362C39.9201 33.2394 40.7788 33.6022 41.5463 33.9266C42.128 34.1725 42.6576 34.3963 42.8238 34.4681C42.8405 34.4753 42.8557 34.4819 42.8631 34.4985C42.8675 34.5085 42.8654 34.5217 42.8631 34.5324C42.8462 34.6127 42.8377 34.6931 42.8377 34.7734C42.8377 35.0685 42.9533 35.3445 43.1555 35.554C43.1722 35.5704 43.1554 35.5945 43.1407 35.6156C43.1379 35.6196 43.1352 35.6234 43.1329 35.6271L40.5848 39.5746C40.5778 39.5854 40.5715 39.5952 40.5608 39.6022C40.5473 39.611 40.5283 39.607 40.5127 39.6031C40.4134 39.5779 40.307 39.5616 40.2088 39.5616C40.1176 39.5616 40.0178 39.5787 39.9175 39.5967L39.9166 39.5968C39.9057 39.5988 39.8957 39.6006 39.8867 39.5941C39.8768 39.587 39.8683 39.5756 39.8614 39.5656L37.1741 35.6463ZM40.191 32.6294L43.4406 29.3798C43.8906 28.9297 44.1157 28.7047 44.376 28.6223C44.5953 28.553 44.8308 28.553 45.0501 28.6223C45.3104 28.7047 45.5355 28.9297 45.9856 29.3798L46.6897 30.084L44.3788 33.6634C44.3721 33.6737 44.366 33.6831 44.3559 33.69C44.3419 33.6996 44.3221 33.6951 44.3058 33.6905C44.1889 33.6572 44.0718 33.6406 43.9548 33.6406C43.6948 33.6406 43.4348 33.7358 43.2326 33.8976C43.2176 33.9124 43.1952 33.9033 43.1759 33.8949C42.8741 33.7639 40.5268 32.7714 40.191 32.6294ZM47.1803 30.5745L49.3146 32.7089L48.8007 35.8929C48.8003 35.8955 48.8 35.8985 48.7997 35.9015C48.7989 35.9089 48.798 35.9169 48.7955 35.9227C48.7904 35.9338 48.7794 35.9364 48.7677 35.939C48.7637 35.9399 48.7596 35.9409 48.7557 35.9422C48.6476 35.9775 48.5473 36.0272 48.4612 36.0915C48.4572 36.0945 48.4538 36.098 48.4506 36.1014C48.4441 36.1083 48.438 36.1147 48.428 36.1153C48.4214 36.1157 48.4103 36.1142 48.4042 36.1116L45.1525 34.73C45.1504 34.7291 45.1482 34.7282 45.1459 34.7273C45.1254 34.7188 45.1007 34.7087 45.1007 34.6876C45.0832 34.5138 45.0254 34.3401 44.935 34.188C44.9327 34.1842 44.9303 34.1803 44.9279 34.1764C44.9119 34.1508 44.8949 34.1235 44.9081 34.0974L47.1803 30.5745ZM44.9831 35.3845L48.031 36.6758C48.0485 36.6831 48.0663 36.6907 48.0734 36.7082C48.0771 36.7176 48.0753 36.7299 48.0734 36.7397C48.0649 36.7841 48.0571 36.8354 48.0571 36.8867V36.9724C48.0571 36.9933 48.0352 37.0024 48.0152 37.0106C48.013 37.0116 48.0107 37.0125 48.0086 37.0134C47.5259 37.2193 41.2292 39.9043 41.2199 39.9043C41.2103 39.9043 41.2007 39.9043 41.1911 39.8948C41.1745 39.8784 41.1912 39.8543 41.2059 39.8331C41.2087 39.8292 41.2113 39.8253 41.2137 39.8217L43.7189 35.9435C43.7203 35.9413 43.7218 35.939 43.7232 35.9367C43.7381 35.9133 43.7547 35.8872 43.7815 35.8872C43.79 35.8883 43.7985 35.8896 43.8067 35.8907C43.8636 35.899 43.914 35.9062 43.9645 35.9062C44.3446 35.9062 44.6965 35.7208 44.9094 35.4049C44.915 35.3965 44.9201 35.389 44.9281 35.3827C44.9433 35.3709 44.9654 35.377 44.9831 35.3845ZM41.4924 40.5176L48.3556 37.5911C48.3556 37.5911 48.3653 37.5912 48.3749 37.6007C48.4125 37.6378 48.4442 37.6634 48.4747 37.6864C48.4792 37.6898 48.4845 37.6929 48.4899 37.696C48.5039 37.7042 48.5182 37.7125 48.5192 37.7274C48.5195 37.7325 48.5189 37.7365 48.5181 37.7415L47.9298 41.3528C47.929 41.3574 47.9284 41.3623 47.9277 41.3672C47.924 41.3956 47.9198 41.4274 47.8934 41.4274C47.5744 41.4459 47.292 41.6271 47.1263 41.9005C47.1254 41.902 47.1245 41.9035 47.1236 41.905C47.116 41.9179 47.1086 41.9302 47.0951 41.937C47.0838 41.9426 47.0686 41.9402 47.0563 41.9376L41.5834 40.8085C41.5782 40.8075 41.4982 40.5185 41.4924 40.5176Z" fill="#FAFAFA"/>
<path d="M63.706 35.3637L63.7748 36.5917C64.5607 35.6421 65.5923 35.1672 66.8694 35.1672C69.0831 35.1672 70.2096 36.4345 70.2489 38.9692V45.9934H67.8616V39.1067C67.8616 38.4321 67.7159 37.9327 67.4245 37.6085C67.133 37.2843 66.6565 37.1223 65.9951 37.1223C65.0323 37.1223 64.3151 37.5578 63.8436 38.4289V45.9934H61.4563V35.3637H63.706ZM77.3616 46.1899C75.8487 46.1899 74.6223 45.7135 73.6824 44.7605C72.7426 43.8076 72.2727 42.5386 72.2727 40.9537V40.6589C72.2727 39.5979 72.4773 38.6499 72.8867 37.8149C73.296 36.9798 73.8707 36.3298 74.6108 35.8648C75.3509 35.3997 76.1761 35.1672 77.0865 35.1672C78.5339 35.1672 79.6522 35.629 80.4414 36.5525C81.2307 37.4759 81.6253 38.7825 81.6253 40.4723V41.435H74.6796C74.7516 42.3127 75.0447 43.0069 75.5588 43.5178C76.073 44.0286 76.7197 44.284 77.4991 44.284C78.5929 44.284 79.4836 43.842 80.1713 42.9578L81.4582 44.1858C81.0325 44.8211 80.4644 45.3139 79.7538 45.6643C79.0431 46.0147 78.2458 46.1899 77.3616 46.1899ZM77.0767 37.083C76.4217 37.083 75.8929 37.3122 75.4901 37.7706C75.0873 38.2291 74.8302 38.8677 74.7189 39.6864H79.2675V39.5095C79.2151 38.7105 79.0022 38.1063 78.6289 37.697C78.2556 37.2876 77.7382 37.083 77.0767 37.083ZM86.4686 32.78V35.3637H88.345V37.1321H86.4686V43.0659C86.4686 43.4719 86.5488 43.765 86.7092 43.9451C86.8697 44.1252 87.1562 44.2153 87.5689 44.2153C87.8439 44.2153 88.1223 44.1825 88.4039 44.117V45.964C87.8603 46.1146 87.3364 46.1899 86.832 46.1899C84.9982 46.1899 84.0813 45.1781 84.0813 43.1543V37.1321H82.3326V35.3637H84.0813V32.78H86.4686ZM92.7069 45.9934H90.3196V30.9036H92.7069V45.9934ZM97.8449 45.9934H95.4576V35.3637H97.8449V45.9934ZM95.3103 32.6031C95.3103 32.2364 95.4265 31.9318 95.659 31.6895C95.8915 31.4472 96.2239 31.326 96.6562 31.326C97.0884 31.326 97.4225 31.4472 97.6582 31.6895C97.894 31.9318 98.0119 32.2364 98.0119 32.6031C98.0119 32.9634 97.894 33.263 97.6582 33.5021C97.4225 33.7411 97.0884 33.8606 96.6562 33.8606C96.2239 33.8606 95.8915 33.7411 95.659 33.5021C95.4265 33.263 95.3103 32.9634 95.3103 32.6031ZM101.283 45.9934V37.1321H99.6624V35.3637H101.283V34.3911C101.283 33.2122 101.611 32.3019 102.266 31.66C102.921 31.0182 103.838 30.6973 105.017 30.6973C105.436 30.6973 105.881 30.7562 106.353 30.8741L106.294 32.7407C106.032 32.6883 105.727 32.6621 105.38 32.6621C104.24 32.6621 103.671 33.2483 103.671 34.4206V35.3637H105.832V37.1321H103.671V45.9934H101.283ZM111.294 42.5746L113.455 35.3637H116L111.776 47.6046C111.127 49.3926 110.027 50.2866 108.475 50.2866C108.127 50.2866 107.744 50.2276 107.325 50.1098V48.2628L107.777 48.2923C108.38 48.2923 108.833 48.1826 109.138 47.9632C109.442 47.7438 109.683 47.3754 109.86 46.858L110.204 45.9443L106.47 35.3637H109.044L111.294 42.5746Z" fill="#FAFAFA"/>
</svg>
