<svg width="150" height="80" viewBox="0 0 150 80" fill="none" xmlns="http://www.w3.org/2000/svg">
<path d="M48 27.3828H57.2074V29.9123H50.7457V34.8812H55.7119V37.3276H50.7457V44.7428H48V27.3828Z" fill="#FAFAFA"/>
<path d="M59.6868 27.3828H62.4464V42.248H68.8526V44.7428H59.6868V27.3828Z" fill="#FAFAFA"/>
<path d="M84.1381 27.3828H87.1097L89.1389 40.0359L91.9456 27.3828H94.5208L97.0891 40.0359L99.261 27.3828H102L98.4613 44.7221H95.6546L93.175 32.7786L90.511 44.7221L87.7237 44.7013L84.1381 27.3828Z" fill="#FAFAFA"/>
<path d="M48.2325 47.1758H49.4273L50.5888 51.952L51.7087 47.1758H52.8771L51.0393 53.5917H50.0358L48.2325 47.1758Z" fill="#FAFAFA"/>
<path d="M55.5552 47.1758H58.9842V48.1474H56.6335V49.7122H58.3203V50.6492H56.6335V52.6548H58.9828V53.5917H55.5552V47.1758Z" fill="#FAFAFA"/>
<path d="M90.1353 47.1758H93.5643V48.1474H91.215V49.7122H92.9018V50.6492H91.215V52.6548H93.5643V53.5917H90.1353V47.1758Z" fill="#FAFAFA"/>
<path d="M61.9614 47.1758H62.836L65.1313 51.3103V47.1758H66.1556V53.5986H65.3433L62.9871 49.539L62.9732 53.5986L61.9628 53.5917V47.1758H61.9614Z" fill="#FAFAFA"/>
<path d="M68.8405 47.1758H73.0207V48.1335H71.4905V53.5709H70.3845V48.1197H68.8405V47.1758Z" fill="#FAFAFA"/>
<path d="M75.718 47.1758V52.3374C75.718 52.3374 75.7388 53.7359 77.8289 53.7359C78.2794 53.7359 78.7576 53.6735 79.154 53.4462C79.5365 53.2327 79.8512 52.9181 79.8512 52.3706V47.1813H78.7853V52.2057C78.7853 52.2057 78.8061 52.853 77.7887 52.853C76.7714 52.853 76.8185 52.1502 76.8185 52.1502V47.1813H75.7194V47.1758H75.718Z" fill="#FAFAFA"/>
<path d="M77.6029 27.0715C79.9799 27.4097 81.8441 29.3598 81.9883 31.7992C82.0908 33.4597 82.0839 35.1285 82.0492 36.7959C82.0354 37.5887 81.9938 38.3884 82.0007 39.1798C82.0146 40.4273 81.8982 41.6123 81.1954 42.674C80.6008 43.5763 79.7138 44.2929 78.6812 44.638C76.7962 45.2714 74.3651 45.0649 72.8003 43.7551C72.6367 43.6179 72.4856 43.4724 72.3429 43.3144C71.9742 42.9013 71.6803 42.419 71.4821 41.8951C71.2839 41.3642 71.0649 40.7169 71.0649 40.1514C71.0649 38.4355 71.0649 36.7196 71.0649 35.0037C71.0649 33.2185 70.9624 31.2753 71.7344 29.6218C72.6908 27.5677 75.0817 26.858 77.1912 27.0229C77.3298 27.0382 77.4656 27.0521 77.6029 27.0715ZM79.2689 35.9767C79.2689 34.9635 79.2689 33.9434 79.2619 32.9302C79.2619 32.1028 79.2079 31.2212 78.7158 30.5185C78.2307 29.8297 77.37 29.4291 76.537 29.4222C75.7996 29.4222 75.0553 29.7257 74.5564 30.2773C73.9548 30.9385 73.8523 31.8768 73.819 32.7376C73.7705 33.8949 73.8051 35.0675 73.8051 36.2317C73.8051 37.1964 73.7164 38.1819 73.7705 39.1535C73.8245 40.0697 73.9964 41.2755 74.7338 41.9034C75.5737 42.6269 76.8239 42.717 77.8011 42.2346C78.7907 41.7454 79.2079 40.7183 79.2633 39.6566C79.3312 38.4369 79.2689 37.2033 79.2689 35.9767Z" fill="#FAFAFA"/>
<path d="M97.5879 53.6526C96.96 53.4946 96.522 53.0801 96.3044 52.4814C96.2407 52.2832 96.2434 51.9159 96.2434 51.6262C96.5844 51.6262 96.9531 51.6262 97.294 51.6262C97.294 51.7911 97.2954 51.9574 97.3079 52.1293C97.3758 52.7558 98.1201 52.9221 98.6329 52.7295C98.9212 52.6214 99.1236 52.3636 99.1499 52.0545C99.179 51.7121 98.9933 51.3961 98.7355 51.1854C98.1326 50.6906 97.2691 50.5631 96.7466 49.9685C96.4319 49.6109 96.3127 49.1161 96.3169 48.649C96.3169 48.2775 96.4596 47.9532 96.7133 47.6912C97.3952 46.9844 98.6371 46.8652 99.4465 47.4154C99.7376 47.6122 99.9649 47.8894 100.08 48.2221C100.176 48.4979 100.196 48.8112 100.196 49.1244C99.8346 49.1244 99.4715 49.1244 99.1707 49.1244C99.1707 48.8874 99.1305 48.6629 99.028 48.4633C98.8921 48.1944 98.6523 48.0156 98.3516 47.9948C98.0175 47.974 97.6683 48.0225 97.4701 48.333C97.2039 48.7599 97.477 49.2228 97.8595 49.457C98.2767 49.7121 98.7203 49.8978 99.1375 50.1528C99.4826 50.3649 99.7778 50.6684 99.9788 51.0191C100.242 51.4779 100.332 52.0808 100.097 52.5715C99.9025 52.9762 99.5768 53.3365 99.1777 53.5431C98.7424 53.769 98.0661 53.769 97.5879 53.6526Z" fill="#FAFAFA"/>
<path d="M87.2108 52.8646C87.0098 52.8646 86.9613 52.83 86.9613 52.7329C86.9613 52.4682 86.9627 52.2049 86.9613 51.9401C86.9599 51.6809 86.9765 51.4093 86.9197 51.1543C86.8324 50.7648 86.5261 50.4779 86.12 50.4502C86.9197 50.4502 86.9197 49.9304 86.9197 49.4966C86.9197 49.3211 86.9197 49.6144 86.9197 49.2795C86.9197 48.8499 86.9197 48.7162 86.9197 48.2866C86.9197 47.8242 86.4665 47.1777 85.5531 47.1777C85.3757 47.1777 85.1497 47.1777 84.9723 47.1777C84.5551 47.1777 84.1324 47.1777 83.7152 47.1777C83.4962 47.1777 83.2841 47.1777 83.0665 47.1777V53.5867H84.0908V50.8854H85.4228C85.6321 50.8854 85.8053 50.9921 85.8857 51.1861C85.9495 51.3386 85.9425 51.4966 85.9425 51.6574C85.9425 52.1591 85.9425 52.6609 85.9425 53.164C85.9425 53.4107 86.1504 53.5937 86.4443 53.5937C86.5676 53.5937 86.7478 53.5937 86.8629 53.5937C86.9932 53.5937 87.1359 53.5937 87.2648 53.5937V53.2555V52.9201C87.2648 52.8896 87.2648 52.8646 87.2648 52.8646C87.2648 52.8646 87.2329 52.8646 87.2108 52.8646ZM85.8746 49.6144C85.8358 49.7488 85.7513 49.8652 85.6196 49.9304C85.4533 50.0122 85.2648 50.0385 85.0818 50.0468C85.0042 50.051 84.0922 50.0427 84.0922 50.044V48.08C84.5163 48.08 84.9252 48.08 85.3424 48.08C85.5337 48.08 85.7527 48.1965 85.8344 48.3697C85.9093 48.5139 85.9093 48.6746 85.9093 48.841C85.9093 49.06 85.919 49.279 85.8982 49.4966C85.8926 49.5354 85.8857 49.5756 85.8746 49.6144Z" fill="#FAFAFA"/>
</svg>
