<svg width="150" height="80" viewBox="0 0 150 80" fill="none" xmlns="http://www.w3.org/2000/svg">
<path d="M60.7565 37.7629C60.3746 37.4371 60.3201 37.3829 60.3201 37.2743C60.3201 37.22 60.4837 35.6457 60.3746 34.18C60.1019 30.76 58.5198 30 57.9743 30C57.9197 30 57.9197 30 57.8652 30.0543C57.7015 30.2714 57.7015 30.9229 57.9197 32.1171C58.0289 32.6057 58.3016 33.4743 58.5744 34.3971C58.9017 35.4286 59.229 36.46 59.3381 37.0571L59.3927 37.1657L58.5744 37.4371L58.5198 37.3286C58.3562 36.8943 58.0834 36.2429 57.8652 35.4286C57.4288 34.1257 56.8832 32.4971 56.4468 31.8457C56.1195 31.3029 55.4103 30.5971 55.083 30.5971H55.0284C54.8648 30.6514 54.7011 30.8143 54.6466 31.14C54.4283 32.0086 54.7011 33.6371 55.8467 35.2657C56.9923 36.7857 57.5379 37.6543 57.5924 37.9257L57.647 38.0343L57.5924 38.0886C57.5924 38.0886 57.3742 38.36 57.0469 38.36C56.8832 38.36 56.7196 38.3057 56.6105 38.1429C54.0465 35.6457 51.4279 34.3971 48.9185 34.3971C47.391 34.3971 46.2454 34.8314 45.6998 35.1029C45.4816 35.2114 45.318 35.2657 45.2088 35.2657C45.0997 35.2657 45.0997 35.2114 45.0452 35.2114C44.9906 35.1571 44.9906 35.1571 44.9906 35.0486C44.9906 34.3429 44.9361 33.5286 44.7724 33.3114C44.7179 33.2571 44.6633 33.2571 44.6088 33.2571C43.6268 33.2029 42.2084 33.9086 41.7174 34.94C41.3901 35.5371 41.4992 36.1343 41.8811 36.7314C42.263 37.2743 42.8631 37.2743 43.2449 37.3286C43.4631 37.3286 43.6268 37.3829 43.6814 37.4914C43.7359 37.6543 43.5723 37.7086 43.4631 37.8714C39.699 40.8029 38.7716 43.3 39.0443 44.1686C39.0989 44.2771 39.1534 44.3857 39.2625 44.3857C39.3717 44.3857 39.4262 44.3314 39.5353 44.2771C42.4812 41.78 45.4816 40.4771 48.5366 40.4771C54.101 40.4771 58.0289 44.6029 59.1199 45.9057C59.3381 46.1771 59.6109 46.5029 59.8291 46.8286C60.4292 47.5886 61.0293 48.3486 61.5748 48.7286C62.0112 49 62.5022 49.0543 62.7204 48.7829C62.8841 48.62 62.9386 48.24 62.8295 47.7514C62.6113 46.6114 61.5748 45.3629 60.8656 44.6571C60.2655 44.0057 60.0473 43.7343 60.1019 43.5171C60.1564 43.4629 60.1564 43.3543 60.3201 43.3543C62.0658 42.9743 63.1023 42.3771 63.266 41.5086C63.5387 40.0971 61.5748 38.4686 60.7565 37.7629ZM78.2135 36.46C76.3587 36.46 74.8312 37.8714 74.8312 39.5543C74.8312 39.9343 74.9403 40.3143 75.0494 40.6943L75.104 40.7486L75.0494 40.8029C74.6676 41.2371 74.3403 41.5086 74.0129 41.5086C73.3583 41.5086 73.3583 40.5857 73.3583 39.4457C73.3037 38.0343 73.3037 36.46 72.049 36.46C70.5761 36.46 69.4305 38.36 68.7213 39.9886L68.4485 40.5314L68.5576 38.6857C68.6667 36.7857 68.7213 34.9943 68.7213 33.2029C68.7213 31.5743 68.6667 30.6514 68.6122 30.4343C68.5576 30.3257 68.2303 30.1086 67.9575 30.1086C67.7939 30.1086 67.1938 30.38 67.0847 30.4886C66.9756 30.7057 66.8665 32.9314 66.8665 35.0486C66.8665 40.0429 67.1938 42.16 67.2483 42.4314V42.4857C67.3029 42.5943 67.5757 42.6486 67.7939 42.6486C68.0121 42.6486 68.3394 42.5943 68.394 42.4857L68.4485 42.3771C69.0486 40.8029 70.1942 38.1429 71.1762 38.1429C71.7217 38.1429 71.7217 38.8486 71.7763 39.6629C71.8308 40.9657 71.8854 42.5943 73.6856 42.5943C74.3403 42.5943 74.9949 42.2143 75.595 41.5086L75.7041 41.4L75.8132 41.5086C76.4678 42.16 77.3952 42.5943 78.3772 42.5943C80.2866 42.5943 81.814 41.1829 81.814 39.5C81.5958 37.8714 80.0683 36.46 78.2135 36.46ZM78.2135 41.4543C77.3407 41.4543 76.686 40.5857 76.686 39.5543C76.686 38.5229 77.3952 37.6543 78.2135 37.6543C79.0864 37.6543 79.7956 38.5229 79.7956 39.5543C79.7956 40.5857 79.0864 41.4543 78.2135 41.4543ZM85.6873 36.46C85.0327 36.46 84.3235 36.6771 83.778 37.0571L83.6143 37.1657L83.5597 37.0029C83.5052 36.7857 83.5052 36.6229 83.5052 36.6229C83.4506 36.5143 83.1233 36.46 82.9051 36.46C82.7415 36.46 82.4141 36.5143 82.3596 36.6229C82.305 36.84 82.0323 39.2829 82.0323 43.68V43.7343C82.0868 43.7886 82.0868 43.8429 82.0868 44.06C82.1414 46.2314 82.305 48.3486 82.4141 48.62C82.5232 48.7286 83.1233 49 83.287 49H83.3415C83.6689 49 83.9416 48.7829 83.9416 48.6743C83.9416 48.62 83.9962 48.4029 83.9962 46.9914V45.9057C83.9962 45.1457 83.9416 44.6571 83.9416 44.0057C83.8871 43.5714 83.8871 43.0829 83.8325 42.3229V42.16L83.9962 42.2686C84.5417 42.54 85.0872 42.7029 85.6328 42.7029C87.5421 42.7029 89.0696 41.2914 89.0696 39.6086C89.1242 37.8714 87.5967 36.46 85.6873 36.46ZM85.6873 41.4543C84.2689 41.4543 83.778 40.4771 83.778 39.5543C83.778 38.4143 84.4872 37.6543 85.6873 37.6543C86.5602 37.6543 87.2694 38.5229 87.2694 39.5543C87.2694 40.5857 86.5602 41.4543 85.6873 41.4543ZM93.2157 36.46C92.561 36.46 91.8518 36.6771 91.3063 37.0571L91.1426 37.1657L91.0881 37.0029C91.0335 36.7857 91.0335 36.6229 91.0335 36.6229C90.979 36.5143 90.6517 36.46 90.4335 36.46C90.2698 36.46 89.9425 36.5143 89.8879 36.6229C89.8334 36.84 89.5606 39.2829 89.5606 43.68V43.7343C89.6152 43.7886 89.6152 43.8429 89.6152 44.06C89.6697 46.2314 89.8334 48.3486 89.9425 48.62C90.0516 48.7286 90.6517 49 90.8153 49H90.8699C91.1972 49 91.47 48.7829 91.47 48.6743C91.47 48.62 91.5245 48.4029 91.5245 46.9914V45.9057C91.5245 45.1457 91.47 44.6571 91.47 44.0057C91.4154 43.5714 91.4154 43.0829 91.3609 42.3771V42.2143L91.5245 42.3229C92.07 42.5943 92.6156 42.7571 93.1611 42.7571C95.0705 42.7571 96.598 41.3457 96.598 39.6629C96.6525 37.8714 95.125 36.46 93.2157 36.46ZM93.2157 41.4543C91.7973 41.4543 91.3063 40.4771 91.3063 39.5543C91.3063 38.4143 92.0155 37.6543 93.2157 37.6543C94.0885 37.6543 94.7977 38.5229 94.7977 39.5543C94.7977 40.5857 94.0885 41.4543 93.2157 41.4543ZM110.836 38.7943C110.836 38.7943 110.782 38.8486 110.782 38.9029C110.291 39.88 109.254 41.5086 108.491 41.5086C108.272 41.5086 108.163 41.3457 108.163 41.1286C108.163 40.8571 108.381 40.3143 108.654 39.7171C108.872 39.12 109.2 38.4686 109.2 38.0886C109.2 37.4371 108.763 37.1114 108 37.1114C107.945 37.1114 106.308 37.1114 105.817 36.7857L105.763 36.7314V36.6771C105.763 36.2971 105.654 35.32 104.835 35.32C104.399 35.32 104.126 35.9714 104.126 36.2971C104.126 37.1657 104.563 37.5457 104.781 37.6543C104.835 37.7086 104.835 37.7086 104.835 37.7086L104.89 37.7629L104.835 37.8171C104.617 38.6314 104.126 39.3371 103.908 39.7714C103.144 40.8571 102.217 41.3457 100.962 41.3457C100.035 41.3457 99.3256 40.8571 99.1074 40.0429L99.0529 39.8257L99.2165 39.88C99.7075 40.0429 100.144 40.0971 100.58 40.0971C101.781 40.0971 103.035 39.5 103.035 38.1971C103.035 37.1114 101.999 36.2971 100.58 36.2971C98.7255 36.2971 97.198 37.7086 97.198 39.3914C97.198 40.64 98.18 42.4857 100.908 42.4857C103.09 42.4857 104.181 40.5314 104.508 39.9343L104.563 39.88C104.945 39.2286 105.272 38.4143 105.381 38.0886L105.436 37.98L105.545 38.0343C105.708 38.0886 106.472 38.2514 106.963 38.2514C107.181 38.2514 107.345 38.36 107.345 38.5771C107.345 38.6314 107.29 38.6857 107.29 38.74L107.236 38.7943L107.127 38.9571C106.854 39.5543 106.472 40.4229 106.472 41.02C106.472 41.78 106.963 42.54 108.054 42.54C109.582 42.54 110.509 40.64 110.836 40.0429L110.891 39.9886C110.945 39.8257 111 39.6086 111 39.3371C110.945 39.12 110.891 38.7943 110.836 38.7943ZM99.0529 39.3371C99.162 38.4143 99.8712 37.6543 100.58 37.6543C101.235 37.6543 101.671 37.98 101.671 38.5771C101.671 39.2829 100.689 39.5543 99.8712 39.5543C99.5438 39.5543 99.2711 39.5 99.1074 39.4457L98.9983 39.3914L99.0529 39.3371Z" fill="#FAFAFA"/>
</svg>
