<svg width="150" height="80" viewBox="0 0 150 80" fill="none" xmlns="http://www.w3.org/2000/svg">
<path d="M59.5201 50.316C58.187 50.316 57.0932 49.8716 56.3412 49.3247C56.2044 49.2222 55.9993 49.3247 55.9993 49.4956V50.0084H52V30.2852H55.9993V36.6431C55.9993 36.814 56.2044 36.9165 56.3412 36.814C57.0932 36.3013 58.187 35.8911 59.5201 35.8911C63.3144 35.8911 66.3908 38.7624 66.3908 43.1035C66.425 47.5472 63.3144 50.316 59.5201 50.316ZM59.1441 46.6927C60.9558 46.6927 62.3573 45.2228 62.3573 43.1035C62.3573 40.9842 60.99 39.5144 59.1441 39.5144C57.3324 39.5144 55.931 40.9842 55.931 43.1035C55.931 45.257 57.2983 46.6927 59.1441 46.6927Z" fill="#FAFAFA"/>
<path d="M73.8765 50.316C70.0823 50.316 67.0059 47.5472 67.0059 43.1377C67.0059 38.7966 70.0823 35.9252 73.8765 35.9252C75.2096 35.9252 76.3376 36.3696 77.0555 36.8482C77.1922 36.9507 77.3973 36.8482 77.3973 36.6773V30.2852H81.3966V50.0084H77.4315V49.4956C77.4315 49.3247 77.2264 49.2222 77.0897 49.3247C76.3035 49.8716 75.2096 50.316 73.8765 50.316ZM74.2867 46.6927C76.0984 46.6927 77.4998 45.2228 77.4998 43.1035C77.4998 40.9842 76.1325 39.5144 74.2867 39.5144C72.4409 39.5144 71.0736 40.9842 71.0736 43.1035C71.0736 45.257 72.4409 46.6927 74.2867 46.6927Z" fill="#FAFAFA"/>
<path d="M92.6087 44.779C91.7542 45.907 90.7971 46.5907 89.3956 46.5907C87.5156 46.5907 86.0457 45.155 86.0457 43.1383C86.0457 41.1215 87.5156 39.6858 89.3956 39.6858C90.6603 39.6858 91.5149 40.3353 92.3011 41.2924L94.9673 38.6262C93.5317 37.0196 91.8225 35.9258 89.2589 35.9258C85.1228 35.9258 81.978 39.0022 81.978 43.1383C81.978 47.2743 85.1228 50.3166 89.2589 50.3166C91.8909 50.3166 93.8735 49.2569 95.275 47.4452L92.6087 44.779Z" fill="#FAFAFA"/>
<path d="M102.179 38.6549V19H99.5132V24.2641C99.5132 24.5375 99.274 24.7768 99.0005 24.7768C98.898 24.7768 98.8296 24.7426 98.7612 24.7085L94.591 22.7601L92.5059 27.2038L96.5394 29.0838C96.7103 29.1522 96.847 29.3573 96.847 29.5623C96.847 29.6991 96.7787 29.8358 96.6761 29.9384L93.463 33.1515L96.9496 36.6381L100.197 33.3908C100.299 33.2882 100.436 33.2199 100.573 33.2199C100.846 33.2199 101.086 33.4591 101.086 33.7326V38.6549H101.974H102.179Z" fill="#D82C26"/>
<path d="M102.009 38.6549H102.863V33.7326C102.863 33.4591 103.103 33.2199 103.376 33.2199C103.513 33.2199 103.65 33.2882 103.752 33.3908L106.999 36.6381L110.486 33.1515L107.273 29.9384C107.17 29.8358 107.102 29.6991 107.102 29.5623C107.102 29.3573 107.239 29.1522 107.41 29.0838L111.443 27.2038L109.358 22.7601L105.188 24.7085C105.119 24.7426 105.051 24.7768 104.948 24.7768C104.675 24.7768 104.436 24.5375 104.436 24.2641V19H101.975L102.009 38.6549Z" fill="#A8162C"/>
</svg>
