<svg width="100%" viewBox="0 0 335 66" fill="none" xmlns="http://www.w3.org/2000/svg">
<path fill-rule="evenodd" clip-rule="evenodd" d="M18.6273 17.9187C17.6825 19.0997 16.5351 20.0109 15.1853 20.6858C14.173 21.1919 13.0931 21.5294 11.9458 21.6644C11.4396 21.7319 10.9334 21.7656 10.461 21.7656C8.94246 21.7656 7.45767 21.4619 6.04038 20.787C4.96053 20.2808 4.01567 19.6397 3.17204 18.796C1.65351 17.3113 0.674903 15.5565 0.202471 13.4981C0.101235 12.9919 0.0337451 12.452 0 11.912V11.8445V10.7647V10.6972C0.0337451 10.461 0.0337451 10.2585 0.0337451 10.056C0.168726 9.00995 0.438687 8.03134 0.843628 7.05273L1.0461 6.64779C0.911118 6.54656 0.767701 6.44532 0.624284 6.34408L0.624281 6.34408C0.480866 6.24285 0.33745 6.14161 0.202471 6.04038V6.00663C0.809883 4.8593 1.55228 3.84695 2.49714 2.96957C4.35312 1.21482 6.51281 0.236216 9.0437 0.0337451L9.3474 0H10.461L10.7647 0.0337451C13.1943 0.236216 15.354 1.11359 17.21 2.69961C18.9648 4.21814 20.1121 6.07412 20.652 8.33505C20.8545 9.14493 20.9557 10.0223 20.9895 10.8659C21.0232 11.7771 20.9557 12.6544 20.7533 13.5318C20.3821 15.1516 19.6734 16.6363 18.6273 17.9187ZM2.56463 14.2742C2.49714 13.8018 2.53088 13.2956 2.59838 12.7894C2.69961 11.912 3.00332 11.0684 3.442 10.2923C4.55559 8.33505 6.54656 7.2552 8.63875 7.2552C9.07744 7.2552 9.48238 7.28895 9.92107 7.39018C11.2709 7.66014 12.3845 8.33505 13.3631 9.27991L14.0717 10.0898L14.173 10.1235L14.3754 10.0223V9.98856C14.2067 9.38115 13.9367 8.80748 13.5655 8.3013C12.3845 6.61405 10.3598 5.63544 8.33505 5.63544C8.06509 5.63544 7.76138 5.66918 7.49142 5.70293C5.97289 5.93914 4.69057 6.5803 3.61073 7.69389C2.0922 9.24617 1.4173 11.7096 2.0922 13.903C2.15969 14.1055 2.22717 14.2742 2.29466 14.4429L2.29467 14.4429L2.49714 14.3754L2.56463 14.2742ZM12.2495 15.0166C12.3845 14.9153 12.4857 14.7804 12.5869 14.6454C12.4258 14.5245 12.2647 14.4157 12.1107 14.3117C12.0067 14.2415 11.906 14.1735 11.8108 14.1055L11.8445 14.038C12.2832 13.4981 12.4857 12.8906 12.4182 12.182C12.2832 11.0009 11.2709 10.1573 10.1235 10.1573C9.98856 10.1573 9.85358 10.1573 9.7186 10.191C8.13258 10.4947 7.08648 12.0133 7.42393 13.5993C7.69389 14.8816 8.87497 15.8602 10.191 15.8602C11.0009 15.8602 11.6758 15.5903 12.2495 15.0166ZM8.09883 19.4035C8.97621 19.7746 9.88732 19.9434 10.7984 19.9434C11.1021 19.9434 11.3721 19.9096 11.6083 19.8759C12.5869 19.7746 13.5318 19.5047 14.4092 19.066C16.2652 18.1549 17.5812 16.7376 18.4248 14.8816C19.201 13.1269 19.4035 11.3046 19.066 9.41489C18.6948 7.49142 17.8174 5.80416 16.3664 4.45436C14.6116 2.7671 12.452 1.92347 10.0223 1.85598H9.78609C9.07744 1.85598 8.40254 1.95722 7.72764 2.12594C5.83791 2.59838 4.28563 3.57698 3.10455 5.09551C3.03707 5.19674 2.96958 5.28954 2.90209 5.38233L2.90208 5.38235C2.83459 5.47515 2.7671 5.56795 2.69961 5.66918L2.86834 5.83791C3.442 5.43297 4.01567 5.09551 4.62308 4.79181C5.83791 4.21814 7.08648 3.91444 8.36879 3.91444C8.80748 3.91444 9.27991 3.94818 9.7186 4.01567C11.4059 4.28563 12.8906 5.02802 14.0717 6.24285C15.7252 7.96385 16.5014 10.0223 16.1639 12.4182C16.0627 13.3631 15.759 14.2067 15.2865 15.0166C14.2067 16.8051 12.3845 17.8174 10.4272 17.8174C10.0898 17.8174 9.7186 17.7837 9.3474 17.7162C8.40254 17.5137 7.52516 17.1088 6.85026 16.4001C5.87165 15.354 5.43297 14.1055 5.56795 12.6882C5.66918 11.6421 6.07412 10.6635 6.78277 9.85358V9.81983L6.61405 9.61736C5.9054 10.0223 5.19675 10.7984 4.82555 11.5746C4.25189 12.7557 4.15065 14.0042 4.4881 15.2865C5.02803 17.2438 6.24285 18.5936 8.09883 19.4035ZM63.4688 14.923H65.2321V8.52305H67.4851V6.85776H67.3871H61.2811H61.1831V8.52305H63.4688V14.923ZM50.0941 15.0643C49.3431 15.0643 48.5921 14.8684 47.9064 14.4439C46.7636 13.7582 46.1758 12.7133 46.0778 11.4072C46.0125 10.5583 46.1758 9.74194 46.6329 8.99093C46.8289 8.6644 47.0901 8.37052 47.384 8.1093L47.0901 7.84808C47.2207 7.75012 47.3186 7.65217 47.4166 7.55421C47.9391 7.16237 48.5595 6.90115 49.2125 6.80319C49.5064 6.73789 49.8329 6.70524 50.1268 6.70524C50.5839 6.70524 51.0411 6.77054 51.4655 6.93381C52.8696 7.4236 53.7186 8.40318 54.0778 9.80725C54.339 10.8195 54.241 11.8317 53.7839 12.8113C53.2614 13.9215 52.3798 14.6398 51.1717 14.9337C50.8451 15.0317 50.486 15.0643 50.0941 15.0643ZM50.1594 8.37053C49.8003 8.37053 49.4411 8.43583 49.0819 8.59909C48.8207 8.69705 48.5921 8.86032 48.3962 9.08888L48.6574 9.31746C48.5883 9.41423 48.5133 9.49929 48.4399 9.58257L48.4399 9.58259C48.3399 9.69599 48.2429 9.80607 48.1676 9.93786C47.8737 10.395 47.8084 10.8848 47.8737 11.4072C47.9391 11.9623 48.1676 12.4521 48.5921 12.8439C49.0492 13.2358 49.5717 13.399 50.1594 13.399H50.29C51.237 13.3664 52.0206 12.8113 52.3145 11.897C52.5431 11.244 52.5431 10.5583 52.3472 9.9052C52.1186 9.18684 51.6288 8.69705 50.8778 8.46848C50.6492 8.40318 50.388 8.37053 50.1594 8.37053ZM31.2752 14.9268H32.7772H33.8874C34.1813 14.9268 34.4752 14.8941 34.769 14.8288C35.2915 14.7309 35.7486 14.5023 36.1404 14.1105C36.5976 13.6533 36.7608 13.0982 36.7608 12.4778C36.7608 11.7268 36.467 11.1717 35.8139 10.7799C35.7323 10.7473 35.6588 10.7064 35.5853 10.6656C35.5119 10.6248 35.4384 10.584 35.3568 10.5513L35.4547 10.486C35.8139 10.3228 36.1078 10.0289 36.2384 9.63706C36.2957 9.46526 36.3278 9.26835 36.3569 9.09037L36.3569 9.09032L36.369 9.01666C36.4343 8.26564 36.1731 7.6779 35.52 7.28606C35.0302 6.95954 34.4425 6.86158 33.8547 6.86158H32.8099H31.2425H31.1446V14.9268H31.2752ZM32.9078 13.3595C32.9078 12.7064 32.9078 12.0534 32.9405 11.3677C33.0384 11.3677 33.1037 11.3677 33.2017 11.335H33.2997H33.4303C33.6915 11.335 33.9201 11.335 34.1813 11.3677C34.5731 11.4003 34.867 11.5962 34.9976 11.9881C35.0956 12.3799 35.0956 12.7717 34.769 13.0982C34.6058 13.2615 34.3445 13.3595 34.116 13.3595H33.6262H32.9078ZM32.9405 10.0942V8.39625H33.0384H33.2997H33.5282C33.6915 8.39625 33.8874 8.39626 34.0507 8.42891C34.5078 8.49421 34.769 8.82074 34.769 9.31053C34.769 9.73502 34.4752 10.0615 34.018 10.0942H33.5935H32.9405ZM26.9593 15.0108C26.5675 15.0108 26.1756 14.9455 25.7838 14.8149C24.6736 14.4884 24.0206 13.7047 23.7267 12.5945C23.6614 12.268 23.6287 11.9415 23.6287 11.615V6.91297V6.78236H25.392V6.91297V11.517C25.392 11.7782 25.4246 12.0394 25.4899 12.268C25.6859 12.9211 26.143 13.2803 26.8287 13.3129H26.9593C27.3511 13.3129 27.7103 13.2149 28.0042 12.9537C28.2654 12.7252 28.396 12.3986 28.4613 12.0395C28.494 11.8435 28.5266 11.615 28.5266 11.419V6.91297V6.78236H30.2899V6.88032V11.6476C30.2899 12.2354 30.1919 12.7905 29.9307 13.3129C29.5715 14.0313 29.0164 14.5211 28.2328 14.7823C27.8083 14.9455 27.3838 15.0108 26.9593 15.0108ZM40.9882 14.6034C41.5433 14.9299 42.1311 15.0605 42.7188 15.0605C42.9217 15.0605 43.1502 15.0348 43.4045 15.0062L43.5025 14.9952C44.0902 14.8973 44.6127 14.6034 45.0045 14.1462C45.4616 13.6238 45.6249 12.9707 45.5922 12.285C45.5596 11.632 45.2984 11.1422 44.7759 10.7504C44.5147 10.5544 44.2208 10.4238 43.927 10.2932C43.731 10.2116 43.527 10.13 43.3229 10.0483C43.1188 9.9667 42.9147 9.88506 42.7188 9.80343C42.4576 9.70547 42.229 9.57486 42.0331 9.37894C41.8698 9.21568 41.8045 9.05241 41.8372 8.82384C41.9025 8.52997 42.0984 8.33405 42.3596 8.26875C42.4902 8.23609 42.6208 8.20344 42.7841 8.20344C43.2086 8.20344 43.6657 8.39936 43.9596 8.9218L44.0902 9.15037C44.58 8.82388 45.037 8.4974 45.4941 8.17091L45.4942 8.17087L45.4942 8.17083L45.4943 8.17079C45.2984 7.71365 44.9718 7.38712 44.58 7.1259C44.1229 6.83203 43.6004 6.73407 43.0453 6.70142H42.8494C42.327 6.70142 41.8045 6.79937 41.3474 7.0606C40.1392 7.77896 40.0086 9.11772 40.4658 9.99934C40.6943 10.4238 41.0535 10.7177 41.4454 10.9463C41.7642 11.1588 42.1047 11.2849 42.4492 11.4125C42.5281 11.4417 42.6071 11.471 42.6862 11.5014C42.98 11.5993 43.2739 11.7299 43.5351 11.9259C43.927 12.2524 43.9596 12.8401 43.6004 13.1667C43.4372 13.3299 43.2086 13.3952 42.9474 13.3952H42.9147C42.2617 13.3952 41.7719 13.1014 41.4454 12.5463L41.2821 12.2524H41.2494C40.8249 12.5789 40.4005 12.9054 39.9433 13.232L39.9107 13.3626C40.1392 13.885 40.4984 14.3095 40.9882 14.6034ZM56.7543 14.923H54.9911V6.85776H60.5094V8.52305H56.7543V10.3843H60.1829V11.723H56.7543V14.923ZM37.4904 14.923H39.221V6.85776H37.4904V14.923Z" fill="#FAFAFA"/>
<path fill-rule="evenodd" clip-rule="evenodd" d="M128 55.8562C128 51.3887 131.634 47.7559 136.101 47.7559C140.567 47.7559 144.201 51.3887 144.201 55.8562C144.201 60.3239 140.567 63.9567 136.101 63.9567C131.634 63.9567 128 60.3239 128 55.8562ZM136.627 62.9843C136.69 63.041 136.775 63.0678 136.859 63.0583C140.498 62.6775 143.344 59.5915 143.344 55.8543C143.344 51.8594 140.094 48.6092 136.1 48.6092C132.104 48.6092 128.853 51.8594 128.853 55.8543C128.853 59.5915 131.7 62.6775 135.34 63.0583C135.424 63.0678 135.509 63.041 135.572 62.9843C135.635 62.9271 135.672 62.8448 135.672 62.7598V60.8895C135.672 60.7552 135.58 60.6347 135.449 60.6L132.793 59.8888C132.565 59.8286 132.43 59.5932 132.491 59.3654C132.553 59.1361 132.786 59.002 133.014 59.062L135.292 59.6722C135.383 59.6959 135.48 59.6769 135.554 59.6202C135.627 59.5631 135.672 59.4762 135.672 59.3828V58.6463C135.672 58.5102 135.582 58.3932 135.45 58.3569L131.935 57.3847C131.707 57.3214 131.574 57.086 131.637 56.8583C131.699 56.6303 131.935 56.496 132.163 56.5594L135.291 57.4241C135.381 57.4495 135.477 57.4305 135.553 57.3754C135.627 57.3183 135.672 57.2281 135.672 57.1347V56.4125C135.672 56.2764 135.58 56.1563 135.449 56.1216L132.793 55.4116C132.565 55.3501 132.43 55.1162 132.491 54.887C132.553 54.6591 132.786 54.5234 133.014 54.585L135.292 55.195C135.383 55.2189 135.48 55.1998 135.554 55.1428C135.627 55.0863 135.672 54.9978 135.672 54.9044V54.1756C135.672 54.0394 135.579 53.9196 135.447 53.8845L133.751 53.4356C133.523 53.3754 133.387 53.1415 133.447 52.9139C133.508 52.6848 133.741 52.5488 133.969 52.6088L135.294 52.9585C135.384 52.982 135.48 52.9628 135.554 52.9044C135.628 52.8494 135.672 52.7607 135.672 52.6674V50.8494C135.672 50.6122 135.863 50.421 136.1 50.421C136.336 50.421 136.527 50.6122 136.527 50.8494V52.6674C136.527 52.7607 136.571 52.8494 136.644 52.9044C136.718 52.9628 136.815 52.982 136.905 52.9585L138.229 52.6088C138.458 52.5488 138.691 52.6848 138.752 52.9139C138.812 53.1415 138.676 53.3754 138.447 53.4356L136.751 53.8845C136.619 53.9196 136.527 54.0394 136.527 54.1756V54.9044C136.527 54.9978 136.571 55.0863 136.644 55.1428C136.718 55.1998 136.816 55.2189 136.906 55.195L139.184 54.585C139.413 54.5234 139.646 54.6591 139.708 54.887C139.77 55.1162 139.633 55.3501 139.404 55.4116L136.75 56.1216C136.618 56.1563 136.527 56.2764 136.527 56.4125V57.1347C136.527 57.2281 136.572 57.3183 136.646 57.3754C136.721 57.4305 136.818 57.4495 136.908 57.4241L140.036 56.5594C140.264 56.4977 140.499 56.6303 140.561 56.8583C140.625 57.086 140.491 57.3214 140.264 57.3847L136.748 58.3569C136.617 58.3932 136.527 58.5102 136.527 58.6463V59.3828C136.527 59.4762 136.571 59.5631 136.644 59.6202C136.718 59.6769 136.816 59.6959 136.906 59.6722L139.184 59.062C139.413 59.002 139.646 59.1361 139.708 59.3654C139.77 59.5932 139.633 59.8286 139.404 59.8888L136.75 60.6C136.618 60.6347 136.527 60.7552 136.527 60.8895V62.7598C136.527 62.8448 136.563 62.9271 136.627 62.9843ZM148.139 62.5311C147.745 62.5311 147.441 62.2032 147.441 61.8204V49.76C147.441 49.359 147.745 49.0496 148.121 49.0496C148.515 49.0496 148.82 49.359 148.82 49.76V54.9157C149.572 53.7862 150.664 52.8208 152.365 52.8208C154.586 52.8208 156.789 54.6061 156.789 57.7031V57.7395C156.789 60.8186 154.604 62.6403 152.365 62.6403C150.646 62.6403 149.536 61.6929 148.82 60.6363V61.8204C148.82 62.2032 148.533 62.5311 148.139 62.5311ZM148.766 57.742C148.766 59.9281 150.396 61.3859 152.115 61.3859C153.906 61.3859 155.374 60.0377 155.374 57.7605V57.7236C155.374 55.5013 153.87 54.0804 152.115 54.0804C150.396 54.0804 148.766 55.556 148.766 57.7056V57.742ZM159.495 62.533C159.101 62.533 158.796 62.2231 158.796 61.8223V53.6423C158.796 53.2597 159.101 52.9318 159.476 52.9318C159.87 52.9318 160.175 53.2415 160.175 53.6423V55.4095C160.855 53.8428 162.199 52.8954 163.363 52.8954C163.775 52.8954 164.043 53.205 164.043 53.6058C164.043 53.9884 163.793 54.2616 163.434 54.3165C161.643 54.5352 160.175 55.9012 160.175 58.6161V61.8223C160.175 62.2051 159.889 62.533 159.495 62.533ZM168.95 54.0073C167.338 54.0073 166.12 55.3735 165.942 57.2135H171.905C171.762 55.5011 170.795 54.0073 168.95 54.0073ZM172.872 60.7852C172.872 60.949 172.801 61.1131 172.657 61.2407C171.78 62.0969 170.741 62.6616 169.165 62.6616C166.622 62.6616 164.545 60.676 164.545 57.7613V57.7244C164.545 55.0101 166.425 52.8241 168.986 52.8241C171.726 52.8241 173.284 55.1013 173.284 57.5972C173.284 57.9796 172.98 58.2528 172.64 58.2528H165.942C166.139 60.2932 167.553 61.4409 169.201 61.4409C170.347 61.4409 171.189 60.9859 171.869 60.3479C171.977 60.2568 172.102 60.1841 172.263 60.1841C172.604 60.1841 172.872 60.4573 172.872 60.7852ZM181.289 61.0209C180.645 61.877 179.57 62.6421 177.94 62.6421C176.221 62.6421 174.484 61.64 174.484 59.7091V59.6727C174.484 57.6867 176.096 56.6299 178.442 56.6299C179.624 56.6299 180.465 56.794 181.289 57.0307V56.7028C181.289 55.0087 180.268 54.134 178.532 54.134C177.6 54.134 176.812 54.3527 176.131 54.6624C176.042 54.6991 175.953 54.7171 175.881 54.7171C175.559 54.7171 175.272 54.4441 175.272 54.116C175.272 53.8245 175.469 53.6058 175.648 53.5329C176.562 53.1323 177.492 52.8954 178.675 52.8954C179.982 52.8954 180.985 53.2415 181.665 53.9337C182.292 54.5715 182.615 55.4822 182.615 56.6848V61.8407C182.615 62.2413 182.328 62.533 181.952 62.533C181.558 62.533 181.289 62.2413 181.289 61.877V61.0209ZM175.88 59.6548C175.88 60.839 176.954 61.5312 178.208 61.5312C179.909 61.5312 181.306 60.4746 181.306 58.981V58.0698C180.626 57.8695 179.712 57.6692 178.584 57.6692C176.847 57.6692 175.88 58.4342 175.88 59.6183V59.6548ZM189.383 62.3477C188.989 62.5115 188.56 62.6027 188.022 62.6027C186.536 62.6027 185.407 61.8558 185.407 59.9429V54.2586H184.655C184.333 54.2586 184.046 53.9672 184.046 53.6393C184.046 53.2932 184.333 53.02 184.655 53.02H185.407V50.7972C185.407 50.4145 185.694 50.087 186.088 50.087C186.464 50.087 186.787 50.4145 186.787 50.7972V53.02H189.186C189.527 53.02 189.813 53.3112 189.813 53.6393C189.813 53.9854 189.527 54.2586 189.186 54.2586H186.787V59.7604C186.787 60.9084 187.413 61.3274 188.345 61.3274C188.673 61.3274 188.894 61.2685 189.036 61.2307C189.103 61.2129 189.152 61.1998 189.186 61.1998C189.509 61.1998 189.777 61.473 189.777 61.8009C189.777 62.0561 189.616 62.2564 189.383 62.3477ZM192.323 62.5314C191.928 62.5314 191.624 62.2216 191.624 61.8208V49.7603C191.624 49.3778 191.928 49.0499 192.305 49.0499C192.699 49.0499 193.003 49.3778 193.003 49.7603V54.6609C193.612 53.6407 194.579 52.8211 196.173 52.8211C198.412 52.8211 199.719 54.3512 199.719 56.5922V61.8208C199.719 62.2216 199.415 62.5314 199.038 62.5314C198.644 62.5314 198.34 62.2216 198.34 61.8208V56.9385C198.34 55.1895 197.409 54.0962 195.779 54.0962C194.185 54.0962 193.003 55.2804 193.003 57.0476V61.8208C193.003 62.2216 192.717 62.5314 192.323 62.5314ZM205.949 54.0073C204.337 54.0073 203.119 55.3735 202.94 57.2135H208.904C208.761 55.5011 207.794 54.0073 205.949 54.0073ZM209.871 60.7852C209.871 60.949 209.8 61.1131 209.656 61.2407C208.779 62.0969 207.74 62.6616 206.164 62.6616C203.621 62.6616 201.543 60.676 201.543 57.7613V57.7244C201.543 55.0101 203.424 52.8241 205.985 52.8241C208.725 52.8241 210.283 55.1013 210.283 57.5972C210.283 57.9796 209.979 58.2528 209.638 58.2528H202.941C203.137 60.2932 204.552 61.4409 206.2 61.4409C207.346 61.4409 208.188 60.9859 208.868 60.3479C208.976 60.2568 209.101 60.1841 209.262 60.1841C209.603 60.1841 209.871 60.4573 209.871 60.7852ZM212.881 62.533C212.487 62.533 212.183 62.2231 212.183 61.8223V53.6423C212.183 53.2597 212.487 52.9318 212.863 52.9318C213.257 52.9318 213.562 53.2415 213.562 53.6423V55.4095C214.242 53.8428 215.585 52.8954 216.749 52.8954C217.161 52.8954 217.43 53.205 217.43 53.6058C217.43 53.9884 217.179 54.2616 216.821 54.3165C215.03 54.5352 213.562 55.9012 213.562 58.6161V61.8223C213.562 62.2051 213.275 62.533 212.881 62.533Z" fill="#FAFAFA"/>
<path fill-rule="evenodd" clip-rule="evenodd" d="M9.49948 46.7559C4.24977 46.7559 0 50.9787 0 56.1951C0 61.4115 4.24977 65.6343 9.49948 65.6343C14.7492 65.6343 18.999 61.4115 18.999 56.1951C18.999 50.9787 14.7492 46.7559 9.49948 46.7559ZM9.16021 59.9033L8.46382 61.9438C8.44596 62.0147 8.41025 62.068 8.37454 62.1212C8.28526 62.2631 8.17812 62.3696 8.03527 62.4406C7.91028 62.5115 7.76743 62.547 7.62458 62.547C7.5353 62.547 7.42816 62.5293 7.33888 62.4938C6.94605 62.3519 6.69606 61.9615 6.74963 61.5712C4.78545 60.5776 3.44624 58.5371 3.44624 56.1951C3.44624 52.8594 6.16037 50.1448 9.53519 50.1448C9.92802 50.1448 10.303 50.1802 10.678 50.2512C10.8923 49.9141 11.3208 49.7544 11.7136 49.8786C11.9279 49.9496 12.0886 50.0915 12.1958 50.269C12.285 50.4286 12.3386 50.6061 12.3208 50.8012C12.3208 50.8722 12.3029 50.9432 12.285 50.9964L11.5886 53.0368L9.16021 59.9033ZM9.92802 62.2277L10.7673 59.7082C12.2136 59.1936 13.2493 57.8274 13.2493 56.1951C13.2493 55.4321 13.0171 54.7047 12.6064 54.1192L13.4457 51.5997C14.7492 52.6997 15.5884 54.3498 15.5884 56.1951C15.5706 59.3888 13.0886 61.997 9.92802 62.2277ZM49.5868 56.1589C49.5868 58.5009 47.944 60.2752 45.7834 60.2752C44.5513 60.2752 43.48 59.7784 42.7479 58.8735L42.5157 58.6074V60.0623C42.5157 60.08 42.4979 60.0978 42.48 60.0978H40.5694C40.5515 60.0978 40.5337 60.08 40.5337 60.0623V48.3875C40.5337 48.3697 40.5515 48.352 40.5694 48.352H42.605C42.6229 48.352 42.6407 48.3697 42.6407 48.3875V53.5684L42.8728 53.32C43.6049 52.4683 44.6406 52.007 45.7834 52.007C47.9261 52.007 49.5868 53.8345 49.5868 56.1589ZM47.694 56.1411C47.694 54.7749 46.6941 53.7813 45.337 53.7813C43.9799 53.7813 42.9443 54.8104 42.9443 56.1589C42.9443 57.4718 43.9978 58.5009 45.337 58.5009C46.6762 58.5009 47.694 57.4896 47.694 56.1411ZM55.1584 51.934C52.5514 51.934 50.5693 53.7615 50.5693 56.1746C50.5693 58.5876 52.5335 60.4151 55.1584 60.4151C57.7832 60.4151 59.7653 58.5876 59.7653 56.1746C59.7653 53.7438 57.7832 51.934 55.1584 51.934ZM55.1584 58.6586C53.8013 58.6586 52.7656 57.594 52.7656 56.1746C52.7656 54.7729 53.8192 53.6906 55.1584 53.6906C56.5154 53.6906 57.569 54.7906 57.569 56.1746C57.569 57.5585 56.4976 58.6586 55.1584 58.6586ZM95.9418 59.1554C94.924 59.9538 93.5312 60.4151 92.1563 60.4151C89.2636 60.4151 87.4065 58.7473 87.3887 56.1746C87.3887 55.0035 87.8172 53.9212 88.585 53.1583C89.3886 52.3599 90.5314 51.934 91.817 51.934H91.8706C94.2276 51.9518 96.156 53.9035 96.156 56.281V56.7246H89.6385L89.6564 56.8665C89.8707 58.1263 90.7456 58.8005 92.192 58.8005C93.1562 58.8005 94.0669 58.4989 94.9061 57.9134C94.9061 57.8956 94.924 57.8956 94.9418 57.9134L95.9418 59.1199C95.9596 59.1199 95.9596 59.1376 95.9418 59.1554ZM91.817 53.5841C90.8349 53.5841 90.1207 54.0987 89.8171 55.039C89.7814 55.1277 89.7993 55.2165 89.8707 55.2874C89.9242 55.3584 90.0135 55.4116 90.1028 55.4116H93.549C93.6383 55.4116 93.7276 55.3584 93.7812 55.2874C93.8348 55.2165 93.8526 55.1277 93.8169 55.039C93.4955 54.0987 92.7991 53.5841 91.817 53.5841ZM83.6027 60.4522C80.9779 60.4522 79.0137 58.6247 79.0137 56.2117C79.0137 53.7986 80.9779 51.9711 83.5848 51.9711C84.8883 51.9711 86.0847 52.4324 86.9418 53.2486L85.7276 54.5971C85.2276 53.9938 84.5134 53.6567 83.7456 53.6567C83.2991 53.6567 82.8706 53.7632 82.4956 53.9761C82.0671 54.2067 81.71 54.5439 81.4778 55.0052C81.4689 55.0229 81.46 55.0451 81.451 55.0673C81.4421 55.0894 81.4332 55.1116 81.4243 55.1294C81.2993 55.3955 81.2278 55.6971 81.1921 55.981V56.0165V56.052V56.2117V56.2649V56.4246C81.1921 56.4423 81.1966 56.4645 81.2011 56.4867C81.2055 56.5089 81.21 56.5311 81.21 56.5488L81.2278 56.6375C81.2278 56.6796 81.239 56.7217 81.2525 56.7726C81.2561 56.7861 81.2598 56.8001 81.2635 56.8149C81.2993 56.9569 81.335 57.0811 81.3885 57.2053C81.6028 57.7376 82.0135 58.1811 82.5135 58.4295L82.5492 58.4473L82.567 58.465C82.5849 58.4828 82.6028 58.5005 82.6206 58.5005C82.9777 58.6779 83.3527 58.7667 83.7456 58.7667C84.5134 58.7667 85.2455 58.4118 85.7097 57.8263L86.924 59.1393V59.1925C86.0669 60.0087 84.8884 60.4522 83.6027 60.4522ZM77.7992 60.0639V55.9298C77.7278 54.049 77.21 52.3102 74.0494 52.3102C73.3887 52.3102 72.7995 52.3989 72.2995 52.5941L72.1209 52.6651V52.3457C72.1209 52.328 72.1031 52.328 72.1031 52.328H70.3353C70.3175 52.328 70.3175 52.3457 70.3175 52.3457V60.0639C70.3175 60.0816 70.3353 60.0994 70.3532 60.0994H72.3888C72.4066 60.0994 72.4245 60.0816 72.4245 60.0639V55.7169C72.4245 55.4685 72.4602 55.2378 72.5138 55.0249C72.7459 54.4216 73.3709 53.9958 74.0673 53.9781C74.7458 53.9781 75.3886 54.4039 75.6208 55.0071C75.6922 55.2201 75.71 55.4507 75.71 55.6991V60.0461C75.71 60.0639 75.7279 60.0816 75.7458 60.0816H77.7814C77.7814 60.0994 77.7992 60.0816 77.7992 60.0639ZM61.0678 56.4976V52.3457C61.0678 52.328 61.0856 52.3102 61.1035 52.3102H63.1391C63.1569 52.3102 63.1748 52.328 63.1748 52.3457V56.7105C63.1748 56.9589 63.1926 57.1895 63.2641 57.4024C63.4962 58.0057 64.139 58.4315 64.8176 58.4315C65.514 58.4138 66.1389 57.988 66.371 57.3847C66.4246 57.1718 66.4603 56.9411 66.4603 56.6927V52.3457C66.4603 52.328 66.4782 52.3102 66.496 52.3102H68.5316C68.5495 52.3102 68.5674 52.328 68.5674 52.3457V56.4088C68.4959 57.988 68.0317 60.1171 64.8176 60.1171C61.657 60.1171 61.1392 58.3783 61.0678 56.4976ZM38.8918 60.0994C38.9097 60.0994 38.9276 60.0816 38.9276 60.0639V55.9298C38.8561 54.049 38.3383 52.3102 35.1778 52.3102C34.5171 52.3102 33.9278 52.3989 33.4279 52.5941L33.2493 52.6651V52.3457C33.2493 52.328 33.2314 52.328 33.2136 52.328H31.4458C31.428 52.328 31.428 52.3457 31.428 52.3457V60.0639C31.428 60.0816 31.4458 60.0994 31.4637 60.0994H33.4993C33.5171 60.0994 33.535 60.0816 33.535 60.0639V55.7169C33.535 55.4685 33.5707 55.2378 33.6243 55.0249C33.8564 54.4216 34.4814 53.9958 35.1778 53.9781C35.8563 53.9781 36.4991 54.4039 36.7312 55.0071C36.8027 55.2201 36.8205 55.4507 36.8205 55.6991V60.0461C36.8205 60.0639 36.8384 60.0816 36.8562 60.0816H38.8918V60.0994ZM22.3199 56.4976V52.3457C22.3199 52.328 22.3199 52.3102 22.3556 52.3102H24.3912C24.4091 52.3102 24.4269 52.328 24.4269 52.3457V56.7105C24.4269 56.9589 24.4448 57.1895 24.5162 57.4024C24.7484 58.0057 25.3912 58.4315 26.0697 58.4315C26.7661 58.4138 27.3911 57.988 27.6232 57.3847C27.6768 57.1718 27.7125 56.9411 27.7125 56.6927V52.3457C27.7125 52.328 27.7303 52.3102 27.7482 52.3102H29.7838C29.8017 52.3102 29.8195 52.328 29.8195 52.3457V56.4088C29.7481 57.988 29.2838 60.1171 26.0697 60.1171C22.9092 60.1171 22.3913 58.3783 22.3199 56.4976ZM7.48205 59.3357C6.44639 58.6614 5.75 57.5082 5.75 56.1952C5.75 54.137 7.42848 52.4692 9.49979 52.4692C9.60693 52.4692 9.73192 52.4692 9.83906 52.4869L7.48205 59.3357Z" fill="#FAFAFA"/>
<path fill-rule="evenodd" clip-rule="evenodd" d="M256.632 46.3279L255.729 44.7559L249.441 55.6514C249.061 56.32 249.061 57.1331 249.441 57.8016L251.97 62.1923C252.368 62.8609 253.561 64.3606 255.729 64.3606C257.897 64.3606 259.108 62.8609 259.487 62.1923L262.017 57.8016C262.396 57.1331 262.396 56.32 262.017 55.6514L259.523 51.3329L255.729 57.91L255.042 56.7175L258.529 50.6644C258.71 50.3391 258.71 49.9416 258.529 49.6164L257.626 48.0444L252.621 56.7175L254.843 60.53C255.024 60.8552 255.367 61.054 255.747 61.054C256.108 61.054 256.47 60.8552 256.65 60.53L259.541 55.5249L260.21 56.7175L257.662 61.1263C257.265 61.8129 256.524 62.2466 255.729 62.2466C254.934 62.2466 254.193 61.8129 253.795 61.1263L251.248 56.7175L256.632 47.3758C256.813 47.0506 256.813 46.6531 256.632 46.3279ZM269.243 49.4354H267.491V59.7889H269.243V49.4354ZM271.593 51.3344C272.162 51.3344 272.623 50.8733 272.623 50.3045C272.623 49.7357 272.162 49.2746 271.593 49.2746C271.024 49.2746 270.563 49.7357 270.563 50.3045C270.563 50.8733 271.024 51.3344 271.593 51.3344ZM272.479 52.6013H270.708V59.7928H272.479V52.6013ZM277.122 52.4165C275.116 52.4165 273.49 53.8259 273.49 56.0664C273.49 58.307 274.899 59.6802 277.14 59.6802C278.025 59.6802 278.965 60.1319 278.965 61.1257C278.965 62.1195 278.17 62.6796 277.14 62.6796C276.11 62.6796 275.261 62.0653 275.261 61.1257H273.49C273.49 63.0591 275.044 64.342 277.14 64.342C279.218 64.342 280.736 63.1133 280.736 61.1257C280.736 60.2042 280.447 59.3369 279.254 58.7406C280.428 58.1986 280.772 56.9518 280.772 56.0484C280.772 53.8259 279.128 52.4165 277.122 52.4165ZM277.14 58.2166C276.11 58.2166 275.261 57.3313 275.261 56.0664C275.261 54.8197 276.11 53.8982 277.14 53.8982C278.17 53.8982 279.001 54.8377 279.001 56.0664C279.001 57.3132 278.152 58.2166 277.14 58.2166ZM283.664 53.4824C284.314 52.6693 285.091 52.4163 285.904 52.4163C287.946 52.4163 288.849 53.7896 288.831 55.9036V59.7704H287.061V56.0301C287.061 54.7291 286.374 54.169 285.434 54.169C284.386 54.169 283.664 55.0544 283.664 56.1205V59.7704H281.893V49.4169H283.664V53.4824ZM293.148 58.563C292.932 58.563 292.751 58.4907 292.643 58.3462C292.534 58.2016 292.48 57.9848 292.48 57.6595V54.118H293.907L294.07 52.5822H292.498V50.6127L290.709 50.8114V52.6003H289.354V54.1361H290.709V57.7138C290.709 58.4546 290.89 59.0147 291.233 59.3942C291.576 59.7736 292.1 59.9724 292.769 59.9724C293.076 59.9724 293.365 59.9362 293.672 59.8459C293.98 59.7555 294.251 59.6291 294.486 59.4664L293.871 58.3281C293.636 58.4907 293.383 58.563 293.148 58.563ZM298.036 55.3622C298.864 55.4163 299.711 55.4715 300.432 55.9219C301.028 56.2833 301.245 56.9518 301.209 57.6204C301.209 58.8129 300.269 59.6079 299.167 59.8609C297.703 60.1861 296.095 59.879 294.939 58.9213C294.939 58.9213 294.884 58.8671 294.83 58.831L295.734 57.6926C296.149 57.9637 296.529 58.1805 296.998 58.307C297.45 58.4154 297.902 58.4515 298.354 58.4335C298.769 58.4154 299.366 58.2708 299.456 57.783C299.6 57.0783 298.769 56.9518 298.263 56.8976C298.177 56.8871 298.089 56.8771 298 56.8669C297.323 56.7898 296.577 56.7047 295.987 56.3375C295.39 55.9761 295.029 55.3437 295.029 54.6571C295.029 52.9947 296.764 52.4165 298.083 52.4165C299.221 52.4165 300.07 52.6333 300.901 53.3561L299.908 54.5125C299.402 54.0427 298.805 53.8801 298.119 53.8801C297.27 53.8801 296.8 54.1331 296.8 54.5848C296.8 55.2172 297.541 55.3256 298.028 55.3617L298.036 55.3622ZM306.266 52.4165C305.453 52.4165 304.496 52.7598 303.936 53.5549L303.881 52.5791H302.165V62.9326L303.936 62.7339V58.9394C304.441 59.7163 305.544 59.9693 306.303 59.9693C308.597 59.9693 309.934 58.2528 309.934 56.1748C309.934 54.0608 308.471 52.4165 306.266 52.4165ZM306.122 58.4335C304.911 58.4335 304.098 57.3313 304.098 56.211C304.098 55.0907 304.857 53.8982 306.122 53.8982C307.405 53.8982 308.146 55.1088 308.146 56.211C308.164 57.3313 307.332 58.4335 306.122 58.4335ZM314.488 58.4154C313.223 58.4154 312.446 57.6746 312.247 56.8253H318.138C318.319 53.8982 316.512 52.4165 314.343 52.4165C312.284 52.4165 310.603 54.0066 310.603 56.1748C310.603 58.4696 312.229 59.9512 314.47 59.9512C315.554 59.9512 316.801 59.5718 317.56 58.7948L316.421 57.6746C316.006 58.0901 315.138 58.4154 314.488 58.4154ZM314.343 53.8801C315.373 53.8801 316.223 54.6209 316.421 55.4702H312.247C312.5 54.5306 313.386 53.8801 314.343 53.8801ZM320.451 56.8253C320.65 57.6746 321.427 58.4154 322.692 58.4154C323.342 58.4154 324.209 58.0901 324.625 57.6746L325.763 58.7948C325.004 59.5718 323.758 59.9512 322.674 59.9512C320.433 59.9512 318.807 58.4696 318.807 56.1748C318.807 54.0066 320.487 52.4165 322.547 52.4165C324.715 52.4165 326.522 53.8982 326.342 56.8253H320.451ZM324.643 55.4702C324.444 54.6209 323.595 53.8801 322.565 53.8801C321.608 53.8801 320.722 54.5306 320.469 55.4702H324.643ZM332.954 58.8312C332.394 59.6262 331.436 59.9695 330.623 59.9695C328.419 59.9695 326.955 58.3253 326.955 56.2293C326.955 54.1333 328.274 52.4348 330.569 52.4348C331.328 52.4348 332.448 52.6697 332.954 53.4467V49.4354H334.725V59.7889H333.008L332.954 58.8312ZM332.773 56.1751C332.773 55.0548 331.96 53.9526 330.75 53.9526C329.539 53.9526 328.726 55.0548 328.726 56.1751C328.726 57.2773 329.467 58.4879 330.75 58.4879C332.014 58.4879 332.773 57.2953 332.773 56.1751Z" fill="#FAFAFA"/>
<path d="M123.337 9.79144C122.954 9.46273 122.899 9.40794 122.899 9.29837C122.899 9.24358 123.063 7.65479 122.954 6.17556C122.68 2.72404 121.091 1.95703 120.543 1.95703C120.488 1.95703 120.488 1.95703 120.433 2.01182C120.269 2.23096 120.269 2.8884 120.488 4.09369C120.598 4.58676 120.872 5.46334 121.146 6.39471C121.474 7.43564 121.803 8.47658 121.913 9.07923L121.968 9.1888L121.146 9.46273L121.091 9.35316C120.926 8.91487 120.652 8.25743 120.433 7.43564C119.995 6.12078 119.447 4.47719 119.009 3.81976C118.68 3.2719 117.968 2.55968 117.639 2.55968H117.584C117.42 2.61446 117.255 2.77882 117.2 3.10754C116.981 3.98412 117.255 5.6277 118.406 7.27128C119.557 8.80529 120.105 9.68187 120.159 9.9558L120.214 10.0654L120.159 10.1202C120.159 10.1202 119.94 10.3941 119.611 10.3941C119.447 10.3941 119.283 10.3393 119.173 10.1749C116.598 7.65479 113.968 6.39471 111.447 6.39471C109.913 6.39471 108.762 6.83299 108.214 7.10693C107.995 7.2165 107.831 7.27128 107.721 7.27128C107.612 7.27128 107.612 7.2165 107.557 7.2165C107.502 7.16171 107.502 7.16171 107.502 7.05214C107.502 6.33992 107.447 5.51813 107.283 5.29898C107.228 5.2442 107.173 5.2442 107.118 5.2442C106.132 5.18941 104.707 5.90163 104.214 6.94257C103.886 7.54521 103.995 8.14786 104.379 8.75051C104.762 9.29837 105.365 9.29837 105.749 9.35316C105.968 9.35316 106.132 9.40794 106.187 9.51751C106.242 9.68187 106.077 9.73666 105.968 9.90102C102.187 12.8595 101.255 15.3796 101.529 16.2562C101.584 16.3658 101.639 16.4754 101.749 16.4754C101.858 16.4754 101.913 16.4206 102.023 16.3658C104.981 13.8456 107.995 12.5307 111.064 12.5307C116.653 12.5307 120.598 16.6945 121.694 18.0094C121.913 18.2833 122.187 18.612 122.406 18.9407C123.009 19.7077 123.611 20.4747 124.159 20.8582C124.598 21.1322 125.091 21.187 125.31 20.913C125.474 20.7487 125.529 20.3652 125.42 19.8721C125.2 18.7216 124.159 17.4615 123.447 16.7493C122.844 16.0918 122.625 15.8179 122.68 15.5988C122.735 15.544 122.735 15.4344 122.899 15.4344C124.652 15.0509 125.693 14.4483 125.858 13.5717C126.132 12.1472 124.159 10.5037 123.337 9.79144ZM140.871 8.47658C139.008 8.47658 137.474 9.90102 137.474 11.5994C137.474 11.9829 137.584 12.3664 137.693 12.7499L137.748 12.8047L137.693 12.8595C137.31 13.2978 136.981 13.5717 136.652 13.5717C135.995 13.5717 135.995 12.6403 135.995 11.4898C135.94 10.0654 135.94 8.47658 134.68 8.47658C133.2 8.47658 132.05 10.3941 131.337 12.0377L131.063 12.5855L131.173 10.7228C131.282 8.80529 131.337 6.99735 131.337 5.18941C131.337 3.54583 131.282 2.61446 131.228 2.39532C131.173 2.28575 130.844 2.0666 130.57 2.0666C130.406 2.0666 129.803 2.34053 129.693 2.45011C129.584 2.66925 129.474 4.91548 129.474 7.05214C129.474 12.0925 129.803 14.2291 129.858 14.5031V14.5578C129.913 14.6674 130.187 14.7222 130.406 14.7222C130.625 14.7222 130.954 14.6674 131.009 14.5578L131.063 14.4483C131.666 12.8595 132.817 10.1749 133.803 10.1749C134.351 10.1749 134.351 10.8872 134.406 11.709C134.461 13.0238 134.515 14.6674 136.324 14.6674C136.981 14.6674 137.639 14.2839 138.241 13.5717L138.351 13.4621L138.46 13.5717C139.118 14.2291 140.049 14.6674 141.036 14.6674C142.954 14.6674 144.488 13.243 144.488 11.5446C144.269 9.90102 142.734 8.47658 140.871 8.47658ZM140.871 13.5169C139.995 13.5169 139.337 12.6403 139.337 11.5994C139.337 10.5585 140.049 9.68187 140.871 9.68187C141.748 9.68187 142.46 10.5585 142.46 11.5994C142.46 12.6403 141.748 13.5169 140.871 13.5169ZM148.378 8.47658C147.721 8.47658 147.008 8.69572 146.46 9.07923L146.296 9.1888L146.241 9.02444C146.186 8.80529 146.186 8.64094 146.186 8.64094C146.132 8.53136 145.803 8.47658 145.584 8.47658C145.419 8.47658 145.091 8.53136 145.036 8.64094C144.981 8.86008 144.707 11.3255 144.707 15.7631V15.8179C144.762 15.8727 144.762 15.9275 144.762 16.1466C144.817 18.3381 144.981 20.4747 145.091 20.7487C145.2 20.8582 145.803 21.1322 145.967 21.1322H146.022C146.351 21.1322 146.625 20.913 146.625 20.8035C146.625 20.7487 146.68 20.5295 146.68 19.1051V18.0094C146.68 17.2424 146.625 16.7493 146.625 16.0918C146.57 15.6536 146.57 15.1605 146.515 14.3935V14.2291L146.68 14.3387C147.227 14.6126 147.775 14.777 148.323 14.777C150.241 14.777 151.775 13.3525 151.775 11.6542C151.83 9.90102 150.296 8.47658 148.378 8.47658ZM148.378 13.5169C146.954 13.5169 146.46 12.5308 146.46 11.5994C146.46 10.4489 147.173 9.68187 148.378 9.68187C149.255 9.68187 149.967 10.5585 149.967 11.5994C149.967 12.6403 149.255 13.5169 148.378 13.5169ZM155.94 8.47658C155.282 8.47658 154.57 8.69572 154.022 9.07923L153.858 9.1888L153.803 9.02444C153.748 8.80529 153.748 8.64094 153.748 8.64094C153.693 8.53136 153.364 8.47658 153.145 8.47658C152.981 8.47658 152.652 8.53136 152.597 8.64094C152.542 8.86008 152.269 11.3255 152.269 15.7631V15.8179C152.323 15.8727 152.323 15.9275 152.323 16.1466C152.378 18.3381 152.543 20.4747 152.652 20.7487C152.762 20.8582 153.364 21.1322 153.529 21.1322H153.584C153.912 21.1322 154.186 20.913 154.186 20.8035C154.186 20.7487 154.241 20.5295 154.241 19.1051V18.0094C154.241 17.2424 154.186 16.7493 154.186 16.0918C154.132 15.6536 154.132 15.1605 154.077 14.4483V14.2839L154.241 14.3935C154.789 14.6674 155.337 14.8318 155.885 14.8318C157.803 14.8318 159.337 13.4073 159.337 11.709C159.392 9.90102 157.858 8.47658 155.94 8.47658ZM155.94 13.5169C154.515 13.5169 154.022 12.5308 154.022 11.5994C154.022 10.4489 154.734 9.68187 155.94 9.68187C156.816 9.68187 157.529 10.5585 157.529 11.5994C157.529 12.6403 156.816 13.5169 155.94 13.5169ZM173.638 10.8324C173.638 10.8324 173.583 10.8872 173.583 10.942C173.09 11.9281 172.049 13.5717 171.282 13.5717C171.063 13.5717 170.953 13.4073 170.953 13.1882C170.953 12.9143 171.172 12.3664 171.446 11.7637C171.666 11.1611 171.994 10.5037 171.994 10.1202C171.994 9.46273 171.556 9.13401 170.789 9.13401C170.734 9.13401 169.09 9.13401 168.597 8.80529L168.542 8.75051V8.69572C168.542 8.31222 168.433 7.32607 167.611 7.32607C167.172 7.32607 166.898 7.9835 166.898 8.31222C166.898 9.1888 167.337 9.5723 167.556 9.68187C167.611 9.73666 167.611 9.73666 167.611 9.73666L167.666 9.79144L167.611 9.84623C167.392 10.668 166.898 11.3802 166.679 11.8185C165.912 12.9143 164.981 13.4073 163.72 13.4073C162.789 13.4073 162.077 12.9143 161.857 12.0925L161.803 11.8733L161.967 11.9281C162.46 12.0925 162.899 12.1472 163.337 12.1472C164.542 12.1472 165.803 11.5446 165.803 10.2297C165.803 9.13401 164.762 8.31222 163.337 8.31222C161.474 8.31222 159.94 9.73666 159.94 11.435C159.94 12.6951 160.926 14.5578 163.666 14.5578C165.857 14.5578 166.953 12.5855 167.282 11.9829L167.337 11.9281C167.72 11.2707 168.049 10.4489 168.159 10.1202L168.214 10.0106L168.323 10.0654C168.488 10.1202 169.255 10.2845 169.748 10.2845C169.967 10.2845 170.131 10.3941 170.131 10.6132C170.131 10.668 170.077 10.7228 170.077 10.7776L170.022 10.8324L169.912 10.9967C169.638 11.5994 169.255 12.476 169.255 13.0786C169.255 13.8456 169.748 14.6126 170.844 14.6126C172.378 14.6126 173.309 12.6951 173.638 12.0925L173.693 12.0377C173.748 11.8733 173.803 11.6542 173.803 11.3802C173.748 11.1611 173.693 10.8324 173.638 10.8324ZM161.803 11.3802C161.912 10.4489 162.625 9.68187 163.337 9.68187C163.994 9.68187 164.433 10.0106 164.433 10.6132C164.433 11.3255 163.446 11.5994 162.625 11.5994C162.296 11.5994 162.022 11.5446 161.857 11.4898L161.748 11.435L161.803 11.3802Z" fill="#FAFAFA"/>
<path fill-rule="evenodd" clip-rule="evenodd" d="M219.189 19.2123C215.587 20.8749 209.145 16.2337 207.413 12.6316C205.681 9.02947 207.828 5.49663 211.431 3.76485C212.608 3.21068 213.855 2.93359 215.102 2.93359C217.457 2.93359 219.674 4.04193 220.782 6.46643C222.514 9.99926 222.791 17.4806 219.189 19.2123ZM213.37 6.67416H211.085L211.985 8.05958C212.47 8.82156 212.401 9.79136 211.916 10.5533L211.154 11.5924L211.223 11.6617C211.569 12.008 212.124 12.008 212.47 11.6617L213.301 10.8997C213.328 10.8732 213.344 10.8468 213.358 10.8242C213.381 10.7876 213.397 10.7612 213.44 10.7612C214.063 10.3455 214.894 10.4841 215.31 11.1075L218.219 15.2638C218.219 15.3331 218.289 15.4023 218.289 15.4023C218.635 15.7487 219.189 15.7487 219.536 15.4023L216.141 8.19812C215.449 6.8127 214.132 6.67416 213.37 6.67416ZM212.262 14.9174C212.262 14.6404 212.262 14.4325 212.401 14.2247L213.925 11.1075C213.925 11.1075 214.548 10.8997 215.033 11.5924C215.102 11.731 215.102 11.9388 215.033 12.1466L212.886 15.818C212.886 15.818 212.262 15.4023 212.262 14.9174ZM253.756 11.0376C253.41 12.6309 252.094 13.947 250.016 13.947C247.661 13.947 246.067 12.2152 246.067 9.72148C246.067 7.29699 247.73 5.49594 250.085 5.49594C252.025 5.49594 253.341 6.535 253.826 8.26679L252.094 8.61314C251.748 7.57407 251.055 7.08918 250.154 7.08918C249.046 7.08918 248.007 7.92043 248.007 9.72148C248.007 11.5225 249.046 12.3538 250.154 12.3538C251.124 12.3538 251.886 11.6611 252.163 10.6913L253.756 11.0376ZM245.719 13.1143C245.719 13.5992 245.373 13.9455 244.888 13.9455C244.403 13.9455 244.057 13.5992 244.057 13.1143C244.057 12.6294 244.403 12.283 244.888 12.283C245.373 12.283 245.719 12.6987 245.719 13.1143ZM256.873 14.0172C257.981 14.0172 259.02 13.5323 259.644 12.6318V13.8787H261.583C261.514 13.6016 261.514 13.0474 261.514 12.7703V8.61405C261.514 6.813 260.337 5.63538 258.12 5.63538C256.388 5.63538 255.003 6.46664 254.449 7.92134L256.111 8.40623C256.457 7.57498 257.081 7.09008 258.051 7.09008C259.09 7.09008 259.644 7.64425 259.644 8.68332V8.82186L257.289 9.37603C255.28 9.79166 254.379 10.5536 254.379 11.8698C254.379 13.186 255.418 14.0172 256.873 14.0172ZM259.575 11.1771C259.298 12.0776 258.258 12.6318 257.427 12.6318C256.665 12.6318 256.18 12.2162 256.18 11.662C256.18 11.1078 256.596 10.7615 257.496 10.5536L259.575 10.0687V11.1771ZM241.149 7.09051C240.04 7.09051 238.863 8.26812 238.655 8.75302C238.447 9.23792 237.547 12.4937 237.547 12.4937C237.695 12.4937 237.843 12.5136 237.981 12.532C238.101 12.548 238.212 12.5629 238.308 12.5629C238.586 12.6322 238.863 12.6322 239.14 12.6322C241.01 12.6322 242.118 10.5541 242.118 9.0301C242.188 7.99103 242.049 7.09051 241.149 7.09051ZM229.026 17.8276C230.273 17.8276 230.827 16.2343 231.312 14.7103C231.312 14.6411 231.329 14.5891 231.347 14.5372C231.364 14.4852 231.381 14.4333 231.381 14.364L231.451 14.0869C230.619 14.2947 229.927 14.5025 229.372 14.7796C227.087 15.888 227.918 17.8276 229.026 17.8276ZM233.46 18.8666C233.46 18.7974 235.053 13.602 235.053 13.602C234.499 13.602 233.875 13.602 233.529 13.7405C232.559 17.9661 231.451 19.3515 228.68 19.3515C227.641 19.3515 226.186 18.9359 226.186 17.2734C226.186 15.6109 227.294 14.0176 231.797 12.7708C231.866 12.5629 231.936 12.3551 232.005 12.078L232.143 11.6624C231.312 12.2859 230.342 12.6322 229.303 12.6322C228.541 12.6322 227.433 12.0088 227.433 10.8312C227.433 10.6926 227.433 10.5541 227.502 10.3463C227.849 8.82229 228.264 7.29832 228.818 5.84362C228.957 5.49727 229.234 5.56654 229.234 5.56654H230.619C230.619 5.56654 230.966 5.56654 230.827 5.84362C230.772 5.98744 230.717 6.13193 230.661 6.27697C230.154 7.59897 229.629 8.9661 229.442 10.277C229.372 10.6233 229.511 10.9004 229.65 11.1082C230.204 11.6624 231.381 10.9697 232.074 10.2077C232.698 9.44573 233.044 8.40666 233.321 7.43686C233.46 7.09051 233.598 6.32852 233.667 5.9129C233.737 5.63581 234.083 5.63581 234.083 5.63581H235.676C235.953 5.63581 235.884 5.84362 235.884 5.84362L233.875 12.4244C234.36 12.3551 234.845 12.2859 235.33 12.2859H235.468L237.477 5.84362C237.477 5.70508 237.685 5.56654 237.824 5.63581H239.417C239.555 5.63581 239.694 5.70508 239.625 5.9129C239.486 6.18998 239.417 6.60561 239.417 6.60561C240.179 5.98217 241.01 5.77435 241.495 5.77435C243.85 5.77435 244.404 7.64468 244.404 9.0301C244.404 11.2468 242.326 14.0869 239.763 14.0869C239.333 14.0869 238.957 14.0323 238.539 13.9716L238.378 13.9484C238.031 13.8791 237.616 13.8098 237.2 13.8098C237.084 14.1568 236.99 14.5253 236.894 14.9033L236.894 14.9034L236.894 14.9034C236.817 15.2045 236.738 15.5116 236.646 15.8187C236.646 15.9572 236.577 16.0958 236.507 16.2343C236.394 16.6868 236.179 17.4471 236.005 18.0572L236.005 18.0573L236.005 18.0576C235.86 18.5683 235.745 18.9736 235.745 19.0052C235.745 19.1437 235.607 19.213 235.538 19.213H233.598C233.529 19.0744 233.46 18.9359 233.46 18.8666ZM237.893 18.0348H237.131H237.062V18.104H237.408V19.0046H237.547V18.104H237.893V18.0348ZM238.792 18.0348H239V19.0046H238.861V18.104L238.792 18.3118L238.515 19.0738H238.446L238.169 18.3118L238.099 18.1733V19.0738H238.03V18.104H238.238L238.446 18.7967L238.515 18.9353L238.584 18.7967L238.792 18.0348Z" fill="#FAFAFA"/>
<path d="M302.882 15.0461L300.593 11.6431C301.981 10.9548 302.758 9.7388 302.758 8.23373C302.758 5.982 301.066 4.2889 298.063 4.2889H294.583V15.0461H296.53V12.1781H298.649L300.549 15.0461H302.882ZM298.262 10.2003H296.53V6.26693H298.262C299.641 6.26693 300.714 6.87957 300.714 8.23373C300.714 9.58748 299.641 10.2003 298.262 10.2003ZM328.789 4.2889H330.735V15.0461H328.789V4.2889ZM309.488 9.07887V12.6468C309.519 13.1211 309.733 13.343 310.155 13.343C310.577 13.343 310.891 13.1589 311.147 12.9563V14.7758C310.774 15.0358 310.141 15.2242 309.438 15.1828C308.971 15.1551 308.423 14.9562 308.039 14.5641C307.707 14.152 307.541 13.7431 307.541 13.0486V9.07887H306.545V7.33176H307.541V4.82163H309.488V7.33176H310.816V9.07887H309.488ZM319.156 15.0445H317.411L317.23 14.1653C316.872 14.6284 316.137 15.1371 315.065 15.1371C313.138 15.1371 311.828 14.0112 311.828 11.9595V7.33187H313.754V11.3151C313.754 12.6725 314.365 13.2588 315.484 13.2588C316.603 13.2588 317.23 12.4567 317.23 11.3151V7.33187H319.156V15.0445H319.156ZM327.788 7.3412V15.0461H326.23L326.049 14.2447C325.723 14.6608 324.87 15.1384 323.829 15.1384C321.61 15.1384 319.933 13.5049 319.933 11.1937C319.933 8.88213 321.61 7.2486 323.829 7.2486C324.854 7.2486 325.723 7.72638 326.049 8.14239L326.23 7.34109H327.788V7.3412ZM323.889 9.07341C322.707 9.07341 321.796 10.0347 321.796 11.1939C321.796 12.3526 322.707 13.3138 323.889 13.3138C325.042 13.3138 325.925 12.3526 325.925 11.1939C325.925 10.0347 325.042 9.07341 323.889 9.07341ZM303.697 7.33155H305.643V15.0459H303.697V7.33155ZM305.927 5.185C305.927 5.88814 305.361 6.4581 304.662 6.4581C303.963 6.4581 303.397 5.88814 303.397 5.185C303.397 4.48207 303.963 3.91211 304.662 3.91211C305.361 3.91211 305.927 4.48207 305.927 5.185Z" fill="#FAFAFA"/>
</svg>
