<svg id="logo-hopper" width="99" height="27" viewBox="0 0 99 27" fill="none" xmlns="http://www.w3.org/2000/svg">
<path d="M29.7435 11.2455C29.2214 10.7981 29.1468 10.7235 29.1468 10.5743C29.1468 10.4998 29.3706 8.33726 29.2214 6.32388C28.8485 1.626 26.6857 0.582031 25.9399 0.582031C25.8653 0.582031 25.8653 0.582031 25.7907 0.656601C25.567 0.954879 25.567 1.84971 25.8653 3.49024C26.0145 4.16137 26.3874 5.35448 26.7603 6.62216C27.2078 8.03898 27.6552 9.4558 27.8044 10.2761L27.879 10.4252L26.7603 10.7981L26.6857 10.6489C26.462 10.0524 26.0891 9.15752 25.7907 8.03898C25.1941 6.24931 24.4483 4.01223 23.8517 3.11739C23.4042 2.3717 22.4346 1.4023 21.9872 1.4023H21.9126C21.6888 1.47687 21.4651 1.70057 21.3905 2.14799C21.0922 3.3411 21.4651 5.57819 23.0313 7.81527C24.5975 9.90322 25.3433 11.0963 25.4178 11.4692L25.4924 11.6183L25.4178 11.6929C25.4178 11.6929 25.1195 12.0657 24.672 12.0657C24.4483 12.0657 24.2246 11.9912 24.0754 11.7675C20.5701 8.33726 16.9903 6.62216 13.5596 6.62216C11.4714 6.62216 9.90518 7.21872 9.15938 7.59156C8.86106 7.7407 8.63732 7.81527 8.48816 7.81527C8.339 7.81527 8.339 7.7407 8.26442 7.7407C8.18984 7.66613 8.18984 7.66613 8.18984 7.51699C8.18984 6.54759 8.11526 5.42905 7.89152 5.13077C7.81694 5.0562 7.74236 5.0562 7.66778 5.0562C6.32534 4.98163 4.38625 5.95103 3.71503 7.36786C3.26755 8.18812 3.41671 9.00838 3.93877 9.82865C4.46084 10.5743 5.28122 10.5743 5.80328 10.6489C6.1016 10.6489 6.32534 10.7235 6.39992 10.8726C6.4745 11.0963 6.25076 11.1709 6.1016 11.3946C0.955572 15.4214 -0.31229 18.8516 0.0606107 20.0447C0.135191 20.1938 0.209771 20.3429 0.358931 20.3429C0.508091 20.3429 0.582671 20.2684 0.731831 20.1938C4.75916 16.7636 8.86106 14.9739 13.0375 14.9739C20.6447 14.9739 26.0145 20.6412 27.5061 22.4309C27.8044 22.8037 28.1773 23.2512 28.4756 23.6986C29.296 24.7425 30.1164 25.7865 30.8622 26.3085C31.4588 26.6814 32.13 26.7559 32.4284 26.3831C32.6521 26.1594 32.7267 25.6374 32.5775 24.9663C32.2792 23.4003 30.8622 21.6852 29.8926 20.7158C29.0723 19.821 28.7739 19.4481 28.8485 19.1498C28.9231 19.0753 28.9231 18.9261 29.1468 18.9261C31.5334 18.4041 32.9504 17.5839 33.1742 16.3908C33.5471 14.452 30.8622 12.2149 29.7435 11.2455ZM53.6091 9.4558C51.0734 9.4558 48.9851 11.3946 48.9851 13.7063C48.9851 14.2282 49.1343 14.7502 49.2835 15.2722L49.358 15.3468L49.2835 15.4214C48.7614 16.0179 48.3139 16.3908 47.8664 16.3908C46.9715 16.3908 46.9715 15.1231 46.9715 13.5571C46.8969 11.6183 46.8969 9.4558 45.1816 9.4558C43.1679 9.4558 41.6017 12.0657 40.6322 14.3028L40.2593 15.0485L40.4084 12.5131C40.5576 9.90322 40.6322 7.44242 40.6322 4.98163C40.6322 2.74455 40.5576 1.47687 40.483 1.17859C40.4084 1.02945 39.961 0.73117 39.5881 0.73117C39.3643 0.73117 38.5439 1.10402 38.3948 1.25316C38.2456 1.55143 38.0964 4.60878 38.0964 7.51699C38.0964 14.3774 38.5439 17.2856 38.6185 17.6584V17.733C38.6931 17.8822 39.066 17.9567 39.3643 17.9567C39.6626 17.9567 40.1101 17.8822 40.1847 17.733L40.2593 17.5839C41.0797 15.4214 42.6458 11.7675 43.9883 11.7675C44.7341 11.7675 44.7341 12.7369 44.8087 13.8554C44.8832 15.6451 44.9578 17.8822 47.419 17.8822C48.3139 17.8822 49.2089 17.3602 50.0293 16.3908L50.1784 16.2416L50.3276 16.3908C51.2225 17.2856 52.4904 17.8822 53.8328 17.8822C56.4431 17.8822 58.5314 15.9433 58.5314 13.6317C58.2331 11.3946 56.1448 9.4558 53.6091 9.4558ZM53.6091 16.3162C52.4158 16.3162 51.5209 15.1231 51.5209 13.7063C51.5209 12.2894 52.4904 11.0963 53.6091 11.0963C54.8024 11.0963 55.7719 12.2894 55.7719 13.7063C55.7719 15.1231 54.8024 16.3162 53.6091 16.3162ZM63.8266 9.4558C62.9316 9.4558 61.9621 9.75408 61.2163 10.2761L60.9925 10.4252L60.9179 10.2015C60.8434 9.90322 60.8434 9.67951 60.8434 9.67951C60.7688 9.53037 60.3213 9.4558 60.023 9.4558C59.7993 9.4558 59.3518 9.53037 59.2772 9.67951C59.2026 9.97779 58.8297 13.3334 58.8297 19.3735V19.4481C58.9043 19.5227 58.9043 19.5973 58.9043 19.8955C58.9789 22.8783 59.2026 25.7865 59.3518 26.1594C59.5009 26.3085 60.3213 26.6814 60.5451 26.6814H60.6196C61.0671 26.6814 61.44 26.3831 61.44 26.2339C61.44 26.1594 61.5146 25.8611 61.5146 23.9223V22.4309C61.5146 21.3869 61.44 20.7158 61.44 19.821C61.3654 19.2244 61.3654 18.5533 61.2908 17.5093V17.2856L61.5146 17.4347C62.2604 17.8076 63.0062 18.0313 63.752 18.0313C66.3623 18.0313 68.4505 16.0925 68.4505 13.7808C68.5251 11.3946 66.4369 9.4558 63.8266 9.4558ZM63.8266 16.3162C61.8875 16.3162 61.2163 14.9739 61.2163 13.7063C61.2163 12.1403 62.1858 11.0963 63.8266 11.0963C65.0199 11.0963 65.9894 12.2894 65.9894 13.7063C65.9894 15.1231 65.0199 16.3162 63.8266 16.3162ZM74.1186 9.4558C73.2237 9.4558 72.2541 9.75408 71.5083 10.2761L71.2846 10.4252L71.21 10.2015C71.1354 9.90322 71.1354 9.67951 71.1354 9.67951C71.0608 9.53037 70.6134 9.4558 70.315 9.4558C70.0913 9.4558 69.6438 9.53037 69.5692 9.67951C69.4947 9.97779 69.1218 13.3334 69.1218 19.3735V19.4481C69.1963 19.5227 69.1963 19.5973 69.1963 19.8955C69.2709 22.8783 69.4947 25.7865 69.6438 26.1594C69.793 26.3085 70.6134 26.6814 70.8371 26.6814H70.9117C71.3592 26.6814 71.7321 26.3831 71.7321 26.2339C71.7321 26.1594 71.8066 25.8611 71.8066 23.9223V22.4309C71.8066 21.3869 71.7321 20.7158 71.7321 19.821C71.6575 19.2244 71.6575 18.5533 71.5829 17.5839V17.3602L71.8066 17.5093C72.5524 17.8822 73.2983 18.1059 74.0441 18.1059C76.6544 18.1059 78.7426 16.1671 78.7426 13.8554C78.8172 11.3946 76.7289 9.4558 74.1186 9.4558ZM74.1186 16.3162C72.1795 16.3162 71.5083 14.9739 71.5083 13.7063C71.5083 12.1403 72.4779 11.0963 74.1186 11.0963C75.3119 11.0963 76.2814 12.2894 76.2814 13.7063C76.2814 15.1231 75.3119 16.3162 74.1186 16.3162ZM98.208 12.6623C98.208 12.6623 98.1334 12.7369 98.1334 12.8114C97.4622 14.1537 96.0452 16.3908 95.001 16.3908C94.7027 16.3908 94.5536 16.1671 94.5536 15.8688C94.5536 15.4959 94.8519 14.7502 95.2248 13.93C95.5231 13.1097 95.9706 12.2149 95.9706 11.6929C95.9706 10.7981 95.3739 10.3506 94.3298 10.3506C94.2552 10.3506 92.0178 10.3506 91.3466 9.90322L91.272 9.82865V9.75408C91.272 9.23209 91.1229 7.88984 90.0042 7.88984C89.4075 7.88984 89.0346 8.78467 89.0346 9.23209C89.0346 10.4252 89.6313 10.9472 89.9296 11.0963C90.0042 11.1709 90.0042 11.1709 90.0042 11.1709L90.0788 11.2455L90.0042 11.32C89.7059 12.4386 89.0346 13.408 88.7363 14.0045C87.6922 15.4959 86.4243 16.1671 84.709 16.1671C83.4411 16.1671 82.4716 15.4959 82.1733 14.3774L82.0987 14.0791L82.3224 14.1537C82.9937 14.3774 83.5903 14.452 84.1869 14.452C85.8277 14.452 87.543 13.6317 87.543 11.842C87.543 10.3506 86.126 9.23209 84.1869 9.23209C81.6512 9.23209 79.563 11.1709 79.563 13.4826C79.563 15.1976 80.9054 17.733 84.6344 17.733C87.6176 17.733 89.1092 15.0485 89.5567 14.2282L89.6313 14.1537C90.1533 13.2588 90.6008 12.1403 90.75 11.6929L90.8246 11.5437L90.9737 11.6183C91.1975 11.6929 92.2416 11.9166 92.9128 11.9166C93.2111 11.9166 93.4349 12.0657 93.4349 12.364C93.4349 12.4386 93.3603 12.5131 93.3603 12.5877L93.2857 12.6623L93.1365 12.886C92.7636 13.7063 92.2416 14.8994 92.2416 15.7196C92.2416 16.7636 92.9128 17.8076 94.4044 17.8076C96.4926 17.8076 97.7605 15.1977 98.208 14.3774L98.2826 14.3028C98.3571 14.0791 98.4317 13.7808 98.4317 13.408C98.3571 13.1097 98.2826 12.6623 98.208 12.6623ZM82.0987 13.408C82.2479 12.1403 83.2174 11.0963 84.1869 11.0963C85.0819 11.0963 85.6785 11.5437 85.6785 12.364C85.6785 13.3334 84.3361 13.7063 83.2174 13.7063C82.7699 13.7063 82.397 13.6317 82.1733 13.5571L82.0241 13.4826L82.0987 13.408Z" fill="#FAFAFA"/>
</svg>
