<svg id="logo-lightspeed" width="121" height="28" viewBox="0 0 121 28" fill="none" xmlns="http://www.w3.org/2000/svg">
<path fill-rule="evenodd" clip-rule="evenodd" d="M10.5172 2.21148L9.24626 0L0.400353 15.3278C-0.133451 16.2683 -0.133451 17.4122 0.400353 18.3527L3.95905 24.5296C4.51827 25.4701 6.19595 27.5799 9.24626 27.5799C12.2966 27.5799 13.9997 25.4701 14.5335 24.5296L18.0922 18.3527C18.626 17.4122 18.626 16.2683 18.0922 15.3278L14.5843 9.25261L9.24626 18.5052L8.28032 16.8276L13.1862 8.3121C13.4404 7.85455 13.4404 7.29533 13.1862 6.83778L11.9153 4.62631L4.87414 16.8276L8.00071 22.191C8.25491 22.6486 8.73787 22.9282 9.27168 22.9282C9.78006 22.9282 10.2884 22.6486 10.5426 22.191L14.6097 15.1499L15.5502 16.8276L11.9661 23.0299C11.4069 23.9958 10.3647 24.6058 9.24626 24.6058C8.12781 24.6058 7.08562 23.9958 6.5264 23.0299L2.94228 16.8276L10.5172 3.68579C10.7714 3.22825 10.7714 2.66902 10.5172 2.21148ZM28.2591 6.58254H25.7934V21.1478H28.2591V6.58254ZM31.5639 9.25327C32.3641 9.25327 33.0128 8.60457 33.0128 7.80437C33.0128 7.00416 32.3641 6.35547 31.5639 6.35547C30.7637 6.35547 30.115 7.00416 30.115 7.80437C30.115 8.60457 30.7637 9.25327 31.5639 9.25327ZM32.8099 11.0352H30.3188V21.152H32.8099V11.0352ZM39.3422 10.7779C36.5206 10.7779 34.2329 12.7606 34.2329 15.9126C34.2329 19.0646 36.2156 20.9965 39.3676 20.9965C40.6131 20.9965 41.9349 21.632 41.9349 23.03C41.9349 24.4281 40.8165 25.2161 39.3676 25.2161C37.9187 25.2161 36.724 24.3518 36.724 23.03H34.2329C34.2329 25.7499 36.419 27.5546 39.3676 27.5546C42.2908 27.5546 44.426 25.8261 44.426 23.03C44.426 21.7336 44.0193 20.5135 42.3417 19.6747C43.9939 18.9121 44.4769 17.1582 44.4769 15.8872C44.4769 12.7606 42.1637 10.7779 39.3422 10.7779ZM39.3676 18.9375C37.9187 18.9375 36.724 17.692 36.724 15.9126C36.724 14.1587 37.9187 12.8623 39.3676 12.8623C40.8165 12.8623 41.9858 14.1841 41.9858 15.9126C41.9858 17.6665 40.7911 18.9375 39.3676 18.9375ZM48.5459 12.278C49.461 11.1342 50.554 10.7783 51.6979 10.7783C54.5702 10.7783 55.8412 12.7102 55.8158 15.6842V21.1239H53.3247V15.8622C53.3247 14.032 52.3588 13.244 51.037 13.244C49.5626 13.244 48.5459 14.4895 48.5459 15.9892V21.1239H46.0548V6.5587H48.5459V12.278ZM61.8885 19.422C61.5835 19.422 61.3293 19.3203 61.1768 19.117C61.0243 18.9136 60.948 18.6086 60.948 18.1511V13.1689H62.9562L63.1849 11.0082H60.9734V8.23754L58.4569 8.51715V11.0337H56.5505V13.1943H58.4569V18.2273C58.4569 19.2695 58.7111 20.0575 59.1941 20.5913C59.6771 21.1251 60.4142 21.4047 61.3547 21.4047C61.7869 21.4047 62.1936 21.3539 62.6257 21.2268C63.0578 21.0997 63.4391 20.9218 63.7696 20.693L62.9053 19.0916C62.5749 19.3203 62.219 19.422 61.8885 19.422ZM68.7638 14.9219C69.9299 14.998 71.1206 15.0756 72.1344 15.7093C72.9733 16.2177 73.2783 17.1582 73.2275 18.0987C73.2275 19.7763 71.9057 20.8948 70.3551 21.2507C68.2961 21.7082 66.0338 21.2761 64.407 19.9289C64.407 19.9289 64.3307 19.8526 64.2545 19.8018L65.5254 18.2004C66.1101 18.5816 66.6439 18.8867 67.3048 19.0646C67.9403 19.2171 68.5757 19.268 69.2112 19.2425C69.7959 19.2171 70.6347 19.0138 70.7618 18.3274C70.9651 17.3361 69.7959 17.1582 69.0841 17.0819C68.9629 17.0671 68.8392 17.053 68.7139 17.0387C67.7618 16.9302 66.7124 16.8105 65.8813 16.2939C65.0425 15.7855 64.5341 14.8958 64.5341 13.9299C64.5341 11.5913 66.9743 10.7779 68.8299 10.7779C70.4313 10.7779 71.626 11.083 72.7953 12.0997L71.3973 13.7266C70.6855 13.0657 69.8467 12.8369 68.8808 12.8369C67.6861 12.8369 67.0252 13.1928 67.0252 13.8282C67.0252 14.7179 68.0674 14.8704 68.7537 14.9213L68.7638 14.9219ZM80.3431 10.7779C79.1992 10.7779 77.852 11.2609 77.064 12.3793L76.9877 11.0067H74.5729V25.5719L77.064 25.2923V19.9543C77.7757 21.0473 79.3263 21.4032 80.3939 21.4032C83.6221 21.4032 85.5032 18.9883 85.5032 16.0651C85.5032 13.0911 83.4442 10.7779 80.3431 10.7779ZM80.1397 19.2425C78.4366 19.2425 77.2927 17.692 77.2927 16.116C77.2927 14.54 78.3604 12.8623 80.1397 12.8623C81.9445 12.8623 82.9867 14.5654 82.9867 16.116C83.0121 17.692 81.8428 19.2425 80.1397 19.2425ZM91.9091 19.2171C90.1297 19.2171 89.0367 18.1749 88.7571 16.9802H97.0438C97.298 12.8623 94.756 10.7779 91.7057 10.7779C88.8079 10.7779 86.4439 13.0148 86.4439 16.0651C86.4439 19.2934 88.7317 21.3778 91.8837 21.3778C93.4088 21.3778 95.1627 20.844 96.2303 19.7509L94.6289 18.1749C94.0443 18.7596 92.8242 19.2171 91.9091 19.2171ZM91.7057 12.8369C93.1546 12.8369 94.3493 13.8791 94.6289 15.0738H88.7571C89.113 13.752 90.3585 12.8369 91.7057 12.8369ZM100.298 16.9802C100.577 18.1749 101.67 19.2171 103.45 19.2171C104.365 19.2171 105.585 18.7596 106.17 18.1749L107.771 19.7509C106.703 20.844 104.95 21.3778 103.424 21.3778C100.272 21.3778 97.9847 19.2934 97.9847 16.0651C97.9847 13.0148 100.349 10.7779 103.246 10.7779C106.297 10.7779 108.839 12.8623 108.584 16.9802H100.298ZM106.195 15.0738C105.915 13.8791 104.721 12.8369 103.272 12.8369C101.925 12.8369 100.679 13.752 100.323 15.0738H106.195ZM117.887 19.8006C117.099 20.919 115.752 21.402 114.608 21.402C111.507 21.402 109.448 19.0888 109.448 16.1402C109.448 13.1915 111.304 10.8021 114.532 10.8021C115.599 10.8021 117.175 11.1326 117.887 12.2256V6.58254H120.378V21.1478H117.963L117.887 19.8006ZM117.633 16.0639C117.633 14.4879 116.489 12.9374 114.786 12.9374C113.083 12.9374 111.939 14.4879 111.939 16.0639C111.939 17.6145 112.981 19.3176 114.786 19.3176C116.565 19.3176 117.633 17.6399 117.633 16.0639Z" fill="#FAFAFA"/>
</svg>
