<svg width="52" height="17" viewBox="0 0 52 17" fill="none" xmlns="http://www.w3.org/2000/svg">
<path d="M11.9365 16.0149L8.64408 11.1201C10.6411 10.13 11.7575 8.38099 11.7575 6.21613C11.7575 2.97729 9.32454 0.541969 5.0044 0.541969H0V16.0149H2.79996V11.8897H5.84731L8.58041 16.0149H11.9365ZM5.29084 9.04484H2.79996V3.38712H5.29084C7.27464 3.38712 8.81761 4.26833 8.81761 6.21613C8.81776 8.16333 7.27464 9.04484 5.29084 9.04484ZM49.2006 0.541969H52V16.0149H49.2006V0.541969ZM21.4379 7.43175V12.5638C21.4825 13.246 21.7903 13.5652 22.3977 13.5652C23.0043 13.5652 23.4565 13.3003 23.824 13.0089V15.6262C23.2876 16.0001 22.3775 16.271 21.367 16.2116C20.6949 16.1717 19.9071 15.8856 19.3546 15.3216C18.8766 14.7288 18.6374 14.1407 18.6374 13.1417V7.43175H17.2058V4.91875H18.6374V1.30824H21.4379V4.91875H23.3484V7.43175H21.4379ZM35.3451 16.0126H32.8343L32.5744 14.748C32.0599 15.4141 31.0024 16.1458 29.4599 16.1458C26.6882 16.1458 24.8043 14.5264 24.8043 11.5752V4.9189H27.5746V10.6483C27.5746 12.6007 28.4535 13.4441 30.0635 13.4441C31.6726 13.4441 32.5743 12.2903 32.5743 10.6483V4.9189H35.3449V16.0126H35.3451ZM47.7606 4.93233V16.0149H45.5196L45.2595 14.8621C44.7907 15.4607 43.563 16.1476 42.0667 16.1476C38.874 16.1476 36.4616 13.7981 36.4616 10.4737C36.4616 7.14878 38.874 4.79914 42.0667 4.79914C43.5402 4.79914 44.7907 5.48636 45.2595 6.08475L45.5196 4.93218H47.7606V4.93233ZM42.1523 7.42391C40.4522 7.42391 39.1416 8.80666 39.1416 10.4739C39.1416 12.1407 40.4523 13.5231 42.1523 13.5231C43.8113 13.5231 45.0812 12.1407 45.0812 10.4739C45.0812 8.80666 43.8113 7.42391 42.1523 7.42391ZM13.108 4.91845H15.9078V16.0146H13.108V4.91845ZM16.3167 1.8309C16.3167 2.84228 15.5017 3.6621 14.4967 3.6621C13.4915 3.6621 12.6766 2.84228 12.6766 1.8309C12.6766 0.819817 13.4914 0 14.4967 0C15.5017 0 16.3167 0.819817 16.3167 1.8309Z" fill="#FAFAFA"/>
</svg>
