<svg width="120" height="23" viewBox="0 0 120 23" fill="none" xmlns="http://www.w3.org/2000/svg">
<path fill-rule="evenodd" clip-rule="evenodd" d="M0.293701 11.4591C0.293701 5.5119 5.13083 0.675781 11.0782 0.675781C17.0237 0.675781 21.8606 5.5119 21.8606 11.4591C21.8606 17.4065 17.0237 22.2427 11.0782 22.2427C5.13083 22.2427 0.293701 17.4065 0.293701 11.4591ZM11.7779 20.9495C11.8622 21.025 11.9748 21.0607 12.0871 21.0481C16.932 20.5412 20.72 16.433 20.72 11.4579C20.72 6.13989 16.394 1.81317 11.0771 1.81317C5.75691 1.81317 1.43002 6.13989 1.43002 11.4579C1.43002 16.433 5.22003 20.5412 10.0649 21.0481C10.1772 21.0607 10.2903 21.025 10.3741 20.9495C10.4584 20.8734 10.5067 20.7639 10.5067 20.6507V18.1609C10.5067 17.9821 10.3845 17.8217 10.2101 17.7756L6.67414 16.8287C6.37151 16.7485 6.19108 16.4352 6.27264 16.1321C6.35448 15.8267 6.66507 15.6482 6.9688 15.7281L10.0014 16.5404C10.1228 16.572 10.2519 16.5467 10.3502 16.4712C10.4477 16.3951 10.5067 16.2795 10.5067 16.1551V15.1748C10.5067 14.9935 10.3867 14.8378 10.212 14.7895L5.532 13.4953C5.22855 13.411 5.05169 13.0976 5.136 12.7945C5.21838 12.491 5.53282 12.3123 5.83573 12.3966L9.99977 13.5477C10.1195 13.5815 10.2477 13.5562 10.3491 13.4829C10.4477 13.4068 10.5067 13.2868 10.5067 13.1624V12.201C10.5067 12.0198 10.3845 11.86 10.2101 11.8138L6.67414 10.8686C6.37151 10.7868 6.19108 10.4754 6.27264 10.1703C6.35448 9.86687 6.66507 9.68618 6.9688 9.76829L10.0014 10.5803C10.1228 10.6122 10.2519 10.5866 10.3502 10.5108C10.4477 10.4356 10.5067 10.3178 10.5067 10.1934V9.22319C10.5067 9.04195 10.3837 8.8824 10.2079 8.83572L7.94974 8.23817C7.64656 8.15798 7.46504 7.84658 7.54468 7.54369C7.62569 7.2386 7.93711 7.05763 8.24001 7.13754L10.0036 7.603C10.1239 7.63431 10.2519 7.60877 10.3502 7.53105C10.4488 7.45773 10.5067 7.33965 10.5067 7.21553V4.79541C10.5067 4.47961 10.7616 4.22505 11.0771 4.22505C11.3907 4.22505 11.6453 4.47961 11.6453 4.79541V7.21553C11.6453 7.33965 11.7032 7.45773 11.801 7.53105C11.9001 7.60877 12.0284 7.63431 12.1487 7.603L13.9109 7.13754C14.2152 7.05763 14.5266 7.2386 14.6073 7.54369C14.6875 7.84658 14.5054 8.15798 14.2012 8.23817L11.943 8.83572C11.7675 8.8824 11.6453 9.04195 11.6453 9.22319V10.1934C11.6453 10.3178 11.7032 10.4356 11.801 10.5108C11.9001 10.5866 12.0303 10.6122 12.1495 10.5803L15.1821 9.76829C15.4872 9.68618 15.7975 9.86687 15.8796 10.1703C15.9617 10.4754 15.7797 10.7868 15.4754 10.8686L11.9421 11.8138C11.7667 11.86 11.6453 12.0198 11.6453 12.201V13.1624C11.6453 13.2868 11.7046 13.4068 11.8032 13.4829C11.9031 13.5562 12.0328 13.5815 12.1528 13.5477L16.3163 12.3966C16.6194 12.3145 16.9328 12.491 17.016 12.7945C17.1003 13.0976 16.9223 13.411 16.6194 13.4953L11.9391 14.7895C11.7653 14.8378 11.6453 14.9935 11.6453 15.1748V16.1551C11.6453 16.2795 11.7032 16.3951 11.801 16.4712C11.9001 16.5467 12.0303 16.572 12.1495 16.5404L15.1821 15.7281C15.4872 15.6482 15.7975 15.8267 15.8796 16.1321C15.9617 16.4352 15.7797 16.7485 15.4754 16.8287L11.9421 17.7756C11.7667 17.8217 11.6453 17.9821 11.6453 18.1609V20.6507C11.6453 20.7639 11.6936 20.8734 11.7779 20.9495ZM27.103 20.3462C26.5783 20.3462 26.1731 19.9097 26.1731 19.4002V3.34512C26.1731 2.81129 26.5783 2.39934 27.0789 2.39934C27.6034 2.39934 28.0089 2.81129 28.0089 3.34512V10.2085C29.0102 8.70489 30.4644 7.41968 32.7291 7.41968C35.6855 7.41968 38.618 9.79625 38.618 13.9191V13.9676C38.618 18.0664 35.7091 20.4915 32.7291 20.4915C30.4406 20.4915 28.9625 19.2303 28.0089 17.8238V19.4002C28.0089 19.9097 27.6275 20.3462 27.103 20.3462ZM27.9379 13.9687C27.9379 16.8789 30.1071 18.8195 32.3959 18.8195C34.7801 18.8195 36.735 17.0247 36.735 13.9933V13.9442C36.735 10.9858 34.7324 9.09425 32.3959 9.09425C30.1071 9.09425 27.9379 11.0586 27.9379 13.9202V13.9687ZM42.22 20.3463C41.6955 20.3463 41.29 19.9338 41.29 19.4002V8.51083C41.29 8.00155 41.6955 7.56506 42.1959 7.56506C42.7204 7.56506 43.1259 7.97728 43.1259 8.51083V10.8634C44.0317 8.77775 45.8196 7.51653 47.3692 7.51653C47.9179 7.51653 48.2754 7.92875 48.2754 8.4623C48.2754 8.97159 47.9417 9.33529 47.4649 9.40835C45.0807 9.69953 43.1259 11.518 43.1259 15.1321V19.4002C43.1259 19.9098 42.7445 20.3463 42.22 20.3463ZM54.8068 8.99699C52.6612 8.99699 51.0397 10.8158 50.8017 13.2651H58.7404C58.5498 10.9856 57.2626 8.99699 54.8068 8.99699ZM60.0283 18.0202C60.0283 18.2383 59.9328 18.4567 59.742 18.6265C58.5738 19.7664 57.1911 20.5181 55.0931 20.5181C51.7079 20.5181 48.9421 17.8749 48.9421 13.9947V13.9456C48.9421 10.3324 51.4458 7.42223 54.8549 7.42223C58.5022 7.42223 60.5766 10.4537 60.5766 13.7763C60.5766 14.2853 60.1711 14.649 59.7184 14.649H50.8021C51.0642 17.3653 52.9472 18.8932 55.1406 18.8932C56.6666 18.8932 57.7872 18.2874 58.693 17.4381C58.8361 17.3168 59.0031 17.22 59.2175 17.22C59.6707 17.22 60.0283 17.5837 60.0283 18.0202ZM71.2333 18.3334C70.3749 19.473 68.9445 20.4916 66.7747 20.4916C64.4862 20.4916 62.1735 19.1576 62.1735 16.5872V16.5386C62.1735 13.8949 64.3192 12.4881 67.4426 12.4881C69.0158 12.4881 70.1364 12.7064 71.2333 13.0216V12.5851C71.2333 10.3299 69.874 9.16543 67.5619 9.16543C66.3221 9.16543 65.2728 9.45661 64.3669 9.86884C64.2479 9.91764 64.1287 9.94163 64.0333 9.94163C63.6042 9.94163 63.2228 9.57821 63.2228 9.14144C63.2228 8.75348 63.4849 8.4623 63.7232 8.36524C64.9394 7.83197 66.1787 7.51653 67.7524 7.51653C69.4926 7.51653 70.8275 7.97728 71.7337 8.89879C72.5683 9.74779 72.9973 10.9602 72.9973 12.5611V19.4248C72.9973 19.958 72.616 20.3463 72.1151 20.3463C71.5906 20.3463 71.2333 19.958 71.2333 19.473V18.3334ZM64.0322 16.5152C64.0322 18.0916 65.4626 19.0131 67.1318 19.0131C69.3962 19.0131 71.2559 17.6065 71.2559 15.6182V14.4052C70.3497 14.1386 69.134 13.872 67.6321 13.872C65.3195 13.872 64.0322 14.8903 64.0322 16.4666V16.5152ZM82.008 20.1002C81.4835 20.3183 80.9116 20.4396 80.196 20.4396C78.2173 20.4396 76.7154 19.4453 76.7154 16.8989V9.33184H75.7141C75.285 9.33184 74.9034 8.94388 74.9034 8.50739C74.9034 8.04663 75.285 7.68294 75.7141 7.68294H76.7154V4.72401C76.7154 4.21444 77.0968 3.7785 77.6213 3.7785C78.1222 3.7785 78.5513 4.21444 78.5513 4.72401V7.68294H81.7459C82.1989 7.68294 82.5805 8.07062 82.5805 8.50739C82.5805 8.96815 82.1989 9.33184 81.7459 9.33184H78.5513V16.656C78.5513 18.1841 79.3856 18.7419 80.6254 18.7419C81.0629 18.7419 81.3571 18.6635 81.5457 18.6132C81.6346 18.5895 81.7001 18.5721 81.7459 18.5721C82.175 18.5721 82.5325 18.9358 82.5325 19.3722C82.5325 19.712 82.3178 19.9786 82.008 20.1002ZM85.9207 20.3462C85.3959 20.3462 84.9907 19.9337 84.9907 19.4002V3.34512C84.9907 2.83583 85.3959 2.39934 85.8965 2.39934C86.421 2.39934 86.8265 2.83583 86.8265 3.34512V9.86877C87.6367 8.51077 88.9242 7.41968 91.0463 7.41968C94.0263 7.41968 95.7665 9.45654 95.7665 12.4397V19.4002C95.7665 19.9337 95.3615 20.3462 94.8606 20.3462C94.3361 20.3462 93.9312 19.9337 93.9312 19.4002V12.9008C93.9312 10.5725 92.6914 9.11711 90.5216 9.11711C88.3997 9.11711 86.8265 10.6935 86.8265 13.0461V19.4002C86.8265 19.9337 86.4452 20.3462 85.9207 20.3462ZM104.061 8.99699C101.915 8.99699 100.294 10.8158 100.055 13.2651H107.994C107.804 10.9856 106.516 8.99699 104.061 8.99699ZM109.282 18.0202C109.282 18.2383 109.186 18.4567 108.995 18.6265C107.827 19.7664 106.445 20.5181 104.347 20.5181C100.961 20.5181 98.1955 17.8749 98.1955 13.9947V13.9456C98.1955 10.3324 100.699 7.42223 104.108 7.42223C107.756 7.42223 109.83 10.4537 109.83 13.7763C109.83 14.2853 109.425 14.649 108.972 14.649H100.056C100.318 17.3653 102.201 18.8932 104.394 18.8932C105.92 18.8932 107.041 18.2874 107.947 17.4381C108.09 17.3168 108.257 17.22 108.471 17.22C108.924 17.22 109.282 17.5837 109.282 18.0202ZM113.288 20.3463C112.763 20.3463 112.358 19.9338 112.358 19.4002V8.51083C112.358 8.00155 112.763 7.56506 113.264 7.56506C113.788 7.56506 114.194 7.97728 114.194 8.51083V10.8634C115.1 8.77775 116.888 7.51653 118.437 7.51653C118.986 7.51653 119.343 7.92875 119.343 8.4623C119.343 8.97159 119.009 9.33529 118.532 9.40835C116.149 9.69953 114.194 11.518 114.194 15.1321V19.4002C114.194 19.9098 113.812 20.3463 113.288 20.3463Z" fill="#FAFAFA"/>
</svg>
