<svg width="129" height="26" viewBox="0 0 129 26" fill="none" xmlns="http://www.w3.org/2000/svg">
<path fill-rule="evenodd" clip-rule="evenodd" d="M12.9393 0.0117188C5.95082 0.0117188 0.293457 5.63319 0.293457 12.5774C0.293457 19.5215 5.95082 25.143 12.9393 25.143C19.9278 25.143 25.5852 19.5215 25.5852 12.5774C25.5852 5.63319 19.9278 0.0117188 12.9393 0.0117188ZM12.4877 17.5139L11.5606 20.2301C11.5369 20.3246 11.4893 20.3955 11.4418 20.4663C11.3229 20.6553 11.1803 20.797 10.9901 20.8915C10.8238 20.986 10.6336 21.0332 10.4434 21.0332C10.3246 21.0332 10.182 21.0096 10.0631 20.9623C9.54015 20.7734 9.20737 20.2537 9.27868 19.7341C6.66393 18.4114 4.88115 15.6952 4.88115 12.5774C4.88115 8.13687 8.49425 4.52307 12.9869 4.52307C13.5098 4.52307 14.009 4.57031 14.5082 4.66479C14.7934 4.21601 15.3639 4.00344 15.8869 4.16877C16.1721 4.26325 16.386 4.45221 16.5287 4.68841C16.6475 4.90098 16.7188 5.13718 16.695 5.397C16.695 5.49147 16.6713 5.58595 16.6475 5.65681L15.7205 8.37307L12.4877 17.5139ZM13.5098 20.608L14.627 17.2541C16.5524 16.5691 17.9311 14.7504 17.9311 12.5774C17.9311 11.5617 17.6221 10.5933 17.0754 9.81387L18.1926 6.45988C19.9278 7.9243 21.045 10.1209 21.045 12.5774C21.0213 16.8289 17.7172 20.301 13.5098 20.608ZM66.304 12.53C66.304 15.6477 64.1171 18.0097 61.2409 18.0097C59.6008 18.0097 58.1745 17.3484 57.1999 16.1438L56.8909 15.7895V17.7263C56.8909 17.7499 56.8672 17.7735 56.8434 17.7735H54.3C54.2762 17.7735 54.2524 17.7499 54.2524 17.7263V2.18455C54.2524 2.16094 54.2762 2.13732 54.3 2.13732H57.0098C57.0336 2.13732 57.0573 2.16094 57.0573 2.18455V9.08149L57.3663 8.75081C58.3409 7.61707 59.7196 7.00296 61.2409 7.00296C64.0934 7.00296 66.304 9.43578 66.304 12.53ZM63.7844 12.5063C63.7844 10.6876 62.4532 9.36492 60.6467 9.36492C58.8401 9.36492 57.4614 10.7349 57.4614 12.53C57.4614 14.2778 58.8639 15.6477 60.6467 15.6477C62.4294 15.6477 63.7844 14.3014 63.7844 12.5063ZM73.7211 6.90625C70.2506 6.90625 67.6121 9.33907 67.6121 12.5513C67.6121 15.7636 70.2268 18.1964 73.7211 18.1964C77.2153 18.1964 79.8538 15.7636 79.8538 12.5513C79.8538 9.31545 77.2153 6.90625 73.7211 6.90625ZM73.7211 15.8581C71.9145 15.8581 70.5358 14.4409 70.5358 12.5513C70.5358 10.6854 71.9383 9.24459 73.7211 9.24459C75.5276 9.24459 76.9301 10.709 76.9301 12.5513C76.9301 14.3937 75.5038 15.8581 73.7211 15.8581ZM128.013 16.5194C126.658 17.5823 124.804 18.1964 122.973 18.1964C119.123 18.1964 116.65 15.9762 116.627 12.5513C116.627 10.9924 117.197 9.55165 118.219 8.53601C119.289 7.47312 120.81 6.90625 122.522 6.90625H122.593C125.731 6.92987 128.298 9.52803 128.298 12.6931V13.2836H119.622L119.646 13.4725C119.931 15.1495 121.096 16.047 123.021 16.047C124.305 16.047 125.517 15.6455 126.634 14.8661C126.634 14.8424 126.658 14.8424 126.682 14.8661L128.013 16.4722C128.037 16.4722 128.037 16.4958 128.013 16.5194ZM122.522 9.10288C121.214 9.10288 120.264 9.78785 119.859 11.0397C119.812 11.1578 119.836 11.2759 119.931 11.3704C120.002 11.4648 120.121 11.5357 120.24 11.5357H124.828C124.946 11.5357 125.065 11.4648 125.137 11.3704C125.208 11.2759 125.232 11.1578 125.184 11.0397C124.756 9.78785 123.829 9.10288 122.522 9.10288ZM111.587 18.2427C108.093 18.2427 105.478 15.8098 105.478 12.5976C105.478 9.3853 108.093 6.95248 111.563 6.95248C113.299 6.95248 114.891 7.56659 116.032 8.65309L114.416 10.4482C113.75 9.64512 112.8 9.19634 111.777 9.19634C111.183 9.19634 110.613 9.33806 110.113 9.6215C109.543 9.92855 109.068 10.3773 108.759 10.9914C108.747 11.0151 108.735 11.0446 108.723 11.0741C108.711 11.1037 108.699 11.1332 108.687 11.1568C108.521 11.5111 108.426 11.9126 108.378 12.2905V12.3378V12.385V12.5976V12.6684V12.881C108.378 12.9046 108.384 12.9342 108.39 12.9637C108.396 12.9932 108.402 13.0227 108.402 13.0463L108.426 13.1644C108.426 13.2205 108.441 13.2766 108.459 13.3444L108.466 13.3713L108.473 13.4006C108.521 13.5896 108.568 13.7549 108.64 13.9203C108.925 14.6289 109.472 15.2194 110.137 15.55L110.185 15.5736L110.209 15.5973C110.232 15.6209 110.256 15.6445 110.28 15.6445C110.755 15.8807 111.254 15.9988 111.777 15.9988C112.8 15.9988 113.774 15.5264 114.392 14.747L116.009 16.4948V16.5657C114.868 17.6522 113.299 18.2427 111.587 18.2427ZM103.861 17.7272V12.2238C103.766 9.72011 103.077 7.40539 98.8693 7.40539C97.9898 7.40539 97.2054 7.52349 96.5398 7.7833L96.3021 7.87778V7.45263C96.3021 7.42901 96.2784 7.42901 96.2784 7.42901H93.9251C93.9013 7.42901 93.9013 7.45263 93.9013 7.45263V17.7272C93.9013 17.7508 93.9251 17.7744 93.9488 17.7744H96.6587C96.6824 17.7744 96.7062 17.7508 96.7062 17.7272V11.9404C96.7062 11.6097 96.7538 11.3026 96.8251 11.0192C97.1341 10.2161 97.9661 9.64925 98.8931 9.62564C99.7964 9.62564 100.652 10.1925 100.961 10.9956C101.056 11.279 101.08 11.5861 101.08 11.9167V17.7036C101.08 17.7272 101.104 17.7508 101.128 17.7508H103.837C103.837 17.7744 103.861 17.7508 103.861 17.7272ZM81.5878 12.9796V7.45263C81.5878 7.42901 81.6116 7.40539 81.6353 7.40539H84.3452C84.3689 7.40539 84.3927 7.42901 84.3927 7.45263V13.2631C84.3927 13.5937 84.4165 13.9008 84.5116 14.1842C84.8206 14.9873 85.6763 15.5542 86.5796 15.5542C87.5066 15.5305 88.3386 14.9637 88.6476 14.1606C88.7189 13.8772 88.7665 13.5701 88.7665 13.2394V7.45263C88.7665 7.42901 88.7902 7.40539 88.814 7.40539H91.5238C91.5476 7.40539 91.5714 7.42901 91.5714 7.45263V12.8615C91.4763 14.9637 90.8583 17.798 86.5796 17.798C82.3722 17.798 81.6829 15.4833 81.5878 12.9796ZM52.0665 17.7744C52.0902 17.7744 52.114 17.7508 52.114 17.7272V12.2238C52.0189 9.72011 51.3296 7.40539 47.1222 7.40539C46.2427 7.40539 45.4583 7.52349 44.7927 7.7833L44.555 7.87778V7.45263C44.555 7.42901 44.5312 7.42901 44.5075 7.42901H42.1542C42.1304 7.42901 42.1304 7.45263 42.1304 7.45263V17.7272C42.1304 17.7508 42.1542 17.7744 42.178 17.7744H44.8878C44.9116 17.7744 44.9353 17.7508 44.9353 17.7272V11.9404C44.9353 11.6097 44.9829 11.3026 45.0542 11.0192C45.3632 10.2161 46.1952 9.64925 47.1222 9.62564C48.0255 9.62564 48.8812 10.1925 49.1903 10.9956C49.2853 11.279 49.3091 11.5861 49.3091 11.9167V17.7036C49.3091 17.7272 49.3329 17.7508 49.3566 17.7508H52.0665V17.7744ZM30.0061 12.9796V7.45263C30.0061 7.42901 30.0061 7.40539 30.0537 7.40539H32.7635C32.7873 7.40539 32.811 7.42901 32.811 7.45263V13.2631C32.811 13.5937 32.8348 13.9008 32.9299 14.1842C33.2389 14.9873 34.0946 15.5542 34.9979 15.5542C35.925 15.5305 36.7569 14.9637 37.0659 14.1606C37.1372 13.8772 37.1848 13.5701 37.1848 13.2394V7.45263C37.1848 7.42901 37.2086 7.40539 37.2323 7.40539H39.9422C39.9659 7.40539 39.9897 7.42901 39.9897 7.45263V12.8615C39.8946 14.9637 39.2766 17.798 34.9979 17.798C30.7905 17.798 30.1012 15.4833 30.0061 12.9796ZM10.2537 16.7573C8.87502 15.8598 7.94797 14.3245 7.94797 12.5766C7.94797 9.83677 10.1824 7.61652 12.9398 7.61652C13.0824 7.61652 13.2488 7.61652 13.3914 7.64014L10.2537 16.7573Z" fill="#FAFAFA"/>
</svg>
