<svg id="logo-ubisoft" width="96" height="31" viewBox="0 0 96 31" fill="none" xmlns="http://www.w3.org/2000/svg">
<path fill-rule="evenodd" clip-rule="evenodd" d="M26.2512 25.2525C24.9196 26.917 23.3027 28.201 21.4004 29.1522C19.9738 29.8655 18.4519 30.3411 16.835 30.5313C16.1217 30.6264 15.4083 30.674 14.7425 30.674C12.6025 30.674 10.51 30.246 8.51262 29.2948C6.99081 28.5815 5.65923 27.6779 4.47032 26.489C2.33027 24.3965 0.951131 21.9236 0.285339 19.0226C0.14267 18.3093 0.0475565 17.5484 0 16.7875V16.6923V15.1705V15.0754C0.0475565 14.7425 0.0475565 14.4572 0.0475565 14.1719C0.237783 12.6976 0.618235 11.3185 1.18891 9.93932L1.47425 9.36864C1.28403 9.22597 1.08191 9.0833 0.879796 8.94063C0.677681 8.79796 0.475565 8.65529 0.285339 8.51262V8.46507C1.14136 6.84814 2.1876 5.42145 3.51918 4.18498C6.13479 1.71204 9.17841 0.332896 12.7452 0.0475565L13.1732 0H14.7425L15.1705 0.0475565C18.5946 0.332896 21.6382 1.56937 24.2538 3.80452C26.7268 5.94457 28.3437 8.56018 29.1046 11.7465C29.3899 12.8878 29.5326 14.1243 29.5802 15.3132C29.6277 16.5972 29.5326 17.8337 29.2473 19.0702C28.7242 21.3529 27.7255 23.4454 26.2512 25.2525ZM3.6143 20.1164C3.51918 19.4506 3.56674 18.7373 3.66185 18.0239C3.80452 16.7875 4.23253 15.5985 4.85077 14.5047C6.42013 11.7465 9.22597 10.2247 12.1745 10.2247C12.7927 10.2247 13.3634 10.2722 13.9816 10.4149C15.8839 10.7953 17.4533 11.7465 18.8324 13.0781L19.8311 14.2194L19.9738 14.267L20.2591 14.1243V14.0767C20.0213 13.2207 19.6409 12.4123 19.1177 11.6989C17.4533 9.32108 14.5999 7.94194 11.7465 7.94194C11.366 7.94194 10.938 7.9895 10.5576 8.03706C8.41751 8.36995 6.61036 9.27353 5.08855 10.8429C2.94851 13.0305 1.99738 16.5021 2.94851 19.5933C3.04362 19.8786 3.13873 20.1164 3.23385 20.3542L3.51918 20.2591L3.6143 20.1164ZM17.263 21.1627C17.4533 21.02 17.5959 20.8298 17.7386 20.6395C17.5117 20.4694 17.2848 20.3161 17.068 20.1697L17.0677 20.1695L17.0677 20.1695L17.0676 20.1694L17.0675 20.1694L17.0675 20.1693C16.9209 20.0704 16.779 19.9745 16.6448 19.8786L16.6923 19.7835C17.3106 19.0226 17.5959 18.1666 17.5008 17.1679C17.3106 15.5034 15.8839 14.3145 14.267 14.3145C14.0767 14.3145 13.8865 14.3145 13.6963 14.3621C11.4611 14.7901 9.98688 16.9301 10.4624 19.1653C10.8429 20.9724 12.5074 22.3516 14.3621 22.3516C15.5034 22.3516 16.4546 21.9711 17.263 21.1627ZM11.4136 27.345C12.65 27.8681 13.9341 28.1059 15.2181 28.1059C15.6461 28.1059 16.0266 28.0584 16.3595 28.0108C17.7386 27.8681 19.0702 27.4877 20.3066 26.8694C22.9223 25.5854 24.777 23.588 25.9659 20.9724C27.0597 18.4995 27.345 15.9314 26.8694 13.2683C26.3463 10.5576 25.1099 8.17973 23.0649 6.27746C20.592 3.89964 17.5484 2.71072 14.1243 2.61561H13.7914C12.7927 2.61561 11.8416 2.75828 10.8904 2.99606C8.22728 3.66185 6.03968 5.04099 4.3752 7.18104C4.28009 7.32371 4.18498 7.45449 4.08987 7.58527L4.08986 7.58527C3.99475 7.71605 3.89964 7.84683 3.80452 7.9895L4.04231 8.22728C4.85077 7.6566 5.65923 7.18104 6.51525 6.75303C8.22728 5.94457 9.98687 5.51656 11.794 5.51656C12.4123 5.51656 13.0781 5.56412 13.6963 5.65923C16.0741 6.03968 18.1666 7.08593 19.8311 8.79796C22.1614 11.2233 23.2552 14.1243 22.7796 17.5008C22.6369 18.8324 22.2089 20.0213 21.5431 21.1627C20.0213 23.6832 17.4533 25.1099 14.695 25.1099C14.2194 25.1099 13.6963 25.0623 13.1732 24.9672C11.8416 24.6818 10.6051 24.1112 9.65398 23.1125C8.27484 21.6382 7.6566 19.8786 7.84683 17.8813C7.9895 16.407 8.56018 15.0279 9.55887 13.8865V13.839L9.32108 13.5536C8.3224 14.1243 7.32371 15.2181 6.80059 16.3119C5.99213 17.9764 5.84946 19.736 6.32502 21.5431C7.08593 24.3014 8.79796 26.2037 11.4136 27.345ZM89.4459 21.0312H91.9308V12.0119H95.106V9.66505H94.968H86.3628H86.2247V12.0119H89.4459V21.0312ZM70.5963 21.2305C69.5379 21.2305 68.4795 20.9544 67.5132 20.3561C65.9026 19.3898 65.0743 17.9172 64.9362 16.0766C64.8442 14.8801 65.0743 13.7297 65.7185 12.6713C65.9946 12.2111 66.3627 11.797 66.7769 11.4288L66.3627 11.0607C66.5468 10.9227 66.6849 10.7846 66.8229 10.6466C67.5592 10.0943 68.4335 9.72621 69.3538 9.58816C69.768 9.49612 70.2282 9.45011 70.6423 9.45011C71.2866 9.45011 71.9308 9.54214 72.529 9.77223C74.5078 10.4625 75.7042 11.843 76.2104 13.8217C76.5785 15.2483 76.4405 16.6748 75.7962 18.0553C75.06 19.6199 73.8175 20.6322 72.1149 21.0464C71.6547 21.1845 71.1485 21.2305 70.5963 21.2305ZM70.6883 11.797C70.1822 11.797 69.676 11.889 69.1698 12.1191C68.8016 12.2571 68.4795 12.4872 68.2034 12.8094L68.5716 13.1315C68.4741 13.2678 68.3685 13.3877 68.2651 13.5051C68.1242 13.6649 67.9874 13.8201 67.8813 14.0058C67.4671 14.65 67.3751 15.3403 67.4671 16.0766C67.5592 16.8589 67.8813 17.5491 68.4795 18.1013C69.1238 18.6535 69.86 18.8836 70.6883 18.8836H70.8724C72.2069 18.8376 73.3113 18.0553 73.7255 16.7668C74.0476 15.8465 74.0476 14.8801 73.7715 13.9598C73.4494 12.9474 72.7591 12.2571 71.7007 11.935C71.3786 11.843 71.0105 11.797 70.6883 11.797ZM44.0762 21.0352H46.1929H47.7575C48.1717 21.0352 48.5858 20.9891 49 20.8971C49.7363 20.7591 50.3805 20.4369 50.9327 19.8847C51.5769 19.2405 51.807 18.4582 51.807 17.5839C51.807 16.5255 51.3929 15.7432 50.4725 15.191C50.3575 15.145 50.2539 15.0875 50.1504 15.0299C50.0469 14.9724 49.9433 14.9149 49.8283 14.8689L49.9663 14.7768C50.4725 14.5468 50.8867 14.1326 51.0707 13.5804C51.1515 13.3383 51.1968 13.0608 51.2377 12.81L51.2548 12.7061C51.3468 11.6477 50.9787 10.8194 50.0584 10.2672C49.3681 9.807 48.5398 9.66895 47.7115 9.66895H46.239H44.0301H43.8921V21.0352H44.0762ZM46.377 18.8263C46.377 17.906 46.377 16.9857 46.423 16.0193C46.5611 16.0193 46.6531 16.0193 46.7912 15.9733H46.9292H47.1133C47.4814 15.9733 47.8035 15.9733 48.1717 16.0193C48.7239 16.0653 49.138 16.3414 49.3221 16.8936C49.4602 17.4458 49.4602 17.998 49 18.4582C48.7699 18.6883 48.4018 18.8263 48.0796 18.8263H47.3894H46.377ZM46.423 14.2246V11.8318H46.5611H46.9292H47.2513C47.4814 11.8318 47.7575 11.8318 47.9876 11.8778C48.6318 11.9698 49 12.43 49 13.1202C49 13.7185 48.5858 14.1786 47.9416 14.2246H47.3434H46.423ZM37.9934 21.1523C37.4412 21.1523 36.889 21.0603 36.3368 20.8762C34.7722 20.4161 33.8519 19.3117 33.4377 17.7471C33.3457 17.2869 33.2997 16.8267 33.2997 16.3666V9.74012V9.55605H35.7846V9.74012V16.2285C35.7846 16.5967 35.8306 16.9648 35.9227 17.2869C36.1988 18.2073 36.843 18.7134 37.8094 18.7595H37.9934C38.5456 18.7595 39.0518 18.6214 39.466 18.2533C39.8341 17.9312 40.0182 17.471 40.1102 16.9648C40.1562 16.6887 40.2022 16.3666 40.2022 16.0905V9.74012V9.55605H42.6872V9.6941V16.4126C42.6872 17.2409 42.5491 18.0232 42.181 18.7595C41.6748 19.7718 40.8925 20.4621 39.7881 20.8302C39.1899 21.0603 38.5916 21.1523 37.9934 21.1523ZM57.7632 20.5784C58.5455 21.0386 59.3738 21.2227 60.2021 21.2227C60.488 21.2227 60.8101 21.1864 61.1685 21.1461L61.3065 21.1306C62.1348 20.9926 62.8711 20.5784 63.4233 19.9342C64.0675 19.1979 64.2976 18.2776 64.2516 17.3112C64.2056 16.3909 63.8374 15.7006 63.1012 15.1484C62.733 14.8723 62.3189 14.6882 61.9047 14.5042C61.6286 14.3891 61.341 14.2741 61.0534 14.159C60.7658 14.044 60.4782 13.929 60.2021 13.8139C59.834 13.6759 59.5118 13.4918 59.2357 13.2157C59.0056 12.9856 58.9136 12.7555 58.9596 12.4334C59.0517 12.0193 59.3278 11.7431 59.6959 11.6511C59.88 11.6051 60.064 11.5591 60.2941 11.5591C60.8923 11.5591 61.5366 11.8352 61.9507 12.5715L62.1348 12.8936C62.8247 12.4337 63.4685 11.9738 64.1124 11.5139L64.113 11.5135L64.1135 11.5131L64.1135 11.5131C63.8374 10.8688 63.3773 10.4087 62.8251 10.0405C62.1808 9.62636 61.4446 9.48831 60.6623 9.4423H60.3862C59.6499 9.4423 58.9136 9.58035 58.2694 9.94848C56.5667 10.9609 56.3827 12.8476 57.0269 14.09C57.349 14.6882 57.8552 15.1024 58.4074 15.4245C58.8568 15.7241 59.3367 15.9018 59.8222 16.0816C59.9333 16.1227 60.0447 16.164 60.1561 16.2068C60.5702 16.3449 60.9844 16.5289 61.3525 16.805C61.9047 17.2652 61.9507 18.0935 61.4446 18.5537C61.2145 18.7838 60.8923 18.8758 60.5242 18.8758H60.4782C59.5579 18.8758 58.8676 18.4616 58.4074 17.6793L58.1773 17.2652H58.1313C57.5331 17.7254 56.9349 18.1855 56.2906 18.6457L56.2446 18.8298C56.5667 19.566 57.0729 20.1643 57.7632 20.5784ZM79.9832 21.0312H77.4983V9.66505H85.2752V12.0119H79.9832V14.6349H84.815V16.5216H79.9832V21.0312ZM52.8347 21.0312H55.2736V9.66505H52.8347V21.0312Z" fill="#FAFAFA"/>
</svg>
