<svg id="logo-yellowpages" width="82" height="26" viewBox="0 0 82 26" fill="none" xmlns="http://www.w3.org/2000/svg">
<path fill-rule="evenodd" clip-rule="evenodd" d="M18.3808 24.7354C13.0354 27.2025 3.47529 20.3151 0.905367 14.9697C-1.66456 9.62425 1.52215 4.38161 6.86759 1.81169C8.61514 0.989313 10.4655 0.578125 12.3158 0.578125C15.8109 0.578125 19.1004 2.22288 20.7452 5.82077C23.3151 11.0634 23.7263 22.1655 18.3808 24.7354ZM9.74635 6.12903H6.35406L7.69042 8.18497C8.40999 9.31573 8.3072 10.7549 7.58762 11.8857L6.45685 13.4276L6.55965 13.5304C7.07363 14.0444 7.89601 14.0444 8.41 13.5304L9.64356 12.3996C9.68282 12.3604 9.70709 12.3211 9.72782 12.2876C9.76135 12.2333 9.78562 12.194 9.84915 12.194C10.7743 11.5773 12.0079 11.7829 12.6247 12.708L16.9421 18.8758C16.9421 18.9786 17.0449 19.0814 17.0449 19.0814C17.5589 19.5954 18.3813 19.5954 18.8953 19.0814L13.8582 8.39056C12.8303 6.33462 10.8771 6.12903 9.74635 6.12903ZM8.1016 18.3619C8.1016 17.9507 8.1016 17.6423 8.3072 17.3339L10.5687 12.708C10.5687 12.708 11.4939 12.3996 12.2135 13.4276C12.3163 13.6332 12.3163 13.9416 12.2135 14.25L9.02678 19.6982C9.02678 19.6982 8.1016 19.0814 8.1016 18.3619ZM69.6775 12.6066C69.1636 14.9709 67.2104 16.924 64.1265 16.924C60.6314 16.924 58.2671 14.3541 58.2671 10.6534C58.2671 7.05553 60.7342 4.38281 64.2293 4.38281C67.1076 4.38281 69.0608 5.92477 69.7803 8.49469L67.2104 9.00867C66.6964 7.46672 65.6685 6.74714 64.3321 6.74714C62.6874 6.74714 61.1454 7.9807 61.1454 10.6534C61.1454 13.3261 62.6874 14.5597 64.3321 14.5597C65.7713 14.5597 66.902 13.5317 67.3132 12.0926L69.6775 12.6066ZM57.7525 15.6867C57.7525 16.4063 57.2385 16.9203 56.519 16.9203C55.7994 16.9203 55.2854 16.4063 55.2854 15.6867C55.2854 14.9671 55.7994 14.4531 56.519 14.4531C57.2385 14.4531 57.7525 15.0699 57.7525 15.6867ZM74.3035 17.0238C75.9482 17.0238 77.4902 16.3042 78.4154 14.9679V16.8182H81.2937C81.1909 16.407 81.1909 15.5846 81.1909 15.1735V9.00564C81.1909 6.33292 79.4433 4.58538 76.1538 4.58538C73.5839 4.58538 71.528 5.81894 70.7056 7.97767L73.1727 8.69725C73.6867 7.46369 74.6119 6.74411 76.051 6.74411C77.593 6.74411 78.4154 7.56649 78.4154 9.10844V9.31403L74.9203 10.1364C71.9392 10.7532 70.6028 11.884 70.6028 13.8371C70.6028 15.7902 72.1447 17.0238 74.3035 17.0238ZM78.3126 12.8091C77.9014 14.1455 76.3594 14.9679 75.1259 14.9679C73.9951 14.9679 73.2755 14.3511 73.2755 13.5287C73.2755 12.7063 73.8923 12.1923 75.2287 11.884L78.3126 11.1644V12.8091ZM50.9673 6.74592C49.3226 6.74592 47.575 8.49347 47.2666 9.21305C46.9582 9.93263 45.6219 14.7641 45.6219 14.7641C45.8422 14.7641 46.0626 14.7936 46.2671 14.821C46.4443 14.8447 46.6095 14.8669 46.7527 14.8669C47.1638 14.9697 47.575 14.9697 47.9862 14.9697C50.7617 14.9697 52.4065 11.8858 52.4065 9.62424C52.5093 8.08229 52.3037 6.74592 50.9673 6.74592ZM32.9779 22.6794C34.8282 22.6794 35.6506 20.3151 36.3702 18.0536C36.3702 17.9508 36.3959 17.8737 36.4216 17.7966C36.4473 17.7195 36.473 17.6424 36.473 17.5396L36.5758 17.1284C35.3422 17.4368 34.3142 17.7452 33.4918 18.1564C30.0996 19.8011 31.3331 22.6794 32.9779 22.6794ZM39.5569 24.2214C39.5569 24.1186 41.9212 16.4088 41.9212 16.4088C41.0988 16.4088 40.1736 16.4088 39.6597 16.6144C38.2205 22.885 36.5758 24.941 32.4639 24.941C30.9219 24.941 28.7632 24.3242 28.7632 21.8571C28.7632 19.3899 30.4079 17.0256 37.0897 15.1753C37.1925 14.8669 37.2953 14.5585 37.3981 14.1473L37.6037 13.5305C36.3702 14.4557 34.931 14.9697 33.3891 14.9697C32.2583 14.9697 30.6135 14.0445 30.6135 12.297C30.6135 12.0914 30.6135 11.8858 30.7163 11.5774C31.2303 9.31585 31.8471 7.05432 32.6695 4.89558C32.8751 4.3816 33.2863 4.48439 33.2863 4.48439H35.3422C35.3422 4.48439 35.8562 4.48439 35.6506 4.89558C35.5694 5.1087 35.4872 5.32281 35.4047 5.53773L35.4046 5.53809L35.4044 5.53864C34.6513 7.50046 33.8725 9.52926 33.5946 11.4746C33.4918 11.9886 33.6974 12.3998 33.903 12.7081C34.7254 13.5305 36.473 12.5026 37.5009 11.3718C38.4261 10.241 38.9401 8.69907 39.3513 7.25991C39.5569 6.74592 39.7625 5.61516 39.8653 4.99838C39.9681 4.58719 40.482 4.58719 40.482 4.58719H42.8464C43.2576 4.58719 43.1548 4.89558 43.1548 4.89558L40.1736 14.6613C40.8932 14.5585 41.6128 14.4557 42.3324 14.4557H42.538L45.5191 4.89558C45.5191 4.68999 45.8275 4.48439 46.0331 4.58719H48.3974C48.603 4.58719 48.8086 4.68999 48.7058 4.99838C48.5002 5.40956 48.3974 6.02635 48.3974 6.02635C49.5282 5.10117 50.7617 4.79278 51.4813 4.79278C54.9764 4.79278 55.7988 7.5683 55.7988 9.62424C55.7988 12.9137 52.7149 17.1284 48.9114 17.1284C48.2728 17.1284 47.7151 17.0474 47.0947 16.9574L47.0946 16.9574L46.9641 16.9384L46.8554 16.9228C46.3415 16.82 45.7247 16.7172 45.1079 16.7172C44.9363 17.2321 44.7965 17.7789 44.6531 18.3397L44.653 18.3399L44.653 18.34L44.653 18.3401L44.653 18.3402L44.6529 18.3402C44.5387 18.787 44.4222 19.2427 44.2855 19.6983C44.2855 19.9039 44.1827 20.1095 44.0799 20.3151C43.9121 20.9866 43.5919 22.115 43.335 23.0204C43.1199 23.7784 42.9492 24.3802 42.9492 24.427C42.9492 24.6326 42.7436 24.7354 42.6408 24.7354H39.7625C39.6597 24.5298 39.5569 24.3242 39.5569 24.2214ZM46.1365 22.9883H45.0057H44.9029V23.0911H45.4169V24.4274H45.6225V23.0911H46.1365V22.9883ZM47.4712 22.9883H47.7796V24.4274H47.574V23.0911L47.4712 23.3995L47.06 24.5302H46.9572L46.546 23.3995L46.4432 23.1939V24.5302H46.3404V23.0911H46.6488L46.9572 24.119L47.06 24.3246L47.1628 24.119L47.4712 22.9883Z" fill="#FAFAFA"/>
</svg>
